<svg xmlns="http://www.w3.org/2000/svg" xmlns:xlink="http://www.w3.org/1999/xlink" viewBox="0 0 500 500"><defs><style>.cls-1,.cls-303{fill:none;}.cls-2{isolation:isolate;}.cls-3{fill:#34b7bf;}.cls-4{clip-path:url(#clip-path);}.cls-5{fill:#f7394c;}.cls-6{fill:#e02d47;}.cls-7{fill:#ff5c74;}.cls-8{fill:#f7b92a;}.cls-9{fill:#ffe189;}.cls-10{clip-path:url(#clip-path-2);}.cls-11{fill:#db7a14;}.cls-12{fill:#db7b17;}.cls-13{fill:#db7b19;}.cls-14{fill:#db7c1c;}.cls-15{fill:#db7d1e;}.cls-16{fill:#db7e21;}.cls-17{fill:#db7e23;}.cls-18{fill:#db7f25;}.cls-19{fill:#db7f28;}.cls-20{fill:#db802a;}.cls-21{fill:#db812c;}.cls-22{fill:#db812e;}.cls-23{fill:#db8230;}.cls-24{fill:#db8232;}.cls-25{fill:#db8334;}.cls-26{fill:#db8436;}.cls-27{fill:#db8438;}.cls-28{fill:#db853a;}.cls-29{fill:#db853c;}.cls-30{fill:#db863e;}.cls-31{fill:#db863f;}.cls-32{fill:#db8641;}.cls-33{fill:#db8743;}.cls-34{fill:#db8744;}.cls-35{fill:#db8846;}.cls-36{fill:#db8847;}.cls-37{fill:#db8949;}.cls-38{fill:#db894a;}.cls-39{fill:#db894b;}.cls-40{fill:#db8a4d;}.cls-41{fill:#db8a4e;}.cls-42{fill:#db8a4f;}.cls-43{fill:#db8b51;}.cls-44{fill:#db8b52;}.cls-45{fill:#db8b53;}.cls-46{fill:#db8c54;}.cls-47{fill:#db8c55;}.cls-48{fill:#db8c56;}.cls-49{fill:#db8d57;}.cls-50{fill:#db8d58;}.cls-51{fill:#db8d59;}.cls-52{fill:#db8d5a;}.cls-53{fill:#db8e5b;}.cls-54{fill:#db8e5c;}.cls-55{fill:#db8e5d;}.cls-56{fill:#db8e5e;}.cls-57{fill:#db8f5e;}.cls-58{fill:#db8f5f;}.cls-59{fill:#db8f60;}.cls-60{fill:#db8f61;}.cls-61{fill:#db9062;}.cls-62{fill:#db9063;}.cls-63{fill:#db9064;}.cls-64{fill:#db9065;}.cls-65{fill:#db9165;}.cls-66{fill:#db9166;}.cls-67{fill:#db9167;}.cls-68{opacity:0.8;}.cls-69{fill:#af5e15;}.cls-70{fill:#c7c4c4;}.cls-297,.cls-71{opacity:0.7;}.cls-71{mix-blend-mode:screen;}.cls-72{clip-path:url(#clip-path-3);}.cls-73{fill:#231f20;}.cls-74{fill:#242021;}.cls-75{fill:#252122;}.cls-76{fill:#262223;}.cls-77{fill:#272324;}.cls-78{fill:#282425;}.cls-79{fill:#292526;}.cls-80{fill:#2a2627;}.cls-81{fill:#2b2728;}.cls-82{fill:#2c2829;}.cls-83{fill:#2d292a;}.cls-84{fill:#2e2a2b;}.cls-85{fill:#2f2b2c;}.cls-86{fill:#302c2d;}.cls-87{fill:#312d2e;}.cls-88{fill:#322e2f;}.cls-89{fill:#332f30;}.cls-90{fill:#343031;}.cls-91{fill:#353132;}.cls-92{fill:#363233;}.cls-93{fill:#373334;}.cls-94{fill:#383435;}.cls-95{fill:#393536;}.cls-96{fill:#3a3637;}.cls-97{fill:#3b3738;}.cls-98{fill:#3c3839;}.cls-99{fill:#3d393a;}.cls-100{fill:#3e3a3b;}.cls-101{fill:#3f3b3c;}.cls-102{fill:#403c3d;}.cls-103{fill:#413d3e;}.cls-104{fill:#423e3f;}.cls-105{fill:#433f40;}.cls-106{fill:#444041;}.cls-107{fill:#454142;}.cls-108{fill:#464243;}.cls-109{fill:#474344;}.cls-110{fill:#484445;}.cls-111{fill:#484546;}.cls-112{fill:#494647;}.cls-113{fill:#4a4748;}.cls-114{fill:#4b4849;}.cls-115{fill:#4c494a;}.cls-116{fill:#4d4a4b;}.cls-117{fill:#4e4b4c;}.cls-118{fill:#4f4c4d;}.cls-119{fill:#504d4e;}.cls-120{fill:#514e4f;}.cls-121{fill:#524f50;}.cls-122{fill:#535051;}.cls-123{fill:#545152;}.cls-124{fill:#555253;}.cls-125{fill:#565354;}.cls-126{fill:#575455;}.cls-127{fill:#585556;}.cls-128{fill:#595657;}.cls-129{fill:#5a5758;}.cls-130{fill:#5b5859;}.cls-131{fill:#5c595a;}.cls-132{fill:#5d5a5b;}.cls-133{fill:#5e5b5c;}.cls-134{fill:#5f5c5d;}.cls-135{fill:#605d5e;}.cls-136{fill:#615e5f;}.cls-137{fill:#625f60;}.cls-138{fill:#636061;}.cls-139{fill:#646162;}.cls-140{fill:#656263;}.cls-141{fill:#666364;}.cls-142{fill:#676465;}.cls-143{fill:#686566;}.cls-144{fill:#696667;}.cls-145{fill:#6a6768;}.cls-146{fill:#6b6869;}.cls-147{fill:#6c696a;}.cls-148{fill:#6d6a6b;}.cls-149{fill:#6e6b6c;}.cls-150{fill:#6f6c6d;}.cls-151{fill:#706d6e;}.cls-152{fill:#716e6f;}.cls-153{fill:#726f70;}.cls-154{fill:#737071;}.cls-155{fill:#747172;}.cls-156{fill:#757273;}.cls-157{fill:#767374;}.cls-158{fill:#777475;}.cls-159{fill:#787576;}.cls-160{fill:#797677;}.cls-161{fill:#7a7778;}.cls-162{fill:#7b7879;}.cls-163{fill:#7c797a;}.cls-164{fill:#7d7a7b;}.cls-165{fill:#7e7b7c;}.cls-166{fill:#7f7c7d;}.cls-167{fill:#807d7e;}.cls-168{fill:#817e7f;}.cls-169{fill:#827f80;}.cls-170{fill:#838081;}.cls-171{fill:#848182;}.cls-172{fill:#858283;}.cls-173{fill:#868384;}.cls-174{fill:#878485;}.cls-175{fill:#888586;}.cls-176{fill:#898687;}.cls-177{fill:#8a8788;}.cls-178{fill:#8b8889;}.cls-179{fill:#8c898a;}.cls-180{fill:#8d8a8b;}.cls-181{fill:#8e8b8c;}.cls-182{fill:#8f8c8d;}.cls-183{fill:#908d8e;}.cls-184{fill:#918e8f;}.cls-185{fill:#919090;}.cls-186{fill:#929191;}.cls-187{fill:#939292;}.cls-188{fill:#949393;}.cls-189{fill:#959494;}.cls-190{fill:#969595;}.cls-191{fill:#979696;}.cls-192{fill:#989797;}.cls-193{fill:#999898;}.cls-194{fill:#9a9999;}.cls-195{fill:#9b9a9a;}.cls-196{fill:#9c9b9b;}.cls-197{fill:#9d9c9c;}.cls-198{fill:#9e9d9d;}.cls-199{fill:#9f9e9e;}.cls-200{fill:#a09f9f;}.cls-201{fill:#a1a0a0;}.cls-202{fill:#a2a1a1;}.cls-203{fill:#a3a2a2;}.cls-204{fill:#a4a3a3;}.cls-205{fill:#a5a4a4;}.cls-206{fill:#a6a5a5;}.cls-207{fill:#a7a6a6;}.cls-208{fill:#a8a7a7;}.cls-209{fill:#a9a8a8;}.cls-210{fill:#aaa9a9;}.cls-211{fill:#abaaaa;}.cls-212{fill:#acabab;}.cls-213{fill:#adacac;}.cls-214{fill:#aeadad;}.cls-215{fill:#afaeae;}.cls-216{fill:#b0afaf;}.cls-217{fill:#b1b0b0;}.cls-218{fill:#b2b1b1;}.cls-219{fill:#b3b2b2;}.cls-220{fill:#b4b3b3;}.cls-221{fill:#b5b4b4;}.cls-222{fill:#b6b5b5;}.cls-223{fill:#b7b6b6;}.cls-224{fill:#b8b7b7;}.cls-225{fill:#b9b8b8;}.cls-226{fill:#bab9b9;}.cls-227{fill:#bbbaba;}.cls-228{fill:#bcbbbb;}.cls-229{fill:#bdbcbc;}.cls-230{fill:#bebdbd;}.cls-231{fill:#bfbebe;}.cls-232{fill:#c0bfbf;}.cls-233{fill:#c1c0c0;}.cls-234{fill:#c2c1c1;}.cls-235{fill:#c3c2c2;}.cls-236{fill:#c4c3c3;}.cls-237{fill:#c5c4c4;}.cls-238{fill:#c6c5c5;}.cls-239{fill:#c7c6c6;}.cls-240{fill:#c8c7c7;}.cls-241{fill:#c9c8c8;}.cls-242{fill:#cac9c9;}.cls-243{fill:#cbcaca;}.cls-244{fill:#cccbcb;}.cls-245{fill:#cdcccc;}.cls-246{fill:#cecdcd;}.cls-247{fill:#cfcece;}.cls-248{fill:#d0cfcf;}.cls-249{fill:#d1d0d0;}.cls-250{fill:#d2d1d1;}.cls-251{fill:#d3d2d2;}.cls-252{fill:#d4d3d3;}.cls-253{fill:#d5d4d4;}.cls-254{fill:#d6d5d5;}.cls-255{fill:#d7d6d6;}.cls-256{fill:#d8d7d7;}.cls-257{fill:#d9d8d8;}.cls-258{fill:#dad9d9;}.cls-259{fill:#dadada;}.cls-260{fill:#dbdbdb;}.cls-261{fill:#dcdcdc;}.cls-262{fill:#ddd;}.cls-263{fill:#dedede;}.cls-264{fill:#dfdfdf;}.cls-265{fill:#e0e0e0;}.cls-266{fill:#e1e1e1;}.cls-267{fill:#e2e2e2;}.cls-268{fill:#e3e3e3;}.cls-269{fill:#e4e4e4;}.cls-270{fill:#e5e5e5;}.cls-271{fill:#e6e6e6;}.cls-272{fill:#e7e7e7;}.cls-273{fill:#e8e8e8;}.cls-274{fill:#e9e9e9;}.cls-275{fill:#eaeaea;}.cls-276{fill:#ebebeb;}.cls-277{fill:#ececec;}.cls-278{fill:#ededed;}.cls-279{fill:#eee;}.cls-280{fill:#efefef;}.cls-281{fill:#f0f0f0;}.cls-282{fill:#f1f1f1;}.cls-283{fill:#f2f2f2;}.cls-284{fill:#f3f3f3;}.cls-285{fill:#f4f4f4;}.cls-286{fill:#f5f5f5;}.cls-287{fill:#f6f6f6;}.cls-288{fill:#f7f7f7;}.cls-289{fill:#f8f8f8;}.cls-290{fill:#f9f9f9;}.cls-291{fill:#fafafa;}.cls-292{fill:#fbfbfb;}.cls-293{fill:#fcfcfc;}.cls-294{fill:#fdfdfd;}.cls-295{fill:#fefefe;}.cls-296{fill:#fff;}.cls-297,.cls-299{mix-blend-mode:multiply;}.cls-298{clip-path:url(#clip-path-4);}.cls-299,.cls-302{opacity:0.6;}.cls-300{fill:#808285;}.cls-301{fill:#e8e9ea;}.cls-303{stroke:#fcfafa;stroke-miterlimit:10;stroke-width:10px;}.cls-304{fill:#fcfafa;}</style><clipPath id="clip-path"><circle class="cls-1" cx="252.95" cy="251.29" r="231.07" transform="translate(-103.6 252.46) rotate(-45)"/></clipPath><clipPath id="clip-path-2"><polygon class="cls-1" points="156.54 238.32 177.65 222.63 19.7 10.82 -17.01 5.41 156.54 238.32"/></clipPath><clipPath id="clip-path-3"><rect class="cls-1" x="237.1" y="175.58" width="45.56" height="147.54" transform="translate(-97.43 204.19) rotate(-36.61)"/></clipPath><clipPath id="clip-path-4"><polygon class="cls-1" points="250.49 350.42 274.6 332.89 183.92 210.82 159.81 228.34 250.49 350.42"/></clipPath></defs><title>borrador</title><g class="cls-2"><g id="Capa_1" data-name="Capa 1"><circle class="cls-3" cx="252.91" cy="251.58" r="231.07" transform="translate(-103.82 252.52) rotate(-45)"/><circle class="cls-1" cx="249.09" cy="277.47" r="253.16" transform="translate(-123.24 257.4) rotate(-45)"/><g class="cls-4"><path class="cls-5" d="M345.84,360s-10.18,9.49-21.95,18.23a210.81,210.81,0,0,1-21.73,14.22c-1.35.71-2.67,1.33-4,1.87-3,1.24-9.19,1.18-15.12.4s-11.82-2.31-13.62-3.94a32.29,32.29,0,0,1-4.23-4.71l-66-88.88a26.45,26.45,0,0,1,5.46-37l18.3-13.6,6.1-4.54,18.31-13.6a26.45,26.45,0,0,1,37,5.46l66,88.87C359.1,334.54,358.08,347.52,345.84,360Z"/><path class="cls-6" d="M208.62,257.25l18.3-13.6,6.11-4.54,18.3-13.6a26.27,26.27,0,0,1,13.88-5.14l-13.07,9.71-6.1,4.53-18.3,13.6a26.46,26.46,0,0,0-5.46,37l66,88.87a32.29,32.29,0,0,0,4.23,4.71c1.8,1.63,7.57,3.16,13.62,3.95a57.72,57.72,0,0,0,10.28.49c-6.12,4-10.29,6.28-10.29,6.28-1.35.7-2.68,1.32-4,1.86-3,1.24-9.19,1.18-15.13.4s-11.81-2.31-13.61-3.94a32.34,32.34,0,0,1-4.24-4.71l-66-88.87A26.47,26.47,0,0,1,208.62,257.25Z"/><path class="cls-7" d="M306.61,276l37,49.83,3.75,5.05.58.78c5.27,7.09-36.83,38.36-42.1,31.28l-.57-.78-3.76-5.05-37-49.83Z"/><polygon class="cls-8" points="177.65 222.63 219.88 191.26 93.7 21.73 19.7 10.82 177.65 222.63"/><polygon class="cls-9" points="219.88 191.26 240.99 175.57 130.6 27.17 93.7 21.73 219.88 191.26"/><g class="cls-10"><polygon class="cls-11" points="177.1 226.36 16.61 10.37 204.85 38.12 177.1 226.36"/><polygon class="cls-11" points="176.96 227.31 15.66 10.22 16.61 10.37 177.1 226.36 176.96 227.31"/><polygon class="cls-12" points="176.82 228.26 14.71 10.09 15.66 10.22 176.96 227.31 176.82 228.26"/><polygon class="cls-13" points="176.68 229.21 13.76 9.95 14.71 10.09 176.82 228.26 176.68 229.21"/><polygon class="cls-14" points="176.54 230.16 12.81 9.8 13.76 9.95 176.68 229.21 176.54 230.16"/><polygon class="cls-15" points="176.4 231.11 11.86 9.66 12.81 9.8 176.54 230.16 176.4 231.11"/><polygon class="cls-16" points="176.26 232.06 10.91 9.53 11.86 9.66 176.4 231.11 176.26 232.06"/><polygon class="cls-17" points="176.23 232.31 175.83 232.61 9.96 9.38 10.91 9.53 176.26 232.06 176.23 232.31"/><polygon class="cls-18" points="175.83 232.61 175.28 233.01 9.01 9.24 9.96 9.38 175.83 232.61"/><polygon class="cls-19" points="175.28 233.01 174.74 233.42 8.06 9.11 9.01 9.24 175.28 233.01"/><polygon class="cls-20" points="174.74 233.42 174.19 233.82 7.11 8.96 8.06 9.11 174.74 233.42"/><polygon class="cls-21" points="174.19 233.82 173.65 234.23 6.16 8.82 7.11 8.96 174.19 233.82"/><polygon class="cls-22" points="173.65 234.23 173.1 234.63 5.21 8.69 6.16 8.82 173.65 234.23"/><polygon class="cls-23" points="173.1 234.63 172.56 235.04 4.26 8.54 5.21 8.69 173.1 234.63"/><polygon class="cls-24" points="172.56 235.04 172.01 235.44 3.31 8.4 4.26 8.54 172.56 235.04"/><polygon class="cls-25" points="172.01 235.44 171.47 235.85 2.36 8.27 3.31 8.4 172.01 235.44"/><polygon class="cls-26" points="171.47 235.85 170.92 236.25 1.41 8.13 2.36 8.27 171.47 235.85"/><polygon class="cls-27" points="170.92 236.25 170.38 236.66 0.46 7.99 1.41 8.13 170.92 236.25"/><polygon class="cls-28" points="170.38 236.66 169.83 237.06 -0.49 7.84 0.46 7.99 170.38 236.66"/><polygon class="cls-29" points="169.83 237.06 169.29 237.47 -1.44 7.7 -0.49 7.84 169.83 237.06"/><polygon class="cls-30" points="169.29 237.47 168.74 237.87 -2.39 7.56 -1.44 7.7 169.29 237.47"/><polygon class="cls-31" points="168.74 237.87 168.2 238.28 -3.34 7.42 -2.39 7.56 168.74 237.87"/><polygon class="cls-32" points="168.2 238.28 167.65 238.68 -4.29 7.28 -3.34 7.42 168.2 238.28"/><polygon class="cls-33" points="167.65 238.68 167.11 239.09 -5.24 7.14 -4.29 7.28 167.65 238.68"/><polygon class="cls-34" points="167.11 239.09 166.56 239.49 -6.19 7 -5.24 7.14 167.11 239.09"/><polygon class="cls-35" points="166.56 239.49 166.22 239.75 165.87 239.69 -7.14 6.86 -6.19 7 166.56 239.49"/><polygon class="cls-36" points="164.92 239.55 -8.09 6.72 -7.14 6.86 165.87 239.69 164.92 239.55"/><polygon class="cls-37" points="163.97 239.41 -9.04 6.58 -8.09 6.72 164.92 239.55 163.97 239.41"/><polygon class="cls-38" points="163.02 239.27 -9.99 6.44 -9.04 6.58 163.97 239.41 163.02 239.27"/><polygon class="cls-39" points="162.07 239.13 -10.94 6.3 -9.99 6.44 163.02 239.27 162.07 239.13"/><polygon class="cls-40" points="161.12 238.99 -11.89 6.16 -10.94 6.3 162.07 239.13 161.12 238.99"/><polygon class="cls-41" points="160.17 238.85 -12.84 6.02 -11.89 6.16 161.12 238.99 160.17 238.85"/><polygon class="cls-42" points="159.22 238.71 -13.79 5.88 -12.84 6.02 160.17 238.85 159.22 238.71"/><polygon class="cls-43" points="158.27 238.57 -14.74 5.74 -13.79 5.88 159.22 238.71 158.27 238.57"/><polygon class="cls-44" points="157.32 238.43 -15.69 5.6 -14.74 5.74 158.27 238.57 157.32 238.43"/><polygon class="cls-45" points="156.37 238.29 -16.64 5.46 -15.69 5.6 157.32 238.43 156.37 238.29"/><polygon class="cls-46" points="155.42 238.15 -17.09 5.99 -17.01 5.41 -16.64 5.46 156.37 238.29 155.42 238.15"/><polygon class="cls-47" points="154.47 238.01 -17.23 6.94 -17.09 5.99 155.42 238.15 154.47 238.01"/><polygon class="cls-48" points="153.52 237.87 -17.37 7.89 -17.23 6.94 154.47 238.01 153.52 237.87"/><polygon class="cls-49" points="152.57 237.73 -17.51 8.84 -17.37 7.89 153.52 237.87 152.57 237.73"/><polygon class="cls-50" points="151.62 237.59 -17.65 9.79 -17.51 8.84 152.57 237.73 151.62 237.59"/><polygon class="cls-51" points="150.67 237.45 -17.79 10.74 -17.65 9.79 151.62 237.59 150.67 237.45"/><polygon class="cls-52" points="149.72 237.31 -17.93 11.69 -17.79 10.74 150.67 237.45 149.72 237.31"/><polygon class="cls-53" points="148.77 237.17 -18.07 12.64 -17.93 11.69 149.72 237.31 148.77 237.17"/><polygon class="cls-53" points="147.82 237.03 -18.21 13.59 -18.07 12.64 148.77 237.17 147.82 237.03"/><polygon class="cls-54" points="146.87 236.89 -18.35 14.54 -18.21 13.59 147.82 237.03 146.87 236.89"/><polygon class="cls-55" points="145.92 236.75 -18.49 15.49 -18.35 14.54 146.87 236.89 145.92 236.75"/><polygon class="cls-56" points="144.97 236.61 -18.63 16.44 -18.49 15.49 145.92 236.75 144.97 236.61"/><polygon class="cls-57" points="144.02 236.47 -18.77 17.39 -18.63 16.44 144.97 236.61 144.02 236.47"/><polygon class="cls-58" points="143.07 236.33 -18.91 18.34 -18.77 17.39 144.02 236.47 143.07 236.33"/><polygon class="cls-59" points="142.12 236.19 -19.05 19.29 -18.91 18.34 143.07 236.33 142.12 236.19"/><polygon class="cls-59" points="141.17 236.05 -19.19 20.24 -19.05 19.29 142.12 236.19 141.17 236.05"/><polygon class="cls-60" points="140.22 235.91 -19.33 21.18 -19.19 20.24 141.17 236.05 140.22 235.91"/><polygon class="cls-60" points="139.27 235.77 -19.47 22.14 -19.33 21.18 140.22 235.91 139.27 235.77"/><polygon class="cls-61" points="138.32 235.63 -19.61 23.09 -19.47 22.14 139.27 235.77 138.32 235.63"/><polygon class="cls-61" points="137.37 235.49 -19.75 24.04 -19.61 23.09 138.32 235.63 137.37 235.49"/><polygon class="cls-62" points="136.42 235.35 -19.89 24.98 -19.75 24.04 137.37 235.49 136.42 235.35"/><polygon class="cls-62" points="135.47 235.21 -20.03 25.93 -19.89 24.98 136.42 235.35 135.47 235.21"/><polygon class="cls-62" points="134.52 235.07 -20.17 26.88 -20.03 25.93 135.47 235.21 134.52 235.07"/><polygon class="cls-63" points="133.57 234.93 -20.31 27.83 -20.17 26.88 134.52 235.07 133.57 234.93"/><polygon class="cls-63" points="132.62 234.79 -20.45 28.78 -20.31 27.83 133.57 234.93 132.62 234.79"/><polygon class="cls-63" points="131.67 234.65 -20.59 29.73 -20.45 28.78 132.62 234.79 131.67 234.65"/><polygon class="cls-64" points="130.72 234.51 -20.73 30.68 -20.59 29.73 131.67 234.65 130.72 234.51"/><polygon class="cls-64" points="129.77 234.37 -20.87 31.63 -20.73 30.68 130.72 234.51 129.77 234.37"/><polygon class="cls-65" points="128.82 234.23 -21.01 32.58 -20.87 31.63 129.77 234.37 128.82 234.23"/><polygon class="cls-65" points="127.87 234.09 -21.15 33.53 -21.01 32.58 128.82 234.23 127.87 234.09"/><polygon class="cls-66" points="126.92 233.95 -21.29 34.48 -21.15 33.53 127.87 234.09 126.92 233.95"/><polygon class="cls-66" points="125.97 233.81 -21.43 35.43 -21.29 34.48 126.92 233.95 125.97 233.81"/><polygon class="cls-66" points="125.02 233.67 -21.57 36.38 -21.43 35.43 125.97 233.81 125.02 233.67"/><polygon class="cls-66" points="124.07 233.53 -21.71 37.33 -21.57 36.38 125.02 233.67 124.07 233.53"/><polygon class="cls-66" points="123.12 233.39 -21.85 38.28 -21.71 37.33 124.07 233.53 123.12 233.39"/><polygon class="cls-66" points="122.17 233.25 -21.99 39.23 -21.85 38.28 123.12 233.39 122.17 233.25"/><polygon class="cls-67" points="121.22 233.11 -22.13 40.18 -21.99 39.23 122.17 233.25 121.22 233.11"/><polygon class="cls-67" points="120.27 232.97 -22.27 41.13 -22.13 40.18 121.22 233.11 120.27 232.97"/><polygon class="cls-67" points="119.32 232.83 -22.41 42.08 -22.27 41.13 120.27 232.97 119.32 232.83"/><polygon class="cls-67" points="118.37 232.69 -22.55 43.03 -22.41 42.08 119.32 232.83 118.37 232.69"/><polygon class="cls-67" points="117.42 232.55 -22.69 43.98 -22.55 43.03 118.37 232.69 117.42 232.55"/><polygon class="cls-67" points="116.47 232.41 -22.83 44.93 -22.69 43.98 117.42 232.55 116.47 232.41"/><polygon class="cls-67" points="115.52 232.27 -22.97 45.88 -22.83 44.93 116.47 232.41 115.52 232.27"/><polygon class="cls-67" points="114.57 232.13 -23.11 46.83 -22.97 45.88 115.52 232.27 114.57 232.13"/><polygon class="cls-67" points="113.62 231.99 -23.25 47.78 -23.11 46.83 114.57 232.13 113.62 231.99"/><polygon class="cls-67" points="112.67 231.85 -23.39 48.73 -23.25 47.78 113.62 231.99 112.67 231.85"/><polygon class="cls-67" points="111.72 231.71 -23.53 49.68 -23.39 48.73 112.67 231.85 111.72 231.71"/><polygon class="cls-67" points="110.77 231.57 -23.67 50.63 -23.53 49.68 111.72 231.71 110.77 231.57"/><polygon class="cls-67" points="-23.67 50.63 110.77 231.57 -46.92 208.32 -23.67 50.63"/></g><g class="cls-68"><rect class="cls-69" x="142.6" y="198.54" width="105.31" height="7.8" transform="translate(-82.21 156.4) rotate(-36.61)"/></g><rect class="cls-70" x="183.49" y="187.29" width="114.52" height="152.08" transform="translate(-109.55 195.55) rotate(-36.61)"/><g class="cls-71"><g class="cls-72"><polygon class="cls-73" points="195.44 218.33 270.99 320 182.37 306.93 195.44 218.33"/><polygon class="cls-73" points="195.5 217.91 271.4 320.06 270.99 320 195.44 218.33 195.5 217.91"/><polygon class="cls-74" points="195.56 217.5 271.82 320.12 271.4 320.06 195.5 217.91 195.56 217.5"/><polygon class="cls-75" points="195.62 217.09 272.23 320.18 271.82 320.12 195.56 217.5 195.62 217.09"/><polygon class="cls-76" points="195.68 216.68 272.64 320.24 272.23 320.18 195.62 217.09 195.68 216.68"/><polygon class="cls-77" points="195.74 216.27 273.05 320.3 272.64 320.24 195.68 216.68 195.74 216.27"/><polygon class="cls-78" points="195.8 215.85 273.46 320.36 273.05 320.3 195.74 216.27 195.8 215.85"/><polygon class="cls-79" points="195.86 215.44 273.88 320.42 273.46 320.36 195.8 215.85 195.86 215.44"/><polygon class="cls-80" points="195.92 215.03 274.29 320.48 273.88 320.42 195.86 215.44 195.92 215.03"/><polygon class="cls-81" points="195.98 214.62 274.7 320.54 274.29 320.48 195.92 215.03 195.98 214.62"/><polygon class="cls-82" points="196.04 214.21 275.11 320.6 274.7 320.54 195.98 214.62 196.04 214.21"/><polygon class="cls-83" points="196.1 213.79 275.53 320.66 275.11 320.6 196.04 214.21 196.1 213.79"/><polygon class="cls-84" points="196.16 213.38 275.94 320.72 275.53 320.66 196.1 213.79 196.16 213.38"/><polygon class="cls-85" points="196.23 212.97 276.35 320.79 275.94 320.72 196.16 213.38 196.23 212.97"/><polygon class="cls-86" points="196.29 212.56 276.76 320.85 276.35 320.79 196.23 212.97 196.29 212.56"/><polygon class="cls-87" points="196.35 212.14 277.17 320.91 276.76 320.85 196.29 212.56 196.35 212.14"/><polygon class="cls-88" points="196.41 211.73 277.59 320.97 277.17 320.91 196.35 212.14 196.41 211.73"/><polygon class="cls-89" points="196.47 211.32 278 321.03 277.59 320.97 196.41 211.73 196.47 211.32"/><polygon class="cls-90" points="196.53 210.91 278.41 321.09 278 321.03 196.47 211.32 196.53 210.91"/><polygon class="cls-91" points="196.59 210.5 278.82 321.15 278.41 321.09 196.53 210.91 196.59 210.5"/><polygon class="cls-92" points="196.65 210.08 279.24 321.21 278.82 321.15 196.59 210.5 196.65 210.08"/><polygon class="cls-93" points="196.71 209.67 279.65 321.27 279.24 321.21 196.65 210.08 196.71 209.67"/><polygon class="cls-94" points="196.77 209.26 280.06 321.33 279.65 321.27 196.71 209.67 196.77 209.26"/><polygon class="cls-95" points="196.83 208.85 280.47 321.39 280.06 321.33 196.77 209.26 196.83 208.85"/><polygon class="cls-96" points="196.89 208.44 280.88 321.45 280.47 321.39 196.83 208.85 196.89 208.44"/><polygon class="cls-97" points="196.96 208.02 281.3 321.51 280.88 321.45 196.89 208.44 196.96 208.02"/><polygon class="cls-98" points="197.01 207.61 281.71 321.57 281.3 321.51 196.96 208.02 197.01 207.61"/><polygon class="cls-99" points="197.08 207.2 282.12 321.63 281.71 321.57 197.01 207.61 197.08 207.2"/><polygon class="cls-100" points="197.14 206.79 282.53 321.7 282.12 321.63 197.08 207.2 197.14 206.79"/><polygon class="cls-101" points="197.2 206.38 282.94 321.76 282.53 321.7 197.14 206.79 197.2 206.38"/><polygon class="cls-102" points="197.26 205.96 283.36 321.82 282.94 321.76 197.2 206.38 197.26 205.96"/><polygon class="cls-103" points="197.32 205.55 283.77 321.88 283.36 321.82 197.26 205.96 197.32 205.55"/><polygon class="cls-104" points="197.38 205.14 284.18 321.94 283.77 321.88 197.32 205.55 197.38 205.14"/><polygon class="cls-105" points="197.44 204.73 284.59 322 284.18 321.94 197.38 205.14 197.44 204.73"/><polygon class="cls-106" points="197.5 204.31 285.01 322.06 284.59 322 197.44 204.73 197.5 204.31"/><polygon class="cls-107" points="197.56 203.9 285.42 322.12 285.01 322.06 197.5 204.31 197.56 203.9"/><polygon class="cls-108" points="197.62 203.49 285.83 322.18 285.42 322.12 197.56 203.9 197.62 203.49"/><polygon class="cls-109" points="197.68 203.08 286.24 322.24 285.83 322.18 197.62 203.49 197.68 203.08"/><polygon class="cls-110" points="197.74 202.67 286.65 322.3 286.24 322.24 197.68 203.08 197.74 202.67"/><polygon class="cls-111" points="197.81 202.25 287.07 322.37 286.65 322.3 197.74 202.67 197.81 202.25"/><polygon class="cls-112" points="197.87 201.84 287.48 322.43 287.07 322.37 197.81 202.25 197.87 201.84"/><polygon class="cls-113" points="197.93 201.43 287.89 322.49 287.48 322.43 197.87 201.84 197.93 201.43"/><polygon class="cls-114" points="197.99 201.02 288.3 322.55 287.89 322.49 197.93 201.43 197.99 201.02"/><polygon class="cls-115" points="198.05 200.6 288.71 322.61 288.3 322.55 197.99 201.02 198.05 200.6"/><polygon class="cls-116" points="198.11 200.19 289.13 322.67 288.71 322.61 198.05 200.6 198.11 200.19"/><polygon class="cls-117" points="198.17 199.78 289.54 322.73 289.13 322.67 198.11 200.19 198.17 199.78"/><polygon class="cls-118" points="198.23 199.37 289.95 322.79 289.54 322.73 198.17 199.78 198.23 199.37"/><polygon class="cls-119" points="198.29 198.96 290.36 322.85 289.95 322.79 198.23 199.37 198.29 198.96"/><polygon class="cls-120" points="198.35 198.54 290.78 322.91 290.36 322.85 198.29 198.96 198.35 198.54"/><polygon class="cls-121" points="198.41 198.13 291.19 322.97 290.78 322.91 198.35 198.54 198.41 198.13"/><polygon class="cls-122" points="198.47 197.72 291.6 323.03 291.19 322.97 198.41 198.13 198.47 197.72"/><polygon class="cls-123" points="198.53 197.31 292.01 323.09 291.6 323.03 198.47 197.72 198.53 197.31"/><polygon class="cls-124" points="198.59 196.9 292.43 323.15 292.01 323.09 198.53 197.31 198.59 196.9"/><polygon class="cls-125" points="198.66 196.48 292.84 323.21 292.43 323.15 198.59 196.9 198.66 196.48"/><polygon class="cls-126" points="198.72 196.07 293.25 323.28 292.84 323.21 198.66 196.48 198.72 196.07"/><polygon class="cls-127" points="198.78 195.66 293.66 323.34 293.25 323.28 198.72 196.07 198.78 195.66"/><polygon class="cls-128" points="198.84 195.25 294.07 323.4 293.66 323.34 198.78 195.66 198.84 195.25"/><polygon class="cls-129" points="198.9 194.84 294.49 323.46 294.07 323.4 198.84 195.25 198.9 194.84"/><polygon class="cls-130" points="198.96 194.42 294.9 323.52 294.49 323.46 198.9 194.84 198.96 194.42"/><polygon class="cls-131" points="198.99 194.2 199.1 194.12 295.23 323.47 295.12 323.55 294.9 323.52 198.96 194.42 198.99 194.2"/><rect class="cls-132" x="247.13" y="178.13" width="0.29" height="161.16" transform="translate(-105.5 198.51) rotate(-36.61)"/><rect class="cls-133" x="247.37" y="177.95" width="0.29" height="161.16" transform="translate(-105.35 198.61) rotate(-36.61)"/><rect class="cls-134" x="247.61" y="177.77" width="0.29" height="161.16" transform="translate(-105.19 198.72) rotate(-36.61)"/><rect class="cls-135" x="247.84" y="177.6" width="0.29" height="161.16" transform="translate(-105.04 198.83) rotate(-36.61)"/><rect class="cls-136" x="248.08" y="177.42" width="0.29" height="161.16" transform="translate(-104.89 198.94) rotate(-36.61)"/><rect class="cls-137" x="248.32" y="177.25" width="0.29" height="161.16" transform="translate(-104.74 199.04) rotate(-36.61)"/><rect class="cls-138" x="248.55" y="177.07" width="0.29" height="161.16" transform="translate(-104.59 199.15) rotate(-36.61)"/><rect class="cls-139" x="248.79" y="176.9" width="0.29" height="161.16" transform="translate(-104.44 199.25) rotate(-36.61)"/><rect class="cls-140" x="249.03" y="176.72" width="0.29" height="161.16" transform="translate(-104.29 199.36) rotate(-36.61)"/><rect class="cls-141" x="249.26" y="176.54" width="0.29" height="161.16" transform="translate(-104.13 199.47) rotate(-36.61)"/><rect class="cls-142" x="249.5" y="176.37" width="0.29" height="161.16" transform="translate(-103.98 199.57) rotate(-36.61)"/><rect class="cls-143" x="249.74" y="176.19" width="0.29" height="161.16" transform="translate(-103.83 199.68) rotate(-36.61)"/><rect class="cls-144" x="249.97" y="176.02" width="0.29" height="161.16" transform="translate(-103.68 199.78) rotate(-36.61)"/><rect class="cls-145" x="250.21" y="175.84" width="0.29" height="161.16" transform="translate(-103.53 199.89) rotate(-36.61)"/><rect class="cls-146" x="250.44" y="175.67" width="0.29" height="161.16" transform="translate(-103.38 200) rotate(-36.61)"/><rect class="cls-147" x="250.68" y="175.49" width="0.29" height="161.16" transform="translate(-103.23 200.1) rotate(-36.61)"/><rect class="cls-148" x="250.92" y="175.31" width="0.29" height="161.16" transform="translate(-103.07 200.21) rotate(-36.61)"/><rect class="cls-149" x="251.15" y="175.14" width="0.29" height="161.16" transform="translate(-102.92 200.32) rotate(-36.61)"/><rect class="cls-150" x="251.39" y="174.96" width="0.29" height="161.16" transform="translate(-102.77 200.42) rotate(-36.61)"/><rect class="cls-151" x="251.63" y="174.79" width="0.29" height="161.16" transform="translate(-102.62 200.53) rotate(-36.61)"/><rect class="cls-152" x="251.86" y="174.61" width="0.29" height="161.16" transform="translate(-102.47 200.64) rotate(-36.61)"/><rect class="cls-153" x="252.1" y="174.44" width="0.29" height="161.16" transform="translate(-102.32 200.74) rotate(-36.61)"/><rect class="cls-154" x="252.34" y="174.26" width="0.29" height="161.16" transform="translate(-102.17 200.85) rotate(-36.61)"/><rect class="cls-155" x="252.57" y="174.08" width="0.29" height="161.16" transform="translate(-102.01 200.96) rotate(-36.61)"/><rect class="cls-156" x="252.81" y="173.91" width="0.29" height="161.16" transform="translate(-101.86 201.06) rotate(-36.61)"/><rect class="cls-157" x="253.05" y="173.73" width="0.29" height="161.16" transform="translate(-101.71 201.17) rotate(-36.61)"/><rect class="cls-158" x="253.28" y="173.56" width="0.29" height="161.16" transform="translate(-101.56 201.27) rotate(-36.61)"/><rect class="cls-159" x="253.52" y="173.38" width="0.29" height="161.16" transform="translate(-101.41 201.38) rotate(-36.61)"/><rect class="cls-160" x="253.76" y="173.21" width="0.29" height="161.16" transform="translate(-101.26 201.49) rotate(-36.61)"/><rect class="cls-161" x="253.99" y="173.03" width="0.29" height="161.16" transform="translate(-101.11 201.59) rotate(-36.61)"/><rect class="cls-162" x="254.23" y="172.86" width="0.29" height="161.16" transform="translate(-100.95 201.7) rotate(-36.61)"/><rect class="cls-163" x="254.46" y="172.68" width="0.29" height="161.16" transform="translate(-100.8 201.81) rotate(-36.61)"/><rect class="cls-164" x="254.7" y="172.5" width="0.29" height="161.16" transform="translate(-100.65 201.91) rotate(-36.61)"/><rect class="cls-165" x="254.94" y="172.33" width="0.29" height="161.16" transform="translate(-100.5 202.02) rotate(-36.61)"/><rect class="cls-166" x="255.17" y="172.15" width="0.29" height="161.16" transform="translate(-100.35 202.13) rotate(-36.61)"/><rect class="cls-167" x="255.41" y="171.98" width="0.29" height="161.16" transform="translate(-100.2 202.23) rotate(-36.61)"/><rect class="cls-168" x="255.65" y="171.8" width="0.29" height="161.16" transform="translate(-100.05 202.34) rotate(-36.61)"/><rect class="cls-169" x="255.88" y="171.63" width="0.29" height="161.16" transform="translate(-99.89 202.44) rotate(-36.61)"/><rect class="cls-170" x="256.12" y="171.45" width="0.29" height="161.16" transform="translate(-99.74 202.55) rotate(-36.61)"/><rect class="cls-171" x="256.36" y="171.27" width="0.29" height="161.16" transform="translate(-99.59 202.66) rotate(-36.61)"/><rect class="cls-172" x="256.59" y="171.1" width="0.29" height="161.16" transform="translate(-99.44 202.76) rotate(-36.61)"/><rect class="cls-173" x="256.83" y="170.92" width="0.29" height="161.16" transform="translate(-99.29 202.87) rotate(-36.61)"/><rect class="cls-174" x="257.07" y="170.75" width="0.29" height="161.16" transform="translate(-99.14 202.97) rotate(-36.61)"/><rect class="cls-175" x="257.3" y="170.57" width="0.29" height="161.16" transform="translate(-98.99 203.08) rotate(-36.61)"/><rect class="cls-176" x="257.54" y="170.4" width="0.29" height="161.16" transform="translate(-98.83 203.19) rotate(-36.61)"/><rect class="cls-177" x="257.77" y="170.22" width="0.29" height="161.16" transform="translate(-98.68 203.3) rotate(-36.61)"/><rect class="cls-178" x="258.01" y="170.04" width="0.29" height="161.16" transform="translate(-98.53 203.4) rotate(-36.61)"/><rect class="cls-179" x="258.25" y="169.87" width="0.29" height="161.16" transform="translate(-98.38 203.51) rotate(-36.61)"/><rect class="cls-180" x="258.48" y="169.69" width="0.29" height="161.16" transform="translate(-98.23 203.62) rotate(-36.61)"/><rect class="cls-181" x="258.72" y="169.52" width="0.29" height="161.16" transform="translate(-98.08 203.72) rotate(-36.61)"/><rect class="cls-182" x="258.96" y="169.34" width="0.29" height="161.16" transform="translate(-97.93 203.83) rotate(-36.61)"/><rect class="cls-183" x="259.19" y="169.17" width="0.29" height="161.16" transform="translate(-97.77 203.93) rotate(-36.61)"/><rect class="cls-184" x="259.43" y="168.99" width="0.29" height="161.16" transform="translate(-97.62 204.04) rotate(-36.61)"/><rect class="cls-185" x="259.67" y="168.81" width="0.29" height="161.16" transform="translate(-97.47 204.15) rotate(-36.61)"/><rect class="cls-186" x="259.9" y="168.64" width="0.29" height="161.16" transform="translate(-97.32 204.25) rotate(-36.61)"/><rect class="cls-187" x="260.14" y="168.46" width="0.29" height="161.16" transform="translate(-97.17 204.36) rotate(-36.61)"/><rect class="cls-188" x="260.38" y="168.29" width="0.29" height="161.16" transform="matrix(0.8, -0.6, 0.6, 0.8, -97.02, 204.46)"/><rect class="cls-189" x="260.61" y="168.11" width="0.29" height="161.16" transform="translate(-96.87 204.57) rotate(-36.61)"/><rect class="cls-190" x="260.85" y="167.94" width="0.29" height="161.16" transform="translate(-96.72 204.68) rotate(-36.61)"/><rect class="cls-191" x="261.09" y="167.76" width="0.29" height="161.16" transform="translate(-96.56 204.78) rotate(-36.61)"/><rect class="cls-192" x="261.32" y="167.58" width="0.29" height="161.16" transform="translate(-96.41 204.89) rotate(-36.61)"/><rect class="cls-193" x="261.56" y="167.41" width="0.29" height="161.16" transform="translate(-96.26 205) rotate(-36.61)"/><rect class="cls-194" x="261.79" y="167.23" width="0.29" height="161.16" transform="translate(-96.11 205.1) rotate(-36.61)"/><rect class="cls-195" x="262.03" y="167.06" width="0.29" height="161.16" transform="translate(-95.96 205.21) rotate(-36.61)"/><rect class="cls-196" x="262.27" y="166.88" width="0.29" height="161.16" transform="translate(-95.81 205.32) rotate(-36.61)"/><rect class="cls-197" x="262.5" y="166.71" width="0.29" height="161.16" transform="translate(-95.66 205.42) rotate(-36.61)"/><rect class="cls-198" x="262.74" y="166.53" width="0.29" height="161.16" transform="translate(-95.5 205.53) rotate(-36.61)"/><rect class="cls-199" x="262.98" y="166.35" width="0.29" height="161.16" transform="translate(-95.35 205.64) rotate(-36.61)"/><rect class="cls-200" x="263.21" y="166.18" width="0.29" height="161.16" transform="translate(-95.2 205.74) rotate(-36.61)"/><rect class="cls-201" x="263.45" y="166" width="0.29" height="161.16" transform="translate(-95.05 205.85) rotate(-36.61)"/><rect class="cls-202" x="263.69" y="165.83" width="0.29" height="161.16" transform="translate(-94.9 205.95) rotate(-36.61)"/><rect class="cls-203" x="263.92" y="165.65" width="0.29" height="161.16" transform="translate(-94.75 206.06) rotate(-36.61)"/><rect class="cls-204" x="264.16" y="165.48" width="0.29" height="161.16" transform="translate(-94.6 206.17) rotate(-36.61)"/><rect class="cls-205" x="264.4" y="165.3" width="0.29" height="161.16" transform="translate(-94.44 206.27) rotate(-36.61)"/><rect class="cls-206" x="264.63" y="165.13" width="0.29" height="161.16" transform="translate(-94.29 206.38) rotate(-36.61)"/><rect class="cls-207" x="264.87" y="164.95" width="0.29" height="161.16" transform="translate(-94.14 206.49) rotate(-36.61)"/><rect class="cls-208" x="265.11" y="164.77" width="0.29" height="161.16" transform="translate(-93.99 206.59) rotate(-36.61)"/><rect class="cls-209" x="265.34" y="164.6" width="0.29" height="161.16" transform="translate(-93.84 206.7) rotate(-36.61)"/><rect class="cls-210" x="265.58" y="164.42" width="0.29" height="161.16" transform="translate(-93.69 206.8) rotate(-36.61)"/><rect class="cls-211" x="265.81" y="164.25" width="0.29" height="161.16" transform="translate(-93.54 206.91) rotate(-36.61)"/><rect class="cls-212" x="266.05" y="164.07" width="0.29" height="161.16" transform="translate(-93.38 207.02) rotate(-36.61)"/><rect class="cls-213" x="266.29" y="163.9" width="0.29" height="161.16" transform="translate(-93.23 207.12) rotate(-36.61)"/><rect class="cls-214" x="266.52" y="163.72" width="0.29" height="161.16" transform="translate(-93.08 207.23) rotate(-36.61)"/><rect class="cls-215" x="266.76" y="163.54" width="0.29" height="161.16" transform="translate(-92.93 207.34) rotate(-36.61)"/><rect class="cls-216" x="267" y="163.37" width="0.29" height="161.16" transform="translate(-92.78 207.44) rotate(-36.61)"/><rect class="cls-217" x="267.23" y="163.19" width="0.29" height="161.16" transform="translate(-92.63 207.55) rotate(-36.61)"/><rect class="cls-218" x="267.47" y="163.02" width="0.29" height="161.16" transform="translate(-92.48 207.65) rotate(-36.61)"/><rect class="cls-219" x="267.71" y="162.84" width="0.29" height="161.16" transform="translate(-92.32 207.76) rotate(-36.61)"/><rect class="cls-220" x="267.94" y="162.67" width="0.29" height="161.16" transform="translate(-92.17 207.87) rotate(-36.61)"/><rect class="cls-221" x="268.18" y="162.49" width="0.29" height="161.16" transform="translate(-92.02 207.98) rotate(-36.61)"/><rect class="cls-222" x="268.42" y="162.31" width="0.29" height="161.16" transform="translate(-91.87 208.08) rotate(-36.61)"/><rect class="cls-223" x="268.65" y="162.14" width="0.29" height="161.16" transform="translate(-91.72 208.19) rotate(-36.61)"/><rect class="cls-224" x="268.89" y="161.96" width="0.29" height="161.16" transform="translate(-91.57 208.29) rotate(-36.61)"/><rect class="cls-225" x="269.13" y="161.79" width="0.29" height="161.16" transform="translate(-91.42 208.4) rotate(-36.61)"/><rect class="cls-226" x="269.36" y="161.61" width="0.29" height="161.16" transform="translate(-91.26 208.51) rotate(-36.61)"/><rect class="cls-227" x="269.6" y="161.44" width="0.29" height="161.16" transform="translate(-91.11 208.61) rotate(-36.61)"/><rect class="cls-228" x="269.83" y="161.26" width="0.29" height="161.16" transform="translate(-90.96 208.72) rotate(-36.61)"/><rect class="cls-229" x="270.07" y="161.08" width="0.29" height="161.16" transform="translate(-90.81 208.82) rotate(-36.61)"/><rect class="cls-230" x="270.31" y="160.91" width="0.29" height="161.16" transform="translate(-90.66 208.93) rotate(-36.61)"/><rect class="cls-231" x="270.54" y="160.73" width="0.29" height="161.16" transform="translate(-90.51 209.04) rotate(-36.61)"/><rect class="cls-232" x="270.78" y="160.56" width="0.29" height="161.16" transform="translate(-90.36 209.14) rotate(-36.61)"/><rect class="cls-233" x="271.02" y="160.38" width="0.29" height="161.16" transform="translate(-90.2 209.25) rotate(-36.61)"/><rect class="cls-234" x="271.25" y="160.21" width="0.29" height="161.16" transform="translate(-90.05 209.36) rotate(-36.61)"/><rect class="cls-235" x="271.49" y="160.03" width="0.29" height="161.16" transform="translate(-89.9 209.46) rotate(-36.61)"/><rect class="cls-236" x="271.73" y="159.85" width="0.29" height="161.16" transform="translate(-89.75 209.57) rotate(-36.61)"/><rect class="cls-237" x="271.96" y="159.68" width="0.29" height="161.16" transform="translate(-89.6 209.68) rotate(-36.61)"/><rect class="cls-238" x="272.2" y="159.5" width="0.29" height="161.16" transform="translate(-89.45 209.78) rotate(-36.61)"/><polygon class="cls-239" points="224.4 175.32 224.63 175.15 224.64 175.15 320.76 304.49 320.76 304.5 320.53 304.67 224.4 175.32"/><polygon class="cls-240" points="225.05 175.21 320.82 304.08 320.76 304.49 224.64 175.15 225.05 175.21"/><polygon class="cls-241" points="225.46 175.27 320.88 303.66 320.82 304.08 225.05 175.21 225.46 175.27"/><polygon class="cls-242" points="225.88 175.33 320.94 303.25 320.88 303.66 225.46 175.27 225.88 175.33"/><polygon class="cls-243" points="226.29 175.39 321 302.84 320.94 303.25 225.88 175.33 226.29 175.39"/><polygon class="cls-244" points="226.7 175.45 321.06 302.43 321 302.84 226.29 175.39 226.7 175.45"/><polygon class="cls-245" points="227.11 175.51 321.12 302.02 321.06 302.43 226.7 175.45 227.11 175.51"/><polygon class="cls-246" points="227.52 175.57 321.19 301.6 321.12 302.02 227.11 175.51 227.52 175.57"/><polygon class="cls-247" points="227.94 175.63 321.25 301.19 321.19 301.6 227.52 175.57 227.94 175.63"/><polygon class="cls-248" points="228.35 175.69 321.31 300.78 321.25 301.19 227.94 175.63 228.35 175.69"/><polygon class="cls-249" points="228.76 175.75 321.37 300.37 321.31 300.78 228.35 175.69 228.76 175.75"/><polygon class="cls-250" points="229.17 175.81 321.43 299.95 321.37 300.37 228.76 175.75 229.17 175.81"/><polygon class="cls-251" points="229.59 175.88 321.49 299.54 321.43 299.95 229.17 175.81 229.59 175.88"/><polygon class="cls-252" points="230 175.94 321.55 299.13 321.49 299.54 229.59 175.88 230 175.94"/><polygon class="cls-253" points="230.41 176 321.61 298.72 321.55 299.13 230 175.94 230.41 176"/><polygon class="cls-254" points="230.82 176.06 321.67 298.31 321.61 298.72 230.41 176 230.82 176.06"/><polygon class="cls-255" points="231.23 176.12 321.73 297.89 321.67 298.31 230.82 176.06 231.23 176.12"/><polygon class="cls-256" points="231.65 176.18 321.79 297.48 321.73 297.89 231.23 176.12 231.65 176.18"/><polygon class="cls-257" points="232.06 176.24 321.85 297.07 321.79 297.48 231.65 176.18 232.06 176.24"/><polygon class="cls-258" points="232.47 176.3 321.91 296.66 321.85 297.07 232.06 176.24 232.47 176.3"/><polygon class="cls-259" points="232.88 176.36 321.98 296.25 321.91 296.66 232.47 176.3 232.88 176.36"/><polygon class="cls-260" points="233.29 176.42 322.04 295.83 321.98 296.25 232.88 176.36 233.29 176.42"/><polygon class="cls-261" points="233.71 176.48 322.1 295.42 322.04 295.83 233.29 176.42 233.71 176.48"/><polygon class="cls-262" points="234.12 176.54 322.16 295.01 322.1 295.42 233.71 176.48 234.12 176.54"/><polygon class="cls-263" points="234.53 176.6 322.22 294.6 322.16 295.01 234.12 176.54 234.53 176.6"/><polygon class="cls-264" points="234.94 176.67 322.28 294.19 322.22 294.6 234.53 176.6 234.94 176.67"/><polygon class="cls-265" points="235.35 176.73 322.34 293.77 322.28 294.19 234.94 176.67 235.35 176.73"/><polygon class="cls-266" points="235.77 176.79 322.4 293.36 322.34 293.77 235.35 176.73 235.77 176.79"/><polygon class="cls-267" points="236.18 176.85 322.46 292.95 322.4 293.36 235.77 176.79 236.18 176.85"/><polygon class="cls-268" points="236.59 176.91 322.52 292.54 322.46 292.95 236.18 176.85 236.59 176.91"/><polygon class="cls-269" points="237 176.97 322.58 292.13 322.52 292.54 236.59 176.91 237 176.97"/><polygon class="cls-270" points="237.42 177.03 322.64 291.71 322.58 292.13 237 176.97 237.42 177.03"/><polygon class="cls-271" points="237.83 177.09 322.7 291.3 322.64 291.71 237.42 177.03 237.83 177.09"/><polygon class="cls-272" points="238.24 177.15 322.76 290.89 322.7 291.3 237.83 177.09 238.24 177.15"/><polygon class="cls-273" points="238.65 177.21 322.83 290.48 322.76 290.89 238.24 177.15 238.65 177.21"/><polygon class="cls-274" points="239.06 177.27 322.89 290.06 322.83 290.48 238.65 177.21 239.06 177.27"/><polygon class="cls-275" points="239.48 177.33 322.95 289.65 322.89 290.06 239.06 177.27 239.48 177.33"/><polygon class="cls-276" points="239.89 177.4 323.01 289.24 322.95 289.65 239.48 177.33 239.89 177.4"/><polygon class="cls-277" points="240.3 177.46 323.07 288.83 323.01 289.24 239.89 177.4 240.3 177.46"/><polygon class="cls-278" points="240.71 177.52 323.13 288.42 323.07 288.83 240.3 177.46 240.71 177.52"/><polygon class="cls-279" points="241.13 177.58 323.19 288 323.13 288.42 240.71 177.52 241.13 177.58"/><polygon class="cls-280" points="241.54 177.64 323.25 287.59 323.19 288 241.13 177.58 241.54 177.64"/><polygon class="cls-281" points="241.95 177.7 323.31 287.18 323.25 287.59 241.54 177.64 241.95 177.7"/><polygon class="cls-282" points="242.36 177.76 323.37 286.77 323.31 287.18 241.95 177.7 242.36 177.76"/><polygon class="cls-283" points="242.77 177.82 323.43 286.36 323.37 286.77 242.36 177.76 242.77 177.82"/><polygon class="cls-284" points="243.19 177.88 323.49 285.94 323.43 286.36 242.77 177.82 243.19 177.88"/><polygon class="cls-285" points="243.6 177.94 323.56 285.53 323.49 285.94 243.19 177.88 243.6 177.94"/><polygon class="cls-286" points="244.01 178 323.62 285.12 323.56 285.53 243.6 177.94 244.01 178"/><polygon class="cls-287" points="244.42 178.06 323.68 284.71 323.62 285.12 244.01 178 244.42 178.06"/><polygon class="cls-288" points="244.84 178.12 323.74 284.3 323.68 284.71 244.42 178.06 244.84 178.12"/><polygon class="cls-289" points="245.25 178.19 323.8 283.88 323.74 284.3 244.84 178.12 245.25 178.19"/><polygon class="cls-290" points="245.66 178.25 323.86 283.47 323.8 283.88 245.25 178.19 245.66 178.25"/><polygon class="cls-291" points="246.07 178.31 323.92 283.06 323.86 283.47 245.66 178.25 246.07 178.31"/><polygon class="cls-292" points="246.48 178.37 323.98 282.65 323.92 283.06 246.07 178.31 246.48 178.37"/><polygon class="cls-293" points="246.9 178.43 324.04 282.23 323.98 282.65 246.48 178.37 246.9 178.43"/><polygon class="cls-294" points="247.31 178.49 324.1 281.82 324.04 282.23 246.9 178.43 247.31 178.49"/><polygon class="cls-295" points="247.72 178.55 324.16 281.41 324.1 281.82 247.31 178.49 247.72 178.55"/><polygon class="cls-296" points="248.13 178.61 324.22 281 324.16 281.41 247.72 178.55 248.13 178.61"/><polygon class="cls-296" points="324.22 281 248.13 178.61 337.38 191.77 324.22 281"/></g></g><g class="cls-297"><g class="cls-298"><polygon class="cls-296" points="283.33 273.67 243.13 219.55 290.29 226.5 283.33 273.67"/><polygon class="cls-296" points="283.22 274.4 242.4 219.44 243.13 219.55 283.33 273.67 283.22 274.4"/><polygon class="cls-295" points="283.12 275.12 241.68 219.33 242.4 219.44 283.22 274.4 283.12 275.12"/><polygon class="cls-294" points="283.01 275.84 240.96 219.23 241.68 219.33 283.12 275.12 283.01 275.84"/><polygon class="cls-293" points="282.9 276.57 240.23 219.12 240.96 219.23 283.01 275.84 282.9 276.57"/><polygon class="cls-292" points="282.8 277.29 239.51 219.01 240.23 219.12 282.9 276.57 282.8 277.29"/><polygon class="cls-291" points="282.69 278.01 238.78 218.91 239.51 219.01 282.8 277.29 282.69 278.01"/><polygon class="cls-290" points="282.58 278.74 238.06 218.8 238.78 218.91 282.69 278.01 282.58 278.74"/><polygon class="cls-289" points="282.48 279.46 237.34 218.69 238.06 218.8 282.58 278.74 282.48 279.46"/><polygon class="cls-288" points="282.37 280.19 236.61 218.59 237.34 218.69 282.48 279.46 282.37 280.19"/><polygon class="cls-287" points="282.26 280.91 235.89 218.48 236.61 218.59 282.37 280.19 282.26 280.91"/><polygon class="cls-286" points="282.16 281.63 235.17 218.37 235.89 218.48 282.26 280.91 282.16 281.63"/><polygon class="cls-285" points="282.05 282.36 234.44 218.27 235.17 218.37 282.16 281.63 282.05 282.36"/><polygon class="cls-284" points="281.94 283.08 233.72 218.16 234.44 218.27 282.05 282.36 281.94 283.08"/><polygon class="cls-283" points="281.84 283.81 233 218.05 233.72 218.16 281.94 283.08 281.84 283.81"/><polygon class="cls-282" points="281.73 284.53 232.27 217.95 233 218.05 281.84 283.81 281.73 284.53"/><polygon class="cls-281" points="281.62 285.25 231.55 217.84 232.27 217.95 281.73 284.53 281.62 285.25"/><polygon class="cls-280" points="281.52 285.98 230.82 217.73 231.55 217.84 281.62 285.25 281.52 285.98"/><polygon class="cls-279" points="281.41 286.7 230.1 217.63 230.82 217.73 281.52 285.98 281.41 286.7"/><polygon class="cls-278" points="281.3 287.43 229.38 217.52 230.1 217.63 281.41 286.7 281.3 287.43"/><polygon class="cls-277" points="281.2 288.15 228.65 217.41 229.38 217.52 281.3 287.43 281.2 288.15"/><polygon class="cls-276" points="281.09 288.87 227.93 217.31 228.65 217.41 281.2 288.15 281.09 288.87"/><polygon class="cls-275" points="280.98 289.6 227.21 217.2 227.93 217.31 281.09 288.87 280.98 289.6"/><polygon class="cls-274" points="280.88 290.32 226.48 217.09 227.21 217.2 280.98 289.6 280.88 290.32"/><polygon class="cls-273" points="280.77 291.04 225.76 216.99 226.48 217.09 280.88 290.32 280.77 291.04"/><polygon class="cls-272" points="280.66 291.77 225.04 216.88 225.76 216.99 280.77 291.04 280.66 291.77"/><polygon class="cls-271" points="280.56 292.49 224.31 216.77 225.04 216.88 280.66 291.77 280.56 292.49"/><polygon class="cls-270" points="280.45 293.21 223.59 216.67 224.31 216.77 280.56 292.49 280.45 293.21"/><polygon class="cls-269" points="280.34 293.94 222.87 216.56 223.59 216.67 280.45 293.21 280.34 293.94"/><polygon class="cls-268" points="280.24 294.66 222.14 216.45 222.87 216.56 280.34 293.94 280.24 294.66"/><polygon class="cls-267" points="280.13 295.39 221.42 216.35 222.14 216.45 280.24 294.66 280.13 295.39"/><polygon class="cls-266" points="280.02 296.11 220.69 216.24 221.42 216.35 280.13 295.39 280.02 296.11"/><polygon class="cls-265" points="279.92 296.83 219.97 216.13 220.69 216.24 280.02 296.11 279.92 296.83"/><polygon class="cls-264" points="279.81 297.56 219.25 216.03 219.97 216.13 279.92 296.83 279.81 297.56"/><polygon class="cls-263" points="279.7 298.28 218.52 215.92 219.25 216.03 279.81 297.56 279.7 298.28"/><polygon class="cls-262" points="279.6 299 217.8 215.81 218.52 215.92 279.7 298.28 279.6 299"/><polygon class="cls-261" points="279.49 299.73 217.08 215.71 217.8 215.81 279.6 299 279.49 299.73"/><polygon class="cls-260" points="279.38 300.45 216.35 215.6 217.08 215.71 279.49 299.73 279.38 300.45"/><polygon class="cls-259" points="279.28 301.18 215.63 215.49 216.35 215.6 279.38 300.45 279.28 301.18"/><polygon class="cls-258" points="279.17 301.9 214.91 215.39 215.63 215.49 279.28 301.18 279.17 301.9"/><polygon class="cls-257" points="279.06 302.62 214.18 215.28 214.91 215.39 279.17 301.9 279.06 302.62"/><polygon class="cls-256" points="278.96 303.35 213.46 215.17 214.18 215.28 279.06 302.62 278.96 303.35"/><polygon class="cls-255" points="278.85 304.07 212.74 215.07 213.46 215.17 278.96 303.35 278.85 304.07"/><polygon class="cls-254" points="278.74 304.8 212.01 214.96 212.74 215.07 278.85 304.07 278.74 304.8"/><polygon class="cls-253" points="278.64 305.52 211.29 214.85 212.01 214.96 278.74 304.8 278.64 305.52"/><polygon class="cls-252" points="278.53 306.24 210.56 214.75 211.29 214.85 278.64 305.52 278.53 306.24"/><polygon class="cls-251" points="278.42 306.97 209.84 214.64 210.56 214.75 278.53 306.24 278.42 306.97"/><polygon class="cls-250" points="278.32 307.69 209.12 214.53 209.84 214.64 278.42 306.97 278.32 307.69"/><polygon class="cls-249" points="278.21 308.41 208.39 214.43 209.12 214.53 278.32 307.69 278.21 308.41"/><polygon class="cls-248" points="278.1 309.14 207.67 214.32 208.39 214.43 278.21 308.41 278.1 309.14"/><polygon class="cls-247" points="278 309.86 206.95 214.21 207.67 214.32 278.1 309.14 278 309.86"/><polygon class="cls-246" points="277.89 310.59 206.22 214.11 206.95 214.21 278 309.86 277.89 310.59"/><polygon class="cls-245" points="277.78 311.31 205.5 214 206.22 214.11 277.89 310.59 277.78 311.31"/><polygon class="cls-244" points="277.68 312.03 204.78 213.89 205.5 214 277.78 311.31 277.68 312.03"/><polygon class="cls-243" points="277.57 312.76 204.05 213.79 204.78 213.89 277.68 312.03 277.57 312.76"/><polygon class="cls-242" points="277.46 313.48 203.33 213.68 204.05 213.79 277.57 312.76 277.46 313.48"/><polygon class="cls-241" points="277.36 314.2 202.6 213.57 203.33 213.68 277.46 313.48 277.36 314.2"/><polygon class="cls-240" points="277.25 314.93 201.88 213.47 202.6 213.57 277.36 314.2 277.25 314.93"/><polygon class="cls-239" points="277.14 315.65 201.16 213.36 201.88 213.47 277.25 314.93 277.14 315.65"/><polygon class="cls-238" points="277.04 316.38 200.43 213.25 201.16 213.36 277.14 315.65 277.04 316.38"/><polygon class="cls-237" points="276.93 317.1 199.71 213.15 200.43 213.25 277.04 316.38 276.93 317.1"/><polygon class="cls-236" points="276.82 317.82 198.99 213.04 199.71 213.15 276.93 317.1 276.82 317.82"/><polygon class="cls-235" points="276.72 318.55 198.26 212.93 198.99 213.04 276.82 317.82 276.72 318.55"/><polygon class="cls-234" points="276.61 319.27 197.54 212.83 198.26 212.93 276.72 318.55 276.61 319.27"/><polygon class="cls-233" points="276.5 320 196.82 212.72 197.54 212.83 276.61 319.27 276.5 320"/><polygon class="cls-232" points="276.39 320.72 196.09 212.61 196.82 212.72 276.5 320 276.39 320.72"/><polygon class="cls-231" points="276.29 321.44 195.37 212.51 196.09 212.61 276.39 320.72 276.29 321.44"/><polygon class="cls-230" points="276.18 322.17 194.65 212.4 195.37 212.51 276.29 321.44 276.18 322.17"/><polygon class="cls-229" points="276.07 322.89 193.92 212.29 194.65 212.4 276.18 322.17 276.07 322.89"/><polygon class="cls-228" points="275.97 323.61 193.2 212.19 193.92 212.29 276.07 322.89 275.97 323.61"/><polygon class="cls-227" points="275.86 324.34 192.47 212.08 193.2 212.19 275.97 323.61 275.86 324.34"/><polygon class="cls-226" points="275.75 325.06 191.75 211.97 192.47 212.08 275.86 324.34 275.75 325.06"/><polygon class="cls-225" points="275.65 325.79 191.03 211.87 191.75 211.97 275.75 325.06 275.65 325.79"/><polygon class="cls-224" points="275.54 326.51 190.3 211.76 191.03 211.87 275.65 325.79 275.54 326.51"/><polygon class="cls-223" points="275.44 327.23 189.58 211.65 190.3 211.76 275.54 326.51 275.44 327.23"/><polygon class="cls-222" points="275.33 327.96 188.86 211.55 189.58 211.65 275.44 327.23 275.33 327.96"/><polygon class="cls-221" points="275.22 328.68 188.13 211.44 188.86 211.55 275.33 327.96 275.22 328.68"/><polygon class="cls-220" points="275.12 329.4 187.41 211.33 188.13 211.44 275.22 328.68 275.12 329.4"/><polygon class="cls-219" points="275.01 330.13 186.69 211.23 187.41 211.33 275.12 329.4 275.01 330.13"/><polygon class="cls-218" points="274.9 330.85 185.96 211.12 186.69 211.23 275.01 330.13 274.9 330.85"/><polygon class="cls-217" points="274.8 331.57 185.24 211.01 185.96 211.12 274.9 330.85 274.8 331.57"/><polygon class="cls-216" points="274.69 332.3 184.51 210.91 185.24 211.01 274.8 331.57 274.69 332.3"/><polygon class="cls-215" points="274.58 333.02 183.79 210.8 184.51 210.91 274.69 332.3 274.58 333.02"/><polygon class="cls-214" points="274.48 333.75 183.07 210.69 183.79 210.8 274.58 333.02 274.48 333.75"/><polygon class="cls-213" points="274.37 334.47 182.34 210.59 183.07 210.69 274.48 333.75 274.37 334.47"/><polygon class="cls-212" points="274.26 335.19 181.62 210.48 182.34 210.59 274.37 334.47 274.26 335.19"/><polygon class="cls-211" points="274.15 335.92 180.9 210.37 181.62 210.48 274.26 335.19 274.15 335.92"/><polygon class="cls-210" points="274.05 336.64 180.17 210.27 180.9 210.37 274.15 335.92 274.05 336.64"/><polygon class="cls-209" points="273.94 337.37 179.45 210.16 180.17 210.27 274.05 336.64 273.94 337.37"/><polygon class="cls-208" points="273.83 338.09 178.73 210.05 179.45 210.16 273.94 337.37 273.83 338.09"/><polygon class="cls-207" points="273.73 338.81 178 209.95 178.73 210.05 273.83 338.09 273.73 338.81"/><polygon class="cls-206" points="273.62 339.54 177.28 209.84 178 209.95 273.73 338.81 273.62 339.54"/><polygon class="cls-205" points="273.51 340.26 176.56 209.73 177.28 209.84 273.62 339.54 273.51 340.26"/><polygon class="cls-204" points="273.41 340.99 175.83 209.63 176.56 209.73 273.51 340.26 273.41 340.99"/><polygon class="cls-203" points="273.3 341.71 175.11 209.52 175.83 209.63 273.41 340.99 273.3 341.71"/><polygon class="cls-202" points="273.19 342.43 174.38 209.41 175.11 209.52 273.3 341.71 273.19 342.43"/><polygon class="cls-201" points="273.19 342.47 272.79 342.76 173.86 209.58 174.14 209.38 174.38 209.41 273.19 342.43 273.19 342.47"/><polygon class="cls-200" points="173.86 209.58 173.44 209.88 272.38 343.06 272.79 342.76 173.86 209.58"/><polygon class="cls-199" points="173.44 209.88 173.03 210.19 271.96 343.37 272.38 343.06 173.44 209.88"/><polygon class="cls-198" points="173.03 210.19 172.61 210.49 271.54 343.67 271.96 343.37 173.03 210.19"/><polygon class="cls-197" points="172.61 210.49 172.19 210.79 271.12 343.98 271.54 343.67 172.61 210.49"/><polygon class="cls-196" points="172.19 210.79 171.77 211.1 270.7 344.28 271.12 343.98 172.19 210.79"/><polygon class="cls-195" points="171.77 211.1 171.35 211.4 270.28 344.58 270.7 344.28 171.77 211.1"/><polygon class="cls-194" points="171.35 211.4 170.93 211.71 269.87 344.89 270.28 344.58 171.35 211.4"/><polygon class="cls-193" points="170.93 211.71 170.51 212.01 269.45 345.19 269.87 344.89 170.93 211.71"/><polygon class="cls-192" points="170.51 212.01 170.1 212.31 269.03 345.5 269.45 345.19 170.51 212.01"/><polygon class="cls-191" points="170.1 212.31 169.68 212.62 268.61 345.8 269.03 345.5 170.1 212.31"/><polygon class="cls-190" points="169.68 212.62 169.26 212.92 268.19 346.11 268.61 345.8 169.68 212.62"/><polygon class="cls-189" points="169.26 212.92 168.84 213.23 267.77 346.41 268.19 346.11 169.26 212.92"/><polygon class="cls-188" points="168.84 213.23 168.42 213.53 267.35 346.71 267.77 346.41 168.84 213.23"/><polygon class="cls-187" points="168.42 213.53 168 213.83 266.94 347.02 267.35 346.71 168.42 213.53"/><polygon class="cls-186" points="168 213.83 167.59 214.14 266.52 347.32 266.94 347.02 168 213.83"/><polygon class="cls-185" points="167.59 214.14 167.17 214.44 266.1 347.63 266.52 347.32 167.59 214.14"/><polygon class="cls-184" points="167.17 214.44 166.75 214.75 265.68 347.93 266.1 347.63 167.17 214.44"/><polygon class="cls-183" points="166.75 214.75 166.33 215.05 265.26 348.24 265.68 347.93 166.75 214.75"/><polygon class="cls-182" points="166.33 215.05 165.91 215.35 264.84 348.54 265.26 348.24 166.33 215.05"/><polygon class="cls-181" points="165.91 215.35 165.49 215.66 264.43 348.84 264.84 348.54 165.91 215.35"/><polygon class="cls-180" points="165.49 215.66 165.07 215.96 264.01 349.15 264.43 348.84 165.49 215.66"/><polygon class="cls-179" points="165.07 215.96 164.66 216.27 263.59 349.45 264.01 349.15 165.07 215.96"/><polygon class="cls-178" points="164.66 216.27 164.24 216.57 263.17 349.75 263.59 349.45 164.66 216.27"/><polygon class="cls-177" points="164.24 216.57 163.82 216.88 262.75 350.06 263.17 349.75 164.24 216.57"/><polygon class="cls-176" points="163.82 216.88 163.4 217.18 262.33 350.36 262.75 350.06 163.82 216.88"/><polygon class="cls-175" points="163.4 217.18 162.98 217.48 261.92 350.67 262.33 350.36 163.4 217.18"/><polygon class="cls-174" points="162.98 217.48 162.56 217.79 261.5 350.97 261.92 350.67 162.98 217.48"/><polygon class="cls-173" points="162.56 217.79 162.15 218.09 261.08 351.28 261.5 350.97 162.56 217.79"/><polygon class="cls-172" points="162.15 218.09 161.73 218.4 260.66 351.58 261.08 351.28 162.15 218.09"/><polygon class="cls-171" points="260.66 351.58 260.27 351.86 260.22 351.85 161.31 218.7 161.73 218.4 260.66 351.58"/><polygon class="cls-170" points="259.49 351.74 161.14 219.34 161.22 218.76 161.31 218.7 260.22 351.85 259.49 351.74"/><polygon class="cls-169" points="258.77 351.64 161.03 220.06 161.14 219.34 259.49 351.74 258.77 351.64"/><polygon class="cls-168" points="258.05 351.53 160.92 220.78 161.03 220.06 258.77 351.64 258.05 351.53"/><polygon class="cls-167" points="257.32 351.42 160.82 221.51 160.92 220.78 258.05 351.53 257.32 351.42"/><polygon class="cls-166" points="256.6 351.32 160.71 222.23 160.82 221.51 257.32 351.42 256.6 351.32"/><polygon class="cls-165" points="255.88 351.21 160.6 222.96 160.71 222.23 256.6 351.32 255.88 351.21"/><polygon class="cls-164" points="255.15 351.1 160.5 223.68 160.6 222.96 255.88 351.21 255.15 351.1"/><polygon class="cls-163" points="254.43 351 160.39 224.4 160.5 223.68 255.15 351.1 254.43 351"/><polygon class="cls-162" points="253.7 350.89 160.28 225.13 160.39 224.4 254.43 351 253.7 350.89"/><polygon class="cls-161" points="252.98 350.78 160.18 225.85 160.28 225.13 253.7 350.89 252.98 350.78"/><polygon class="cls-160" points="252.26 350.68 160.07 226.58 160.18 225.85 252.98 350.78 252.26 350.68"/><polygon class="cls-159" points="251.53 350.57 159.96 227.3 160.07 226.58 252.26 350.68 251.53 350.57"/><polygon class="cls-158" points="250.81 350.46 159.86 228.02 159.96 227.3 251.53 350.57 250.81 350.46"/><polygon class="cls-157" points="250.09 350.36 159.75 228.75 159.86 228.02 250.81 350.46 250.09 350.36"/><polygon class="cls-156" points="249.36 350.25 159.64 229.47 159.75 228.75 250.09 350.36 249.36 350.25"/><polygon class="cls-155" points="248.64 350.14 159.54 230.19 159.64 229.47 249.36 350.25 248.64 350.14"/><polygon class="cls-154" points="247.91 350.04 159.43 230.92 159.54 230.19 248.64 350.14 247.91 350.04"/><polygon class="cls-153" points="247.19 349.93 159.32 231.64 159.43 230.92 247.91 350.04 247.19 349.93"/><polygon class="cls-152" points="246.47 349.82 159.22 232.37 159.32 231.64 247.19 349.93 246.47 349.82"/><polygon class="cls-151" points="245.75 349.72 159.11 233.09 159.22 232.37 246.47 349.82 245.75 349.72"/><polygon class="cls-150" points="245.02 349.61 159 233.81 159.11 233.09 245.75 349.72 245.02 349.61"/><polygon class="cls-149" points="244.3 349.5 158.9 234.54 159 233.81 245.02 349.61 244.3 349.5"/><polygon class="cls-148" points="243.57 349.4 158.79 235.26 158.9 234.54 244.3 349.5 243.57 349.4"/><polygon class="cls-147" points="242.85 349.29 158.68 235.99 158.79 235.26 243.57 349.4 242.85 349.29"/><polygon class="cls-146" points="242.13 349.18 158.58 236.71 158.68 235.99 242.85 349.29 242.13 349.18"/><polygon class="cls-145" points="241.4 349.08 158.47 237.43 158.58 236.71 242.13 349.18 241.4 349.08"/><polygon class="cls-144" points="240.68 348.97 158.36 238.16 158.47 237.43 241.4 349.08 240.68 348.97"/><polygon class="cls-143" points="239.96 348.86 158.26 238.88 158.36 238.16 240.68 348.97 239.96 348.86"/><polygon class="cls-142" points="239.23 348.76 158.15 239.6 158.26 238.88 239.96 348.86 239.23 348.76"/><polygon class="cls-141" points="238.51 348.65 158.04 240.33 158.15 239.6 239.23 348.76 238.51 348.65"/><polygon class="cls-140" points="237.78 348.54 157.94 241.05 158.04 240.33 238.51 348.65 237.78 348.54"/><polygon class="cls-139" points="237.06 348.44 157.83 241.78 157.94 241.05 237.78 348.54 237.06 348.44"/><polygon class="cls-138" points="236.34 348.33 157.72 242.5 157.83 241.78 237.06 348.44 236.34 348.33"/><polygon class="cls-137" points="235.61 348.22 157.62 243.22 157.72 242.5 236.34 348.33 235.61 348.22"/><polygon class="cls-136" points="234.89 348.12 157.51 243.95 157.62 243.22 235.61 348.22 234.89 348.12"/><polygon class="cls-135" points="234.17 348.01 157.4 244.67 157.51 243.95 234.89 348.12 234.17 348.01"/><polygon class="cls-134" points="233.44 347.9 157.3 245.39 157.4 244.67 234.17 348.01 233.44 347.9"/><polygon class="cls-133" points="232.72 347.8 157.19 246.12 157.3 245.39 233.44 347.9 232.72 347.8"/><polygon class="cls-132" points="232 347.69 157.08 246.84 157.19 246.12 232.72 347.8 232 347.69"/><polygon class="cls-131" points="231.27 347.58 156.98 247.56 157.08 246.84 232 347.69 231.27 347.58"/><polygon class="cls-130" points="230.55 347.48 156.87 248.29 156.98 247.56 231.27 347.58 230.55 347.48"/><polygon class="cls-129" points="229.83 347.37 156.76 249.01 156.87 248.29 230.55 347.48 229.83 347.37"/><polygon class="cls-128" points="229.1 347.26 156.66 249.74 156.76 249.01 229.83 347.37 229.1 347.26"/><polygon class="cls-127" points="228.38 347.16 156.55 250.46 156.66 249.74 229.1 347.26 228.38 347.16"/><polygon class="cls-126" points="227.66 347.05 156.44 251.18 156.55 250.46 228.38 347.16 227.66 347.05"/><polygon class="cls-125" points="226.93 346.94 156.34 251.91 156.44 251.18 227.66 347.05 226.93 346.94"/><polygon class="cls-124" points="226.21 346.84 156.23 252.63 156.34 251.91 226.93 346.94 226.21 346.84"/><polygon class="cls-123" points="225.48 346.73 156.12 253.36 156.23 252.63 226.21 346.84 225.48 346.73"/><polygon class="cls-122" points="224.76 346.62 156.02 254.08 156.12 253.36 225.48 346.73 224.76 346.62"/><polygon class="cls-121" points="224.04 346.52 155.91 254.8 156.02 254.08 224.76 346.62 224.04 346.52"/><polygon class="cls-120" points="223.31 346.41 155.8 255.53 155.91 254.8 224.04 346.52 223.31 346.41"/><polygon class="cls-119" points="222.59 346.3 155.7 256.25 155.8 255.53 223.31 346.41 222.59 346.3"/><polygon class="cls-118" points="221.87 346.2 155.59 256.98 155.7 256.25 222.59 346.3 221.87 346.2"/><polygon class="cls-117" points="221.14 346.09 155.48 257.7 155.59 256.98 221.87 346.2 221.14 346.09"/><polygon class="cls-116" points="220.42 345.98 155.38 258.42 155.48 257.7 221.14 346.09 220.42 345.98"/><polygon class="cls-115" points="219.7 345.88 155.27 259.15 155.38 258.42 220.42 345.98 219.7 345.88"/><polygon class="cls-114" points="218.97 345.77 155.16 259.87 155.27 259.15 219.7 345.88 218.97 345.77"/><polygon class="cls-113" points="218.25 345.66 155.06 260.59 155.16 259.87 218.97 345.77 218.25 345.66"/><polygon class="cls-112" points="217.53 345.56 154.95 261.32 155.06 260.59 218.25 345.66 217.53 345.56"/><polygon class="cls-111" points="216.8 345.45 154.84 262.04 154.95 261.32 217.53 345.56 216.8 345.45"/><polygon class="cls-110" points="216.08 345.34 154.74 262.76 154.84 262.04 216.8 345.45 216.08 345.34"/><polygon class="cls-109" points="215.35 345.24 154.63 263.49 154.74 262.76 216.08 345.34 215.35 345.24"/><polygon class="cls-108" points="214.63 345.13 154.52 264.21 154.63 263.49 215.35 345.24 214.63 345.13"/><polygon class="cls-107" points="213.91 345.02 154.42 264.94 154.52 264.21 214.63 345.13 213.91 345.02"/><polygon class="cls-106" points="213.18 344.92 154.31 265.66 154.42 264.94 213.91 345.02 213.18 344.92"/><polygon class="cls-105" points="212.46 344.81 154.2 266.38 154.31 265.66 213.18 344.92 212.46 344.81"/><polygon class="cls-104" points="211.74 344.7 154.1 267.11 154.2 266.38 212.46 344.81 211.74 344.7"/><polygon class="cls-103" points="211.01 344.6 153.99 267.83 154.1 267.11 211.74 344.7 211.01 344.6"/><polygon class="cls-102" points="210.29 344.49 153.88 268.56 153.99 267.83 211.01 344.6 210.29 344.49"/><polygon class="cls-101" points="209.57 344.38 153.78 269.28 153.88 268.56 210.29 344.49 209.57 344.38"/><polygon class="cls-100" points="208.84 344.28 153.67 270 153.78 269.28 209.57 344.38 208.84 344.28"/><polygon class="cls-99" points="208.12 344.17 153.56 270.73 153.67 270 208.84 344.28 208.12 344.17"/><polygon class="cls-98" points="207.4 344.06 153.46 271.45 153.56 270.73 208.12 344.17 207.4 344.06"/><polygon class="cls-97" points="206.67 343.96 153.35 272.17 153.46 271.45 207.4 344.06 206.67 343.96"/><polygon class="cls-96" points="205.95 343.85 153.24 272.9 153.35 272.17 206.67 343.96 205.95 343.85"/><polygon class="cls-95" points="205.22 343.74 153.13 273.62 153.24 272.9 205.95 343.85 205.22 343.74"/><polygon class="cls-94" points="204.5 343.64 153.03 274.35 153.13 273.62 205.22 343.74 204.5 343.64"/><polygon class="cls-93" points="203.78 343.53 152.92 275.07 153.03 274.35 204.5 343.64 203.78 343.53"/><polygon class="cls-92" points="203.05 343.42 152.81 275.79 152.92 275.07 203.78 343.53 203.05 343.42"/><polygon class="cls-91" points="202.33 343.32 152.71 276.52 152.81 275.79 203.05 343.42 202.33 343.32"/><polygon class="cls-90" points="201.61 343.21 152.6 277.24 152.71 276.52 202.33 343.32 201.61 343.21"/><polygon class="cls-89" points="200.88 343.1 152.5 277.96 152.6 277.24 201.61 343.21 200.88 343.1"/><polygon class="cls-88" points="200.16 343 152.39 278.69 152.5 277.96 200.88 343.1 200.16 343"/><polygon class="cls-87" points="199.44 342.89 152.28 279.41 152.39 278.69 200.16 343 199.44 342.89"/><polygon class="cls-86" points="198.71 342.78 152.18 280.14 152.28 279.41 199.44 342.89 198.71 342.78"/><polygon class="cls-85" points="197.99 342.68 152.07 280.86 152.18 280.14 198.71 342.78 197.99 342.68"/><polygon class="cls-84" points="197.26 342.57 151.96 281.58 152.07 280.86 197.99 342.68 197.26 342.57"/><polygon class="cls-83" points="196.54 342.46 151.85 282.31 151.96 281.58 197.26 342.57 196.54 342.46"/><polygon class="cls-82" points="195.82 342.36 151.75 283.03 151.85 282.31 196.54 342.46 195.82 342.36"/><polygon class="cls-81" points="195.09 342.25 151.64 283.75 151.75 283.03 195.82 342.36 195.09 342.25"/><polygon class="cls-80" points="194.37 342.14 151.53 284.48 151.64 283.75 195.09 342.25 194.37 342.14"/><polygon class="cls-79" points="193.65 342.04 151.43 285.2 151.53 284.48 194.37 342.14 193.65 342.04"/><polygon class="cls-78" points="192.92 341.93 151.32 285.93 151.43 285.2 193.65 342.04 192.92 341.93"/><polygon class="cls-77" points="192.2 341.82 151.22 286.65 151.32 285.93 192.92 341.93 192.2 341.82"/><polygon class="cls-76" points="191.48 341.72 151.11 287.37 151.22 286.65 192.2 341.82 191.48 341.72"/><polygon class="cls-75" points="190.75 341.61 151 288.1 151.11 287.37 191.48 341.72 190.75 341.61"/><polygon class="cls-74" points="190.03 341.5 150.9 288.82 151 288.1 190.75 341.61 190.03 341.5"/><polygon class="cls-73" points="189.31 341.4 150.79 289.55 150.9 288.82 190.03 341.5 189.31 341.4"/><polygon class="cls-73" points="150.79 289.55 189.31 341.4 144.13 334.74 150.79 289.55"/></g></g><g class="cls-299"><rect class="cls-300" x="199.48" y="282.4" width="114.52" height="4.87" transform="translate(-119.22 209.33) rotate(-36.61)"/><rect class="cls-300" x="206.12" y="291.34" width="114.52" height="4.87" transform="translate(-123.24 215.06) rotate(-36.61)"/><rect class="cls-300" x="212.77" y="300.29" width="114.52" height="4.87" transform="translate(-127.27 220.79) rotate(-36.61)"/></g><g class="cls-299"><rect class="cls-300" x="150.69" y="216.74" width="114.52" height="4.87" transform="translate(-89.69 167.27) rotate(-36.61)"/><rect class="cls-301" x="157.33" y="225.68" width="114.52" height="4.87" transform="matrix(0.8, -0.6, 0.6, 0.8, -93.71, 173)"/><rect class="cls-300" x="163.98" y="234.63" width="114.52" height="4.87" transform="translate(-97.73 178.73) rotate(-36.61)"/></g><rect class="cls-6" x="227.46" y="320.06" width="114.52" height="4.87" transform="translate(-136.16 233.45) rotate(-36.61)"/><g class="cls-302"><rect class="cls-9" x="139.61" y="201.83" width="114.52" height="4.87" transform="translate(-82.98 157.72) rotate(-36.61)"/></g><rect class="cls-294" x="189.98" y="189.5" width="47.42" height="4.87" transform="translate(-72.31 165.33) rotate(-36.61)"/></g><circle class="cls-303" cx="252.2" cy="251.58" r="230.95"/><rect class="cls-296" x="157.25" y="225.05" width="114.52" height="4.87" transform="matrix(0.8, -0.6, 0.6, 0.8, -93.32, 172.67)"/><rect class="cls-296" x="205.84" y="291.6" width="114.52" height="4.87" transform="translate(-123.41 214.74) rotate(-36.58)"/><path class="cls-304" d="M322.91,297.15,344,325.57l3.75,5.05.58.78c5.27,7.08-7.37,16.47-12.64,9.39l-.58-.78L331.38,335l-21.18-28.5Z"/></g></g></svg>