<svg xmlns="http://www.w3.org/2000/svg" viewBox="0 0 400 112.94"><defs><style>.cls-1{fill:#eb6155;}.cls-2{fill:#f6a52b;fill-rule:evenodd;}</style></defs><title>convocatoria-t</title><g id="Capa_3" data-name="Capa 3"><path class="cls-1" d="M52.3,95.31a.74.74,0,0,1-.43-.14L33.67,81.39,15.48,95.17a.72.72,0,0,1-.91,0,.48.48,0,0,1,0-.77L33.67,79.92,52.73,94.35a.49.49,0,0,1,.05.77A.71.71,0,0,1,52.3,95.31Z"/><path class="cls-1" d="M52.3,96.21a1.89,1.89,0,0,1-1.12-.36L33.67,82.59,16.17,95.85a1.92,1.92,0,0,1-2.38-.12,1.31,1.31,0,0,1-.43-1.06,1.37,1.37,0,0,1,.57-1L33.67,78.72,53.42,93.66a1.4,1.4,0,0,1,.57,1,1.35,1.35,0,0,1-.43,1.06A1.83,1.83,0,0,1,52.3,96.21Z"/><path class="cls-1" d="M89.55,95.31a.74.74,0,0,1-.43-.14L70.92,81.39,52.73,95.17a.72.72,0,0,1-.91,0,.48.48,0,0,1,0-.77L70.92,79.92,90,94.35a.48.48,0,0,1,0,.77A.71.71,0,0,1,89.55,95.31Z"/><path class="cls-1" d="M89.55,96.21a1.84,1.84,0,0,1-1.11-.36L70.92,82.59,53.42,95.85A1.92,1.92,0,0,1,51,95.73a1.33,1.33,0,0,1-.43-1.06,1.37,1.37,0,0,1,.57-1L70.92,78.72,90.67,93.66a1.4,1.4,0,0,1,.57,1,1.31,1.31,0,0,1-.43,1.06A1.81,1.81,0,0,1,89.55,96.21ZM89.29,95Z"/><path class="cls-1" d="M126.8,95.31a.76.76,0,0,1-.43-.14L108.18,81.39,90,95.17a.72.72,0,0,1-.91,0,.48.48,0,0,1,.05-.77l19.06-14.43,19,14.43a.48.48,0,0,1,0,.77A.69.69,0,0,1,126.8,95.31Z"/><path class="cls-1" d="M126.8,96.21a1.86,1.86,0,0,1-1.11-.36L108.18,82.59,90.67,95.85a1.91,1.91,0,0,1-2.38-.12,1.33,1.33,0,0,1-.43-1.06,1.37,1.37,0,0,1,.57-1l19.75-14.94,19.74,14.94a1.37,1.37,0,0,1,.57,1,1.33,1.33,0,0,1-.43,1.06A1.86,1.86,0,0,1,126.8,96.21Z"/><path class="cls-1" d="M164.05,95.31a.76.76,0,0,1-.43-.14L145.43,81.39l-18.2,13.78a.72.72,0,0,1-.91,0,.49.49,0,0,1,.05-.77l19.06-14.43,19,14.43a.48.48,0,0,1,.05.77A.69.69,0,0,1,164.05,95.31Z"/><path class="cls-1" d="M164.05,96.21a1.86,1.86,0,0,1-1.11-.36L145.43,82.59,127.92,95.85a1.91,1.91,0,0,1-2.38-.12,1.33,1.33,0,0,1-.43-1.06,1.4,1.4,0,0,1,.57-1l19.75-14.94,19.74,14.94a1.37,1.37,0,0,1,.57,1,1.33,1.33,0,0,1-.43,1.06A1.86,1.86,0,0,1,164.05,96.21Z"/><path class="cls-1" d="M201.3,95.31a.76.76,0,0,1-.43-.14L182.68,81.39l-18.2,13.78a.72.72,0,0,1-.91,0,.49.49,0,0,1,.05-.77l19.06-14.43,19,14.43a.49.49,0,0,1,.06.77A.73.73,0,0,1,201.3,95.31Z"/><path class="cls-1" d="M201.3,96.21a1.86,1.86,0,0,1-1.11-.36L182.68,82.59,165.17,95.85a1.91,1.91,0,0,1-2.38-.12,1.37,1.37,0,0,1-.43-1.06,1.4,1.4,0,0,1,.57-1l19.75-14.94,19.74,14.94a1.34,1.34,0,0,1,.57,1,1.3,1.3,0,0,1-.43,1.06A1.84,1.84,0,0,1,201.3,96.21Z"/><path class="cls-1" d="M238.55,95.31a.71.71,0,0,1-.42-.14l-18.2-13.78-18.2,13.78a.72.72,0,0,1-.91,0,.49.49,0,0,1,.05-.77l19.06-14.43,19,14.43a.49.49,0,0,1,.06.77A.73.73,0,0,1,238.55,95.31Z"/><path class="cls-1" d="M238.55,96.21a1.86,1.86,0,0,1-1.11-.36L219.93,82.59,202.42,95.85a1.9,1.9,0,0,1-2.37-.12,1.34,1.34,0,0,1-.44-1.06,1.4,1.4,0,0,1,.57-1l19.75-14.94,19.74,14.94a1.34,1.34,0,0,1,.57,1,1.3,1.3,0,0,1-.43,1.06A1.84,1.84,0,0,1,238.55,96.21Z"/><path class="cls-1" d="M275.81,95.31a.71.71,0,0,1-.43-.14l-18.2-13.78L239,95.17a.72.72,0,0,1-.91,0,.49.49,0,0,1,.06-.77l19.05-14.43,19.05,14.43a.49.49,0,0,1,.06.77A.73.73,0,0,1,275.81,95.31Z"/><path class="cls-1" d="M275.8,96.21a1.89,1.89,0,0,1-1.11-.36L257.18,82.59,239.67,95.85a1.9,1.9,0,0,1-2.37-.12,1.3,1.3,0,0,1-.43-1.06,1.36,1.36,0,0,1,.56-1l19.75-14.94,19.74,14.94a1.38,1.38,0,0,1,.58,1,1.34,1.34,0,0,1-.44,1.06A1.82,1.82,0,0,1,275.8,96.21Z"/><path class="cls-1" d="M313.06,95.31a.71.71,0,0,1-.43-.14l-18.2-13.78-18.2,13.78a.72.72,0,0,1-.91,0,.49.49,0,0,1,.06-.77l19.05-14.43,19.06,14.43a.49.49,0,0,1,.05.77A.73.73,0,0,1,313.06,95.31Z"/><path class="cls-1" d="M313.06,96.21a1.89,1.89,0,0,1-1.12-.36L294.43,82.59,276.92,95.85a1.91,1.91,0,0,1-2.37-.12,1.3,1.3,0,0,1-.43-1.06,1.34,1.34,0,0,1,.57-1l19.74-14.94,19.75,14.94a1.4,1.4,0,0,1,.57,1,1.34,1.34,0,0,1-.44,1.06A1.82,1.82,0,0,1,313.06,96.21Z"/><path class="cls-1" d="M351.6,95.31a.74.74,0,0,1-.43-.14L333,81.39,314.78,95.17a.72.72,0,0,1-.91,0,.48.48,0,0,1,.05-.77L333,79.92,352,94.35a.49.49,0,0,1,.05.77A.71.71,0,0,1,351.6,95.31Z"/><path class="cls-1" d="M351.6,96.21a1.93,1.93,0,0,1-1.11-.35L333,82.59l-17.5,13.26a1.92,1.92,0,0,1-2.38-.12,1.31,1.31,0,0,1-.43-1.06,1.4,1.4,0,0,1,.57-1L333,78.72l19.75,14.94a1.4,1.4,0,0,1,.57,1,1.33,1.33,0,0,1-.43,1.06A1.83,1.83,0,0,1,351.6,96.21Zm-37-1.19h0Z"/><path class="cls-1" d="M388.85,95.31a.74.74,0,0,1-.43-.14l-18.2-13.78L352,95.17a.72.72,0,0,1-.91,0,.48.48,0,0,1,.05-.77l19.05-14.43,19.06,14.43a.48.48,0,0,1,.05.77A.71.71,0,0,1,388.85,95.31Z"/><path class="cls-1" d="M388.85,96.21a2,2,0,0,1-1.11-.35L370.22,82.59l-17.5,13.26a1.92,1.92,0,0,1-2.38-.12,1.31,1.31,0,0,1-.43-1.06,1.4,1.4,0,0,1,.57-1l19.74-14.94L390,93.66a1.4,1.4,0,0,1,.57,1,1.31,1.31,0,0,1-.43,1.06A1.81,1.81,0,0,1,388.85,96.21Z"/><path class="cls-2" d="M199.67,29.75c-.22,0-.06,16.54-.06,18a158.25,158.25,0,0,0,.83,18.47c.1.82.17,1.65.28,2.47a6.36,6.36,0,0,0,.22.83.71.71,0,0,1-.53.83c-.67.11-1.34.2-2,.29a14.31,14.31,0,0,1-2.67.32,4.66,4.66,0,0,1-2.2-.31c-.64-.34-.7-.92-.83-1.5-.64-2.84-.23-6.19-.32-9.1-.11-3.5-.24-7-.33-10.49-.18-6.67-.38-13.42-.17-20.08,0-.54,0-.63-.56-.58a46.62,46.62,0,0,0-6.74,1.19,1.2,1.2,0,0,1-1.18-.55,8.35,8.35,0,0,1-.46-1.3c-.24-1,1-1.06,1.63-1.11,1.05-.07,2.09.07,3.15,0s2-.28,3-.43a34,34,0,0,1,4-.46c2.47-.06,4.9.62,7.36.23a9,9,0,0,1,2.37-.18,4.59,4.59,0,0,1,2.17,1.05.68.68,0,0,1-.12,1c-.37.26-.74.51-1.12.74a1.47,1.47,0,0,1-1.38.08,10.6,10.6,0,0,0-1.84-.4c-.55-.09-1.1-.07-1.65-.13s-.69-.09-.81.37a5.89,5.89,0,0,0-.13.71Z"/><path class="cls-2" d="M27.12,29.72a15.46,15.46,0,0,0,.46-2.18c0-1,.41-1.28,1.32-1.23,1.65.09,3.3.15,5,.23.5,0,.66.21.6.71s-.22,1.26-.29,1.89S34.07,30.4,34,31c-.09,2.63-.17,5.23-.06,7.86a13.65,13.65,0,0,0,.85,3.28c.35,1.23-.61,1.41-1.61,1.54a26,26,0,0,1-3.48.57,2.28,2.28,0,0,1-1.67-.49,1,1,0,0,1-.3-.47C27,40.25,27,37,26,34a17.69,17.69,0,0,0-1.69-3.26c-.62-1.1-2.16-.66-2.79,0-1.13,1.17-1.54,3.39-1.89,4.91-.88,3.73-.79,7.56-.79,11.36,0,7,.41,14.17,3.84,20.44a3,3,0,0,0,.74.71c.05,0,.22,0,.32-.06A2.36,2.36,0,0,0,25,66.71a35.84,35.84,0,0,0,2.19-10.94c0-.43-.1-.85.28-1.15a.7.7,0,0,1,.57-.14,8.3,8.3,0,0,1,1.27.53c.08,0,.13.23.12.34-.29,4.1.36,10.61-2.35,14.06a5.7,5.7,0,0,1-7.51,1.26,11.26,11.26,0,0,1-2.12-2c-4.56-5.44-4.41-13-4.06-19.74a50.46,50.46,0,0,1,4.22-18.16.35.35,0,0,1,.05-.08c.73-.9,1.43-1.82,2.19-2.69a3.48,3.48,0,0,1,1-.66,4.1,4.1,0,0,1,3.83.22,3.91,3.91,0,0,1,.87.64C26.08,28.65,26.54,29.14,27.12,29.72Z"/><path class="cls-2" d="M147.52,29.71a15.46,15.46,0,0,0,.46-2.18c0-1,.41-1.28,1.33-1.23,1.64.09,3.29.15,4.94.22.5,0,.66.21.6.72s-.22,1.25-.29,1.88-.09,1.27-.12,1.91c-.09,2.63-.17,5.23-.06,7.86a13.65,13.65,0,0,0,.85,3.28c.35,1.22-.61,1.41-1.61,1.54a26,26,0,0,1-3.48.57,2.33,2.33,0,0,1-1.67-.49,1.08,1.08,0,0,1-.3-.47c-.76-3.09-.76-6.31-1.74-9.36a17.37,17.37,0,0,0-1.69-3.26c-.62-1.1-2.16-.66-2.79,0-1.12,1.18-1.54,3.4-1.89,4.92-.88,3.73-.79,7.55-.79,11.35,0,7,.41,14.17,3.84,20.44a2.82,2.82,0,0,0,.74.72c.06,0,.22,0,.32-.06a2.36,2.36,0,0,0,1.23-1.38,35.84,35.84,0,0,0,2.19-10.94c0-.43-.1-.85.28-1.15a.7.7,0,0,1,.57-.14,8.3,8.3,0,0,1,1.27.53c.08,0,.13.23.12.34-.29,4.1.36,10.61-2.35,14A5.69,5.69,0,0,1,140,70.66a11.59,11.59,0,0,1-2.12-2c-4.56-5.44-4.41-13-4.06-19.75A50.56,50.56,0,0,1,138,30.73l.05-.07c.73-.9,1.43-1.82,2.19-2.69a3.48,3.48,0,0,1,1-.66,4.1,4.1,0,0,1,3.83.22,3.91,3.91,0,0,1,.87.64C146.48,28.63,146.94,29.13,147.52,29.71Z"/><path class="cls-2" d="M266,36c-1-.1-1,29-.71,31.8.07.87.28,1.72.43,2.58.11.6-.36,1-1.16,1.08s-1.82.33-2.74.47a4.64,4.64,0,0,1-.83,0,16.1,16.1,0,0,1-2.09-.07,1.48,1.48,0,0,1-1.16-1.37,16.48,16.48,0,0,1-.11-2c-.29-5.68-.29-11.37-.13-17.05.15-5.5.81-11.06.57-16.55a1.1,1.1,0,0,1,1.31-1c.75.11,1.51.2,2.26.3l.92.15a2.52,2.52,0,0,0,.55.08,9.18,9.18,0,0,1,2.44.31.39.39,0,0,1,.36.49c0,.27,0,.55,0,.82Z"/><path class="cls-2" d="M266.72,27.68c.1,1,.2,1.95.31,2.93v.14c0,.78-.17,1-1,1-1.87.11-3.73.19-5.6.18a.93.93,0,0,1-.9-.48,2.86,2.86,0,0,1-.49-1.82A25.78,25.78,0,0,0,259,26.9c0-.43-.27-1,.27-1.26,2-1.06,5.17.38,7.23.7a.39.39,0,0,1,.28.26,9.31,9.31,0,0,1,.14,1.06Z"/><path class="cls-2" d="M286.76,59.75c-.39-3.63-.74-7.26-1.2-10.88a.63.63,0,0,0-.85-.54.55.55,0,0,1-.18,0,16.8,16.8,0,0,0-3.75-.05c-1,.05-1.23.14-1.41,1.19-.14.76-.36,1.5-.5,2.25-.11.56-.13,1.13-.23,1.69-.18,1-.4,2.08-.58,3.12-.35,2-.44,4.09-.65,6.13-.12,1.18-.48,2.32-.62,3.5-.11.91.23,2-.28,2.8a16.07,16.07,0,0,1-1.37,1.9,1.19,1.19,0,0,1-.93.37,2.8,2.8,0,0,1-1.38-.7,2,2,0,0,1-.39-1.35,48.79,48.79,0,0,1,.93-6.46c.39-2,.83-4,1.26-6,.35-1.61.71-3.21,1.09-4.8.21-.91.46-1.8.71-2.7.14-.52,0-.64-.51-.55s-1,.09-1.54.19c-1,.22-1,.24-1.8-.84l-.4-.58a1.54,1.54,0,0,1,.26-1.33.43.43,0,0,1,.2,0,16.12,16.12,0,0,0,4.25-.25c.16,0,.33-.3.38-.49.27-1,.48-2,.75-3,.69-2.53,1.61-5,2.54-7.45.82-2.17,2.3-4.81,2.28-7.17A1.41,1.41,0,0,1,284,26.62c1.9,0,3.81,0,5.71.1a3,3,0,0,1,.92.27.55.55,0,0,1,.31.36c.08.4.11.83.15,1.24.49,4.64.61,9.32,1.42,13.92.78,4.43,1.35,9,1.78,13.45.3,3.21.57,6.4,1.11,9.58.08.48.15,1,.25,1.45.06.31.19.61.26.92s-.09.47-.38.56c-.58.17-1.16.34-1.73.54a20.27,20.27,0,0,1-3.61.73,3.12,3.12,0,0,0-.44.09c-.74.23-1.18.13-1.55-.57a4.59,4.59,0,0,1-.46-1.5C287.36,65.09,287.05,62.42,286.76,59.75Zm-3.18-25.57a1.61,1.61,0,0,0-.19.33c-.36,1.15-.69,2.31-1.05,3.46a31.16,31.16,0,0,0-1.19,3.89c-.1.54-.36,1-.49,1.56s-.25,1.29-.37,1.93c-.08.42,0,.56.46.55.64,0,1.29-.07,1.94-.09.43,0,.86,0,1.29,0a2.23,2.23,0,0,0,.82,0c.4-.17.08-.51.07-.77a14,14,0,0,0-.11-1.59c-.1-.72-.28-1.43-.37-2.15-.15-1.1-.26-2.2-.38-3.3l-.36-3.26C283.63,34.56,283.61,34.42,283.58,34.18Z"/><path class="cls-2" d="M171.26,59.74c-.39-3.63-.73-7.26-1.2-10.88-.06-.45-.38-.64-.85-.54a.55.55,0,0,1-.18,0,17.33,17.33,0,0,0-3.74-.06c-1,.06-1.23.15-1.42,1.2-.14.75-.36,1.5-.5,2.25-.1.56-.13,1.13-.23,1.69-.18,1-.4,2.08-.58,3.12-.35,2-.44,4.09-.65,6.13-.12,1.18-.48,2.32-.62,3.5-.11.91.24,2-.28,2.8a16.94,16.94,0,0,1-1.37,1.9,1.13,1.13,0,0,1-.93.36,2.64,2.64,0,0,1-1.38-.7,1.94,1.94,0,0,1-.39-1.34,47.22,47.22,0,0,1,.94-6.46c.38-2,.82-4,1.25-6,.35-1.61.71-3.21,1.09-4.81.21-.9.46-1.8.71-2.69.14-.52,0-.64-.5-.55s-1,.08-1.55.19c-1,.22-1,.24-1.79-.84-.14-.19-.28-.39-.41-.59a1.56,1.56,0,0,1,.26-1.32.34.34,0,0,1,.2,0,16.12,16.12,0,0,0,4.25-.25c.16,0,.33-.31.38-.5.27-1,.48-2,.75-3,.69-2.54,1.61-5,2.54-7.46.82-2.17,2.3-4.8,2.28-7.17a1.41,1.41,0,0,1,1.18-1.1c1.9,0,3.81,0,5.71.1a2.78,2.78,0,0,1,.92.27.56.56,0,0,1,.31.35c.08.41.11.83.15,1.25.49,4.64.61,9.32,1.42,13.92.78,4.43,1.35,9,1.78,13.44.31,3.22.57,6.4,1.11,9.59.08.48.15,1,.25,1.44.06.32.19.61.26.93s-.08.47-.38.55c-.58.18-1.16.34-1.73.55a19.4,19.4,0,0,1-3.61.72,3,3,0,0,0-.43.1c-.75.23-1.19.12-1.56-.57a4.57,4.57,0,0,1-.46-1.51C171.86,65.08,171.55,62.41,171.26,59.74Zm-3.18-25.57a1.61,1.61,0,0,0-.19.33c-.35,1.15-.69,2.31-1,3.46a32.37,32.37,0,0,0-1.19,3.89c-.09.53-.36,1-.49,1.56s-.25,1.29-.37,1.93c-.08.42,0,.56.46.55.65,0,1.29-.07,1.94-.09h1.29a2.46,2.46,0,0,0,.82,0c.41-.17.08-.51.07-.77a14.17,14.17,0,0,0-.11-1.6c-.1-.72-.28-1.42-.37-2.14-.15-1.1-.26-2.21-.38-3.31l-.36-3.25C168.14,34.55,168.11,34.41,168.08,34.17Z"/><path class="cls-2" d="M78.65,50.5c0-.87,0-1.75,0-2.62s.2-1.91.24-2.87c.25-5.71.51-11.29.23-17,0-.65.36-1,1-.92a2.45,2.45,0,0,0,.54,0,.85.85,0,0,1,1.06.74,6.55,6.55,0,0,1,.08,1.4c0,.19,0,.37,0,.55,0,.83.08,1.67.09,2.5.1,12.52.29,25,.78,37.48a.75.75,0,0,1-.47.76c-.7.33-1.38.69-2.08,1a.66.66,0,0,1-.94-.36,5.72,5.72,0,0,1-.58-2.32c0-1-.16-1.95-.15-2.92,0-1.21.14-2.41.16-3.61,0-1.46,0-2.92-.11-4.38A3.27,3.27,0,0,0,78,56.31,34.58,34.58,0,0,1,76,51.76c-1.24-2.63-2.43-5.25-3.49-7.95-.08-.22-.14-.44-.24-.78,0,1.21,0,2.3,0,3.39a149.66,149.66,0,0,0,.89,21.17c.08.55.19,1.09.22,1.64.1,1.67-4,2.22-5.11,2.36-4.62.58-3-7.72-3.13-10.22q-.33-8.35-.55-16.72c-.15-5.46-.14-11,.25-16.42,0-.41-.15-.85.25-1.19,1.82-1.5,4.67-.45,6.77-.35.49,0,.61.37.61.77,0,2.6-.53,5.17-.33,7.79a7.83,7.83,0,0,0,.6,2c.28.77.64,1.52.94,2.29.22.57.39,1.17.63,1.74.17.42.43.81.61,1.23.32.78.61,1.58.94,2.36.19.45.46.88.65,1.34.25.62.43,1.28.71,1.89.37.83.81,1.64,1.21,2.46Z"/><path class="cls-2" d="M241.38,50.19c.21,0,1.09,15.54,1.29,17.19,0,.25.22.49.23.74.07,1.79-5.65,1.51-6.65,1.28a2,2,0,0,1-1.59-1.68,6.71,6.71,0,0,1,0-.78c-.26-5.88-.81-11.76-1-17.65-.18-6.88.81-13.73.69-20.61a1.1,1.1,0,0,1,1.27-1.18c4,.48,8.42-.16,10.92,3.83,2,3.2.93,9.23-2.5,11.22a7.35,7.35,0,0,0-.95.82.44.44,0,0,1-.22.14c-.45.06-.49.39-.38.7.27.74.58,1.47.91,2.19,3,6.62,5.61,13.47,9.42,19.69a12.21,12.21,0,0,0,1.08,2c1.33,1.47-1.68,3.18-2.81,1.87-1-1.1-1.22-2.86-1.85-4.15-.82-1.68-1.85-3.25-2.69-4.92-1.36-2.7-2.68-5.43-4-8.15-.15-.32-.26-.65-.4-1-.23-.51-.46-1-.7-1.52Zm0-9.24.13,0a2.87,2.87,0,0,0,.61-.42,22.36,22.36,0,0,0,1.63-2,6.51,6.51,0,0,0,.93-1.84A5.9,5.9,0,0,0,244.9,34c-.28-1.83-.61-2.32-2.29-2.91-.41-.14-.66.05-.68.5,0,.2,0,.4,0,.59-.11,1-.25,2.06-.34,3.08-.07.71-.08,1.42-.11,2.12C241.41,38.56,241.37,39.75,241.33,41Z"/><path class="cls-2" d="M58.27,43.55c.08.6.14,1.2.19,1.8.29,3.43-.17,7-.3,10.45C58,60.64,57.32,65,54.71,69.19A4,4,0,0,1,52.47,71c-.19.06-.36.25-.54.26a8.29,8.29,0,0,1-1.41-.11c-.88-.15-1.76-.33-2.63-.53a6.29,6.29,0,0,1-1.55-.52,5.13,5.13,0,0,1-1.22-1C40.94,64.66,40.61,58.73,39.84,53A48.06,48.06,0,0,1,40,37.56,40.83,40.83,0,0,1,43.73,27.5a1.5,1.5,0,0,1,1.58-.85c.23,0,.47,0,.7,0s.55.11.83.15c.1,0,.23.06.31,0,.58-.28,1.16,0,1.74,0s.94,0,1.41.11a4.38,4.38,0,0,1,1.25.29c.27.12.63.43.63.66a2.36,2.36,0,0,0,.65,1.35A19.48,19.48,0,0,1,55,32.26c.46,1,.91,2,1.3,3A36.11,36.11,0,0,1,58.27,43.55Zm-2.79-.44a34,34,0,0,0-2.67-9.76,12,12,0,0,0-.94-1.68,5.68,5.68,0,0,0-.82-1c-.14-.15-.4-.39-.59-.05A21.5,21.5,0,0,0,49.22,33c-3.69,9-2.35,19.26.23,28.39.41,1.42.91,2.82,1.37,4.23.16.48.31.95.48,1.42a1.74,1.74,0,0,0,.3.37A1.73,1.73,0,0,0,52,67.1,15.92,15.92,0,0,0,54.05,62,50.48,50.48,0,0,0,55.48,43.11Z"/><path class="cls-2" d="M130,43.55c.08.6.14,1.2.19,1.8.29,3.43-.17,7-.3,10.45-.18,4.84-.84,9.24-3.45,13.39A4,4,0,0,1,124.16,71c-.2.06-.37.25-.55.26a8.29,8.29,0,0,1-1.41-.11c-.88-.15-1.76-.33-2.63-.53a6.29,6.29,0,0,1-1.55-.52,5.13,5.13,0,0,1-1.22-1c-4.18-4.44-4.51-10.37-5.27-16.12a48.06,48.06,0,0,1,.12-15.42,40.83,40.83,0,0,1,3.76-10.06,1.5,1.5,0,0,1,1.58-.85c.23,0,.47,0,.71,0s.54.11.82.15c.1,0,.23.06.31,0,.59-.28,1.16,0,1.74,0s.94,0,1.41.11a4.38,4.38,0,0,1,1.25.29c.27.12.63.43.63.66a2.36,2.36,0,0,0,.65,1.35,19.48,19.48,0,0,1,2.13,3.06c.46,1,.91,2,1.3,3A36.11,36.11,0,0,1,130,43.55Zm-2.79-.44a34.33,34.33,0,0,0-2.66-9.76,13.19,13.19,0,0,0-1-1.68,5.68,5.68,0,0,0-.82-1c-.14-.15-.4-.39-.59-.05A21.42,21.42,0,0,0,120.91,33c-3.7,9-2.36,19.26.22,28.39.41,1.42.91,2.82,1.37,4.23.16.48.31.95.48,1.42a1.74,1.74,0,0,0,.3.37,1.5,1.5,0,0,0,.35-.31,15.92,15.92,0,0,0,2.1-5.12A50.48,50.48,0,0,0,127.16,43.11Z"/><path class="cls-2" d="M229,43.22c.08.61.14,1.21.19,1.81.29,3.43-.17,7-.3,10.45-.18,4.83-.84,9.24-3.45,13.39a4,4,0,0,1-2.24,1.81c-.19.06-.36.26-.54.26a7.38,7.38,0,0,1-1.41-.1c-.88-.15-1.76-.33-2.63-.54a6.27,6.27,0,0,1-1.55-.51,5.13,5.13,0,0,1-1.22-1c-4.18-4.44-4.51-10.37-5.28-16.12a48.06,48.06,0,0,1,.13-15.42,40.9,40.9,0,0,1,3.76-10.07,1.51,1.51,0,0,1,1.58-.85c.23,0,.47-.05.7,0s.55.11.83.16a.55.55,0,0,0,.31,0c.58-.29,1.16,0,1.74,0s.94.05,1.41.11a4.75,4.75,0,0,1,1.25.29c.27.12.63.43.63.66a2.35,2.35,0,0,0,.65,1.36,18.94,18.94,0,0,1,2.13,3.05c.46,1,.91,2,1.3,3A36.16,36.16,0,0,1,229,43.22Zm-2.79-.43A34,34,0,0,0,223.56,33a12.61,12.61,0,0,0-.94-1.68,6.51,6.51,0,0,0-.82-1c-.14-.14-.4-.38-.59-.05A22.42,22.42,0,0,0,220,32.67c-3.69,9-2.35,19.26.23,28.39.41,1.43.91,2.83,1.37,4.24.16.47.31,1,.48,1.42a1.69,1.69,0,0,0,.3.36,2,2,0,0,0,.35-.3,15.92,15.92,0,0,0,2.1-5.12A50.49,50.49,0,0,0,226.23,42.79Z"/><path class="cls-2" d="M99.51,60c.06-.45.16-.91.19-1.37.33-5,.59-9.94,1.37-14.88s1.75-10,2.23-15.09c0-.3,0-.75.17-.87a4.08,4.08,0,0,1,1.27-.45,1.88,1.88,0,0,1,.58,0,1.22,1.22,0,0,1,.93,1c0,.61-.1,1.21-.18,1.81-.7,4.9-1,9.75-1.35,14.69-.27,4.27-.61,8.54-.74,12.81-.07,2.5-.66,5.09-.28,7.59a3.31,3.31,0,0,1-.43,2.5c-.08.11-.2.18-.28.29a7,7,0,0,0-.41.64c-.11.16-.16.41-.31.49a4.19,4.19,0,0,1-2.39.86,1.65,1.65,0,0,0-1.09.26,2.33,2.33,0,0,1-.89.22c-.43.06-.87.09-1.3.16A1.52,1.52,0,0,1,95,69.72c-.21-.48-.38-1-.56-1.47A102.92,102.92,0,0,1,90.08,53c-.91-4.62-2.3-9.08-3.06-13.73-.53-3.24-.66-6.51-1.11-9.75a1.38,1.38,0,0,1,1-1.21c.86-.19,1.74-.27,2.61-.39.29,0,.58-.06.87-.11a12.35,12.35,0,0,1,1.6-.24c.47,0,1-.48,1.42,0a1.13,1.13,0,0,1,.33.66,66.45,66.45,0,0,0,1.77,15.32c1.09,4.54,2.13,9.09,3.2,13.64.21.93.41,1.86.61,2.79Z"/></g></svg>