<svg xmlns="http://www.w3.org/2000/svg" viewBox="0 0 219.94 112.94"><defs><style>.cls-1{fill:#eb6155;}.cls-2{fill:#f6a52b;fill-rule:evenodd;}</style></defs><title>final</title><g id="Capa_3" data-name="Capa 3"><path class="cls-1" d="M52.3,95.31a.74.74,0,0,1-.43-.14L33.67,81.39,15.48,95.17a.72.72,0,0,1-.91,0,.48.48,0,0,1,0-.77L33.67,79.92,52.73,94.35a.49.49,0,0,1,.05.77A.71.71,0,0,1,52.3,95.31Z"/><path class="cls-1" d="M52.3,96.21a1.89,1.89,0,0,1-1.12-.36L33.67,82.59,16.17,95.85a1.92,1.92,0,0,1-2.38-.12,1.31,1.31,0,0,1-.43-1.06,1.37,1.37,0,0,1,.57-1L33.67,78.72,53.42,93.66a1.4,1.4,0,0,1,.57,1,1.35,1.35,0,0,1-.43,1.06A1.83,1.83,0,0,1,52.3,96.21Z"/><path class="cls-1" d="M89.55,95.31a.74.74,0,0,1-.43-.14L70.92,81.39,52.73,95.17a.72.72,0,0,1-.91,0,.48.48,0,0,1,0-.77L70.92,79.92,90,94.35a.48.48,0,0,1,0,.77A.71.71,0,0,1,89.55,95.31Z"/><path class="cls-1" d="M89.55,96.21a1.84,1.84,0,0,1-1.11-.36L70.92,82.59,53.42,95.85A1.92,1.92,0,0,1,51,95.73a1.33,1.33,0,0,1-.43-1.06,1.37,1.37,0,0,1,.57-1L70.92,78.72,90.67,93.66a1.4,1.4,0,0,1,.57,1,1.31,1.31,0,0,1-.43,1.06A1.81,1.81,0,0,1,89.55,96.21ZM89.29,95Z"/><path class="cls-1" d="M126.8,95.31a.76.76,0,0,1-.43-.14L108.18,81.39,90,95.17a.72.72,0,0,1-.91,0,.48.48,0,0,1,.05-.77l19.06-14.43,19,14.43a.48.48,0,0,1,0,.77A.69.69,0,0,1,126.8,95.31Z"/><path class="cls-1" d="M126.8,96.21a1.86,1.86,0,0,1-1.11-.36L108.18,82.59,90.67,95.85a1.91,1.91,0,0,1-2.38-.12,1.33,1.33,0,0,1-.43-1.06,1.37,1.37,0,0,1,.57-1l19.75-14.94,19.74,14.94a1.37,1.37,0,0,1,.57,1,1.33,1.33,0,0,1-.43,1.06A1.86,1.86,0,0,1,126.8,96.21Z"/><path class="cls-1" d="M164.05,95.31a.76.76,0,0,1-.43-.14L145.43,81.39l-18.2,13.78a.72.72,0,0,1-.91,0,.49.49,0,0,1,.05-.77l19.06-14.43,19,14.43a.48.48,0,0,1,.05.77A.69.69,0,0,1,164.05,95.31Z"/><path class="cls-1" d="M164.05,96.21a1.86,1.86,0,0,1-1.11-.36L145.43,82.59,127.92,95.85a1.91,1.91,0,0,1-2.38-.12,1.33,1.33,0,0,1-.43-1.06,1.4,1.4,0,0,1,.57-1l19.75-14.94,19.74,14.94a1.37,1.37,0,0,1,.57,1,1.33,1.33,0,0,1-.43,1.06A1.86,1.86,0,0,1,164.05,96.21Z"/><path class="cls-1" d="M201.3,95.31a.76.76,0,0,1-.43-.14L182.68,81.39l-18.2,13.78a.72.72,0,0,1-.91,0,.49.49,0,0,1,.05-.77l19.06-14.43,19,14.43a.49.49,0,0,1,.06.77A.73.73,0,0,1,201.3,95.31Z"/><path class="cls-1" d="M201.3,96.21a1.86,1.86,0,0,1-1.11-.36L182.68,82.59,165.17,95.85a1.91,1.91,0,0,1-2.38-.12,1.37,1.37,0,0,1-.43-1.06,1.4,1.4,0,0,1,.57-1l19.75-14.94,19.74,14.94a1.34,1.34,0,0,1,.57,1,1.3,1.3,0,0,1-.43,1.06A1.84,1.84,0,0,1,201.3,96.21Z"/><path class="cls-2" d="M30.52,39.32c.86-.09,1.63-.21,2.41-.24a2.76,2.76,0,0,1,1.13.24,12.56,12.56,0,0,1,1.31.69.73.73,0,0,1,.38,1.12c-.45,1-1.37,1.18-2.3,1.33-.12,0-.26-.21-.4-.22-.76-.07-1.52-.1-2.28-.14-.36,0-.43.21-.44.51-.13,4.32-.32,8.72-.65,13a118,118,0,0,0,.07,12.62c0,.6,0,1.2,0,1.8,0,.37.08.75.09,1.12,0,.72-.15.9-.89,1-.95.06-1.9.15-2.86.16A13.66,13.66,0,0,1,22.44,72a1.56,1.56,0,0,1-1.07-1.15c-.06-.15.08-.37.07-.55,0-.55-.07-1.1-.08-1.66A210.38,210.38,0,0,1,22,47.07c.27-3.09.3-6.17.54-9.27A108.09,108.09,0,0,0,23,26.86a1.37,1.37,0,0,1,1.56-1.28,57.56,57.56,0,0,0,6,.53c1.56.06,3.54-.3,5,.2a14.68,14.68,0,0,1,1.66.77c.44.22.48.53.26,1-.39.75-1.14,1-1.83,1.26a.64.64,0,0,1-.47,0A7.65,7.65,0,0,0,31.74,29a.56.56,0,0,0-.56.57c-.23,3-.5,5.94-.65,8.92C30.51,38.75,30.52,39,30.52,39.32Z"/><path class="cls-2" d="M70.9,51.05c0-.9,0-1.8,0-2.7s.21-2,.25-3c.26-5.87.53-11.62.24-17.5,0-.67.37-1,1.06-.95A2.63,2.63,0,0,0,73,27a.87.87,0,0,1,1.08.76,6.94,6.94,0,0,1,.09,1.45c0,.18,0,.37,0,.55,0,.86.08,1.72.09,2.58.1,12.89.29,25.69.81,38.56a.79.79,0,0,1-.49.79c-.72.34-1.42.71-2.14,1a.67.67,0,0,1-1-.37,5.75,5.75,0,0,1-.61-2.39c0-1-.16-2-.15-3,0-1.24.15-2.47.16-3.71,0-1.5,0-3-.11-4.5a3.31,3.31,0,0,0-.5-1.68,33.61,33.61,0,0,1-2.12-4.69c-1.27-2.7-2.5-5.4-3.59-8.18-.09-.22-.14-.45-.25-.79,0,1.24,0,2.36,0,3.48a152.33,152.33,0,0,0,.92,21.78c.07.56.19,1.12.22,1.69.1,1.72-4.13,2.28-5.26,2.43-4.75.6-3.12-7.94-3.22-10.52q-.33-8.59-.56-17.2c-.16-5.62-.14-11.29.25-16.9,0-.42-.15-.87.26-1.22,1.87-1.55,4.81-.46,7-.36.51,0,.64.38.64.79,0,2.68-.54,5.32-.34,8a7.65,7.65,0,0,0,.61,2c.3.8.66,1.57,1,2.36.23.59.41,1.2.65,1.79.17.43.44.84.62,1.27.34.8.64,1.62,1,2.42.2.47.47.91.67,1.38.26.64.45,1.32.73,2,.39.86.83,1.69,1.25,2.53Z"/><path class="cls-2" d="M118.75,66.8c.4-.09.75-.13,1.08-.24.71-.23,1.42-.47,2.11-.75.36-.14.68-.38,1-.54a.72.72,0,0,1,.46,0c.6.19,1.21.39,1.8.62s1,.33.93,1-.3.81-1,1.07-1.4.37-2.09.6-1.59.61-2.4.89-1.52.48-2.28.71c-1.59.48-3.18.94-4.77,1.41a6.37,6.37,0,0,0-.63.11.79.79,0,0,1-1-.45.76.76,0,0,0-.41-.36c-.6-.15-.73-.59-.8-1.11-1.18-8.84-1-18-.41-26.88.35-5.41.94-10.78,1.2-16.19a6.46,6.46,0,0,1,.07-1.17,1.21,1.21,0,0,1,1.48-.86c1,.17,2.07.29,3.11.47s2,.4,2.93.6a.88.88,0,0,0,.27.06c1-.09,1.17.71.94,1.45a14.61,14.61,0,0,0-.4,1.71,183.43,183.43,0,0,0-1.59,21.36c0,.83,0,1.66-.06,2.49,0,1,0,2.08,0,3.11.07,3.33.16,6.58.48,9.89C118.78,66.08,118.75,66.39,118.75,66.8Z"/><path class="cls-2" d="M94.71,60.91c-.39-3.62-.74-7.25-1.2-10.87-.06-.45-.38-.65-.86-.54a.5.5,0,0,1-.17,0,17.43,17.43,0,0,0-3.75-.06c-1,0-1.23.14-1.42,1.19-.13.76-.35,1.5-.49,2.26-.11.55-.13,1.13-.23,1.69-.18,1-.41,2.07-.58,3.12-.35,2-.44,4.08-.65,6.13-.12,1.18-.48,2.32-.62,3.49-.12.92.23,2-.28,2.81A17.18,17.18,0,0,1,83.09,72a1.19,1.19,0,0,1-.93.37,2.68,2.68,0,0,1-1.38-.7,2,2,0,0,1-.4-1.34,50.69,50.69,0,0,1,.94-6.47c.38-2,.83-4,1.26-6q.53-2.4,1.08-4.8c.22-.9.47-1.8.71-2.7.14-.51,0-.63-.5-.54s-1,.08-1.54.19c-1,.22-1,.24-1.8-.85l-.41-.58a1.55,1.55,0,0,1,.27-1.32.42.42,0,0,1,.2,0A15.34,15.34,0,0,0,84.84,47c.16,0,.33-.3.38-.49.27-1,.47-2,.75-3,.69-2.54,1.61-5,2.54-7.46.82-2.17,2.3-4.81,2.28-7.17A1.39,1.39,0,0,1,92,27.79c1.9,0,3.81,0,5.71.1a2.56,2.56,0,0,1,.92.27.54.54,0,0,1,.31.35c.08.41.1.83.15,1.25.49,4.63.61,9.31,1.41,13.91.78,4.43,1.36,9,1.79,13.45.3,3.21.57,6.4,1.11,9.58.08.49.14,1,.24,1.45.07.31.19.61.27.92s-.09.47-.38.56c-.58.17-1.16.34-1.73.55a19.4,19.4,0,0,1-3.61.72c-.15,0-.3,0-.44.09a1.09,1.09,0,0,1-1.55-.56,4.65,4.65,0,0,1-.46-1.51C95.31,66.26,95,63.59,94.71,60.91ZM91.53,35.34a2.81,2.81,0,0,0-.2.33c-.35,1.16-.68,2.32-1,3.47A30.66,30.66,0,0,0,89.1,43c-.1.53-.37,1-.5,1.56s-.24,1.28-.36,1.93c-.08.42,0,.55.46.54L90.63,47c.44,0,.87,0,1.3,0a2.17,2.17,0,0,0,.81,0c.41-.17.09-.51.08-.77a14.16,14.16,0,0,0-.11-1.59c-.1-.72-.28-1.43-.38-2.15-.14-1.1-.25-2.2-.38-3.3s-.23-2.17-.35-3.25C91.58,35.73,91.56,35.59,91.53,35.34Z"/><path class="cls-2" d="M49.07,38c-1-.1-.94,27.86-.7,30.55.07.83.28,1.65.43,2.48.11.57-.35.93-1.14,1s-1.81.32-2.71.45a4.5,4.5,0,0,1-.82,0,17.59,17.59,0,0,1-2.06-.06,1.46,1.46,0,0,1-1.15-1.32,17.37,17.37,0,0,1-.11-1.92c-.28-5.45-.28-10.91-.12-16.37.15-5.28.8-10.62.56-15.9a1.09,1.09,0,0,1,1.29-1c.75.11,1.49.19,2.23.29l.91.15a3.33,3.33,0,0,0,.54.07,9.81,9.81,0,0,1,2.41.29c.3.07.38.21.36.48s0,.53,0,.79Z"/><path class="cls-2" d="M49.75,30c.1.94.21,1.88.31,2.82V33c0,.76-.16.95-1,1-1.84.11-3.67.18-5.52.17a.91.91,0,0,1-.89-.45,2.69,2.69,0,0,1-.48-1.75,24,24,0,0,0-.13-2.67c0-.41-.26-.93.27-1.21,2-1,5.1.37,7.14.68a.38.38,0,0,1,.28.24c.07.34.09.68.13,1Z"/></g></svg>