<?xml version="1.0" encoding="utf-8"?>
<!-- Generator: Adobe Illustrator 23.1.1, SVG Export Plug-In . SVG Version: 6.00 Build 0)  -->
<svg version="1.1" id="Capa_1" xmlns="http://www.w3.org/2000/svg" xmlns:xlink="http://www.w3.org/1999/xlink" x="0px" y="0px"
	 viewBox="0 0 244.4 112.9" style="enable-background:new 0 0 244.4 112.9;" xml:space="preserve">
<style type="text/css">
	.st0{fill-rule:evenodd;clip-rule:evenodd;fill:#F6A52B;}
	.st1{fill:#EB6155;}
</style>
<title>objetivo</title>
<path class="st0" d="M158.7,36c0.1,0.6,0.1,1.3,0.2,1.9c0.3,3.6-0.2,7.3-0.3,10.9c-0.2,5-0.9,9.6-3.6,13.9c-0.5,0.9-1.3,1.6-2.3,1.9
	c-0.2,0.1-0.4,0.3-0.6,0.3c-0.5,0-1,0-1.5-0.1c-0.9-0.2-1.8-0.3-2.7-0.6c-0.6-0.1-1.1-0.3-1.6-0.5c-0.5-0.3-0.9-0.6-1.3-1
	c-4.4-4.6-4.7-10.8-5.5-16.8c-0.8-5.3-0.8-10.8,0.1-16.1c0.8-3.7,2.1-7.2,3.9-10.5c0.3-0.6,1-1,1.7-0.9c0.2,0,0.5,0,0.7,0
	c0.2,0,0.6,0.1,0.9,0.2c0.1,0,0.2,0,0.3,0c0.6-0.3,1.2,0,1.8,0s1,0,1.5,0.1c0.4,0,0.9,0.1,1.3,0.3c0.3,0.1,0.7,0.4,0.7,0.7
	c0.1,0.5,0.3,1,0.7,1.4c0.8,1,1.6,2.1,2.2,3.2c0.5,1,1,2.1,1.4,3.2C157.7,30.2,158.4,33.1,158.7,36z M155.8,35.6
	c-0.4-3.5-1.4-6.9-2.8-10.2c-0.3-0.6-0.6-1.2-1-1.8c-0.2-0.4-0.5-0.7-0.9-1c-0.1-0.1-0.4-0.4-0.6,0c-0.5,0.8-0.9,1.6-1.3,2.5
	c-3.9,9.4-2.5,20.1,0.2,29.6c0.4,1.5,1,2.9,1.4,4.4c0.2,0.5,0.3,1,0.5,1.5c0.1,0.1,0.2,0.3,0.3,0.4c0.1-0.1,0.3-0.2,0.4-0.3
	c1-1.6,1.8-3.4,2.2-5.3C156.1,48.8,156.6,42.1,155.8,35.6L155.8,35.6z"/>
<path class="st0" d="M46.4,28.2c-1.1-0.1-0.9,29.8-0.7,32.6c0.1,0.9,0.3,1.8,0.5,2.7c0.1,0.6-0.4,0.9-1.2,1.1
	c-0.8,0.2-1.9,0.3-2.8,0.5c-0.3,0-0.6,0-0.9,0c-0.7,0-1.4,0-2.1-0.1c-0.7-0.1-1.2-0.7-1.2-1.4c-0.1-0.7-0.1-1.4-0.1-2.1
	c-0.3-5.8-0.3-11.7-0.1-17.5c0.2-5.7,0.8-11.4,0.6-17c0-0.6,0.6-1.1,1.2-1.1c0.1,0,0.1,0,0.2,0l2.3,0.3c0.3,0,0.6,0.1,0.9,0.2
	c0.2,0,0.4,0.1,0.6,0.1c0.8,0,1.7,0.1,2.5,0.3c0.2,0,0.4,0.2,0.4,0.4c0,0,0,0.1,0,0.1c0,0.3,0,0.6,0,0.8L46.4,28.2z"/>
<path class="st0" d="M47.1,19.6c0.1,1,0.2,2,0.3,3v0.1c0,0.8-0.2,1-0.9,1.1c-1.9,0.1-3.8,0.2-5.7,0.2c-0.4,0-0.8-0.1-0.9-0.5
	c-0.4-0.6-0.5-1.2-0.5-1.9c0-0.9,0-1.9-0.1-2.8c0-0.4-0.3-1,0.3-1.3c2-1.1,5.3,0.4,7.4,0.7c0.1,0,0.2,0.1,0.3,0.3
	c0.1,0.4,0.1,0.7,0.1,1.1L47.1,19.6z"/>
<path class="st0" d="M87.7,22.2c-0.2,0-0.1,17.2-0.1,18.7c-0.1,6.4,0.2,12.8,0.9,19.2c0.1,0.9,0.2,1.7,0.3,2.6
	c0.1,0.3,0.1,0.6,0.2,0.9c0.1,0.4-0.2,0.8-0.6,0.9c-0.7,0.1-1.4,0.2-2.1,0.3c-0.9,0.2-1.8,0.3-2.8,0.3c-0.8,0.1-1.6,0-2.3-0.3
	c-0.7-0.3-0.7-1-0.9-1.6c-0.7-2.9-0.2-6.4-0.3-9.5c-0.1-3.6-0.3-7.3-0.3-10.9c-0.2-6.9-0.4-13.9-0.2-20.9c0-0.6,0-0.6-0.6-0.6
	c-2.4,0.2-4.7,0.7-7,1.2c-0.5,0.1-1-0.2-1.2-0.6c-0.2-0.4-0.4-0.9-0.5-1.3c-0.3-1,1-1.1,1.7-1.2c1.1-0.1,2.2,0.1,3.3,0
	c1.1-0.1,2.1-0.3,3.1-0.4c1.4-0.2,2.8-0.4,4.2-0.5c2.6-0.1,5.1,0.6,7.6,0.2c0.8-0.2,1.6-0.2,2.5-0.2c0.8,0.2,1.6,0.5,2.3,1.1
	c0.3,0.3,0.2,0.7,0,1c0,0-0.1,0-0.1,0.1c-0.4,0.3-0.8,0.5-1.2,0.8c-0.4,0.3-1,0.3-1.4,0.1c-0.6-0.2-1.3-0.3-1.9-0.4
	c-0.6-0.1-1.1-0.1-1.7-0.1C88,21,87.9,21,87.7,21.5c-0.1,0.2-0.1,0.5-0.1,0.7L87.7,22.2z"/>
<path class="st0" d="M27.8,60.9c0.4-0.1,0.8-0.1,1.1-0.2c0.7-0.2,1.4-0.5,2.1-0.8c0.4-0.1,0.7-0.4,1-0.5c0.1-0.1,0.3-0.1,0.5,0
	c0.6,0.2,1.2,0.4,1.8,0.6s1,0.3,0.9,1s-0.3,0.8-1,1.1s-1.4,0.4-2.1,0.6c-0.7,0.2-1.6,0.6-2.4,0.9s-1.5,0.5-2.3,0.7
	c-1.6,0.5-3.2,0.9-4.8,1.4c-0.2,0-0.4,0.1-0.6,0.1c-0.4,0.1-0.8-0.1-1-0.4C21,65.2,20.8,65,20.6,65c-0.6-0.2-0.7-0.6-0.8-1.1
	c-1.2-8.8-1-18-0.4-26.9c0.3-5.4,0.9-10.8,1.2-16.2c0-0.4,0-0.8,0.1-1.2c0.2-0.6,0.8-1,1.5-0.9c0,0,0,0,0,0c1,0.2,2.1,0.3,3.1,0.5
	s2,0.4,2.9,0.6c0.1,0,0.2,0.1,0.3,0.1c1-0.1,1.2,0.7,0.9,1.5c-0.2,0.6-0.3,1.1-0.4,1.7c-0.9,7.1-1.5,14.2-1.6,21.4
	c0,0.8,0,1.7-0.1,2.5c0,1,0,2.1,0,3.1c0.1,3.3,0.2,6.6,0.5,9.9C27.9,60.2,27.8,60.5,27.8,60.9z"/>
<path class="st0" d="M108.1,53.8c-0.4-3.8-0.8-7.6-1.3-11.4c-0.1-0.5-0.4-0.7-0.9-0.6c-0.1,0-0.1,0-0.2,0c-1.3-0.2-2.6-0.2-3.9-0.1
	c-1.1,0-1.3,0.1-1.5,1.3c-0.1,0.8-0.4,1.6-0.5,2.4c-0.1,0.6-0.1,1.2-0.2,1.8c-0.2,1.1-0.4,2.2-0.6,3.3c-0.4,2.1-0.5,4.3-0.7,6.5
	c-0.1,1.2-0.5,2.4-0.7,3.7c-0.1,1,0.2,2.1-0.3,3c-0.4,0.7-0.9,1.3-1.4,2c-0.3,0.3-0.6,0.4-1,0.4c-0.5-0.1-1.1-0.4-1.5-0.7
	c-0.3-0.4-0.5-0.9-0.4-1.4c0.2-2.3,0.5-4.6,1-6.8c0.4-2.1,0.9-4.2,1.3-6.3c0.4-1.7,0.8-3.4,1.1-5.1c0.2-0.9,0.5-1.9,0.7-2.8
	c0.1-0.5,0-0.7-0.5-0.6c-0.5,0.1-1.1,0.1-1.6,0.2c-1.1,0.2-1.1,0.3-1.9-0.9l-0.4-0.6c-0.1-0.5,0-1,0.3-1.4c0.1,0,0.1,0,0.2,0
	c1.5,0.1,3,0,4.5-0.3c0.2,0,0.3-0.3,0.4-0.5c0.3-1.1,0.5-2.1,0.8-3.2c0.7-2.7,1.7-5.3,2.7-7.9c0.9-2.3,2.4-5.1,2.4-7.5
	c0.1-0.6,0.6-1.1,1.3-1.1c2,0,4,0,6,0.1c0.3,0,0.7,0.1,1,0.3c0.2,0.1,0.3,0.2,0.3,0.4c0.1,0.4,0.1,0.9,0.2,1.3
	c0.5,4.9,0.6,9.8,1.5,14.6c0.8,4.7,1.4,9.5,1.9,14.2c0.3,3.4,0.6,6.7,1.2,10.1c0.1,0.5,0.1,1.1,0.3,1.5c0.1,0.3,0.2,0.6,0.3,1
	s-0.1,0.5-0.4,0.6c-0.6,0.2-1.2,0.4-1.8,0.6c-1.2,0.4-2.5,0.6-3.8,0.8c-0.2,0-0.3,0-0.5,0.1c-0.6,0.3-1.3,0.1-1.6-0.4
	c0,0-0.1-0.1-0.1-0.1c-0.3-0.5-0.4-1-0.5-1.6C108.8,59.4,108.4,56.6,108.1,53.8z M104.8,26.8c-0.1,0.1-0.1,0.2-0.2,0.3
	c-0.4,1.2-0.7,2.4-1.1,3.7c-0.5,1.3-1,2.7-1.3,4.1c-0.1,0.6-0.4,1.1-0.5,1.6c-0.1,0.6-0.3,1.3-0.4,2c-0.1,0.4,0,0.6,0.5,0.6l2,0
	c0.5,0,0.9,0,1.4,0c0.3,0.1,0.6,0.1,0.9,0c0.4-0.2,0.1-0.5,0.1-0.8c0-0.6,0-1.1-0.1-1.7c-0.1-0.8-0.3-1.5-0.4-2.3
	c-0.1-1.2-0.3-2.3-0.4-3.5s-0.2-2.3-0.4-3.4C104.8,27.3,104.8,27.1,104.8,26.8z"/>
<path class="st0" d="M63,22.5c0.6-0.8,1.1-1.7,1.5-2.6c0.3-0.7,1.1-1.2,1.9-0.9c0.5,0.1,0.9,0.1,1.4,0c0.4,0,1,0.2,1.2,0.5
	c0.1,0.4,0,0.9-0.4,1.2c-0.8,0.9-1.4,2-1.7,3.2c-0.2,0.7-0.4,1.4-0.5,2.2c0,0.5,0,1,0,1.6c0.1,1.1,0.3,2.2,0.6,3.3
	c0.1,0.6,0.2,1.2,0.3,1.9c0.1,0.4,0.2,0.8,0.2,1.1c0.1,0.3-0.1,0.6-0.4,0.8c-0.9,0.5-1.8,1-2.7,1.5c-2.4,1.3-3-2.9-3.1-4.3
	c-0.1-0.8-0.1-1.5-0.2-2.3c0-0.8,0.2-1.7,0.1-2.6c0-0.3-0.1-0.6-0.2-0.8c-0.1-0.4-0.1-0.8-0.2-1.2c-0.1-0.7-0.4-1.3-0.8-1.9
	c-0.6-1-1.9-1.2-2.9-0.6c-2.7,1.5-2.5,5.8-1.7,8.3c0.3,0.8,0.6,1.7,0.9,2.4c0.5,1.2,1.1,2.3,2,3.3c0.9,1,2.1,1,3.4,1.3
	c1.2,0.3,2.3,1,3.1,2c0.7,0.7,1.4,1.4,1.9,2.3c0.5,1,0.9,2.1,1.2,3.1c0.5,1.5,0.8,3.2,0.7,4.8c-0.1,3.1-0.8,6.2-1.9,9.1
	c-0.5,1-1.1,1.9-1.8,2.7c-0.6,0.8-1.3,1.5-2,2.1c-0.4,0.3-0.8,0.5-1.2,0.6c-0.5,0.1-1,0.1-1.5,0c-0.4,0-0.9,0.1-1.3,0.2
	c-0.8,0.3-1.6,0.4-2.4,0.5c-1.4-0.1-2.7-1-3.3-2.3c-0.5-1-0.9-2.1-1.2-3.1c-0.4-1.1-0.6-2.2-0.8-3.4c-0.4-2.2-0.5-4.5-0.2-6.7
	c0.1-1.5,0.4-3,0.7-4.5c0.1-0.3,0.2-0.3,0.5-0.3c1.5,0,3-0.1,4.5-0.1c0.5,0,0.8,0.3,0.8,1c0.1,4.4-0.6,9,1.1,13.2
	c0.5,1.2,1.4,2.3,2.7,1.2c1.4-1.2,2.1-3.5,2.5-5.2c0.8-2.9,0.8-6,0.3-8.9c-0.2-1.7-0.9-3.2-2.1-4.5c-1.4-1.2-3.3-0.8-4.9-1.4
	c-1.6-0.6-2.8-2.2-3.7-3.6c-1.2-2.2-1.8-4.7-1.8-7.2c0-1.7,0.3-3.5,0.8-5.1c1-2.7,3.5-5.9,6.8-4.9c0.8,0.3,1.4,0.7,2,1.2
	c0.3,0.3,0.6,0.6,0.8,1C62.3,21.8,62.6,22.2,63,22.5z"/>
<path class="st1" d="M52.3,95.3c-0.2,0-0.3,0-0.4-0.1L33.7,81.4L15.5,95.2c-0.3,0.2-0.6,0.2-0.9,0c-0.2-0.2-0.3-0.5-0.1-0.7
	c0,0,0.1-0.1,0.1-0.1l19.1-14.5l19.1,14.4c0.2,0.2,0.3,0.5,0.1,0.7c0,0,0,0.1-0.1,0.1C52.6,95.2,52.5,95.3,52.3,95.3z"/>
<path class="st1" d="M52.3,96.2c-0.4,0-0.8-0.1-1.1-0.4L33.7,82.6L16.2,95.8c-0.7,0.5-1.7,0.5-2.4-0.1c-0.3-0.3-0.5-0.7-0.4-1.1
	c0-0.4,0.2-0.8,0.6-1l19.7-14.9l19.8,14.9c0.3,0.2,0.5,0.6,0.6,1c0,0.4-0.1,0.8-0.4,1.1C53.2,96,52.8,96.2,52.3,96.2z"/>
<path class="st1" d="M89.6,95.3c-0.2,0-0.3,0-0.4-0.1L70.9,81.4L52.7,95.2c-0.3,0.2-0.6,0.2-0.9,0c-0.2-0.2-0.3-0.5-0.1-0.7
	c0,0,0.1-0.1,0.1-0.1l19.1-14.5L90,94.3c0.2,0.2,0.3,0.5,0.1,0.7c0,0-0.1,0.1-0.1,0.1C89.9,95.2,89.7,95.3,89.6,95.3z"/>
<path class="st1" d="M89.6,96.2c-0.4,0-0.8-0.1-1.1-0.4L70.9,82.6L53.4,95.8c-0.7,0.5-1.7,0.5-2.4-0.1c-0.3-0.3-0.5-0.7-0.4-1.1
	c0-0.4,0.2-0.8,0.6-1l19.8-15l19.8,14.9c0.3,0.2,0.5,0.6,0.6,1c0,0.4-0.1,0.8-0.4,1.1C90.5,96,90,96.2,89.6,96.2z"/>
<path class="st1" d="M126.8,95.3c-0.2,0-0.3-0.1-0.4-0.1l-18.2-13.8L90,95.2c-0.3,0.2-0.6,0.2-0.9,0c-0.2-0.2-0.2-0.5-0.1-0.7
	c0,0,0.1-0.1,0.1-0.1L108.2,80l19,14.4c0.2,0.2,0.3,0.5,0.1,0.7c0,0-0.1,0.1-0.1,0.1C127.1,95.3,126.9,95.3,126.8,95.3z"/>
<path class="st1" d="M126.8,96.2c-0.4,0-0.8-0.1-1.1-0.4l-17.5-13.3L90.7,95.8c-0.7,0.5-1.7,0.5-2.4-0.1c-0.3-0.3-0.5-0.7-0.4-1.1
	c0-0.4,0.2-0.8,0.6-1l19.8-14.9l19.7,14.9c0.3,0.2,0.5,0.6,0.6,1c0,0.4-0.1,0.8-0.4,1.1C127.7,96,127.3,96.2,126.8,96.2z"/>
<path class="st1" d="M164.1,95.3c-0.2,0-0.3-0.1-0.4-0.1l-18.2-13.8l-18.2,13.8c-0.3,0.2-0.6,0.2-0.9,0c-0.2-0.2-0.2-0.5,0-0.7
	c0,0,0.1-0.1,0.1-0.1L145.4,80l19,14.4c0.2,0.1,0.3,0.4,0.1,0.7c0,0-0.1,0.1-0.1,0.1C164.4,95.3,164.2,95.3,164.1,95.3z"/>
<path class="st1" d="M164.1,96.2c-0.4,0-0.8-0.1-1.1-0.4l-17.5-13.3l-17.5,13.3c-0.7,0.5-1.7,0.5-2.4-0.1c-0.3-0.3-0.5-0.7-0.4-1.1
	c0-0.4,0.2-0.8,0.6-1l19.7-14.9l19.7,14.9c0.3,0.2,0.5,0.6,0.6,1c0,0.4-0.1,0.8-0.4,1.1C165,96,164.5,96.2,164.1,96.2z"/>
<path class="st1" d="M201.3,95.3c-0.2,0-0.3-0.1-0.4-0.1l-18.2-13.8l-18.2,13.8c-0.3,0.2-0.6,0.2-0.9,0c-0.2-0.2-0.2-0.5,0-0.7
	c0,0,0.1-0.1,0.1-0.1L182.7,80l19,14.4c0.2,0.1,0.3,0.5,0.1,0.7c0,0,0,0.1-0.1,0.1C201.6,95.3,201.5,95.3,201.3,95.3z"/>
<path class="st1" d="M201.3,96.2c-0.4,0-0.8-0.1-1.1-0.4l-17.5-13.3l-17.5,13.3c-0.7,0.5-1.7,0.5-2.4-0.1c-0.3-0.3-0.4-0.7-0.4-1.1
	c0-0.4,0.2-0.8,0.6-1l19.8-14.9l19.7,14.9c0.3,0.2,0.5,0.6,0.6,1c0,0.4-0.1,0.8-0.4,1.1C202.2,96,201.8,96.2,201.3,96.2z"/>
<path class="st1" d="M238.6,95.3c-0.2,0-0.3,0-0.4-0.1l-18.2-13.8l-18.2,13.8c-0.3,0.2-0.6,0.2-0.9,0c-0.2-0.2-0.2-0.5,0-0.7
	c0,0,0.1-0.1,0.1-0.1L219.9,80l19,14.4c0.2,0.1,0.3,0.5,0.1,0.7c0,0,0,0.1-0.1,0.1C238.9,95.3,238.7,95.3,238.6,95.3z"/>
<path class="st1" d="M238.6,96.2c-0.4,0-0.8-0.1-1.1-0.4l-17.5-13.3l-17.5,13.3c-0.7,0.5-1.7,0.5-2.4-0.1c-0.3-0.3-0.5-0.7-0.4-1.1
	c0-0.4,0.2-0.8,0.6-1l19.8-14.9l19.7,14.9c0.3,0.2,0.5,0.6,0.6,1c0,0.4-0.1,0.8-0.4,1.1C239.5,96,239,96.2,238.6,96.2z"/>
<path class="st0" d="M121.4,30c0.2-2.3,0.5-4.5,0.9-6.8c0.1-0.6,0-0.7-0.6-0.8s-1.5-0.2-2.2-0.3c-0.2,0-0.3,0-0.5,0
	c-0.3,0-0.5,0.3-0.8,0c-0.3-0.3-0.3-0.4-0.5-0.6c-0.2-0.2-0.3-0.4-0.5-0.6c-0.4-0.5-0.4-1.2,0.1-1.4c0.2-0.1,0.5-0.1,0.8-0.1
	c0.6,0.1,1.1,0.2,1.7,0.3l1.8,0.3c0.1,0,0.2,0,0.3,0c0.8,0.3,0.9,0.2,1.2-0.5c0.3-0.5,0.5-0.7,1.5-0.5c0.8,0.1,1.6,0.3,2.3,0.5
	s1,0.5,1,1.3c0,0.5,0.1,1,0.2,1.5c0.1,0.2,0.2,0.5,0.4,0.6c0.9,0.8,1.8,1.5,2.7,2.4c0.5,0.5,0.8,1.1,1.1,1.7
	c0.4,0.8,0.8,1.6,1.2,2.4c0.3,0.7,0.5,1.4,0.7,2s0.5,1.4,0.7,2.2c0.2,0.7,0.3,1.2,0.4,1.8c0.1,0.6,0.2,1.2,0.3,1.8
	c0.2,0.7,0.3,1.4,0.3,2.2c0.1,0.8,0.2,1.6,0.3,2.4c0,0.7,0,1.3,0,2c0,0.7-0.1,1.4-0.2,2c-0.1,0.9-0.3,1.8-0.5,2.7
	c-0.1,0.4-0.1,0.8-0.2,1.2c-0.1,0.8-0.2,1.7-0.4,2.5c-0.2,1-0.5,1.9-0.9,2.8c-0.5,1.3-1.1,2.6-1.9,3.7c-0.6,0.7-1.1,1.4-1.7,2.1
	c-0.4,0.6-0.9,1.2-1.4,1.7c-0.6,0.5-1.1,0.9-1.8,1.3c-0.6,0.4-1.3,0.8-1.9,1.2c-0.2,0.1-0.4,0.2-0.6,0.2c-1.1-0.1-2.2-0.2-3.3-0.3
	c-0.9-0.1-1.6-1-1.5-1.9c0.2-4.9-0.1-9.8,0.1-14.7c0.2-5.1,0.5-10.2,0.9-15.3C121.2,31.9,121.3,31,121.4,30z M128.3,25.4l-0.1,0.1
	c-0.4,0.3,0.1,3.5,0.1,4c0,1.7,0,3.3,0,4.9c-0.2,7.8-0.5,15.6-0.2,23.4c0,0.3,0,0.6,0,0.9l0.2,0.1c0.4,0.2,3.1-4.4,3.3-4.9
	c0.9-1.7,1.6-3.6,2-5.6c0.8-4,0.7-8.1-0.2-12.1c-0.7-3.2-1.6-7.5-3.9-9.9C129.1,26,128.7,25.7,128.3,25.4z"/>
</svg>
