<svg xmlns="http://www.w3.org/2000/svg" viewBox="0 0 124.89 142.85"><defs><style>.cls-1{fill:#f6a52b;fill-rule:evenodd;}</style></defs><title>manchon-a</title><g id="Capa_1" data-name="Capa 1"><path class="cls-1" d="M73.32,83.22c14.91-15.9,23.62-29.77,12.92-48.33-5.82-10-7-15.57-22.33-17.61C49.17,15.32,29.46,35,24.18,40.65c-6.83,7.25-16.47,44.46,20,50.76.58.1,1.32.26,1.89.35.75.12,2.91.54,3.68.59A30.52,30.52,0,0,0,73.32,83.22Z"/><path class="cls-1" d="M88.93,102.65c-4.87,6.76-1.54,1.65-3,8.5-1.77,8.4,6.88,13,11.33,12.48l5.28-1.66c9.09-5.69,5.71-17.09,3.1-19-4.36-3.15-5-4-10.46-3.61A7.63,7.63,0,0,0,88.93,102.65Z"/><path class="cls-1" d="M67.51,100c-9.17,12.73,16.91,23,12.91,5.3C79,99.06,71.82,94,67.51,100Z"/><path class="cls-1" d="M89.41,82.15c1.67,2.3.53.6.3,2.57,0,.19-.22,1.61-.23,1.71l4.2,3c3-2-.13.07,2.32-.84,1.4-.51.74.08,1.63-.79.65-.66,1.44-2.94,1.79-4.85C97.61,80.92,94.43,75.49,89.41,82.15Z"/></g></svg>