<svg xmlns="http://www.w3.org/2000/svg" viewBox="0 0 123.76 148.64"><defs><style>.cls-1{fill:#eb6155;fill-rule:evenodd;}</style></defs><title>manchon-r</title><g id="Capa_1" data-name="Capa 1"><path class="cls-1" d="M25.2,30.76a2.44,2.44,0,0,1,.61,2.81l-.8-.93c.42-.62-.46-.4.19-1.88Zm33.43,51.5c.26-.94,0-.6.58-1.08.49,1,.54.92-.58,1.08ZM42.58,97.78h.66c.79,0,.55-.25,1.73.36,1.34.76,1.29,1.07,1.91,2,2.07,3.08,4.76,2.78,7.81,2.41,3.38-.44,7,1.6,10.65,1.11,3.25-.42,2.35-.29,5.5.85,1.13.4,1.69-.1,2.55-.71s1.15-1.15,2.49-.89c.78.14.67.29,1.28.44,1.12.26,1-.27,1.62-.94,1.25-1.23.76.34,3.52-1.75,1-.71.23-.41,1.24-.48h1.38c.61-1.43-.2-1.58.35-2.63s3.9-3.21,4.3-4c.74-1.28,0-1.68.59-2.88C90.46,90,91.51,89,92,88.06A23.26,23.26,0,0,0,93.76,82a15.8,15.8,0,0,1,.71-2.94c1.45-4.37.16-3.48.67-5.93.64-2.77,1.84-3.85,2.21-6.37.34-2.24-.13-2.86-1.09-4.71-.47-.94.27-.36-.88-1.1.63-1.49-.41-2.52-.9-3.88-.89-2.53.73-3.58.92-8.51.09-1.5.72-3.51-.82-4.32-1.33-.75-2,.73-2.63,1.76-.29.51.12,0-.38.5a8.83,8.83,0,0,1-.67.63c-1.35,1-1.71.5-3.06-.23-.92-.52-.13-3,0-4.13a18.06,18.06,0,0,1,.82-4.35c.69-1.91.8-1.25.82-3-2-.47-3.25,1.77-5.19,1.79-1.36,0-1.4-.29-2.49.85s-1.17,1.26-2.8.68c-2.51-.9-2.45-2.8-1.45-5.09,1.23-2.69,1.5-1.86,1.21-5.17-.73-.32-.3-.25-1-.34-2.91-.49-1.91,3.79-3.5,6.4-1.26,2.06-4.16.74-6.08.73s-3.15.44-4.1-2a5,5,0,0,1,0-2.54c.18-2.26.92-3.1-.94-4.76-.92.49-1.64.42-2.13,1.31-.66,1.21-.37,1.46-.82,2.45-1.21,2.51,1,4.6-5.18,3.62-3.91-.63-4.15,2-7.55-3.67a10.25,10.25,0,0,1-.41-1c-1.49-4.34-1.94-2.41-3-3.9-.53.8-.29.5-.87.93a13.69,13.69,0,0,0,1.58,5l1.57,4.12c-1.52,1.09-7.71,5.34-9.48,4.37A24.88,24.88,0,0,1,32,35.6c-1.14-.93-1.9-1-2.34-2.28-.87-2.38-4.94-5.6-6.08-3.46-1,1.86.14,3.1,1.71,4,1.27.77,4.74,2.59,5.42,4.43l.63,2.11c1,2.83.45,4.18-.9,6.67-.93,1.74-1.91,3.19-3.79,3.38-2.41.24-3.89-1.87-5.63-1.23L19.64,50c.79,3.57,2.78,4.83,5.79,7,1.56,1.15,1.06,1.28,2.21,2.3-.83,1.46-1.58,1.6-2.78,2.27a3.58,3.58,0,0,0-1.8,1.86c-1.22,2-1.48,3.55,1,4.93,3.47,1.93,2.36,1.13,4.32,7.9.45,1.58-.51,3.29-1.44,5l-2.79-.17c-3.67-.37-3.67,2.45-3.16,3.06s.93.35,1.83.25c3.11-.3,8.47,1.88,6.3,5.84-.68,1.18-1.71,1.2-2.47,2.54-.57,1.07.34,2,1.18,2.41,1.16.64,2.66.22,4,.26,5.35.31,2.61-1.3,8.46,1.59A8.09,8.09,0,0,0,42.58,97.78Z"/><path class="cls-1" d="M37,130.76c13.08,10.18,20.37,6.05,21.85-9.41-8.57-8.06-16.42-13.78-20.92.48-.15.47-.37,1.15-.46,1.61Z"/><path class="cls-1" d="M72.77,131.82c7.53,17.45,36.13-5.31,5.75-14C76.56,120.75,70.87,127.41,72.77,131.82Z"/></g></svg>