<svg xmlns="http://www.w3.org/2000/svg" viewBox="0 0 123.76 148.64"><defs><style>.cls-1{fill:#34b7bf;fill-rule:evenodd;}</style></defs><title>manchon-az</title><g id="Capa_1" data-name="Capa 1"><path class="cls-1" d="M59.69,117.9c-7.08-5.92-1.71-1.81-9.15-4-9.14-2.65-15,6.54-14.69,11.5l1.41,6c5.56,10.49,18.39,7.67,20.68,5,3.84-4.58,4.82-5.2,4.83-11.26A8.48,8.48,0,0,0,59.69,117.9Z"/><path class="cls-1" d="M110.33,94.77c-2.67,1.67-.71.52-2.87.13-.2,0-1.75-.37-1.87-.38l-3.68,4.39c2,3.45-.06-.14.76,2.64.44,1.58-.17.8.72,1.86.68.78,3.14,1.82,5.23,2.34C111,103.93,117.29,100.86,110.33,94.77Z"/><path class="cls-1" d="M96,78.19c9.77-14.74,14.86-27,3.79-40.42-6-7.21-7.72-11.5-20.26-11.05-12,.43-25.15,18.85-28.61,24.08-4.48,6.73-7.14,37.79,22.84,37.89l1.56,0c.62,0,2.4,0,3,0A24.77,24.77,0,0,0,96,78.19Z"/><path class="cls-1" d="M13.46,38.61c14-.07,17.86-7.24,12.83-19.32-9.72-1-17.94-.66-15.69,12.3A12.64,12.64,0,0,0,10.91,33Z"/><path class="cls-1" d="M40.93,31.51C53.6,39.92,66.24,7,39.72,18.07,39.41,21.31,37.74,29.42,40.93,31.51Z"/></g></svg>