<svg xmlns="http://www.w3.org/2000/svg" viewBox="0 0 1150.48 970.3"><defs><style>.cls-1{fill:#eb6155;}.cls-1,.cls-2,.cls-3{fill-rule:evenodd;}.cls-2{fill:#34b7bf;}.cls-3{fill:#f6a52b;}.cls-4{fill:#1f1a27;}.cls-5{fill:#66a534;}.cls-6{fill:#7ed63e;}.cls-7{fill:#6dc82a;}.cls-8{fill:#5eac24;}.cls-9{fill:#006d5d;}.cls-10{fill:#005b4e;}.cls-11{fill:#e0e0e2;}.cls-12{fill:#d8d7da;}.cls-13{fill:#c6c5ca;}.cls-14{fill:#acabb1;}.cls-15{fill:#ffc477;}.cls-16{fill:#ee8700;}</style></defs><title>objetivo-ilustracion copia 2</title><g id="Capa_1" data-name="Capa 1"><path class="cls-1" d="M708.86,173.57c22.54,5.46,29.46-4,22.44-24.58-15.56-5.34-28.88-8.12-26.4,12.66.08.69.19,1.68.33,2.33Z"/><path class="cls-2" d="M548.33,130.12c15.6,11.23,3.82,3.55,19.62,6.93,19.36,4.08,30.07-15.88,28.78-26.15L592.9,98.72c-13.12-21-39.41-13.16-43.71-7.14-7.27,10.06-9.23,11.49-8.33,24.11C541.23,121.11,542.73,126.08,548.33,130.12Z"/></g><g id="Capa_3" data-name="Capa 3"><path class="cls-1" d="M197.9,703.53a3.41,3.41,0,0,1,2.39,3.22l-1.56-.72c.18-1-.81-.24-.83-2.5ZM270.19,750c-.21-1.35-.4-.73.12-1.71,1.21,1,1.22.87-.12,1.71Zm-11.53,29,.85-.37c1-.44.55-.64,2.4-.54,2.16.2,2.26.62,3.58,1.42,4.42,2.73,7.68.8,11.35-1.43,4.06-2.5,9.82-2,14.22-4.72,3.91-2.41,2.84-1.71,7.51-2.08,1.68-.14,2.09-1.1,2.85-2.37s.79-2.13,2.66-2.57a13.14,13.14,0,0,1,1.88-.17c1.58-.31,1.08-.91,1.53-2.14.88-2.29,1.17,0,3.48-4.26.8-1.45.06-.65,1.31-1.32l1.74-.81c0-2.17-1.15-1.9-1-3.56.18-1.85,3.12-6.33,3.16-7.59.22-2.06-.9-2.16-.9-4,0-1,.78-2.89.88-4.35a32.13,32.13,0,0,0-1.26-8.75,22.63,22.63,0,0,1-.79-4.16c-.66-6.41-1.8-4.52-2.56-8-.77-3.91.14-6-.84-9.39-.86-3.06-1.82-3.58-4.1-5.38-1.14-.94.14-.62-1.77-.89,0-2.27-2-3-3.38-4.44-2.58-2.72-1.12-5-3.72-11.38-.74-2-1.1-4.9-3.53-5.06-2.14-.17-2.14,2.09-2.34,3.76-.08.83.13-.1-.19.87,0,.09-.4,1-.51,1.18-1.12,2.09-1.88,1.62-4,1.47-1.48-.13-1.89-3.72-2.36-5.27a25.29,25.29,0,0,1-1.46-6c-.21-2.83.31-2.05-.67-4.28-2.77.53-3.14,4.13-5.59,5.27-1.74.79-2,.43-2.7,2.53s-.75,2.27-3.17,2.47c-3.73.29-4.75-2.16-4.78-5.65,0-4.15.84-3.25-1.43-7.3-1.12,0-.53-.14-1.51.15-4,1.06-.25,5.94-.78,10.19-.41,3.34-4.87,3.33-7.32,4.43-2.29,1-3.77,2.37-6.38-.17-.93-.86-1-2.09-1.43-3.26-1.06-3-.6-4.49-3.93-5.53-.9,1.15-1.85,1.48-2,2.9-.16,1.92.36,2.08.35,3.6-.09,3.9,3.93,5.28-4.52,7.59-5.35,1.45-4.12,5-11.74-.33a14.2,14.2,0,0,1-1.13-1.09c-4.4-4.68-3.85-2-6.1-3.23-.22,1.33-.08.8-.57,1.69a19,19,0,0,0,4.9,5.5l4.38,4.35c-1.31,2.27-6.76,11.26-9.57,11-3.69-.26-5.09-1-8.27-1.8-2-.53-3-.17-4.3-1.56-2.48-2.54-9.53-4.31-9.75-.91-.24,3,2,3.87,4.49,4.1,2,.26,7.52.58,9.46,2.53l2,2.32c2.86,3.06,3,5.09,2.7,9-.19,2.76-.61,5.17-2.9,6.5-2.93,1.69-6-.15-7.88,1.67-.09.09-1.13,1.56-1.31,1.79,3.06,4.1,6.32,4.56,11.43,5.64,2.65.56,2.08,1,4.14,1.66-.21,2.34-1.09,2.94-2.24,4.49a5,5,0,0,0-1.22,3.42c-.42,3.22.16,5.37,4.15,5.69,5.54.47,3.67.08,10.06,7.6,1.48,1.75,1.25,4.47,1,7.17l-3.67,1.39c-4.89,1.64-3.26,5.23-2.27,5.72s1.39-.08,2.49-.73c3.79-2.17,11.88-2.49,11.39,3.82-.18,1.9-1.48,2.52-1.68,4.67-.12,1.69,1.56,2.3,2.88,2.39,1.86.15,3.53-1.25,5.24-2,7-2.69,2.57-3.17,11.7-2.84A11.69,11.69,0,0,0,258.66,779Z"/><path class="cls-1" d="M821.93,304c55.52,50.6,121.55-77.92-2-59.74C817.58,257.89,807.92,291.14,821.93,304Z"/><path class="cls-3" d="M409.52,622.54c5.63-2.47,4.77.87,7.14-.74l3.54,3.07c-4.32,1.83-7.66.39-10.68-2.33ZM605.66,749.85c-.58,4.27-.22,4.07-4.12,2.24,1.84-2.39.54-1.25,4.12-2.24ZM662,680c-11-22.28-4.9-11.86-6.06-32.21-.15-5,1.45-10.74-1-15.18-1.72-3.18-5.11-6.66-9.16-4.46-5.11,2.89-5.19,6.81-9.69,9.37-15.1,8.28-23.38-12.14-22.24-24,.38-3.45,1.56-5.08-1-7-2.34-1.92-13-1.93-11.65,12l.65,10.65c-6.45,3.55-13,7.17-19,5.45-25.79-7.43-22.74-3.22-30.1-16.45-5.28-9.53-11.24-8.57-18.78-3.92-3.29,1.93-4.37,2.15-7.1,6.86-2.55,4.6-3.06,7.44-8.64,10.59-3.89-4.38-4.39-2.48-8.75-8.4-8.38-11.47-13.19-19-26.79-22.06-.37.71-2.83,4.95-3,5.26-2.45,6.61,5.6,12.26,4.68,21.42-.74,7.16-6.25,10.9-12.89,14.47-9.45,5.11-14.62,7.1-25.4,3.41l-8-2.39c-7-2.61-13.93-15.83-16.87-20.64-3.41-6-8.11-10.44-15.2-6.53-8.17,4.36,4.11,19.86,13.18,23.17,4.91,1.68,5.14,4.55,8.69,8.9,5.67,7,9,9.65,13.72,18.5,3.72,6.73-12.46,30.31-16.64,36.08l-15.69-6a52.06,52.06,0,0,0-19.14-6c-1.65,2.22-.49,1.29-3.54,3.33,5.66,4.15-1.7,5.83,14.84,11.51a37.08,37.08,0,0,1,4,1.59c21.7,12.95,11.56,13.85,14,28.75,3.74,23.53-4.19,15.1-13.75,19.71-3.78,1.72-4.74.61-9.35,3.15-3.39,1.86-3.14,4.59-5,8.11,6.3,7.09,9.51,4.27,18.12,3.56,3.33-.33,6.51-1.45,9.67-.11,9.22,3.64,7.58,8.79,7.56,15.63,0,7.32,5.05,18.36-2.78,23.14-9.95,6.06-26.24,2.24-24.4,13.33.37,2.77.1,1.12,1.32,3.92,12.59,1.07,9.43.07,19.69-4.63,8.72-3.83,15.94-4,19.38,5.52,2.22,6.23,1.86,6.42-2.58,10.65s-3.22,4.32-3.25,9.51c-.09,7.36-8.61,12.3-6.82,19.78,6.63-.08,4.12-.5,11.39-3.13,5.47-2.21,10.9-2.29,16.58-3.13,4.36-.58,13.74-3.59,15.72-.07,2.77,5.15,4.79,6.52.86,11.64-.43.52-2.16,2.45-2.37,2.57-2,1.89,0,.34-1.94,1.44-3.91,2.39-9.53,4.93-6.7,10,3.11,5.86,10.76,3.47,16.48,3.1,18.77-.71,22.78-6.87,32.42-3.51,5.17,1.87,9.1,5.85,14.78,3.43,2.82,4.4.58,1.59,4.18,3.37,7,3.65,9.4,5.46,17.94,4.16,9.6-1.4,13.69-6,24.24-8.43,9.36-2,5.94,3,22.59-2.56a60.15,60.15,0,0,1,11.21-2.69c6.22-.79,17.93-3.89,23.11-6.68,3.51-1.9,7.27-5.88,9.8-7,4.58-2.09,6.08.59,11-2.26,3.07-1.53,10.89-13.82,15.29-16.36,4-2.1,4.57,1,10-1.35l.07-5.25c.26-3.85-.89-1.11,1.8-4.71,8-10.51,2-8.66,6.67-13.4,2.54-2.49,4.59-1.93,3.6-6.19-.59-2.3-1.14-1.91-1.67-4.87-1-5.12.78-5.87,3.39-9.47,2.3-3.3,4.22-5.41,2.67-9.72-4.32-12-4.84-8.57-3.24-21,1.89-14-5.87-27.67-4.23-40.54,1.45-11.61,2.57-21.86-9.15-29.77-3.46-2.37-4.61-2.15-7.52-7.27-2.31-4.49-1.31-3.57-1.36-6.58l0-2.51C664.65,686.52,663.08,682.25,662,680Z"/><path class="cls-3" d="M817.43,634c38.79,49.8,23.06,77.58-35.85,83.19-30.68-32.62-52.47-62.54,1.86-79.66,1.78-.58,4.36-1.42,6.14-1.78Z"/><path class="cls-3" d="M821.49,770.14c66.45,28.7-20.25,137.64-53.27,21.89C779.31,784.57,804.68,762.91,821.49,770.14Z"/><path class="cls-2" d="M1004.7,426C968,391.65,936,371.55,893.22,396.23c-23.07,13.43-35.91,16.15-40.61,51.51-4.52,34,40.89,79.48,53.91,91.65,16.73,15.76,102.55,38,117.08-46,.23-1.34.6-3,.82-4.35.27-1.75,1.24-6.73,1.34-8.5C1027.24,461.44,1019.26,439.67,1004.7,426Z"/><path class="cls-2" d="M1043.34,439.43c29.36,21.15,53.13-39,12.22-29.78C1041.26,412.92,1029.56,429.5,1043.34,439.43Z"/><path class="cls-2" d="M1002.24,388.92c5.3-3.84,1.39-1.21,5.93-.69.43,0,3.7.51,4,.53l7-9.68c-4.69-6.86.16.29-2-5.34-1.18-3.25.19-1.72-1.83-3.77-1.51-1.5-6.78-3.33-11.17-4.12C999.4,370,986.87,377.36,1002.24,388.92Z"/><g id="g9340"><path id="path6364" class="cls-4" d="M375.51,359.89c-.65-1.42.84-2.56,1.66-3.59.1-.72.55-.09.76-.13a17,17,0,0,1,1.45,2.52,28.64,28.64,0,0,0,4.41-3.81c1.93-1.34,2.79-3.23,4.51-4.67a6.05,6.05,0,0,1,1.16-1.43,11.24,11.24,0,0,0,3.68-2.61,91.06,91.06,0,0,1,14.2-11.92l1.07-.56c.42.7.92,1.17,1.39,1.86a3,3,0,0,0,1.06,2c.37.24.44.67.67,1-1.54,3.12-4.17,4.82-7.06,6.83-1.65,2.3-3.64,4.32-5.34,6.47a35.06,35.06,0,0,1-2.09,3.82c-1.3,1.15-2.94,1.18-4.4,1.75-1.32,1.69-3.39,2.73-5.28,3.72a68,68,0,0,0-8.43,5.77c0-.34-.66-.6-.77-.69a6.34,6.34,0,0,1-.36-2.26c-.1-.61-.65-.73-1-1.12A11,11,0,0,1,375.51,359.89Z"/><path id="path6366" class="cls-4" d="M360.86,371c0-.67.47-.91.95-1.31A35.4,35.4,0,0,1,371,371a6,6,0,0,0,2.06.29,3.49,3.49,0,0,0,1.32,1.22,41.46,41.46,0,0,1,7.54,1.91,6.55,6.55,0,0,1,.51,1.51,48.57,48.57,0,0,1-10.24-1.6,18.35,18.35,0,0,0-6.56-1.61,18.17,18.17,0,0,0-4.73-1.75Z"/><path id="path6370" class="cls-4" d="M399.6,369a42.68,42.68,0,0,1,2.89-4.65,13.82,13.82,0,0,1,1.47-2.13l1-.5c.37-.5.74-.2,1.07-.29.32-.46.81-.52,1.23-.78.73.41.17.9.24,1.24-1.91,1.22-3.07,2.91-4.51,4.4-.89,1.23-1.55,2.43-2.37,3.55C399.7,369.9,400,369.9,399.6,369Z"/><path id="path6372" class="cls-4" d="M336.09,363.2c-.24-1.31.48-2.12.91-3.2,4.46-1.07,8.6-1.27,12.87-2,4.35-1.31,8.9-2.14,12.9-3.75a4.58,4.58,0,0,0,1.54-1.22c2.14-1.34,4.3-1.65,6.44-2.27,1.47.05,2.44,1.2,3.6,1.66,2.11-.16,4.36-1.17,6.24-1.36a13,13,0,0,0,2.13-1.39,7,7,0,0,1,2.51,1.15c-.23.9-1.53,1.44-2.34,2-5,.66-9.81,2.9-14.62,3.83-10.26.22-23,7.67-32.18,6.47Z"/><path id="path6374" class="cls-4" d="M378.81,324.51c3.7,1.24,8.17,1.33,12.25,2.31,4.16.29,7.56.89,11.46.55.75,0,.56-.78.79-1.1a18.18,18.18,0,0,1-4.78-1.31,25.09,25.09,0,0,0-8.6-.82c-2.66.46-4.89-.07-7.51,0a23.14,23.14,0,0,1-2.87-.55A6,6,0,0,0,378.81,324.51Z"/><path id="path6376" class="cls-4" d="M400.49,337.83c.3-3.76,2.18-6.53,3.61-9.52.73-1.14,2-1.59,3.2-2.22a10,10,0,0,1,4.08,1.28,33.7,33.7,0,0,0,4.22-2.08c1.52-.13,2.94-.23,4.43-.4.31.13.33.46.5.69a24.87,24.87,0,0,0-3,2.11,21.49,21.49,0,0,1-4.68,6.94,21.58,21.58,0,0,0-3.2-.64,6.13,6.13,0,0,1-2.39-.93,14,14,0,0,1-1.84-.13,29.85,29.85,0,0,0-3.6,4.07,14.81,14.81,0,0,1-1.34.83Z"/><path id="path6378" class="cls-4" d="M404.49,329.06c-.88-1.63-2.06-2.38-2.93-4.05.5-.61.92-1.22,1.47-1.86a9.08,9.08,0,0,1,2.71.49,59.12,59.12,0,0,1,.71,6C405.06,330.07,405.22,329.76,404.49,329.06Z"/><path id="path6380" class="cls-4" d="M407.29,328.69a9.59,9.59,0,0,1-.13-4.16,9.1,9.1,0,0,0,.43-3.36,24.61,24.61,0,0,1,1.34-3.7c.44-.3.71-.2,1.18-.34.27,1.27-.76,2.22-1.4,3.32a11.28,11.28,0,0,0,.91,2.25,19.1,19.1,0,0,0-1.35,6Z"/><path id="path6382" class="cls-4" d="M404.34,323.82a21,21,0,0,1,3.27-7.29c.31.39.66.47,1.1.79a22.43,22.43,0,0,0-1.79,2.57c-.19,2.25-1.5,3.35-2.29,5Z"/><path id="path6384" class="cls-4" d="M383.27,320.54c.3.68.62,1.28.9,2a10.62,10.62,0,0,1,4.14-.94c.61,0,1.09-.13,1.57-.14,3.53-.52,6.61-2.8,9.86-4.07.54-.41.12-.54.2-.92-.91-.54-1.14-.25-1.89-.24-2.35.4-4.58,1.85-6.75,3-.32-.42-.22-.74-.35-1.18a4.81,4.81,0,0,0-1.52-.57,16.78,16.78,0,0,0-2.84,1.35c-.53.22-1,.47-1.55.68a10.91,10.91,0,0,0-1.77,1.06Z"/><path id="path6386" class="cls-4" d="M388.5,314.12a34.7,34.7,0,0,1,4.86-3.22c.68-.24.92.17,1.35.24a30.86,30.86,0,0,0,5.66-3.5,7.07,7.07,0,0,1,1.3-.13c4-2.47,7.81-5,12-7.24a6.51,6.51,0,0,0,2.27.17c1.24-.62,2.73-1,3.86-1.48a7,7,0,0,1-.7,3.1c-2.39,1.28-5,2.35-7,4.07-2.87-.15-5.46,1.92-7.88,2.9-1.67-.21-3.36.84-4.8.73l-1.5.79a4.48,4.48,0,0,1-2,1.87c-1.28-.54-2.47,0-3.71.44-1.14.64-2.21,1.29-3.37,1.9Z"/><path id="path6388" class="cls-4" d="M406.39,311.58c-.61-.88-.31-1.72-.16-2.64.54-.54,1.17-.24,1.51-.25a14.76,14.76,0,0,0,1.33,2c1.78.67,2.82,2,4.17,3.27,1.77.91,2.56,2.64,3.74,4a6.72,6.72,0,0,1-.56,1.52,8.75,8.75,0,0,1-3.19-3.23,15.66,15.66,0,0,0-3.35-2.75c-.31-.13-.33-.46-.5-.69-1-.54-1.31-.25-2.11-.4a12.15,12.15,0,0,1-.88-.9Z"/><path id="path6390" class="cls-4" d="M424.42,349.71c-.71-.79-.32-1.17,0-1.89.28-.34.76-.21,1.07-.29a7.37,7.37,0,0,1,1,1.66c.18,1.7.38,3.37.41,5-.68.29-.32,0-.65.06l-1-1.82A3,3,0,0,0,424.42,349.71Z"/><path id="path6392" class="cls-4" d="M430.55,342.41a4.75,4.75,0,0,1,.19-1.46c.91.13,1.12-.15,1.94-.47a24,24,0,0,1,1.18,2.52,6.16,6.16,0,0,1,1.3.14,52,52,0,0,1,2.79,5.08c-.29.53-.78.77-1.16,1.16-1.58-1.26-2.89-2.86-4.45-4.08a13.86,13.86,0,0,1-1.79-2.89Z"/><path id="path6394" class="cls-4" d="M432.08,352.11c0-.64.42-.76.63-1.15a9.55,9.55,0,0,1,5.23-.69c.33.17.37.54.55.8a10.9,10.9,0,0,1-3.6.93,7.74,7.74,0,0,0-2.31.8l-.5-.69Z"/><path id="path6396" class="cls-4" d="M436.94,342.89a29.9,29.9,0,0,1,.15-3.35,6.26,6.26,0,0,0-.35-1.72c1-1.28,1.46-3.65,1.84-5.33.36-.48,1.11-.36,1.4-.46a7.31,7.31,0,0,1,1.37,3.92l-2.87,2.59-.37,3.46Z"/><path id="path6398" class="cls-4" d="M417,341.31l.14,1.83,1,.31,1.55-.68.1-.86-1.53-.84Z"/><path id="path6400" class="cls-4" d="M412.51,353.76l.76-2.44,1.35-.3L417,352l1,.95-.42.23-2.92.16-1.33.83Z"/><path id="path6402" class="cls-4" d="M431.89,362.16v.54l1.09.52,2.42-.59.63-.87-1.57-.14Z"/><path id="path6404" class="cls-4" d="M443.93,361.72c-.22.2-.24.58-.64.61l-.67,1.85-1.67.19-.64-2.53,2.06-5.17,2.18-2.36.61.91L444,357.35Z"/><path id="path6408" class="cls-4" d="M388.39,331.89l1.22-1.32.5.43.6,3.23-.47.92-1-1.11Z"/><path id="path6410" class="cls-4" d="M403,351.94l.3-1L405,351l.82.79-.3,1.25-1.2-.47Z"/><path id="path6412" class="cls-4" d="M391.55,341.83l2.1.12-.15.49-1.61.57-.71-.31Z"/><path id="path6414" class="cls-4" d="M394,332.39l2-1.88,1.13.09,1.2.73-.09.6-1.78.25-1.45.62Z"/><path id="path6416" class="cls-4" d="M374.14,344l.19,1.67,1.09.25,1.22-.78-.49-.69-1.36-.51Z"/><path id="path6418" class="cls-4" d="M396.19,300.15l.34.91,1.36.52.09-.87-.66-.47Z"/><path id="path6422" class="cls-4" d="M402.86,301.71l.63-.88,1,.41.39,1-.86.18Z"/><path id="path6424" class="cls-4" d="M371.17,317.46l2-1.33,2.14-1.12,1,.68h.81l1-1.21,2.18-1.82,1.21-1.86-.67-4.15.17-8.26,1.4-.73,1.9,3.64.63,2.25,1.61-.84,1.78-.24,3.34-3.25.82.52L390,304.21l-3.92,7.63-5.25,8.2-3.12,3.41-3.91,4.77-2.36,1.23-.72-1.12.7-3.1,2.1-3.54.54-2.61-1.67-.07Z"/><path id="path6426" class="cls-4" d="M358.35,313.54l3.49-1.15L368,311.2l4.49.24-.14,1-4.57,1.43-6,.71-2.75-.06Z"/><path id="path6428" class="cls-4" d="M373.17,299.65l1.94.08,1.66,2.13.62,1.44.3,1.35-1.39.73L374.8,303Z"/><path id="path6430" class="cls-4" d="M366.47,323.06l2-1.44.44.31.34,1.18-1.82.69Z"/><path id="path6432" class="cls-4" d="M351.07,311.35l0-2.06.91-.61.87.63-.57,1.26-.57,1Z"/><path id="path6434" class="cls-4" d="M389.27,294l.23.7,1,.68,1.19.19,1-.5-.28-.53-1.74-.73-.66-.47Z"/><path id="path6436" class="cls-4" d="M314.59,324.71l6.94,1.81,3.63.15,8.44,1,1.34-.57-.23-.7-8.3-2.33-4.38-.3-3.74-.36-3.45.17Z"/><path id="path6438" class="cls-4" d="M322.36,333l3.33-.92,2.17.77-.35,1.14-2.86.27-.6-.1-2.05,0Z"/><path id="path6440" class="cls-4" d="M314,340.44l1.39-.73,2.75,2.92,1.58,3.53,2.08,4.77,1,1.82-1,.94-1.52,0-2.82-3.56-2.72-4.44-.38-2.8Z"/><path id="path6442" class="cls-4" d="M358.45,381.21l1-2.18-.3-1.61,1.23-.78,1,.31-.18,2-1.45,3.21-1.35.3Z"/><path id="path6444" class="cls-4" d="M335.09,332.38l0,1.78.94,1.28,1.54,1.65.69-.77-1.1-1.33-.72-.58.15-1L336,332Z"/><path id="path6446" class="cls-4" d="M336.13,327.07l0,1.51,1.09.52,1-.4-.46-1.39Z"/><path id="path6448" class="cls-4" d="M333.83,343l-1.49,1.32-.42,1,1.36.24,1-1.47,1.54-1.22-.24-1.24-1.55.41Z"/><path id="path6450" class="cls-4" d="M331.46,352.27l-1.38,1.27.35,1.72,1.2.46.89-1.69.89-1.15-.61-1.18Z"/><path id="path6452" class="cls-4" d="M334.87,353.07l.8-.82,1.2.73,1.13-.45,2.27.44.56,1.07-.9.88-2.17-.77-.86.45.55.53-1,.67-1.42-.9Z"/><path id="path6454" class="cls-4" d="M376.7,309.53l.67,1.28,1.13-.18.31-1-.83-.79-.65-.21Z"/><path id="path6456" class="cls-4" d="M352.73,378.35l.92-.07.79-1.1-.2-1.67-1-.14-.52.82.19,1.4Z"/><path id="path6458" class="cls-4" d="M391.51,378.23l-1.67.2-.35-1.18,1.6-1.11,1.42.62Z"/><path id="path6460" class="cls-4" d="M399.09,382l-.43,3.36.7,2.63,1.31.68,1.54-1.22-.14-1.83L400.71,382l-.89-.9Z"/><path id="path6462" class="cls-4" d="M402.08,380.47l.67,1.29,1.64.78,1-.51-.61-1.17-2.23-.88Z"/><path id="path6466" class="cls-4" d="M408.59,376.25l.35.91-.86.45-1.54-1.38-1.81-1.64c.62-1.41,2.62.8,3.86,1.66Z"/><path id="path6468" class="cls-4" d="M355.09,288.53l.24,1.51,3.94,2.85,1.13-.46.14-1.3-2.35-1.36Z"/><path id="path6470" class="cls-4" d="M371.42,283.81l.9-3.75,2.71-5.77,1.53-1.76,2.56-5,.6-2.23,1.57.13.84,1.61-1,1.2-1.6,4-1.46,2.94-2.55,2.69-1.71,3.76.84,1.61-.4,1.57Z"/><path id="path6472" class="cls-4" d="M380.58,282.29l.24,1.51.81.25,2.81-3,2.38-2.74,1.41-2.78.34-1.95-1.14-.36L386.17,275l-1.39.73-1.17,1.43.19,1.13-1.68,3Z"/><path id="path6474" class="cls-4" d="M402.88,261.63l-1.27,1.21.45,1.12,2.09,1.91.91-.34.87-2.5-.82-.8Z"/><path id="path6476" class="cls-4" d="M404.6,269.86l-.88,2,.51,1.23.75-.39c1.48.32.24-.22.37-.33l.35-1.41Z"/><path id="path6478" class="cls-4" d="M420.19,277.51l.46,1.67,1.14.09.84-1,2.14-1.12.14-1.3-1.57-.13Z"/><path id="path6480" class="cls-4" d="M414.74,286.63l-.36,1.42,4.13.84,5.55-.32,4.23.52,2.64-.16,3.36.43,2.94-1.41.14-1-2.25-2.22-3.12.81-2.86.27-5.9-.87-1.66.74-1.17.88-3.3,0Z"/><path id="path6482" class="cls-4" d="M444.61,265.83l-.58,1,1.82,1.91.68,2.09,1.94,2.67,1.35,0,2.08-1.76-.18-.86-1.87-1.48-.28-.54L448,267.07l-1.74-.45Z"/><path id="path6484" class="cls-4" d="M444.78,281.55l.84,1.33,1.46-.08,1.22-1,2,.88.75-.39-1-1.39-1.4-.08-1.31-.68Z"/><path id="path6486" class="cls-4" d="M428.87,300.37l-1.61.57-.59,3.3,1.26.84,0,1,.94,1,.43-.23.94-1.58,1.43-1.43,2.22-5.93-.73-1.39-1.19.07-.94,1.59-.34-.91-1.18.34Z"/><path id="path6488" class="cls-4" d="M433.5,308.17l.07.92,1.24.3,1.45-.89.62-1.15-.71-.58-1.13.45Z"/><path id="path6490" class="cls-4" d="M436,314.33l.3-1,1.39-1.27,1.39-.46.34.64-1.06,1.37-1.06.83Z"/><path id="path6492" class="cls-4" d="M440,325.77l1.61-.84,1.41.35,1-.5.72.58-1.79,2.57-1.1,2.07-.76-.15-.9-2Z"/><path id="path6494" class="cls-4" d="M459.08,331l1.24,2.62,1.08,0,2.11-2.47,2.5-5.12,1.05-5,1.06-1.1.43-2.82-.21-2.75-1.3.13L466,317.08l-5.14,8.68-1.16,1.43Z"/><path id="path6496" class="cls-4" d="M455.62,348.65l1.78-.52.71.86-.19,1.19-1,.66-.73-1.12Z"/><path id="path6498" class="cls-4" d="M436.66,368.93l.71-2.28,2.37-.15,4.07,1,4.16,3-1.27.94-1.83.41L442,370.51l-4-.9Z"/><path id="path6500" class="cls-4" d="M442.19,376.12l.22.43-.8.55-.74-2.47.22-2.7-.1-2.27.65-.06.73,1.39-.51,1.9.73,1.66Z"/><path id="path6502" class="cls-4" d="M446.24,367.19l3.37-1.63,3.72-.71,2.26-.1,2.31-.8.26-.81,3.54-1,3.79.2,1.09.79H464l-3.59,1.47-4.3,1.16-2.36,1.23-2.05-.28-2.59.53-1.07.56-.75.39Z"/><path id="path6504" class="cls-4" d="M447.34,374.52l2.24-2,2.12.66-.47.93-1.29.67-1.66.73Z"/><path id="path6506" class="cls-4" d="M445.82,376.54l1.2,1,.3,1.34-1.17,1.43.09,1.45-1.5.79-.39-.75.28-2.06Z"/><path id="path6510" class="cls-4" d="M453.45,374.73l2.51,1.14,2.08,1.37.88.9-.7.5-2.07-1.1-1.72.36-1.09-.25-1.22-1.82Z"/><path id="path6514" class="cls-4" d="M412.79,375.42l1-.67.57,1.61-.58,1-.94-1Z"/><path id="path6516" class="cls-4" d="M412.5,380.34l.57-1.53.26-.81.69-.23,0,1.24-.3,1.25-.58,1h-.54Z"/><path id="path6518" class="cls-4" d="M399.32,392.14l2.32-.26,2,.72,0,1.08-1.56.4-1.52-.83-.93-.2Z"/><path id="path6520" class="cls-4" d="M409.65,386.87l-.45,1.74,1.11,1.6,1.26.84,1.05,1.49-.08,1.41,1.16,1.7,1-.77.13-1.84-.63-1.72-1.39-2.4-.67-1.28Z"/><path id="path6522" class="cls-4" d="M416.23,391.88l.93,1,1.93-1,.67-1.85,1.63-2.35-.29-1.07-1.19.07-1,1.91-.19,1.73Z"/><path id="path6524" class="cls-4" d="M426,394.67l2.06-2.3.8-.83,2.19-1.28.87.36-1.64,1.82-2.07,1.76-1.66,1.27Z"/><path id="path6526" class="cls-4" d="M439.77,377l-.53.28-2.85.8-2.13,1.39-2-1.15-1.07-2.57.66-2.39,3,.05.47,1.94.4,1,1,.14,1.87-1.38,1.52.29Z"/><path id="path6528" class="cls-4" d="M446.92,389.86l.95,1.55,2.09-.68,1.4-.46,1.26-1.75,1.5-1.06,1.36-2.34,2.6-2.32,2.34-2-.33-.64-3.16,1.78-1.52-.29-2.93,1.94-3.09,2.16-.94,2.13-.85.44Z"/><path id="path6530" class="cls-4" d="M455.59,391.33l0-1.25.58-.71L456,387.7l1.22-1.05,1,.31-.24,1.35-.55,2.33-.68,1.31-1.29.67Z"/><path id="path6532" class="cls-4" d="M423.74,383.59l.61-2.23.56-1.79-.14-1.83.88.63,1.89.23,2.19-1.28-.93-1-2.8.38-1.46.35-1.05-1.5.52-1.09,1.43-1.43,2.72-2.1-.72-1.12-.62-1.18.36-.87-1.1-1.06-.74.93.74,1.67-1.44,1.43L423.5,373l-2.3,1.34-1.92-1.59-1,.67.09,1.73,2.62,1.62.32,2.43-.17,2.81.63,1.72,1.43,1.43,1.17-.88Z"/><path id="path6534" class="cls-4" d="M425.65,366.92l.22-.12Z"/><path id="path6536" class="cls-4" d="M424.92,383l.9-.88,3.59,1.12,1.42,1.17,1.73-.36,1.51.3,1.82,1.91-.95,1.31-3.89-.41-.83-1.07-2.44-.22-2.22-.34Z"/><path id="path6538" class="cls-4" d="M399.05,397.6l.46-1.2,2.93.65,1.1,1.06,1.72-.63,1.46-2.4,1-2.18,2.8-.92,1.38,1.6-.68,1.58-4,2.23-.89,1.42,1.53,1.11-1.15,1.69.5,1.24-1.66.73-.67-1.55-1.41-.36-1.89-2.82-1.85-.67Z"/><path id="path6540" class="cls-4" d="M376.42,418.7l2.92.11,5.07-.21,10.47-3.7,4.42-.67,6.76-2.18,4.89-1.6,4.27-2.78.13-1.84-1.92-1.31-.88-1.17,1.75-1.6-.67-1-4.46,1.38-.35,1.41,2.44.5-.09,1.13-5.37,1.72-5.67.1L391,410.65l-3.42,1.79-5.8,2.22-2.95,1.13-2.67,1.4Z"/><path id="path6542" class="cls-4" d="M385.45,413l5-4.52,2.35-1.23,2.14-1.39,2.07-1.76-.33-.65.07-2.21,1.18-.35.45.86-.46,1.46,1.5-.51,2.26-.36.72.85-1.82,1.22-.23,1.89-5.56,3.45-5.12,3.5-4,1.15Z"/><path id="path6544" class="cls-4" d="M377.58,425.86l1.27,1.92,2.15-.58,1.47-2.67.45-4.6,4.16-5.86,1-3-1.17-2,1.47-2.41,2.45-2.09,3.11-3.95,1-3.8-1.58-3.54-.58.45-1.52-.57-1.29.67L388.59,399l-.91.34-2.75,3.07.11-2.65.62-4.55.6-2.49-.86.18-2.52,6.63.41,1.83-2.8-2.49-1.64,1.82.93,3.6.22,3.29.89,1.71,1.16,1.44-1,1.47-.2,3.52-.5,5.3Z"/><path id="path6546" class="cls-4" d="M380.28,393.51l1.05.95,3.1-1.62,2.41-1.12,2.19-1.29,0-1.78-1.35-.25-.83,1.8-2.65.16-2,1.06Z"/><path id="path6548" class="cls-4" d="M374.27,407.28l.69,2.64,2.29.71,2.24-1.44.67-1.85-1.49-1.27-1.09-.79-1.33.83-1.24.51Z"/><path id="path6550" class="cls-4" d="M368.91,415.54l1.23-.51,1.6-1.38,1.71-.89-1.37-.79-3.51.06-1.28.68-3.9-.42-.8.56.73,1.39,2.82.7,1.73-.35Z"/><path id="path6552" class="cls-4" d="M358.18,410.66l-.67,4.71.5,1-1.7,4.57.93.47,1.86-1.66c-.29-.43,0-.42,0-.7l.11-2.92-.35-1.72.48-3Z"/><path id="path6554" class="cls-4" d="M359.15,416.42l.05-.16Z"/><path id="path6556" class="cls-4" d="M351.5,411.7l1.61-.84,0,1.35-.95,1-.7.23Z"/><path id="path6558" class="cls-4" d="M350.59,409.17l.66.75,2.89-1.51,1.56-3.27,1.86-1.66,2.61-2.31.56-1.79-.24-1.24L358,399.86l-2.7,2.91-2.11,2.74Z"/><path id="path6560" class="cls-4" d="M360.89,422.87l3,.59,3.24-.06,1.55-.94-.28-.54-1.9-.77-1.4-2.68-1.3.13-.56,1.79-2.68,1.13Z"/><path id="path6562" class="cls-4" d="M363.07,379.89l-.35,1.14.23,1.24,1.51-.25-.08-1.45-.39-.75Z"/><path id="path6564" class="cls-4" d="M426.46,404.93l.92.2.18.86-1.26,2-.82-.26Z"/><path id="path6566" class="cls-4" d="M425.28,408.68l-.79,1.09.83.8,3-.49,1.86.94,2.8-.38-.34-.91-2.4-.93-1.46-.19-2.43-.22Z"/><path id="path6568" class="cls-4" d="M438,411.14l-1,.67.29,1.35,2.18,3.9,1.12-.72,0-1.89Z"/><path id="path6570" class="cls-4" d="M396.89,415.89l1.5-.78,1.42.62.14,1.57-2.3,1.6-3,1-.35-1.18,2.73-1.29Z"/><path id="path6572" class="cls-4" d="M381.68,443.34l-2.59-5.46.08-1.68-1.67-2.94.58-.71.71-2.28,2.63-1.24,1,.85.88.36.82,1.06.62,1.18.93-2.39-3.87-1.93,0-1,4.93.55,4.17-5.58,1.94.07,1.29-.67.94,1.28-.51,1.63L394,426l-2.9,3.84.71.58,2.5-2.26,1.62,0-.25,1.08L393.87,431l.85,1.88-1,1.21L390,432.87l-2.84,1.35-1,2.18.37,2.8.47,1.94-.4,1.57,1.43,1.43.48,2.75-1.65,1.54,2.67,3.79-.62,1.68,1.07,5.71-1.6.84-1.87-4.88-1.59-1.22-.65-2.79.63-1.42-.88-.9-1-4Z"/><path id="path6574" class="cls-4" d="M398.88,427.25l-.91,2.94-1,2.72.05,3,1.59,1.21,2.12-2.2-1.08-3.11.4-1.58.12-2.11Z"/><path id="path6576" class="cls-4" d="M390.24,439.13l1.64-2.08,1.19-.08,0,1.79-1.77,3.38-1.24,0Z"/><path id="path6578" class="cls-4" d="M364.4,431.66l2.39-1.93,1.65,1.32,1.31,1.22.51,1,2-1.17.39.75-2,4.47-1.06.83,1,1.65.89,1.71-.6,2.5-2.19,1.28L367,447.6l-1-.41,0-3.84-1.15-3.76-.2-5.07Z"/><path id="path6580" class="cls-4" d="M374.75,448.6,376,445l.44-2.55,1-.51.45.86-1.28,3.81.5,1,1.42.35.61.91-1.82.95-2.24,2-.39,1.85-1.41-.08-.42-2.37Z"/><path id="path6582" class="cls-4" d="M352.79,435.28l2.39-2.48.84-1.25,2.68-1.13,2.85,2.05.73,1.39-1.39,1-1.69-.62-1.11-1.87-1.07.56,1.1,1.06-.77,2.45-.54,2.87-1.26,1.75L354,443.52l-1-.85-.92-3.06,1.46-2.94Z"/><path id="path6584" class="cls-4" d="M350.56,446.12l-1.41,2.78.56,1.07,1.94-.74,1.23,2.36,1.61-.3.24-1.63,1.61-.57,5.3-2.9.24-1.63-1.58-.4-5.53,1.94-2,0Z"/><path id="path6586" class="cls-4" d="M365.11,462l1.5-.51,1.28,1.65,1.39,2.41-.24,1.89.43,2.37.61,1.18-1.86,1.65-1.6.84-1.93-2.13.56-1.52,2-1.33.23-2.17-1.82-2.45Z"/><path id="path6588" class="cls-4" d="M380.62,447.3l-.14,1.3.48,3,1.73,2.77,1.4-.18-.46-1.4-1.88-2.29.18-2-.18-1.13Z"/><path id="path6590" class="cls-4" d="M392.21,446.55l1,.14.29,1.08-1,.93-.56-1.07Z"/><path id="path6592" class="cls-4" d="M421.05,428.2l.64-.34,1.22,1.82,0,2.05-1.07.56-.36-2L420.9,429Z"/><path id="path6594" class="cls-4" d="M456.88,417.77l.23-2.44,1.41-2.78,1.81,1.37-.51,1.63-1.6,1.65,1.48,1-.14,1.3-1.71.9.2,1.94-1.22,1.05-1.29-2.19-.2-2.49Z"/><path id="path6596" class="cls-4" d="M464.07,432.82l1.52,0,1.06,2.3.26,2.32-.51,1.36-.73-1.39-.26-2.32-1.78,0Z"/><path id="path6598" class="cls-4" d="M444.45,416.92l1.48,1.26,1.23-.5.19-1.2-.94-1.28-1.29.41Z"/><path id="path6600" class="cls-4" d="M423.09,418.55l.51-1.36,1.15.62.23,1,1.68.08.19,1.94-2,1.06-2.17-.5,1.27-1.48-.6-.1Z"/><path id="path6602" class="cls-4" d="M412.08,419.4l.91-.61.82.52,0,1-1.23.51Z"/><path id="path6604" class="cls-4" d="M406,415.08l1.44-1.16,1.68.61-.31,1-1.67.2Z"/><path id="path6606" class="cls-4" d="M409.74,465.73l2.78,1.14.89-1.15-2-1.8-2.4-1.47-1.34.56,1.14,1.66c.33.37.87.5,1,1.06Z"/><path id="path6608" class="cls-4" d="M424,454.45c.11.28,0,.69.34.91l.92-.07-.33-3-1-2.2-1.29.13.34,1.18-1.89,2.9.61.91Z"/><path id="path6610" class="cls-4" d="M442.88,440.76l1.27-1.48h2.59l.73,1.39-1.81,1.49-1-.14-.18-1.4-.91.61Z"/><path id="path6612" class="cls-4" d="M439,424.69l2.09-.69,1.24,2.35-.56,2.07-.7.22-.63-2-.6-.37Z"/><path id="path6616" class="cls-4" d="M451.32,409l.63-.88-.93-1-1.08,0,.29,1.35.51,1Z"/><path id="path6618" class="cls-4" d="M405.36,432.86l1.66-1,1,1.38-.4,1.58-1,.12c-.1-.17-.19-.35-.28-.53Z"/><path id="path6620" class="cls-4" d="M409,439l1.23-1.05.66,1-.2.92-.83,1.53-.61-.64Z"/><path id="path6624" class="cls-4" d="M396.5,453.44a4.35,4.35,0,0,1,.61-2c.95-.49,1.26-.11,2,.18-.13.46-.23,1.19-.29,1.52a2.82,2.82,0,0,1-2.32.26Z"/><path id="path6626" class="cls-4" d="M400.86,449.79c-.34-.93-.17-.81.73-1.74a3.18,3.18,0,0,1,1.72-.35c.35.46.06,1.08.08,1.45-.32.41-.82.52-1.23.78-1.39,1.23-.7-.07-1.3-.14Z"/><path id="path6628" class="cls-4" d="M409.67,444.23c.23-.77.84-1,1.44-1.43.58-1,.65.14.92.2a4,4,0,0,1,.45,1.13,9.18,9.18,0,0,1-1.88.84c-.86.55-.71-.56-.93-.74Z"/><path id="path6630" class="cls-4" d="M400,457.21a4.53,4.53,0,0,1,1.22-1.32c.35.91,1.31,1.14,1.92,1.59a4.75,4.75,0,0,1,.15,2.37c-.37.31-.78,0-1.08,0-.33-.71-.91-.93-1.43-1.43a4.51,4.51,0,0,0-.78-1.23Z"/><path id="path6632" class="cls-4" d="M434.61,419.74c-.77-.36-.29-.93-.4-1.29l1.29-.67a4.19,4.19,0,0,1,.89,1.71c-1.09,1-.88.46-1.78.25Z"/><path id="path6634" class="cls-4" d="M342.46,425.42c.89-.55.7-.75,1.3.41a8.91,8.91,0,0,0,1.35-.3,6.63,6.63,0,0,0,2.07-1.76c.74-.26.78.3,1.2.46a30.55,30.55,0,0,1-1.84,3c-.15.81.32,1.38.69,2.09a34,34,0,0,1,2.35,4.22c.37.87-.07,1.11-.56,1.8a7.32,7.32,0,0,0-2.86.26c-1.17-1.28-1.05-2.79-.94-4.14a9.94,9.94,0,0,0-.53-2.31c-.6-.87,0-.39-1.21-1.27-.41-.82-.68-1.6-1-2.47Z"/><path id="path6636" class="cls-4" d="M352.2,426.59a5.07,5.07,0,0,1,1.58-2.46c.56-.95.75-.18,1-.23.27.75-.12,1.27-.61,2,.18.63-.12.93-.19,1.47-.35.5-1.13.35-1.29.4-.57-.17-.32-.79-.46-1.13Z"/><path id="path6638" class="cls-4" d="M333.59,392.31c-.62.1-.77.58-1.17.88a3.63,3.63,0,0,0,.74,2.21,9.66,9.66,0,0,1,1.76,1.53,3.77,3.77,0,0,0,1.35,0,6.5,6.5,0,0,1,2,3.2c.21.48.7.61,1,.85a23.39,23.39,0,0,0,1.34,2.83,12.28,12.28,0,0,0,1.8.84c-.19.85,0,1,.36,1.72a10.59,10.59,0,0,0,2.71.49,7.93,7.93,0,0,0,3.67-3.15l-1.74-3.31c-1.75-1-3.47-1.4-4.86-3.05s-3.58-2-5-3.36c-.1-.62-.78-1.11-1-1.39l-1.28.67a9.64,9.64,0,0,1-1.59-.94Z"/><path id="path6640" class="cls-4" d="M344.05,396.93c-.58-.41-.16-.82-.24-1.24l3.42-1.79c.63.3.29.77.34.91a17.29,17.29,0,0,0-2.55,2.42c-.66.4-.55-.17-1-.3Z"/><path id="path6642" class="cls-4" d="M338.51,407.45c1-.92,2.19-.67,3.23-.6.79-.19.88.4,1.26.84a6.07,6.07,0,0,1-1.81,1.22,11.65,11.65,0,0,0-1.63-.51c-1.16-.38-.5.1-1.05-.95Z"/><path id="path6644" class="cls-4" d="M347.61,387.84l.75-.39a18.67,18.67,0,0,0,1.34,2.3c.24.87-.23.77-.74,1.2-.34-.39-.5-.48-.82-.8A3.43,3.43,0,0,1,347.61,387.84Z"/><path id="path6646" class="cls-4" d="M344.83,410.41c.43-1,1.65-1.4,2.67-1.93.39-.5.8.11,1,.14-.32.58-.62,1.08-.95,1.58a11.23,11.23,0,0,1-2,.9C344.91,411.34,345,410.58,344.83,410.41Z"/><path id="path6648" class="cls-4" d="M322.27,432.16l.93-2.66.93.74a8.33,8.33,0,0,1,1.15,4c.49.18.63.67.94,1a8.43,8.43,0,0,1-.85,3.85,6.25,6.25,0,0,1-1,0c.44-1.63-.1-2.6-.4-4.15a14.46,14.46,0,0,0-1.73-2.78Z"/><path id="path6650" class="cls-4" d="M335.08,438.14c-.07-.94.42-1.25.93-1.85a3.12,3.12,0,0,1,1.89-.31,7.08,7.08,0,0,0,.86,2.69c-.05,1-.06,1.86-.17,2.81-1.68,1-1.62,2.79-2,4.3-.81.65-1.51.41-2.26.37.06-.88.08-1.87.11-2.65l2.46-1.29a11.6,11.6,0,0,1-.33-3.23c-.56-.67-.58-.46-1.52-.84Z"/><path id="path6652" class="cls-4" d="M335,431.12a44.84,44.84,0,0,0,4.65,3.16,5.48,5.48,0,0,0,1.73.45c.61-.2.23-.71.36-1.14-.81-.77-1.64-1.32-2.47-2.12-.34-1-1.16-1.32-1.76-1.8a11.89,11.89,0,0,0-2.86,0c-.46,1.24.16.66.35,1.45Z"/><path id="path6654" class="cls-4" d="M339.94,429.46c-.25.64.09.83.13,1.3a7.09,7.09,0,0,0,2.45,1c1,.1.18-.36.26-.54a5.13,5.13,0,0,0-1.16-1.71,2.61,2.61,0,0,1-1.68-.08Z"/><path id="path6656" class="cls-4" d="M328.57,445.5l1.5-.79a3.88,3.88,0,0,0,2,1.53,4.06,4.06,0,0,1,.65,2.8,8,8,0,0,0-1.81,1.49,6.75,6.75,0,0,1-2.4-.93,6.47,6.47,0,0,1,.22-2.7C327.61,446.08,328.63,446,328.57,445.5Z"/><path id="path6658" class="cls-4" d="M322.84,445.22c.22.23,1.15-.87,1.17-.88a11.24,11.24,0,0,0,1.55,1.91c.35.61,0,.9,0,1.52-.46.19-.83-.14-1.19-.2a9.33,9.33,0,0,0-1.5-2.35Z"/><path id="path6660" class="cls-4" d="M329.75,454.28c.07-.51.57-.48.85-.72.63.42.61.71,1,1.22.26.86-.42,1-.62,1.42-1-.52-1.1-.82-1.28-1.92Z"/><path id="path6662" class="cls-4" d="M333.36,456.75c-.16-.65.36-.95.52-1.36a10.74,10.74,0,0,1,1.3.41c.37.94-.06,1.22-.67,1.85-1,.41-.77-.6-1.15-.9Z"/><path id="path6664" class="cls-4" d="M336.59,461.88a17,17,0,0,1,1.43-1.7c-.9-.91,0-.71,0-1.25,1.16-.44,2-.21,3-.48,1.08.25,2.2-.28,3.18-.44,1.57,1.57-.54,3.26-1.64,4.41a2.67,2.67,0,0,1-3.14,0,4.61,4.61,0,0,1-1.66.73c-1.06-.3-.71-.52-1.21-1.27Z"/><path id="path6666" class="cls-4" d="M330.78,469.28a27.81,27.81,0,0,0,3.64-2.18,27.64,27.64,0,0,0,3.52.48c.52.37.28,1.16.35,1.45-1,.74-1.92.53-3,.6a21.34,21.34,0,0,0-3.27,1.57c-1-.26-1-.94-1.28-1.92Z"/><path id="path6668" class="cls-4" d="M327.54,412.78a12.69,12.69,0,0,0-1.32,1.65,6.16,6.16,0,0,0,1.49,2.08,19.93,19.93,0,0,0,3.06-1.46c-.19-.52-.34-1-.52-1.51-.71-.78-1.6-.78-2.71-.76Z"/><path id="path6670" class="cls-4" d="M331,413.58a10.17,10.17,0,0,1,1.55-.4c.5,0,.58.41.88.63,1.05-.43,1.37,0,2,.72a2.58,2.58,0,0,1-1.54,1.49,4.34,4.34,0,0,0-1.37-1.06,3.56,3.56,0,0,1-1.3-.14c-.85-.22-.18-1-.23-1.24Z"/><path id="path6672" class="cls-4" d="M330.65,408.57c-.62.17-.17.71-.25,1.08a6.24,6.24,0,0,1,1.47,1c1.24-.45.36-.77.58-1.25-.57-1-.82-.85-1.8-.83Z"/><path id="path6674" class="cls-4" d="M332.88,400.59c.2.72.74.23,1,.3,1,.14,1.25.79,1.75,1.54l.86-.45c.27-1,.07-1.17-.36-2-.47-1-.8-.92-1.75-1-.47.56-.86.19-1.34.3C332.37,399.62,332.93,400.13,332.88,400.59Z"/><path id="path6676" class="cls-4" d="M323.07,404.49c1.28-.83,1.23-.3,1.25.84.36,2.13.53,3.42-.22,5.3-.74.38-1.24.07-1.79,0C322.47,408.39,323.1,406.6,323.07,404.49Z"/><path id="path6678" class="cls-4" d="M325.19,396.57a26.2,26.2,0,0,1,4.08-4.45c1-.22,1,.25,1.53.83.4,1.12.1,1.21-.62,2a12.79,12.79,0,0,0-2.15.31,16.76,16.76,0,0,0-.4,5c-.71.41-1.34.83-2.08,1.22-1.61-.12-.81-.69-.91-1.09-.4-1.17.23-2.46.55-3.76Z"/><path id="path6680" class="cls-4" d="M313.2,414.29c.32-.33.89-.37,1.23-.51a5.83,5.83,0,0,1,1.39,2.13c1-.59,1.74-.29,2.75-.21.6,1.26-.09,1.68-1.25,2.29a23.89,23.89,0,0,0-2.2,1c-.63-.34-.79-.88-1.16-1.43a9.69,9.69,0,0,1-.76-3.28Z"/><path id="path6682" class="cls-4" d="M309.14,420.09a4.24,4.24,0,0,1,2.61.54,33.25,33.25,0,0,1-.45,4.87c-.75,0-.78-.35-1.26-.57-.37-1.84-1.39-3.25-.9-4.84Z"/><path id="path6684" class="cls-4" d="M311.66,427.76a4,4,0,0,1,.59-3,5.38,5.38,0,0,1,2.34.55,17.82,17.82,0,0,1-.72,4.87c-.34.81-1.18.72-1.61.84a6,6,0,0,0-2.73,1.3,8.53,8.53,0,0,1-1.16-1.17c.58-1,1.15-2.33,1.67-3.33.64-.27,1-.08,1.62,0Z"/><path id="path6686" class="cls-4" d="M315.51,440.33c-.55-1.48.15-2.78.68-4.17.7.33.88.91,1.22,1.55a11.31,11.31,0,0,0-.54,3.14c-.43,1-.57,2.22-1,3.1-.77.62-1.18.29-1.78.24a4.87,4.87,0,0,1,.45-2c.6-.13.78-.94,1-1.21,0-.22-.05-.43-.07-.65Z"/><path id="path6688" class="cls-4" d="M313.78,451.87a5.9,5.9,0,0,0,2.58,2.6,10.26,10.26,0,0,1,1.79.56c-.06-.34.14-.61.2-.92a13.09,13.09,0,0,0-1.65-1.59,6.74,6.74,0,0,1-2.92-.65Z"/><path id="path6690" class="cls-4" d="M298.19,450.21c-.39.9-.81,1.92-1.09,2.61a13.73,13.73,0,0,0,2.71.22,7,7,0,0,1,3.46.1c-.91.92-2,1.89-2.82,2.7-.41.66-.95,1.41-1.31,1.91.05.83.78.76,1.1,1.06a6.2,6.2,0,0,0,3.23-.32c.78-.42.25-.63.41-1-.32-1-.63-.82-1.31-1.22-.3-.93.63-1.56,1.25-2.29,1.51-.49,2.89-.77,4.46-1.38a22.88,22.88,0,0,0,2.3-1.33c-.2-.69-.64-.89-1.11-1.33l-1.19-.2a7.33,7.33,0,0,1-1.77.79,4.18,4.18,0,0,1-1.7,1.17c-1.7-.39-3.26-1.11-4.73-1.48-.82-.39-1.21-.08-1.89,0Z"/><path id="path6692" class="cls-4" d="M396.74,460.67c.56.48.93.3,1.47.46a9.25,9.25,0,0,1,1.31-1.91,6.37,6.37,0,0,1-1.36-.52c-.71.45-1.24.83-1.73,1.11a2.37,2.37,0,0,1,.31.86Z"/><path id="path6694" class="cls-4" d="M319.28,397.09a21.06,21.06,0,0,1,4.16,4.28c.3-.75-.11-1.4-.31-2.17-1.32-1.05-2.08-2.58-3.11-3.46-1.66-1-1.29,0-.74,1.35Z"/><path id="path6696" class="cls-4" d="M324,379.65c-.27.39-.82.34-1.13.46-.24.87.23,1.39.42,2.11a3.13,3.13,0,0,1,1.58.14c0-.89,0-1.19,0-2.07-.21-1-.3-.22-.88-.64Z"/><path id="path6698" class="cls-4" d="M329.44,375.59a5.22,5.22,0,0,1-.19,1.74,8.15,8.15,0,0,0,1.66,1.33c.85,0,.79.54,1,1.23-.12,1-.42,1.47-.49,2.46.52,0,.76.12,1.2.19a8.7,8.7,0,0,1,.33-2.78,5.54,5.54,0,0,1-.14-1.57,5.78,5.78,0,0,0-.1-2.28C331.79,375.26,330.58,375.6,329.44,375.59Z"/><path id="path6700" class="cls-4" d="M342.63,383.23a5.77,5.77,0,0,1,1.46-.62c.34.64.67,1.29,1,1.94a4,4,0,0,1-1.39,1.27c-.31-.39-.59-.78-.89-1.18A9.56,9.56,0,0,1,342.63,383.23Z"/><path id="path6702" class="cls-4" d="M352.1,392.68c.48-.72.93-.39,1.35-.56.38.28.52,1.21.63,1.45a4.85,4.85,0,0,1-1.35.84,4.21,4.21,0,0,1-.63-1.73Z"/><path id="path6704" class="cls-4" d="M330,384.6a6.32,6.32,0,0,0-.13,1.85c.93.84.78,0,1.47-.08,1-.07.35-.6.58-1a9.11,9.11,0,0,0-1.92-.78Z"/><path id="path6706" class="cls-4" d="M322.18,374.3l2.26-1.18c.69-.55,1-.15,1.52-.24.78-.3.53.47.78.69a3.42,3.42,0,0,1-1.89.85,5.38,5.38,0,0,0-2.65.7C322.19,374.85,322.19,374.58,322.18,374.3Z"/><path id="path6708" class="cls-4" d="M321.7,368.66a4.72,4.72,0,0,1,.15,2.12,9.4,9.4,0,0,0,1.27,1.11c1-.08.62-1.09.79-1.37-.1-.45-.41-.6-.62-.91,0-.46-.3-.76-.45-1.14-.42-.2-.79.13-1.14.19Z"/><path id="path6710" class="cls-4" d="M300.09,373.51l.56,1.08a4.2,4.2,0,0,0,2.48-1.3,5,5,0,0,0,1-2.57l-.51-1c-.38-.06-.61.23-.92.34a13.12,13.12,0,0,0-.06,2.5,13.16,13.16,0,0,1-2.54.92Z"/><path id="path6712" class="cls-4" d="M304.1,375.67c.49.23,0,.43.06.65a27.26,27.26,0,0,1,2.84.44,5.11,5.11,0,0,1,1.51-.52c.62-.22,0-.6,0-.82a2.11,2.11,0,0,0-2.57-.44c-1-.18-1.06,0-1.83.69Z"/><path id="path6714" class="cls-4" d="M297,358.12c.88-1.28,1.26-2.6,2-3.95.17-2.68.41-4.29,1.89-6.34.52-.33.82,0,1.26,0-.41,1-.63,1.67-1,2.57a20.7,20.7,0,0,1-.41,4.2c-.82,1.26-1.45,2.27-2.39,3.58C297.76,359.14,297.48,358.15,297,358.12Z"/><path id="path6716" class="cls-4" d="M301.8,354c.12-.55.63-.52,1-.78.53.87.63,1.46,1.08,2.32-.47.41-.34,1.06-.47,1.47-.41-.53-.68-.79-1.05-1.23a4.31,4.31,0,0,0-.52-1.78Z"/><path id="path6718" class="cls-4" d="M305,353.68a22.45,22.45,0,0,1,1.47-2.69c.55-.15,1,.2,1.53.3a23.05,23.05,0,0,1-1.49,1.87,22.78,22.78,0,0,1-1.65,2.1c-.33,0-.26-.33-.39-.48C303.66,353.78,304.84,353.89,305,353.68Z"/><path id="path6720" class="cls-4" d="M306.17,355c.36-.19.62-.65.8-.83a12.4,12.4,0,0,1,2.67.66,6.48,6.48,0,0,1,1.23,1.56c-.64.69-.9,0-1.47.08-.89-.89-2.11-.93-3.23-1.47Z"/><path id="path6722" class="cls-4" d="M313.19,355.27l.37-.33a4.24,4.24,0,0,1,.92,2.54c-.57,1.27-1.34,2.52-1.84,3.57-.59,0-.64-.51-.94-.75,1.06-1.71.95-3.32,1.49-5Z"/><path id="path6724" class="cls-4" d="M306,367.42c-.22-.84.41-.94.62-1.42.52-.48.82-.09,1.31-.14.34.79-.31,1-.46,1.48C306.54,368.3,306.45,367.39,306,367.42Z"/><path id="path6726" class="cls-4" d="M315.83,372.14c.54.21.06.67.07.92a7.7,7.7,0,0,0,.8,1.78,7,7,0,0,0,.84-1.81C317.09,371.67,316.9,372.12,315.83,372.14Z"/><path id="path6728" class="cls-4" d="M310.27,383.28a4.39,4.39,0,0,0,.45-2,19.14,19.14,0,0,1,2.72,2.56,9.45,9.45,0,0,1,1.17,2c-1.22-.21-1.41-.82-2.42-1.48A6,6,0,0,0,310.27,383.28Z"/><path id="path6730" class="cls-4" d="M304.21,381.92c.23-.76.7-.88,1.23-1.33a3,3,0,0,1,.79,1.78l-1.59.63c-.73-.05-.42-1-.43-1.08Z"/><path id="path6732" class="cls-4" d="M314.14,395.66c-1-.65-.06-1.52.39-2.67-.07-.59.22-.89.35-1.42l2.27-1.18c.53.13.23,1,.23,1A15.14,15.14,0,0,1,314.14,395.66Z"/><path id="path6734" class="cls-4" d="M314,396.7l1-.51a4.11,4.11,0,0,0,1.88,1.76,5.89,5.89,0,0,1,1.82,1.65,14.71,14.71,0,0,1,2.17,2.57,4.8,4.8,0,0,1-1.34.84c-.46-1-1.27-1.27-2-2a6.16,6.16,0,0,1-2-.45A21,21,0,0,1,314,396.7Z"/><path id="path6736" class="cls-4" d="M315.84,405.47c.29-1.14.4-1.88.61-2.78.75-.29,1.2.06,1.8.29-.13,1-.51,1-1.12,1.55.34.73-.25.65-.47,1.2Z"/><path id="path6738" class="cls-4" d="M307.38,403.72c.41.27.65-.15,1-.23a5.78,5.78,0,0,1,2.41,1.21l.54-.29A6.75,6.75,0,0,1,311,403a3.43,3.43,0,0,1,1.12-1.27c-.09-.61-.61-.81-.89-1.18a5.1,5.1,0,0,1-1.35.84,4,4,0,0,1-1.63.3,3.38,3.38,0,0,0-1.39,1.28c0,.38.38.54.56.8Z"/><path id="path6740" class="cls-4" d="M299.93,389a17.73,17.73,0,0,1,.3-1.8c.17-.5,1.1-.58,1.29-.68.19.36.38.72.56,1.08a11.29,11.29,0,0,1-1.38,1.55Z"/><path id="path6742" class="cls-4" d="M294.47,405.54c.86-1.25,2.44-1.77,3.71-2.63.42-.3.2-.65.3-1a4.75,4.75,0,0,1-.26-2.33,3.16,3.16,0,0,1,2.06-.53c.7,1.2.15,1.62-.5,2.46a4.43,4.43,0,0,1,.75,2.21,1.87,1.87,0,0,1-1.21,2.14c-2,.47-3.71,1-5.63,1.3a6.93,6.93,0,0,1-.86-2.16,54.79,54.79,0,0,0-1.52-6.06,4.17,4.17,0,0,1,.13-1.58c.32-.48.78-.19,1-.23a23.68,23.68,0,0,1,.93,2.81,4.68,4.68,0,0,1,.69,2.11,6.6,6.6,0,0,0,.44,3.47Z"/><path id="path6744" class="cls-4" d="M299.1,414.92a2.38,2.38,0,0,1-1.74.08,14.82,14.82,0,0,1,.29-4.95c-.6-.13-.72-.68-1.69-.35a5,5,0,0,0-1.56.68c.06.5.43.79.19,1.41l-.15,1c-2.19-.38-4.09-2.35-5.49,0,.13.65.84.92,1.16,1.17,1.36,0,3.07-.43,4.56-.46a4.27,4.27,0,0,1,.09,2c.11,1,.11,1.83.16,2.66.49.3.84,0,1.25,0,.51-.53.7-.79,1.12-1.27a3.3,3.3,0,0,1,2.4.12,5.4,5.4,0,0,0,2.16-.85,4.23,4.23,0,0,0-.13-1Z"/><path id="path6748" class="cls-4" d="M303.48,410.43c-1.38.55-1.27.91-.94,2.14a10.58,10.58,0,0,1,1.3-.13A2.44,2.44,0,0,0,303.48,410.43Z"/><path id="path6750" class="cls-4" d="M286.05,414.88l.62,1.19c.78.57,1.07.25,1.85.13-.5-.53-.25-1-.35-1.46C287.25,414,287.06,414.35,286.05,414.88Z"/><path id="path6752" class="cls-4" d="M309.13,389.23a5.93,5.93,0,0,1-.68-1.57l1.72-.9c.77.95.26,1.42-.07,2.23-.25.37-.64.16-1,.24Z"/><path id="path6754" class="cls-4" d="M301.6,400c0,.57.3.4.45.59l1.62-.84c-.19-.67.22-.91.35-1.42-.63-.62-.81-.09-1.31-.14C302.06,398.71,302,399.26,301.6,400Z"/><path id="path6756" class="cls-4" d="M320.16,415.57c-.37.68.19.57.23.7a6.4,6.4,0,0,1,2.42,1.2c.83-.4.27-.86.41-1.31-1.07-.24-1.84-.4-3.06-.59Z"/><path id="path6760" class="cls-4" d="M283.2,398.94c-.34.43-.18,1-.24,1.37a4.84,4.84,0,0,0,1.93,1.6c.91,0,.67-.74,1-1.06a6.56,6.56,0,0,0-2.65-1.91Z"/><path id="path6764" class="cls-4" d="M278.48,411.43l1.29-.68c.34.91-.09.91-.84,1.54.34,1,0,1.48-.06,2.51-.33.5-.79,0-1.09,0A4.86,4.86,0,0,1,278.48,411.43Z"/><path id="path6766" class="cls-4" d="M279.33,368.45c2.2-.12,3.59,1.17,4.78,2.58a37.14,37.14,0,0,1,3.93,4.11,5,5,0,0,1,.69,1.84c-1.1.37-.92,0-1.7-.62-2.6-1.59-4.4-5.07-6.75-6.62a2.69,2.69,0,0,1-.95-1.29Z"/><path id="path6768" class="cls-4" d="M286.8,354.66c.89,1.1.22,1.93-.6,2.79a3.32,3.32,0,0,0-.13,2.12c.65,4.29,1.71,8.55,2,12.69.62,5.45.13,10.47,1.59,15.91a2.31,2.31,0,0,0,1.43.9,8.2,8.2,0,0,0,3.06-2.29l-1.8-3.45c0-3.7-.32-7.74-.26-11.25a54,54,0,0,1-.62-12.71c-.72-1.85-.61-3.8-.92-5.7-.47-.64-.76-.49-1.59-.68a4,4,0,0,0-2.14,1.67Z"/><path id="path6770" class="cls-4" d="M279.3,357.9c-.3.29,0,1.09-.91.89a16.94,16.94,0,0,1-1.35-2.32,19.87,19.87,0,0,1-5.26-2.46l-1.08.57a9.55,9.55,0,0,0,2.4,3.27c1.37.13,1.69,1,2.7,2a10.85,10.85,0,0,0,3.9,1.94c1.95-1.15,2.25-3.3,3.66-5.07a32.4,32.4,0,0,1,1-5.73,5.66,5.66,0,0,0-2.23.2,14.32,14.32,0,0,0-2.26,4.34,3.59,3.59,0,0,1-.55,2.35Z"/><path id="path6774" class="cls-4" d="M268.26,367a8.37,8.37,0,0,1,2.19-2.11c.69.36.3.89.46,1.41-.92,1.21-1.74,2.62-2.54,3.8l-1.29.67c-.65-.86-.25-1.11-.14-1.71C266.79,368,267.43,367.67,268.26,367Z"/><path id="path6776" class="cls-4" d="M253.31,391.12a3.51,3.51,0,0,0,.2,1.95,8.63,8.63,0,0,1,5.26-.69c.51.68.29,1,.47,1.67,1.9,0,3.2.43,5,.4.38-.82,1.21-1.1,1.93-1.56a10.31,10.31,0,0,0,1.44,1.44c1.08-.26,2,.14,3.1.17,1.5-.74,3.31-.35,4.67-.25.47-.18.23-.71.31-1-1.63.38-2.81-.38-4-1.07a10.68,10.68,0,0,1-2.6.54A9.87,9.87,0,0,1,267.4,391a4.21,4.21,0,0,1-2.93.71,4.86,4.86,0,0,0-3.12-1c-2.59-.3-5.76-1.14-8,.37Z"/><path id="path6778" class="cls-4" d="M256.59,389a11.51,11.51,0,0,0,2-2.43c1.58-.82,3.19-1.19,4.92-1.89a36.61,36.61,0,0,0,3.65.7c.65.89-.16.7-.3,1.26a11.63,11.63,0,0,1-4.71.95,16.38,16.38,0,0,1-2.87,1.09,8.49,8.49,0,0,1-1.56.68c0-.23-1.11-.35-1.15-.36Z"/><path id="path6780" class="cls-4" d="M269.23,390.06l3.23-1.69a4.78,4.78,0,0,1,2.39-.15L278,389.3c-.2.35-.61.41-.91.62-1.87.05-3.51,0-5.33,0a4.25,4.25,0,0,1-2.33.53Z"/><path id="path6784" class="cls-4" d="M261.13,414.47l3.71-2.63,2.45-2.65,1.07-.84.77.42L266.38,413l-4.74,2.48Z"/><path id="path6786" class="cls-4" d="M262,397.7a13.65,13.65,0,0,0-2.32.8,4,4,0,0,0-.3,1.53,4.53,4.53,0,0,0,2.33-.26c.62-.12.74-.65,1.12-1C262.89,397.39,262.42,398.28,262,397.7Z"/><path id="path6788" class="cls-4" d="M271.3,405.58a5.46,5.46,0,0,0-1.71,1.17c-.18.55.26.85.4,1.3a13.81,13.81,0,0,0,2.32-1.07c-.3-.25,0-.49,0-.71-.09-.74-.63-.42-1.05-.69Z"/><path id="path6790" class="cls-4" d="M338.69,414.52c.31,1.18.38,2.47.72,3.74.37.05.61-.23.92-.34a11.26,11.26,0,0,0-.16-2.67C339.69,414.28,339.82,414.5,338.69,414.52Z"/><path id="path6792" class="cls-4" d="M340.64,411.44c.45-.08.56-.5.75-.67,1.18-.47,1.79.21,2.52.88.3.19.26.69.34.92-1.39.11-2.21-.57-3.61-1.13Z"/><path id="path6794" class="cls-4" d="M341.89,417.24a5.53,5.53,0,0,1,2.06-3.41c.63-.24.49.39.72.58a5.07,5.07,0,0,1-1.38,2.09C342.82,417.24,342.59,417.05,341.89,417.24Z"/><path id="path6796" class="cls-4" d="M368.83,394.23c-.41.73,0,1.22.3,1.9a4.58,4.58,0,0,0,1.47-.36c.42-.54.11-.72.19-1.2A2,2,0,0,0,368.83,394.23Z"/><path id="path6802" class="cls-4" d="M348.68,416.84a5.25,5.25,0,0,1,2.05-1.07,5.93,5.93,0,0,0,1.81.84c.32,1.15,0,.94-.51,1.64C350.38,418.88,349.42,418.25,348.68,416.84Z"/><path id="path6804" class="cls-4" d="M291.36,422.94a4.43,4.43,0,0,1,1.94-1c1.53,1.23,2.88,1.61,4.24,2.59.16.59-.44.61-.64.88-.43.34-.76,0-1.09,0-.88.54-1.56.68-2.42,1.13-.1-.45-.41-.6-.62-.91a4.7,4.7,0,0,0,1.24-.79c0-.62-.69-.71-.89-.91C291.81,424.09,291.84,423.86,291.36,422.94Z"/><path id="path6806" class="cls-4" d="M281.7,427a8.93,8.93,0,0,1,4.44-1.5c.5.06.48.57.72.86a14.41,14.41,0,0,1-3.62,1.21c-1.1.3-.92-.08-1.54-.57Z"/><path id="path6808" class="cls-4" d="M287,435.53a7.92,7.92,0,0,0,1.52-.24c1.87,2.12.69,5.14.25,7.82a3.21,3.21,0,0,1-2,.37,22.44,22.44,0,0,0-.27-3.15c.25-1,.41-1.77.55-2.62a4.73,4.73,0,0,1,0-2.18Z"/><path id="path6810" class="cls-4" d="M274.85,444.89a7.73,7.73,0,0,1,5.42,1.7c1.34,1,2.94,2.06,4.07,2.8.14.82-.69.56-1,.78a43.73,43.73,0,0,0-4.67-2.63c-.52-.71-1.5-.8-2-1-.74.15-1.27-.35-1.86-.67Z"/><path id="path6812" class="cls-4" d="M293.63,431c-.52-.15-.15-.72-.18-.87.48-.82,1.27-.73,1.89-.85.5.22.32.62.39.76-.72,1.09-1.21.9-2.1,1Z"/><path id="path6814" class="cls-4" d="M296.15,432.1c-.15-.86.16-1,.52-1.64.67-.39,1-.13,1.63,0a11.16,11.16,0,0,1-1.26,2.85c-1.22-.36-.32-.43-.89-1.18Z"/><path id="path6816" class="cls-4" d="M300.91,436.47c0,.41.27.69.4,1,.65.07,1-.26,1.57-.41.55-.8.81-1.45,1.21-2.14,0-.49-.36-.48-.44-.59a18.77,18.77,0,0,1-2.74,2.11Z"/><path id="path6818" class="cls-4" d="M303.82,437.84a7.3,7.3,0,0,0,2.2,1.31l.75-.39a14.42,14.42,0,0,1-1.55-1.66C303.77,436.63,304.33,437,303.82,437.84Z"/><path id="path6820" class="cls-4" d="M309.66,439.31c.24-.55.84-.44,1.08-.57,1,.37,1.19,1,1.5,1.82-.17.33-.53.38-.8.56-1-.11-1.26-.82-1.78-1.81Z"/><path id="path6822" class="cls-4" d="M317.53,435.19c0-.52.5-.44.75-.66,1.42.85,2.65,1,3.63,2.49.11.48-.36.37-.53.55a8.33,8.33,0,0,1-3.85-2.38Z"/><path id="path6824" class="cls-4" d="M299.05,441.84a4.92,4.92,0,0,1,.51,1.24,11.08,11.08,0,0,1,3.78,1.18c.13-.31.46-.33.69-.5a2.85,2.85,0,0,0-1.93-1.6A2.38,2.38,0,0,0,299.05,441.84Z"/><path id="path6826" class="cls-4" d="M303.28,447a8.75,8.75,0,0,1,1.1-2.09c.43-.34.82,0,1.25,0a3.77,3.77,0,0,1-1.2,2.42c-.55.57-.81-.26-1.15-.36Z"/><path id="path6828" class="cls-4" d="M256.75,421.83c-.45.35-.87.6-1.28.95.21,1,.63,1.06,1.39,1.61a7.49,7.49,0,0,0,2.13.94c.91-.13.31-.77.42-1-.94-1.35-1.3-2.14-2.66-2.46Z"/><path id="path6830" class="cls-4" d="M328.82,425l.9,1.73c.32.39.7,0,1,0a8.3,8.3,0,0,0-.31-2.17c-1-.32-.7-.32-1.57.41Z"/><path id="path6832" class="cls-4" d="M336.17,422.56a4.45,4.45,0,0,0,1.81,1.11,5.45,5.45,0,0,0,2-2.43c.28-.6-.56-.53-.56-.53a9.51,9.51,0,0,0-3.28,1.85Z"/><path id="path6834" class="cls-4" d="M365.92,407.82c-.18-1,.59-.81,1-1.32a4,4,0,0,1,1.54,1.39c-.05.5-.57.48-.85.72C366.71,408.78,366.62,408.49,365.92,407.82Z"/><path id="path6836" class="cls-4" d="M328.84,435c.74-.78,1.39-1.37,2.08-2.05.36-.61.81-.24,1.19-.35,1,.34.14.59.24,1-.73.88-1.44,1.7-2.08,2.59-1-.13-1-.14-1.43-1.17Z"/><path id="path6842" class="cls-4" d="M292.68,447.23l1.07-.56c1.13-.49,2.16.4,3.17.81.23.62-.39.48-.58.72A2.51,2.51,0,0,1,292.68,447.23Z"/><path id="path6844" class="cls-4" d="M317.68,377.76a6.55,6.55,0,0,1,1.25.3c1,.67.62,1.1.63,1.73-.43.57-.68,0-1.08,0a5.2,5.2,0,0,1-.8-2.05Z"/><path id="path6846" class="cls-4" d="M318.84,375.78c-.21-.75.06-.68.63-1.15a4.38,4.38,0,0,0,1,.68c.58.67-.41.58-.63.89S318.9,375.81,318.84,375.78Z"/><path id="path6848" class="cls-4" d="M339.28,384.16c.38-.44.9-.28,1.29-.4a12.51,12.51,0,0,1,1.89,2.3,9.2,9.2,0,0,1-.9,1.16,11.64,11.64,0,0,0-2.28-3.06Z"/><path id="path6850" class="cls-4" d="M321.42,455l2.81-1.46c.76-.07.85.49,1.37.79.11,1.42-1,1.6-2.09,1.78C322,456.2,321.82,456.43,321.42,455Z"/><path id="path6852" class="cls-4" d="M318.8,460.19a23.31,23.31,0,0,1,3.18-1.53c.41-.43.52-.61.85-1,.88-.56.89-.18,1.69.07a13.77,13.77,0,0,0-.08,4.3c-.82.34-1-.08-1.53-.3,0-.41-.27-.68-.4-1l-.76.39a6.84,6.84,0,0,1-1.74,3c-.33.33-.89.37-1.24.51l-.84-1.61c-.94-.51-2.12-.25-3.16-.27-.68-.66-.45-1.3-.64-2a12.71,12.71,0,0,0,4.67-.52Z"/><path id="path6854" class="cls-4" d="M304.94,466.48a5.11,5.11,0,0,1,.69,2.1A4,4,0,0,0,307,468a28.17,28.17,0,0,1,.91-3.5,12.26,12.26,0,0,0-.08-1.47c.1-.65-.53-.38-.66-.48-.94,1.38-1.5,2.7-2.21,3.91Z"/><path id="path6856" class="cls-4" d="M309.43,459.05l1.29-.67c.21-.44,0-.87,0-1.26-1.32-.78-3,.06-4.51.3-.94.93.41,1,.6,1.27Z"/><path id="path6858" class="cls-4" d="M287,467.24a3.54,3.54,0,0,1,2.54-.65,7.16,7.16,0,0,1,2.5,2.68,35.44,35.44,0,0,1,4.57-.19c1.4-.07,1.62.66,1.83,1.92-2.35,1.26-4.81,0-7.08-.14.12,2.63,1.85,5.07,2,7.57a16.22,16.22,0,0,1-1.86,4.82c-.37.66-.94.71-1.56,1a29.73,29.73,0,0,0-2-4c-.7-4.17-.73-8.74-1-12.92Z"/><path id="path6860" class="cls-4" d="M282.76,461.06c-.82-.19-1.22-.17-1.6-1.22a4.31,4.31,0,0,1,2.15-1.13,4.68,4.68,0,0,1,2.4.39c-.46.53-.73.71-1.17,1.17-.5.81-1,.67-1.78.79Z"/><path id="path7098" class="cls-4" d="M260,372.82c-1.76-4.52-1.4-8.3-3.6-12.86a16.82,16.82,0,0,0-8.37-12.6c1.24,4.66,4.25,9.56,4.32,13.38l-2-.32c0,3.46,1.69,6.9,2.67,10.23a61.4,61.4,0,0,0-3,11.38c1.85-.1,2.09,0,3.54-.06,1-3.84,4.12-6,6.38-9.15Z"/><path id="path7100" class="cls-4" d="M208.46,364c1.42.89,3.12.78,4.62,1.16a54.29,54.29,0,0,0,6.52-11.45c0-1.44-1-2.46-1.48-3.7-1.73-1.44-1.94-.07-3.19-.12-3,4.24-4.57,9.35-6.47,14.11Z"/><path id="path7102" class="cls-4" d="M221.49,359.89a34.43,34.43,0,0,1,1,7.95c1.14,1.1,1.65-.27,2.47-.4-1.45-2.41-1.16-5.2-1.2-7.42Z"/><path id="path7104" class="cls-4" d="M226.87,305.25c1.29-1,2.28-.18,3-.23a23.71,23.71,0,0,1,5.58,4.68,32.42,32.42,0,0,1-2.08,2.87c-4.6-.77-5.25-3.05-6.5-7.32Z"/><path id="path7106" class="cls-4" d="M254.23,320c-.58-1.88.93-2.34,1.35-3.39.35-2.06,2.69-.21,3-.23,1.57,1.82-.74,2.35-1,3.2l-3.36.42Z"/><path id="path7110" class="cls-4" d="M192.14,362.73a18.13,18.13,0,0,1,9.2,9c-.35,1.22-1.61.52-2.29.75a44.56,44.56,0,0,1-6-7.15l-.94-2.64Z"/><path id="path7112" class="cls-4" d="M183.57,368.55c3.9-.61,7.5,1.24,10.14,2.29.43,1.58-.77,3.2-1,4.09l-2.46,1.29a26.09,26.09,0,0,0,4.38,6.65c2.33,3.11.78,3.47.28,5.66-4.57-1.83-6-6.26-8.16-10.48-1.45-1.42-2.18-2.1-3.61-3.47C181.68,371.69,182.5,371.23,183.57,368.55Z"/><path id="path7114" class="cls-4" d="M150.73,383.49c4.92,0,10.69,1.28,14,2.05a22.69,22.69,0,0,1-1,4.09,60,60,0,0,1-10.26.9,14.92,14.92,0,0,0-3-2.43c-.33-2,.16-2.69.27-4.61Z"/><path id="path7116" class="cls-4" d="M394.91,246.4c-.05,2.51,1.45,4.49,2.6,6.68a21.09,21.09,0,0,1,2.82-.58c1.18.45,1.44-2,1.55-2.15-1.6-3.31-4.54-2.79-7-3.95Z"/><path id="path7118" class="cls-4" d="M388.47,223.85l.95,3.53c2.65-.36,4.89.15,7.45.57l-1.28-2.46c-2.73-.64-4.64-.86-7.12-1.64Z"/><path id="path7120" class="cls-4" d="M418.78,225.42c.75,1.1,1.81,2.25,2.54,3.15,6.5-2.68,13.38-3.47,21.13-6.59-1.05-.79-2.08-1.65-3.05-2.42a65.71,65.71,0,0,0-12.21.58c-3.55,1.63-5.35,3.28-8.41,5.28Z"/><path id="path7122" class="cls-4" d="M407.28,225.63c3-1.84,6.18-.32,9,.19.47,1.59-1.23,1.92-1.72,2.69-1.67,1.38-3.5,2.46-5.25,3.64-2.74,1.76-1.31-.8-2-1.21,1.81-1.38,3.86-2.64,5.6-3.82-2.55,0-3.25-.51-5.69-1.49Z"/><path id="path7124" class="cls-4" d="M433.56,229.76c1.52,5-.15,11.16-1.46,16.85-1.56.11-1.33-1.4-2-2.09a61.81,61.81,0,0,0,1-13.48C431.39,229.5,432.74,230.19,433.56,229.76Z"/><path id="path7126" class="cls-4" d="M409.55,253c-3.28-2.2-.4-2.46-.6-3.71,2.53-1.13,2.51.41,3.91.64C412.43,254.12,412.85,252.15,409.55,253Z"/><path id="path7128" class="cls-4" d="M454,254.35c-.87-3.22,1-5.58,2.86-8.19,2.69-.54,3.5.61,5.7,1.49-1,2.45-4,4.36-5.74,6.12Z"/><path id="path7130" class="cls-4" d="M488,320.14c1.28-2.58,5.1-6.44,7.29-8.28a26.58,26.58,0,0,1,4.47,2.58,27,27,0,0,1-11.76,5.7Z"/><path id="path7132" class="cls-4" d="M242.54,446.28a22.19,22.19,0,0,1-3.27,4.84c1.52,3,3,.75,4.62,1.15l3.51-1.83c-1.06,2.59,1,1.93,1.65,3.15,3.7-2.34,7.79-1.63,10.94-2.14l1-1.44c-1.73-2-3.83-2.18-6.08-3.07,2.22-1.95,5-4.42,6.62-6.15.63-1.71-.85-1.61-1.29-2.45a48.55,48.55,0,0,1-9.09,6.54c-3.25.59-5.46.88-8.65,1.4Z"/><path id="path7134" class="cls-4" d="M214.88,425c4.42.62,4.93,4.58,5.79,6.8-.76,1.57-1.28,3.39-1.69,4.46-1.42.91-1.92-.42-3-.66a25.3,25.3,0,0,1,2.93-4.65c-.3-1.47-1.72-2.67-2.37-3.68-1-.45-1.09-1.51-1.64-2.27Z"/><path id="path7136" class="cls-4" d="M238.88,458.92q2.2,4.2,4.4,8.42c.64,2.45-.39,3-.62,4.79-.47,3.31-.46,6.58-.71,9.75-2.77.68-1.83-.57-3.2-1,.3-3.7.6-6.73,1-10.82-.73-1.41-1.47-2.81-2.2-4.21-.74-2.89.26-4.38,1.29-6.93Z"/><path id="path7138" class="cls-4" d="M231.49,471.27c2.16-1.21,3.45-.53,6-.46,1.13,2.09-1.07,1.48-1.55,2.15-1.69,1.5-4.65,1.87-6,2.23C231.68,473.65,230.83,473,231.49,471.27Z"/><path id="path7140" class="cls-4" d="M215.93,453.49a27.34,27.34,0,0,0,3.63,4.36l-2.11,1.1c-1-.27-1-1.28-1.45-1.92-1.38-2.1,0-.94-.07-3.54Z"/><path id="path7142" class="cls-4" d="M263.62,475.46c2.88-1.61,5.69-1.27,8.3-1.21,1,.13,3.2,2.74,3.24,2.78-3.19,1.94-7-.13-7.27-.23,4.11.91,5.83,3.46,7.75,7.12,1.34,2.68,1.09,4.41,1.54,7.24-1.19,3.17-.69,5.1-.2,8.14-2.67-2.79-4-7.05-4.79-10-2.09-3.25-2.05-5.68-2.1-8.29,0-1.54-1.58-2.41-2.18-3.32a9.59,9.59,0,0,1-3,.23C263.45,477.81,264,476.14,263.62,475.46Z"/><path id="path7144" class="cls-4" d="M272.66,466.27c1.92,2,4.2,3,6.46,4.66-2.27,2.68-3.37,1.22-5.65,1.17-2.3-2.91-1.66-2.17-.81-5.83Z"/><path id="path7146" class="cls-4" d="M229.4,492.91l6-3.12,11.93-6.24c.48,2.51-.51,2.34-2.41,3.94.76,2.82,0,1.49.05,2.66-4.18,2.2-9,3-13.2,4.67l-2.34-1.91Z"/><path id="path7148" class="cls-4" d="M259.39,486.17c1-2.05,2.49-.31,3.35-.42,2.4,1.91,1.46,2.23,1.5,4.58a64.28,64.28,0,0,0,4.53,5.23c.72,2.23,2.38,3.75,3.63,5.24,1.36,2.38,3.45,4.53,4.72,6.47,1.7,1.27.51,2.63.79,4.06-3.41.06-5.53-3.93-7.55-5.88L265.41,496l-3.12-6a12.66,12.66,0,0,1-3-.65l.12-3.19Z"/><path id="path7150" class="cls-4" d="M265.26,517.05c1.09-2.67,2.55-5.51,3.58-7.68,2.06-3.45,1.8.35,2.49.49.5,3.57-1.74,4.87-3.6,6.79l-2.47.4Z"/><path id="path7152" class="cls-4" d="M277.06,503.73c2.7,0,3.17,2.65,4.52,5.23-.81,1.15-1.75.62-2.64.93-1.23-2-1.34-4.17-1.88-6.16Z"/><path id="path7154" class="cls-4" d="M285,522.36c0-2.73,1.14-4.12,1.85-5.88,2-2.19,1.45.89,2,1.2-.7,2.46-2.55,3.36-3.82,4.68Z"/><path id="path7156" class="cls-4" d="M320.12,486.12c-.5,1.5,1.6,3.06,1.84,3.51a21.8,21.8,0,0,0,4.11,1.87c1.17-.9-.15-1.43-.22-2.12-2.18-1.12-3.72-2.08-5.73-3.26Z"/><path id="path7158" class="cls-4" d="M349.79,501c1.21-2.38,3.11-3,5.41-4.18l1.11,2.11c-1.61,2.33-3.22,2.89-5.6,3.82l-.92-1.75Z"/><path id="path7160" class="cls-4" d="M463.65,403.46a51.07,51.07,0,0,0,3.46-4.49c.92-.37,1.66.33,2.49.49-.45,1.74-2,2.53-3,3.77C464.77,406.24,464.49,403.4,463.65,403.46Z"/><path id="path7162" class="cls-4" d="M488.73,331.82c.6-1.1,2.23-.84,3-1.12.83,1.56,1.75,1.69,2.7,2.61L491.26,335c-2.53.61-1.82-2.27-2.53-3.14Z"/><path id="path7164" class="cls-4" d="M228.34,541.28c1.15-1.3,2.84-.36,3.36-.42-.16,2.16.53,3.34.79,4.94,3.36,1.52,4.52,5.34,5.64,8.22a90,90,0,0,0,5.71,31.42c-.12,3.3-.64,2.73-2.92,4.66-1.14-.52-1.86-1.79-2.71-2.61-1.52-3.08-2-6.55-2.48-9.87-2.27-7.39-.73-13.71-.55-20.71q-2.12-4-4.22-8.07c-2.08-2.67-2.18-4.86-2.62-7.56Z"/><path id="path7166" class="cls-4" d="M222.56,573.79c.36.7.73,1.4,1.1,2.1,1.93-.37,3.34-2.06,4.73-2.92.49-3.7,2.18-5.86,3.73-9.1l-.92-1.75c-1.75,3.1-3.45,4.77-5.18,7.18-2.36,1.17-2.58,2.28-3.46,4.49Z"/><path id="path7168" class="cls-4" d="M243.05,544.38a13.17,13.17,0,0,1,3.71-2.91c1.91-.73,1.08.93,1.62,1.39-2.74.59-4.73,2.57-5.33,1.52Z"/><path id="path7170" class="cls-4" d="M236.5,533.43c2.22.34,2.41,1.89,3.1,4.17-.31.34-1.14.37-1.34.44C237.76,536.48,236.93,535,236.5,533.43Z"/><path id="path7172" class="cls-4" d="M236.4,510.6l1.35,2.58a22.93,22.93,0,0,0,2.72,3.19c1,.09.18-.4.25-.53a6.71,6.71,0,0,0-1.61-2.32A15.64,15.64,0,0,1,238,511.1C237.31,510.22,237.26,510.55,236.4,510.6Z"/><path id="path7174" class="cls-4" d="M254.75,510.74l3.88,1.13.93-.49c-.28-.58-.53-1.11-.76-1.71a7.91,7.91,0,0,0-3.4-.46c-.88.48-.55.9-.65,1.53Z"/><path id="path7176" class="cls-4" d="M262.88,501.88a3.72,3.72,0,0,0,.71,1.87c.45,0,.72-.29,1.08-.44-.07-.81-.05-1.61-.09-2.45a6.33,6.33,0,0,0-1.57,0c-.47.23-.09.7-.13,1Z"/><path id="path7178" class="cls-4" d="M265.47,501.32a9.17,9.17,0,0,0,1.29,1.95l1-.54a4.54,4.54,0,0,1-.66-2c-1.11-.32-1-.33-1.66.61Z"/><path id="path7180" class="cls-4" d="M274,498.55c0-.46.41-.39.62-.58,1.31,0,1.87.94,2.58,1.93.33.77-.24,1.48-.48,2.1A5.2,5.2,0,0,1,274,498.55Z"/><path id="path7182" class="cls-4" d="M273.38,526.24c.54-.18.85.09,1.25.14a5.65,5.65,0,0,0,2-1.45c-.09-.46-.26-.5-.49-.93a4.49,4.49,0,0,1-1.65.61,2.53,2.53,0,0,0-1.12,1.63Z"/><path id="path7184" class="cls-4" d="M256.76,523.89c-.55-.56.11-.89.6-1.37s.82.15,1.31.24a3.31,3.31,0,0,1,.19,2.13,3.38,3.38,0,0,1-1.76.4c-.49-.37-.23-.93-.34-1.4Z"/><path id="path7186" class="cls-4" d="M255.39,562.74l1.44-.75c1.29.43,1.12,2.28,1.32,3.52a6.12,6.12,0,0,1-.13,1.77c-.48.42-.71-.16-1-.24a9.11,9.11,0,0,1-1.59-4.3Z"/><path id="path7188" class="cls-4" d="M258.85,564.09c.65-.35.75.34,1.21.55a36.53,36.53,0,0,1,3,9.48c-1.1.3-1.39,0-2.15-.58a3.34,3.34,0,0,1-1.72,0,11,11,0,0,1,.05-5.95,28.39,28.39,0,0,1-.38-3.48Z"/><path id="path7190" class="cls-4" d="M225.17,595c-.49-.62-.09-1.44,0-2,.95-.09,1.57.69,2.15,1.1.29.62-.17,1.07-.39,1.52C226.2,595.74,225.8,595.36,225.17,595Z"/><path id="path7192" class="cls-4" d="M285.06,552.09a4.47,4.47,0,0,1-.72-2.12,6.24,6.24,0,0,1,1.2-2.73,57,57,0,0,1,6.25-3.4c.5.35.63.84,1,1.34-.06.92-.85,1.29-1.53,1.85-.66,1.34-1.4,2.6-1.91,3.89a16.45,16.45,0,0,1-3.11,3.6c-.77.27-.72,0-1.26-.39a3.14,3.14,0,0,1,.12-2Z"/><path id="path7194" class="cls-4" d="M296.55,530.56c.38-.55.95-.41,1.45-.49.25.48.5,1,.76,1.44-.45.61-.91,1.17-1.33,1.75-.17-.25-.45-.2-.68-.3a3.25,3.25,0,0,1-.2-2.4Z"/><path id="path7196" class="cls-4" d="M307.45,525.26a9.91,9.91,0,0,1,2.16-1.66,5.62,5.62,0,0,1,1,1.44,4.18,4.18,0,0,1-2,1.45c-1.09,0-.9-.22-1.17-1.23Z"/><path id="path7198" class="cls-4" d="M290,486.54c.45-.33.81-.63,1.23-.91.74,0,.73.39,1.07,1a2.82,2.82,0,0,1-.85,2.41c-.42.64-.71.12-1.09.18a6.16,6.16,0,0,1-.36-2.7Z"/><path id="path7200" class="cls-4" d="M281.91,488a5,5,0,0,0,1.33-1,4.82,4.82,0,0,0,.6,1.4,5.74,5.74,0,0,1-1,2.26c-.33-.22-.41-.46-.64-.72.8-1.49-.18-1.86-.24-2Z"/><path id="path7202" class="cls-4" d="M318.65,536.62a22.86,22.86,0,0,1,1.87-3.47c.62-.38.88.11,1.41.18.49.51.29,1.39.29,1.82-1.4.75-2.38,2-3.9,2.83C318,537.38,318.31,537.22,318.65,536.62Z"/><path id="path7204" class="cls-4" d="M329.41,526a2.63,2.63,0,0,1,.88-.33,3.37,3.37,0,0,1,1,1.44c.67.67-.21.49-.3.69-.43.47-1-.1-1.25-.14C329,526.92,329.44,526.5,329.41,526Z"/><path id="path7206" class="cls-4" d="M335.29,514.38c.56-.06.79-.6,1.13-.86.79.35,1.06,1,1.49,1.59l-1.75.92A3.93,3.93,0,0,1,335.29,514.38Z"/><path id="path7208" class="cls-4" d="M346.7,502.23l1.44-.75c.93.19,1.09.72,1.64,1.37-.1.62-.72.64-1.08,1-1.17.1-1.59-.52-2-1.58Z"/><path id="path7210" class="cls-4" d="M320.26,493.18c.26-1,.39-.73,1.13-1.12.68.29.83.66,1.27,1.18a5.94,5.94,0,0,1-1.65,1.12,4.08,4.08,0,0,1-.75-1.18Z"/><path id="path7212" class="cls-4" d="M313.33,485a3.81,3.81,0,0,0,1.07,1.55,4.39,4.39,0,0,0,1.3-.55c.12-.68.17-1.08.28-1.72-.13-.68-.69-.28-1-.4a4.64,4.64,0,0,0-1.65,1.12Z"/><path id="path7214" class="cls-4" d="M297.16,475.67c.28-.5.87-.46,1.24-.65.15.27.29.55.43.82-.19.93-.8.84-1.28,1.33-1-.79-.45-.68-.39-1.5Z"/><path id="path7216" class="cls-4" d="M331.06,485.42c-.5-.66-.1-1.33.12-2a2.94,2.94,0,0,1,1.62-.19c.78.52.22.94.33,1.4a2.79,2.79,0,0,1-1.52,2.11A4.33,4.33,0,0,1,331.06,485.42Z"/><path id="path7218" class="cls-4" d="M344.72,539.43c-.52-.81.23-.38.35-.58,1.53,0,2.2.69,3.26,1.71.21.75-.17,1-.49,1.58A3.64,3.64,0,0,1,344.72,539.43Z"/><path id="path7220" class="cls-4" d="M288.44,574.91l.52-.27c.81.65,1.28,1.6,2,2.26,2.18.91,2.86,2.45,3.94,4.51a8.19,8.19,0,0,1-1.8,1.08l-1.17-1a6.05,6.05,0,0,1-.71-1.86,7.72,7.72,0,0,1-.95-.56,5.24,5.24,0,0,1-1.8-4.19Z"/><path id="path7222" class="cls-4" d="M328.44,555.57c.57-1,1.17-.93,1.9-1.13a3.35,3.35,0,0,1,0,2.51c-1.68.52-2.5.11-1.9-1.38Z"/><path id="path7224" class="cls-4" d="M313.47,523.69c.28-.6.81-.34,1.19-.49.71.55,0,1,.07,1.4-.29.49-.79.22-1,.28-.65-.2-.17-.88-.23-1.19Z"/><path id="path7226" class="cls-4" d="M318.16,506.51a6,6,0,0,0,.23-1.31,3.38,3.38,0,0,1,2.29-.41c1-.34.88-1.43,1-2.1.91-.2.77.12,1.22.81.19.61.57.78.91,1.23.17,1-.25,1-.7,1.69-.64,0-1.16-.56-1.48-.81a18.11,18.11,0,0,0-2.73,1.56c-.6.15-.5-.45-.74-.66Z"/><path id="path7228" class="cls-4" d="M311.86,495.47a7.1,7.1,0,0,0,.69.82c.81.49.8-.05,1.41-.08a2.17,2.17,0,0,0,.33-1.62c-1.22-.28-1.58,0-2.43.88Z"/><path id="path7230" class="cls-4" d="M305.67,479.11c.31-.88.61-.8,1.17-1.27.72-.21,1.05.19,1.68.43.43.75,0,1.21-.12,1.78-.36.75-.82.16-1.2.23a11,11,0,0,1-1.53-1.17Z"/><path id="path7232" class="cls-4" d="M333.12,495.13c.74-.4.66-.14,1.3.24,0,.71-.56.72-.86,1.11C332.82,496,333.31,495.7,333.12,495.13Z"/><path id="path7234" class="cls-4" d="M335.22,478.78c-.17-.62.44-.5.66-.74,1-.38.68,0,1.31.49.39,1.05,0,1-.49,1.58-.76-.28-.94-.69-1.48-1.33Z"/><path id="path7236" class="cls-4" d="M335.18,473.67c.78-.85.83,0,1.2,0,.49,1,.12,1-.34,1.62-.67-.5-.67-.94-.86-1.65Z"/><path id="path7238" class="cls-4" d="M332.42,465.38a5.91,5.91,0,0,1,.28-1.46,2.68,2.68,0,0,1,2-.25c1,1.08-.1.81-.18,1.41C333.4,466.11,333.19,465.69,332.42,465.38Z"/><path id="path7240" class="cls-4" d="M270.62,463.64c.86,0,.71.27,1.11.87.29.95-.19,1.32-.43,1.93-.58-.09-.84-.56-1.22-.81-.33-.69-.12-1.08-.23-1.45.13-.16.44-.27.77-.54Z"/><path id="path7779" class="cls-4" d="M169.32,481.3c.19,5.36-2.86,9.86-4,14.71-.06,1.64-.4,3.32-.44,4.91.82.22.9.52,1.31,1.12a5,5,0,0,0,2.39-2.33c-1.06-2-.21-4.39.4-6.34,1-2.27,2.06-4.86,3-7.21a29,29,0,0,0-.32-4.52c-.24-.95-.51-.79-1.26-1a4.19,4.19,0,0,0-1.08.68Z"/><path id="path7781" class="cls-4" d="M165,460.61c.76,2.23.94,4.79,1.65,7.07a7.55,7.55,0,0,1,.38,2.56c1.36,2.66,3.64,4.33,5.41,6.43a14.72,14.72,0,0,0,2.09,2.63,4.3,4.3,0,0,0,1.28-.78,9.32,9.32,0,0,0-.26-3.71,17.08,17.08,0,0,1-2.63-3.2c-1.07-2.08-1.59-4.43-2.46-6.53l-1.33-2.55a8.31,8.31,0,0,0-.29-2.61c-.46-.93-1.17-.79-2-.78a3.92,3.92,0,0,0-1.88,1.47Z"/><path id="path7783" class="cls-4" d="M180.3,485.3l.6,1.13a9.19,9.19,0,0,1,3.08-.53l1.89-1a6.82,6.82,0,0,0-1.45-1.4,6.45,6.45,0,0,0-4.12,1.79Z"/><path id="path7785" class="cls-4" d="M187.3,456.15a22.2,22.2,0,0,0,3-2.63,8.32,8.32,0,0,0,1.06.89c.88,1.86,1.81,3.69,2.77,5.52,1.18.52,2.07,1.34,3.18,1.95.16,7.74,3,16.33,1.25,24a111.72,111.72,0,0,1,.31,17.15c-.25.34-.66.42-1,.64-1.71-3-2.57-6.68-3.42-10a19.1,19.1,0,0,0-3-4.67c-1.84-1-3.36-2.71-5.26-3.62a31.39,31.39,0,0,0-2.07-6.49c.15-1.4.17-2.8.21-4.2a16.76,16.76,0,0,0-.7-4.32,19.47,19.47,0,0,1,2.71-5.39,16,16,0,0,1-1.15-2.88c.43-2.23,2-4,2.18-6Z"/><path id="path7787" class="cls-4" d="M182.71,496.79a5.72,5.72,0,0,1,2.41-.67,18.73,18.73,0,0,0,1.49-2.22c2.35.68,4.74-.2,7.13-.84,3.14-.57,6.55-1.2,9.55-1.51a17.3,17.3,0,0,1,2.51-1.19c2.31.34,5,.43,7,1.25a3.64,3.64,0,0,1-.44,1.92c-3.15,2.6-7.39,1.4-10.77,2.39a11.77,11.77,0,0,1-8.07,2.05c-2.34-.59-5-.11-7.43,0a7.26,7.26,0,0,0-2.14,0c-1.17-.12-1-.33-1.26-1.26Z"/><path id="path7789" class="cls-4" d="M375,590.63a98.49,98.49,0,0,0,24.21,3c6.12,1,12.57,2.69,18.16,3.12-8.27,2.68-17.69.12-26.56,0-7.71-1.25-14.47.78-19.3-3.62C372.53,592.26,374,591.56,375,590.63Z"/><path id="path7791" class="cls-4" d="M373.88,586c1.68-2.48,5.13-3.85,6.3-4.6,2.44,1.72-.07,2.79-.1,4l-4.44,2.32Z"/><path id="path7793" class="cls-4" d="M382.48,594.11c.5,2,1.29,4.14,1.84,6,.41.8.83,1.6,1.25,2.4,4.76-.22.71-2.27,1-3.13.36-2.15-1.05-3.22-2-4.62.61-2.86-1.81-.57-2.08-.65Z"/><path id="path7795" class="cls-4" d="M371.2,580.86c2.16-2.56,2.84-.18,3.79-.24,2.44,1.79-.86,1.57-1.33,2.44C371.09,582,372.93,582.41,371.2,580.86Z"/><path id="path7797" class="cls-4" d="M349.75,596.43c.9-1,2.58-1,3.26-1.26,1.37.21.55,1.7.73,2.23-.18,1.6-1.81,1.52-2.72,2.29-.8-.93-.84-2.17-1.27-3.26Z"/><path id="path7799" class="cls-4" d="M329.43,607.5c-.09-2.27.83-3.23,1.29-5,1.71-2.16,2.06.86,2.78,1.16a11.63,11.63,0,0,1-4.07,3.87Z"/><path id="path7801" class="cls-4" d="M433.46,495.21c-.22.69-.44,1.39-.65,2.08,3.19,1.27,5.51,1.79,8.5,2.95,1.14-1.07-.26-1.63-.39-2.41C438.14,496.84,436.14,496.28,433.46,495.21Z"/><path id="path7803" class="cls-4" d="M479.31,503a47.71,47.71,0,0,1,2.87,6.33l3.08-1.61c-.32-1.71-1.75-2.25-2.65-3.4C481.11,502.87,481.12,503.72,479.31,503Z"/><path id="path7805" class="cls-4" d="M482.75,521.22c2.49-2,5.19-1.71,7.2-2-.26,1-1.25.95-1.87,1.41-1.46,1.08-3.21,1.1-4.8,1.64l-.53-1Z"/><path id="path7807" class="cls-4" d="M509.38,478.13a18.55,18.55,0,0,0,4.75,4.91c-1,.55-2.09-.93-2.76-.29a22.25,22.25,0,0,1-7.34-4.87c2.81-2,5.14-1.5,8.25-1.7a64.54,64.54,0,0,1,7.79,1.58c-.42,1-1.48,1.06-2.21,1.59-3.84,1.82-3.59-1.53-8.48-1.22Z"/><path id="path7809" class="cls-4" d="M325.28,574.91a13.84,13.84,0,0,1,3.63-2.33c.73,0,.6.61.93.95a21.58,21.58,0,0,1-2.51,2.31C326.33,576.2,326,575.64,325.28,574.91Z"/><path id="path7811" class="cls-4" d="M340.54,574.35a4.65,4.65,0,0,1,3.34-.17c.5,1.23.19,1.47-.7,2.22a8.83,8.83,0,0,1-2.11-1C340.61,575.2,340.71,574.67,340.54,574.35Z"/><path id="path7813" class="cls-4" d="M341.58,550.4c1.14-.56,2.22-1.21,3.3-1.87,0,1.21-.69,1.33-1.88,2.13-.72,2-2.06,2.66-3.62,2-.05-1.56,1.07-1.78,2.2-2.22Z"/><path id="path7815" class="cls-4" d="M336.51,533.35l3.14-1.64c.85,1.21.59,1.7.17,2.77a4.38,4.38,0,0,1-2.5-.12C336.76,534.07,336.91,533.84,336.51,533.35Z"/><path id="path7817" class="cls-4" d="M341.86,534.84c.3-.4.78-.5,1.17-.76a3.94,3.94,0,0,1,1.34,1.73,5.17,5.17,0,0,1-1.91.72A3.79,3.79,0,0,1,341.86,534.84Z"/><path id="path7819" class="cls-4" d="M360.87,541.17c.52-.22,1-.45,1.52-.65a5.81,5.81,0,0,1,1.09,1c-.19,1.22-.38,1.06-1.27,1.66-1.64-.84-1.32-.89-1.34-2Z"/><path id="path7821" class="cls-4" d="M355.77,494.3c.54-1.1,1-2.42,1.52-3.64a3.87,3.87,0,0,1,2.26-.33c.32,1.12-.06,1.24-.64,2.05-1.16,1.89-1.72,2.49-3.14,1.92Z"/><path id="path7823" class="cls-4" d="M361.55,497.71c-.95-.58-.18-.92-.25-1.3.81-.61,1-.33,1.86-.26.65,1.23.27.5-.31,1.31-.43.34-.81.15-1.3.25Z"/><path id="path7827" class="cls-4" d="M366.14,498a5,5,0,0,1,3-.57c.44,1.56.14,2.16-1.14,3a3.93,3.93,0,0,1-2.88-.06c-.91-1.32-.26-1.88,1-2.39Z"/><path id="path7829" class="cls-4" d="M367.81,499.85c.23,1.15.45,2,.74,3,.72.13.61-.41.95-.64a17.53,17.53,0,0,1-.15-1.92C368.8,499.23,368.92,499.42,367.81,499.85Z"/><path id="path7831" class="cls-4" d="M371.34,501.15c-.53-.7.31-.62.49-1,1.15-.54,1.1-.17,1.88.59.84,1.13-.24,2.12-.73,3.23-.53-.22-1-.45-1.31-.59A5,5,0,0,1,371.34,501.15Z"/><path id="path7833" class="cls-4" d="M399.54,530.51a7.48,7.48,0,0,0,1.23-1.22c1-.22,1.22.1,1.88.88a2.87,2.87,0,0,1-1.5,1.78C400.09,532.15,400,531.57,399.54,530.51Z"/><path id="path7835" class="cls-4" d="M404.63,514.85c-.25-1.28.49-2.17,1-3.35.28-.41.76-.09,1.07-.13a6.29,6.29,0,0,1-.4,2.78c-.43.47-.59.76-.94,1.2Z"/><path id="path7837" class="cls-4" d="M348.58,490.64c-.56-1.1-.08-1.49.63-2.33.8-.48.55.44,1,.78.49,1,0,1.14-.31,1.87C349.33,491.58,349.08,490.77,348.58,490.64Z"/><path id="path7839" class="cls-4" d="M352.4,489.22c-.25-.46.24-.77.32-1,1.62-.22,1.49.3,1.22,1.51-1.33.57-.88.16-1.54-.48Z"/><path id="path7841" class="cls-4" d="M353.7,486.25c-.41-1.29.14-1,.71-1.65.37.21.44.5.69.78-.24,1.71-.31,1.31-1.4.87Z"/><path id="path7843" class="cls-4" d="M367.94,476.09c-.62-1-.11-.91.43-1.65,1.12-.55,1-.09,1.65.71a6.4,6.4,0,0,1,1.16,1.39c-.19,1-.49,1-1.22,1.49-.63-.7-1.55-1.41-2-1.94Z"/><path id="path7845" class="cls-4" d="M370.81,462.74c0-.94.72-1.24,1.33-1.83.83-.05.77.39,1.09,1a2.35,2.35,0,0,1-1.86,1.9Z"/><path id="path7847" class="cls-4" d="M371.3,507.88c-.54-1.22-.24-1,.41-1.93.84.44.65.56.88,1.4-.21.61-.91.37-1.29.53Z"/><path id="path7849" class="cls-4" d="M359.57,525.58c-.13-.91.24-.92.65-1.49,1.26.21.69-.59,1.61,1.16C361.06,526.58,360.59,526.57,359.57,525.58Z"/><path id="path7851" class="cls-4" d="M375.15,551.54c.92.33,1.09,0,1.74-.48.25-.81-.19-1.18-.48-1.75-1.45.43-1.61.94-1.26,2.23Z"/><path id="path7853" class="cls-4" d="M342.43,466.88c-.25.47.2.75.3,1.13a3.65,3.65,0,0,0,3.86.27,7.57,7.57,0,0,1,1.65-2.3c-.18-.84-.43-1-1-1.62a4.24,4.24,0,0,1-2.15,0,5.64,5.64,0,0,1-2.67,2.54Z"/><path id="path7855" class="cls-4" d="M347.38,462.44a8.25,8.25,0,0,1,1.83-2.24,5.36,5.36,0,0,1,2.33.63c1.08.21,1.95,1.44,2.7,2.16a11.33,11.33,0,0,1-2.18,1.28c-.65.31-1-.09-1.48-.37a2.43,2.43,0,0,1-.37-1.8c-.39-.05-.64.24-1,.36-.17.35-.56.39-.84.58-.7.46-.65-.38-1-.6Z"/><path id="path7857" class="cls-4" d="M354.38,467.34c-.75-.34-.27-.86-.43-1.35a9.94,9.94,0,0,1,3.21-1.24,15.47,15.47,0,0,0,2.63,1.48,17.48,17.48,0,0,1,1.38,1.55c.35.94.16.66-.48,1.54-1.21.11-1.87-.58-2.8-1.53S355.59,467.15,354.38,467.34Z"/><path id="path7859" class="cls-4" d="M359.22,463.24a3.57,3.57,0,0,1,2-1.17,12.45,12.45,0,0,1,.89,2,2.43,2.43,0,0,1-2.09.38C359.3,464.36,359.45,463.59,359.22,463.24Z"/><path id="path7861" class="cls-4" d="M361.36,465.41c-.37-.8.33-.82.94-1.21.56.5.94,1,1.49,1.5a4.55,4.55,0,0,1-1.1,1.72c-1.38-.39-1.12-1-1.33-2Z"/><path id="path7863" class="cls-4" d="M368.48,452.55a6.13,6.13,0,0,0,1.94-2c.7.6.33,1.15.15,1.92.23,1-.24,1.59-.58,2.44-.85,0-.89-.29-1.43-.82s-.06-1-.08-1.52Z"/><path id="path7865" class="cls-4" d="M368,445.82c-1.17,2.7.31,1.83.57,3.27a5.87,5.87,0,0,0,2.48-.15c.8-.41.73-1,.88-1.6a10.19,10.19,0,0,0-1.11-1.85C369.78,444.57,369.09,445.23,368,445.82Z"/><path id="path7867" class="cls-4" d="M349.1,475.81a3.72,3.72,0,0,1-.36-1.24,11.36,11.36,0,0,1,2.41-1.11,8.26,8.26,0,0,1,.83,1.85C350.75,476.43,349.84,475.91,349.1,475.81Z"/><path id="path7869" class="cls-4" d="M350.16,484.11a7.85,7.85,0,0,0,2.1.47,4.74,4.74,0,0,0,1-2.39,12.74,12.74,0,0,0-.63-3.67c-.75,0-.85-.3-1.58.25a3.53,3.53,0,0,1-1.78,1.79l0,2Z"/><path id="path7875" class="cls-4" d="M340.28,476.43a6.91,6.91,0,0,1,3.32-1,13.72,13.72,0,0,1,.93,1.23,4.29,4.29,0,0,1-3.49,1c-.64-.22-.44-.68-.76-1.17Z"/><path id="path7877" class="cls-4" d="M347.79,472.5c0-1.25.72-1.57,1.55-2.24.4.28.55.36.86.55.05,1.06-.65,1.08-1,1.66C348.56,473.38,347.91,472.5,347.79,472.5Z"/><path id="path7879" class="cls-4" d="M352,471.18a2.55,2.55,0,0,1,1.42-2.46c.37-.84.88.12,1.08.15-.45,1.05-.77,1.84-1.19,2.91C352.56,472.11,352.44,471.4,352,471.18Z"/><path id="path7881" class="cls-4" d="M341.65,489.41a2.82,2.82,0,0,1,1.56-1.38c.68.27.79.68,1.1,1.28-.29.94-.76,1-1.5,1.5-.65-.37-.76-.81-1.16-1.4Z"/><path id="path7883" class="cls-4" d="M351.47,497a6.7,6.7,0,0,0,0-2c.44-.7,1-.74,1.62-1,.54.28.69.78,1,1.17a23.16,23.16,0,0,1-1.78,1.79Z"/><path id="path7885" class="cls-4" d="M337.13,489.78c0-.58.55-.57.84-.87.84,0,1.08.51,1.6.88,0,.82-.39,1-.77,1.54C337.74,491.24,337.69,490.84,337.13,489.78Z"/><path id="path7887" class="cls-4" d="M350.73,456.83a3.35,3.35,0,0,1,.41-2.5c1.15-.5,2.48.15,3.46.62.45.67-.14.81-.25,1.42A4.87,4.87,0,0,1,350.73,456.83Z"/><path id="path7889" class="cls-4" d="M373.52,440.63c.13-.6.66-.53,1-.81.91-.24.55.43,1,.77,0,.41-.47.66-.66.92C373.65,441.69,374,441.62,373.52,440.63Z"/><path id="path7891" class="cls-4" d="M380.34,457.76a10.08,10.08,0,0,1,1.31-2.4,2.06,2.06,0,0,1,1.59.31c.13,1-.13,1-.59,1.6A2.75,2.75,0,0,1,380.34,457.76Z"/><path id="path7893" class="cls-4" d="M380.59,462.34c-.67-.18,0-.72-.07-1a4,4,0,0,1,1.8-.37c.83.74,0,.91,0,1.3C381.4,462.88,381.44,462.53,380.59,462.34Z"/><path id="path7895" class="cls-4" d="M358.1,454.26c.3-.67,1-.72,1.4-.87.85.56.16,1.23.19,1.47-.17.34-.56.38-.84.58C358.74,455,358.35,454.65,358.1,454.26Z"/><path id="path7897" class="cls-4" d="M362,459.23a4.71,4.71,0,0,1,.43-1.37c.42-.58,1-.23,1.41-.31a3.48,3.48,0,0,1,.59,1.69c-.41.4-.77.69-1.17,1a7.32,7.32,0,0,0-1.26-1Z"/><path id="path7899" class="cls-4" d="M288.05,333.6c-1.55-.74-1.22-2.46-1.63-3.88.28-.56.89-.18,1.24-.25a11,11,0,0,1,1.48,3.95Z"/><path id="path7901" class="cls-4" d="M272.85,344.11a11.07,11.07,0,0,1,1.8-4.09c.82-1.13.7.38,1.11.6.24,1.29-.33,2-.81,3C274.28,344.45,273.3,344,272.85,344.11Z"/><path id="path7903" class="cls-4" d="M255.73,343.41a8,8,0,0,1,3.08-2.4c.62-.06.63,1.2.65,1.24-.72,2.22-2.26,2.9-3.73,1.16Z"/><path id="path7905" class="cls-4" d="M261.83,309.86c.37-.5,1.05-.39,1.32-.49a5.52,5.52,0,0,1,.83,2.71c-.86.48-.79.11-2,.28Z"/><path id="path7909" class="cls-4" d="M280.37,340.77l1.55-.81c1.24.68.5,1.83.66,2.41-.58.68-1.39.46-2,.66-1.2-1.19-.1-1.2-.19-2.26Z"/><path id="path7911" class="cls-4" d="M283.76,334.07c.26-.83,1.11-.84,1.7-1.28,1.39-.1.78,1.18,1,1.46-.33.95-.95,1.09-1.77,1.52l-.89-1.7Z"/><path id="path7913" class="cls-4" d="M284.3,338.12c-.47-.93.46-1.19.67-1.73.77.16.74.91,1.12,1.39.1,1.32-.75,1.11-1.21,1.81-.44-.39-.39-1-.58-1.47Z"/><path id="path7915" class="cls-4" d="M263.79,327.17a12.06,12.06,0,0,1,1.2-2.6c2.31-.06.79.57,1.9,1.37a3.47,3.47,0,0,1,.6,2.64c-.85.6-1.31-.41-1.89-.59-1.3.13-1.26-.57-1.81-.82Z"/><path id="path7917" class="cls-4" d="M222.31,331.52c.07-.9,1.22-.8,1.46-1,.48.43.48,1.18.66,1.63-.3.5-.88.59-1.31.88-1.51.36-.65-1.24-.81-1.54Z"/><path id="path7919" class="cls-4" d="M259.19,374.91l1.71-.89,1.7,3.25a4.76,4.76,0,0,1-1.37,2.29c-2-1.44-2-2.7-2-4.65Z"/><path id="path7921" class="cls-4" d="M278.18,332.06l1.54-.81c.76.16.74.91,1.12,1.39l-1.85,1C278.29,333.35,278.43,332.54,278.18,332.06Z"/><path id="path7923" class="cls-4" d="M254.81,310.38l1.71-.89c.86.31.76,1.81.81,1.94l-2,1.05C253.94,311.48,255,311.11,254.81,310.38Z"/><path id="path7925" class="cls-4" d="M224,279.77c.29-1.54.94-1.65,2.23-2.15.66.69.08,1.46.11,2.1-1.53,1.21-1.28.29-2.34,0Z"/><path id="path7927" class="cls-4" d="M186.58,291.47c1.28-.18,2,.53,2.74.73A15.21,15.21,0,0,0,194,289a48.34,48.34,0,0,1,5.89-2.69c.91-.61.22-1.2.36-2-2.12.11-4.06,1.53-6,2.53-2.54,1.67-5,3.21-7.65,4.6Z"/><path id="path7929" class="cls-4" d="M186.8,261c1.79.58,3.41,1.37,5,1.94,1.18-.93.83-1.76.8-3a6,6,0,0,0-4.45-.23c-.73.18-.81.79-1.31,1.27Z"/><path id="path7931" class="cls-4" d="M148.26,276.62c.62-1.2,1.16,0,1.41.05-.1,2.44.7,5.39,1.08,7.72.78,2.14-.7,4.2-1.38,6a58.65,58.65,0,0,1-4.17,7.1,9.5,9.5,0,0,1-1.9-1.37c.49-1.6.46-2.22.87-4-1-5.62,2.24-10.93,4.09-15.54Z"/><path id="path7933" class="cls-4" d="M274.14,346.2c.4-.55,1.08-.7,1.62-1.05,1.34,1.11.5,1.52.43,2.34-1.79.32-1.46.22-2.05-1.29Z"/><path id="path7935" class="cls-4" d="M344.77,329.36c.57,1.54-.12,1.47-1.29,2.45l-1.65-.91a11.47,11.47,0,0,1,.31-2.23A7.35,7.35,0,0,1,344.77,329.36Z"/><path id="path7937" class="cls-4" d="M377.32,379.55c1.14-.83,1.24-.08,2.12.27.95.71-.35,1.11-.44,1.42-.76.77-1.05.06-1.72.11-1.24-.56,0-1.31,0-1.8Z"/><path id="path7939" class="cls-4" d="M382.21,386.26c.48-1.06,1.46-1.26,2.32-1.61.5.3.59.88.88,1.31a13.26,13.26,0,0,1-2.86,1.7c-.91-.24-.22-.94-.34-1.4Z"/><path id="path7941" class="cls-4" d="M363.35,393.16a7.31,7.31,0,0,1,.6-1.49c1.21-.05,1.14.65,2,1.13.06,1-.85.83-1.31,1.28Z"/><path id="path7943" class="cls-4" d="M373.83,402.27c.71.36.31,1.12.42,1.55-.88,1-1.4.19-2,.27.16-2.25-1.43-.41-1.23-1Z"/><path id="path7945" class="cls-4" d="M271.74,450.15c-.3-1.34.1-1.48,1-2.68,1.16-1.1.9.46,1.35.68.08.92-.39,1.24-.6,1.89C272.76,451,272.39,450.1,271.74,450.15Z"/><path id="path7947" class="cls-4" d="M273.56,434.41l1.39-.73c.51.3.59.88.89,1.31-.18.78-1.15,1.07-1.46,1.36a6.63,6.63,0,0,1-.82-1.94Z"/><path id="path7949" class="cls-4" d="M236.54,435.24l1.24-.65c1.4-.37,1.28,1,1.35,1.07a3.86,3.86,0,0,1-1.85,1.37c-.89-.27-.53-1.3-.74-1.79Z"/><path id="path7951" class="cls-4" d="M238.17,447c.53-.35,1.21-.94,1.54-1.2,1.74-.23,1.39.78,1.82,1.61a10,10,0,0,1-1.93,1.2c-1.41-.19-.79-.89-1.43-1.61Z"/><path id="path7953" class="cls-4" d="M477.29,276.26h4.33c.85.42.95.9,1.43,1.5.51.39,0,1.11,0,1.27a20.59,20.59,0,0,0-4.16-.88C477.66,277.65,477.63,277.53,477.29,276.26Z"/><path id="path7955" class="cls-4" d="M480.84,292.58c.22-.51.73-1.13.93-1.61.87-.25,1,.53,1.54.8a4.55,4.55,0,0,1-.4,2.3C481.84,293.94,481.52,293.24,480.84,292.58Z"/><path id="path7957" class="cls-4" d="M480.67,307.62c-.57-.43,0-.62,0-1a3.87,3.87,0,0,1,2.85-1c.45.33.57.88.85,1.32a3.21,3.21,0,0,1-3.68.64Z"/><path id="path7959" class="cls-4" d="M439.22,299.71a7.66,7.66,0,0,1-1.14-3.42c1.29-.55,1,0,1.67.73.29.86.46,1.74.68,2.54-.19,1.48-1,.12-1.21.15Z"/><path id="path7961" class="cls-4" d="M501.12,275.7a10.55,10.55,0,0,1,2.1-3.35c-.08-.87.37-.57.62-1,.9-.42,1.07,0,1.73.22.06,1.91-1.6,3.14-2.85,4.71-1.45.6-.85.11-1.6-.61Z"/><path id="path7963" class="cls-4" d="M507.35,278.71a18.16,18.16,0,0,1,4.72-3.27c.82-.14.92.5,1.36.74-1.68.61-2.89,1.83-4.42,2.63C507.69,280.06,508.26,279.07,507.35,278.71Z"/><path id="path7965" class="cls-4" d="M494.92,282c-.2-.75.55-.6.81-.9.77.09.86.82,1.3,1.25-.22.66-.9.68-1.38,1C495.08,283.12,495.15,282.43,494.92,282Z"/><path id="path7967" class="cls-4" d="M500.46,250.15c.66,1,2.18,1.42,3.41,1.92.68.89,1,.18,1.6.29l.5-.59c.24-.71-.85-.76-.91-.81-1.57.19-2.68-.68-3.85-1.52-.56-.08-.5.47-.75.71Z"/><path id="path7969" class="cls-4" d="M511.55,260.91c1.4.6.3,1,.41,1.4-.41.8-1.13,1-1.82,1.43C509.23,261.92,509.82,261.59,511.55,260.91Z"/><path id="path7971" class="cls-4" d="M513,260.63c.42-.36,1-.75,1.38-1,1.65.18,2.79,1.78,3.81,3,.72.76,1.29,1.51,2,2.19a4.35,4.35,0,0,1-1.9.67,19,19,0,0,0-2.6-2.82c-.4-.62-.91-.55-1.68-.73-.13-.73-.6-.77-1-1.26Z"/><path id="path7973" class="cls-4" d="M517.6,260.48a15.13,15.13,0,0,1-.18-3.12c-.22-2,.38-.8.92-1.92a7,7,0,0,1,2.16-.49l1.39-.73c.32,1.34-.26,2.14-.71,3.27-.17,1.7-.36,3.05-.55,4.79-1.22-.13-1.18-.77-1.56-1.76C518.33,259.8,518.19,260.5,517.6,260.48Z"/><path id="path7975" class="cls-4" d="M518.22,270c-.05-1,.74-.89,1.19-1.42.91.08,1.2.59,1.8,1.3.11,1.17-.44,1.44-1.3,2.13a6,6,0,0,1-1.69-2Z"/><path id="path7977" class="cls-4" d="M521.73,273.6c.24-.35,1-.41,1.2-.47,1.12.31,1.15.66,1.62,1.57a7.2,7.2,0,0,1-.59,2.24c-.77.15-.65-.63-1-.94a5.61,5.61,0,0,0-1.25-2.4Z"/><path id="path7979" class="cls-4" d="M524.5,271.83c.24-.59.91-.47,1.26-.66.77.31.88.76,1.24,1.44-.36,1-1.1.47-1.58.67C524.55,273,524.85,272.38,524.5,271.83Z"/><path id="path7981" class="cls-4" d="M527.3,250.75c.32,1.17.74,2.21,1,3.36,1.5.32,1.81-.45,2.4-1.26a37,37,0,0,0,4-2.24c-.5-.81-1-.68-1.74-.86a5.34,5.34,0,0,1-1.47-.35A10.88,10.88,0,0,0,527.3,250.75Z"/><path id="path7983" class="cls-4" d="M535,238.18a3.19,3.19,0,0,0-1.77.6,18.29,18.29,0,0,0,.14,4.27c.67,1,.55,1.8.88,2.92,1.46.35,1.17-.24,1.83-.8.56-.23.65-.76,1-1.17a4,4,0,0,0-1.06-2.34,11.74,11.74,0,0,1-1-3.48Z"/><path id="path7985" class="cls-4" d="M514.68,226a8.73,8.73,0,0,0,2.77,1.93,23.54,23.54,0,0,1,4.52-.59,6.82,6.82,0,0,1,1.58-.67,3.62,3.62,0,0,0,.11-1,28.45,28.45,0,0,0-3.37.31,4.51,4.51,0,0,0-2.06-.85,8.36,8.36,0,0,0-3.55.89Z"/><path id="path7987" class="cls-4" d="M528.24,228.55a27,27,0,0,1,2.79-.82,5.65,5.65,0,0,1,2.36.53c-.25.62-.87.78-1.31,1.18a8.64,8.64,0,0,0-3.39-.32l-.45-.57Z"/><path id="path7989" class="cls-4" d="M524.16,242.9c1.21-1.1,1.28-.33,1.73.54-.93,1.22.06,2.86.27,4.2-.33,1.09-.22.74-1.38,1.05a4.1,4.1,0,0,1-.11-2.68,6.81,6.81,0,0,0-.51-3.11Z"/><path id="path7991" class="cls-4" d="M521.28,248.75c.39-.74.92-.87,1.57-1.3.92.2.57,1.09.72,1.39a4.06,4.06,0,0,1-1.45.6l-.84-.69Z"/><path id="path7993" class="cls-4" d="M498.55,236c.31-.61,1-.5,1.38-.73.73,1.16.21.95-.15,1.85C498.14,237.29,499.26,236.69,498.55,236Z"/><path id="path7995" class="cls-4" d="M496.69,239.26a13.17,13.17,0,0,0-3.41,1.78c.39.44.14.82.22,1.34,1.4,0,2.52-.84,3.73-1.47C498.24,240.08,496.81,239.63,496.69,239.26Z"/><path id="path7997" class="cls-4" d="M476.91,209.73c1.35,2.31,2.08,4.91,3.31,7.27a4.83,4.83,0,0,0,1.75,1.5c1.47-.41,1.68.44,2.33,1.67a9.38,9.38,0,0,0,.24,2.93q1.09,2.09,2.18,4.17c1.25,1.47,1.35,3.12,2,4.74,1.73-.55,2.28-2,2.94-3.3-.5-1.39-.08-2.73,0-4.21-.67-.13-.81-.53-1.23-.81-.18-2.28-.63-4.42-.76-6.67a50,50,0,0,0-3.62-6.31,5.92,5.92,0,0,1-2.61-.08,8.21,8.21,0,0,0-2.39-1.81,3.51,3.51,0,0,0-2.57-.91C477.7,208.32,477.49,208.92,476.91,209.73Z"/><path id="path8003" class="cls-4" d="M463.68,211.5a7,7,0,0,1,3-1.71,17.19,17.19,0,0,0,2,.53c.53.66-.35.9-.48,1.22a17.42,17.42,0,0,0-4,.65l-.52-.69Z"/><path id="path8005" class="cls-4" d="M441,214.53c.15-.24.29-.48.44-.71,1.06.34,1.28.92,1.75,1.81a8.19,8.19,0,0,0,.11,2.68c-.37.33-1,0-1.27,0,0-1.75.15-2.67-1-3.8Z"/><path id="path8007" class="cls-4" d="M474.7,193.84c.77-1.62,1.38-3.16,2-4.76a7.08,7.08,0,0,1,2.72-.94c.19,2.14-2.82,3.89-3.91,5.74Z"/><path id="path8009" class="cls-4" d="M487.43,203.1a15.3,15.3,0,0,0,.77-3.14c.67-1,.91,0,1.47,0-.17,1.21-.31,2.19-.52,3.32-.67.3-1-.12-1.72-.22Z"/><path id="path8011" class="cls-4" d="M467,225.21c-.43-1.45.54-.88.87-1.42,1.07-.11,1.41.34,2.18.79-.22.71-.72.66-1.19,1.1-.91.38-1.09-.11-1.86-.47Z"/><path id="path8013" class="cls-4" d="M483.62,235.16c-.08.92,1,1.47,1.69,2,1.28-.67,1.23-1.36,1.43-2.19-.49-1.73-1-.44-1.68-.73A5.4,5.4,0,0,0,483.62,235.16Z"/><path id="path8015" class="cls-4" d="M515.72,216.92c-1.23-1.14.53-1.44.73-2,.93-1.11,1.14.1,1.85.16a15.58,15.58,0,0,1-1.6,2.77c-.24.36-1.06.41-1.21.47s.21-1.27.23-1.41Z"/><path id="path8017" class="cls-4" d="M547.71,240.88c0-1.62.56-1.35,1.69-1.37,1,.57.38,1.1.61,1.77C548.86,241.78,548.5,241.19,547.71,240.88Z"/><path id="path8019" class="cls-4" d="M543.82,244.2l.63-.33a5.1,5.1,0,0,1,.92,1.45l-1.14.59c-.86-.88-.39-.7-.41-1.71Z"/><path id="path8021" class="cls-4" d="M526.78,277.72c-.84-.91.15-1.58.47-2.18,1.28-.32,1.44.31,2,1.37-.64,1.62-1.16,1.44-2.47.81Z"/><path id="path8023" class="cls-4" d="M421.25,219.54c.43-1,.65-1.65,1-2.63,1.34.49,1.39,1.14,1.82,2.26a5.61,5.61,0,0,1-1.82,1.43c-.51-.22-.67-.68-1-1.06Z"/><path id="path8025" class="cls-4" d="M430.31,188.27c-.22-2.77,1.45-4.72,2.8-6.93a4.72,4.72,0,0,0,1.25-1.3c2.49,1.5.64,3.62-.22,5.42a35.69,35.69,0,0,1-3.67,4.66c-.54-.81-.23-.92-.16-1.85Z"/><path id="path8027" class="cls-4" d="M438.21,184.94c1.16-3.18,2.7-7.15,5-9.52a11.67,11.67,0,0,1,2.83-2,3.54,3.54,0,0,1,2.41-.61c.69,1.3,0,1.53-1,2.75a10.7,10.7,0,0,1,.25,3.25c-.33,3.21-4.06,4.4-6.12,6.42a2.8,2.8,0,0,1-3.39-.32Z"/><path id="path8029" class="cls-4" d="M450.86,175.91c1.22-2.24,3.42-3.77,5.25-5.32l.67,1.27a67.18,67.18,0,0,1-5.07,5.06c-.59-.08-.57-.67-.85-1Z"/><path id="path8031" class="cls-4" d="M446.82,195.87c-.58-.25-.5-1-.72-1.39.22-1.39.51-1.28,1-2.43.82-.45.72.36,1.1.55a8.92,8.92,0,0,0-.13,3.76C447.47,196.7,447.18,196,446.82,195.87Z"/><path id="path8033" class="cls-4" d="M460.28,189.32c1.56-.89,3.66-.85,5.14-1.24a10.17,10.17,0,0,1-.42,1.34,6.3,6.3,0,0,0-3.31.45c-.67.75-1.13-.44-1.41-.55Z"/><path id="path8035" class="cls-4" d="M441.2,191.26c.8-1,1.6-2,2.3-3,.76.4.93.91,1.43,1.5a8.05,8.05,0,0,1-2.06,2.2A2.86,2.86,0,0,1,441.2,191.26Z"/><path id="path8037" class="cls-4" d="M444.65,202.48c-.22-.78.35-1.13.54-1.73.43.3.74.59,1.1.87.76.53-.08,1-.1,1.34C445.53,203.38,445.14,202.63,444.65,202.48Z"/><path id="path8039" class="cls-4" d="M456.07,185.57c-.57-.68.27-.87.36-1.15.76-.18,1.06.26,1.67.41.23.53-.32,1-.43,1.35-.83.16-.76-.29-1.6-.61Z"/><path id="path8041" class="cls-4" d="M449.62,163.7a20.2,20.2,0,0,0,.95-3.4c.81-1,1.24.17,1.73.23.46.95.23,1-.29,1.92-.43.71-.66,1-1.05,1.67C450.4,164.85,450.09,163.85,449.62,163.7Z"/><path id="path8043" class="cls-4" d="M477.46,170.2c.55-1.21,1.42-.73,1.83-.8a5.83,5.83,0,0,1,.73,1.71c-.59.75-1.21.63-1.83.8-.66-.62-.51-.88-.73-1.71Z"/><path id="path8045" class="cls-4" d="M464.71,201.47c-1-.8.45-.77.68-1.16a7,7,0,0,1,1.3,1.26c-.07.59-.67.56-1,.84-.78-.23-.62-.6-1-.94Z"/><path id="path8047" class="cls-4" d="M485.76,160.56c.2-1,.87-1.23,1.5-1.75.88.31,1.11.81,1.62,1.56.28.82-.43.9-.61,1.29C486.94,162.05,486.72,161.48,485.76,160.56Z"/><path id="path8049" class="cls-4" d="M484.16,146.44c-1.16-1.79-.54-2.84.62-4.35a37.61,37.61,0,0,0,2.43-3,4.87,4.87,0,0,1,2-.23,4.61,4.61,0,0,1,.23,2.29c-1.59,1.83-2.93,3.76-4.55,5.44l-.71-.11Z"/><path id="path8051" class="cls-4" d="M525.76,194.31c-1-1,.07-1.06.1-1.66,3.26-.36,6.27-2.64,9.23-4.19a24,24,0,0,1,4.93-2.25c-1.08.92-2.27,2.26-3.38,3.37a7,7,0,0,1-2.95,2.35,21.89,21.89,0,0,0-4.31,1.61c-.67.26-.34.89-.55,1.41.25,1-.59.69-1,1.17l.52,1c.17,1-.19,1.14-.66,1.79-.86,0-1.32-.56-1.93-.92-.3-1.23.19-1.68.78-2.5C526.77,194.84,526,194.66,525.76,194.31Z"/><path id="path8053" class="cls-4" d="M436.66,250.23c-.78-.93.32-1,.48-1.53,1.23-.55.88,0,1.67.41-.11.83-.35,1.57-.53,2.37-1-.16-1.07-.43-1.62-1.25Z"/><path id="path8055" class="cls-4" d="M422.94,266.74c.35-.59.86-.77,1.32-1.18,1,.11,1.17.71,1.62,1.57a8.3,8.3,0,0,0-1.83,1.12,3.23,3.23,0,0,1-1.11-1.51Z"/><path id="path8057" class="cls-4" d="M474.8,227.23c-.8-.51.12-.84.17-1.21a3.21,3.21,0,0,1,2.93-.25c.64,1-.2,1.36-.66,2.12C475.62,228.65,475.61,228,474.8,227.23Z"/><path id="path8801" class="cls-4" d="M316.37,369.77c-.32-1.69.29-1.23,1.53-1.31C317.92,370.1,317.85,369.74,316.37,369.77Z"/><path id="path8803" class="cls-4" d="M314.94,365.07c.19-.68.86-.67,1.33-1,1.31,1.27-.15,1.16-.24,1.82-.94,1.11-1-.72-1.09-.79Z"/><path id="path8805" class="cls-4" d="M300.28,360.48c.31-.45.84-.55,1.26-.83.48.35.61.93.91,1.4-.55.54-1.07,1.07-1.6,1.51C299.93,361.82,300.46,361.14,300.28,360.48Z"/><path id="path8807" class="cls-4" d="M303,378.65c.13-.34,1.08-.4,1.14-.42.74.13.55.79.69,1-1.06.73-.52.19-1.14.42-.4-.2-.46-.67-.69-1Z"/><path id="path8809" class="cls-4" d="M282.73,386.17c.08-.64.71-.59,1.06-.89.76.09.69,1,.84,1.26-.31.46-.85.56-1.27.84Z"/><path id="path8813" class="cls-4" d="M357.16,386.23c.25-.43.75-.5,1.13-.76.41.21.46.67.69,1a16.46,16.46,0,0,1-1.5,3c-.27-1.24-.14-2.1-.32-3.24Z"/><path id="path8815" class="cls-4" d="M367.57,391.17c-.47-.32-.27-.76-.36-1a4.7,4.7,0,0,1,2.56-.32c.39.68-.06,1-.1,1.76a3.67,3.67,0,0,1-2.1-.44Z"/><path id="path8817" class="cls-4" d="M375.29,396.5c-.12-.75.18-.76.31-1.36.47-.67,1.13-.25,1.68-.37.18,1-.2,1.22-.5,2-1.13.84-.89-.15-1.49-.24Z"/><path id="path8819" class="cls-4" d="M392.52,364.67c.21-.6.85-.79,1.26-1.17a4.18,4.18,0,0,1,2.26,1.71A4.13,4.13,0,0,1,394,366.8C391.94,366.68,392.29,366.12,392.52,364.67Z"/><path id="path8821" class="cls-4" d="M337.72,345.5c-.44-.64.29-1.19.38-1.56.93-.53,1.08-.06,1.82.23.48.75,0,1.27-.23,1.83C338.87,346.19,338.56,345.83,337.72,345.5Z"/><path id="path8823" class="cls-4" d="M288.69,343.22a4.25,4.25,0,0,1,1.42-.23c.43.26.51.76.76,1.13-.31.83-1,.4-1.41.57C288.23,345,288.85,343.52,288.69,343.22Z"/><path id="path8825" class="cls-4" d="M295.79,347.68c0-.63.55-.75.79-1.1.72.13.73.53,1.1.79a5.19,5.19,0,0,1-.73.89c-.81.95-.71-.36-1.16-.58Z"/><path id="path8827" class="cls-4" d="M280.61,347.62a5.76,5.76,0,0,0,.92-1.17c1,.15,1.35.73,2,1.18-.4.84-.95.9-1.66,1.38-1.14-.57-1-.54-1.32-1.86Z"/><path id="path8829" class="cls-4" d="M250.27,400.94,252,400c.8,0,.41,1.09.43,1.14a6.25,6.25,0,0,1-1.67,1c-.26-.58-.27-.69-.5-1.27Z"/><path id="path8831" class="cls-4" d="M358.05,331.63l2.42-.58c.27.45,0,.92,0,1.34-.8.61-1.67.07-2.23,0l-.21-.74Z"/><path id="path8833" class="cls-4" d="M367.36,401.84c-.44-.6-.1-.49-.22-1.08.8-.61,1.29-.45,2.08-.58.19.36.37.72.56,1.07C368.78,402,368.45,401.82,367.36,401.84Z"/><path id="path8835" class="cls-4" d="M362.85,409.81l.94-.49c1.49-.52.59.86.69,1-.27.41-.79.3-1.14.43-.16-.31-.33-.62-.49-.94Z"/><path id="path8837" class="cls-4" d="M331.39,427.46c-.83-.78.34-.56.46-.75,1.16-.41,1.07.91,1.23,1.06C332.13,428.94,332.16,427.6,331.39,427.46Z"/><path id="path8839" class="cls-4" d="M313.63,423.13c0-1.06.71-.78,1.19-1.31,1.06.33,1.25.76,1.72,1.66-.53.82-1.43.7-1.94.84-.94.21-.69-.85-1-1.19Z"/><path id="path8841" class="cls-4" d="M313.08,437c-.33-1.29,0-.94.77-1.77s.91.28,1.43.44c-.6,1.42-1,1.3-2.2,1.33Z"/><path id="path8843" class="cls-4" d="M303.77,415c1.36-1.55.91-.34,1.62.17.53,1.52-.59.66-.86,1-.42-.26-.51-.75-.76-1.13Z"/><path id="path8845" class="cls-4" d="M299.2,427.1a13,13,0,0,1,2.88-1c.62.66.3,1.39.31,1.89-.81.66-1.47.29-2.09.24C298.62,428.28,299.62,427.53,299.2,427.1Z"/><path id="path8847" class="cls-4" d="M360,428.49c.87-.09.83-.91,1.19-1.31,1.49-.53,1.26.23,1.84.92-.16,1.27-.91,1.29-1.72,1.92C359.8,429.57,360.46,429.62,360,428.49Z"/><path id="path8849" class="cls-4" d="M346.2,455.12c.48-.81,1.17-.88,1.94-1.18.44,1,0,1.48-.24,2.16C346.7,456.26,347.05,455.61,346.2,455.12Z"/><path id="path8851" class="cls-4" d="M381.7,381.74c.71-.53,1,.32,1.43.44.17,1.28-.46,1.51-1.38,2.26-1.48-1.31-.8-1.76-.05-2.7Z"/><path id="path8853" class="cls-4" d="M359.7,388.82c.6-1,1.09-.21,1.55-.3.88.75-.33.79-.46,1.09C360,390.31,360.06,389.08,359.7,388.82Z"/><path id="path8855" class="cls-4" d="M370.67,387.34c0-.76,1-.39,1.14-.43,1.1.46,0,.71-.05.88-.33.61-1.11.3-1.34.36.08-.27.17-.54.25-.81Z"/><path id="path8857" class="cls-4" d="M330.07,388.14a5.22,5.22,0,0,1,1.67-.7c1.52.39.6,1.14.84,1.6l-1.34.7c-1.27-.59-.84-.37-1.17-1.6Z"/><path id="path8859" class="cls-4" d="M414.07,432.56c1.26-1,.78-.73,1.77.44.07.87-.74.72-1.13,1.1-1.08-.35-.46-1.12-.64-1.54Z"/><path id="path8861" class="cls-4" d="M395.69,445.58c.15-.61.86-.44,1.2-.63.56.63.93.9,1.51,1.6-.26,1.44-.69,1.55-2,2.26-1.33-1.16-1-1.8-.66-3.23Z"/><path id="path8863" class="cls-4" d="M399.11,444.64c.08-1.34.58-.19.87-.28,1.08,1.07-.27.87-.44,1.42-1.38-.32-.51-.07-.43-1.14Z"/><path id="path8865" class="cls-4" d="M415.18,437.94a5,5,0,0,1,1.81-.77c.76,1.11-.34.87-.58,1.49-1.05,1-.89-.52-1.23-.72Z"/><path id="path8867" class="cls-4" d="M437.57,422.15c-.48-.52,0-1.27,0-1.69.85-1,1.44-.6,2.21-.65.81.69.35,1.43.44,1.82C439,422.53,438.71,422.24,437.57,422.15Z"/><path id="path8869" class="cls-4" d="M431.56,422.05c-.63-.36-.33-1.21-.36-1.34.64-.09,1.38-.07,1.82-.1.92.62,0,1.06,0,1.55-.42,1-1.28-.09-1.42-.11Z"/><path id="path8871" class="cls-4" d="M423.61,400.34c.45-.52,1.1-.34,1.61-.5.8.31.12,1,.15,1.28-.28.57-1,.39-1.4.56C423.42,401.35,423.72,400.75,423.61,400.34Z"/><path id="path8873" class="cls-4" d="M416.38,381.64c-.05-1.22.67-.65,1.13-1.1,1.05.42,1.28,1.1,1.93,2.06-.84.62-1.58,1.13-2.33,1.73C415.65,383.18,415.83,383,416.38,381.64Z"/><path id="path8877" class="cls-4" d="M375.36,422.68c1-.45,1.79-.11,2.7-.05.65.88.2,2.14.12,2.83-1.36.64-1.92.27-3-.49C374.6,423.82,374.94,423.74,375.36,422.68Z"/><path id="path8879" class="cls-4" d="M436,355.38c-.48-.88.26-1.35.37-1.9,1.22-.14.68-.1,1.83.57,1,.81.13,1.26.17,1.62C437.28,356.15,437,355.77,436,355.38Z"/><path id="path8881" class="cls-4" d="M456.87,407.63l1.32-1.38c.65.12.65.8,1,1.2-1.44,1.41-1.42.52-2.29.18Z"/><path id="path8883" class="cls-4" d="M457.82,429.94c.36-.42.22-1.22.3-1.69,1-.69,1.54-.27,2.5-.11a4.7,4.7,0,0,1,0,2.9C459.31,431.38,458.65,430.43,457.82,429.94Z"/><path id="path8885" class="cls-4" d="M440.29,449.16c.4-.63,1-.8,1.59-1.18.72.24.72.95,1.11,1.46-.4,1.19-1.47,1.46-2.53,2-.65-1-.23-1.3-.17-2.29Z"/><path id="path8887" class="cls-4" d="M474.4,384.5c-.19-.44.08-.82.11-1.08.61-.73,1.31-.34,1.95-.51l.77,1.47C476,385.69,475.43,385.49,474.4,384.5Z"/><path id="path8889" class="cls-4" d="M393.77,358.91c-.35,1,.57,1.09.84,1.61a4,4,0,0,0,2-.71,12,12,0,0,0,1.22-3.54,5.16,5.16,0,0,0-2.39-1.64c-1.52,1.42-2,2.29-1.68,4.28Z"/><path id="path8891" class="cls-4" d="M445.32,332.8c-.39-1,.06-.88.71-1.56.77-.35.93.61,1.3.85.08,1.74-.56,1.57-2,.71Z"/><path id="path8893" class="cls-4" d="M411.87,367.15c-.7-.13-.33-1.23-.36-1.34a3.26,3.26,0,0,1,2.07-.92c.62.34.23.93.29,1.21C413.19,367.19,413,367,411.87,367.15Z"/><path id="path8895" class="cls-4" d="M418.35,363.59c-.19-1.43-.4-1,1-1.23.91.1.59,1.12.63,1.2-.58.94-1.17,0-1.68,0Z"/><path id="path8897" class="cls-4" d="M472.8,433.85c.07-1.07.12-.91,1.25-1.5,1.18.25.73,1.38.77,1.47-1,1.35-1.18,1.28-2,0Z"/><path id="path8899" class="cls-4" d="M425.93,435.05c.63-.67,1.55-.45,1.94-.51.91,1.19,0,1.39-.43,2.1-1.58-.33-1.14-.63-1.51-1.59Z"/><path id="path8901" class="cls-4" d="M390.24,468.69c-1.93-.12-1.34-1.71-.53-3a25.16,25.16,0,0,1,1.57-2.86c1.27.1,1.48.82,2.12,1.78,1.26,1,.92,1.41.66,2.56-.81-.07-1.28-.19-2-.3.5,1.78-.7,1.61-1.79,1.78Z"/></g><path class="cls-5" d="M854.51,592.28c-23.37-23.37-35.28-51.77-32.6-72.85a28,28,0,0,0-8.17-23.24L765,447.42a19.36,19.36,0,0,0-27.39,0L581.29,603.7a19.37,19.37,0,0,0,0,27.39l48.78,48.77A28,28,0,0,0,653.3,688c21.09-2.68,49.48,9.22,72.86,32.6s35.28,51.77,32.6,72.86a28,28,0,0,0,8.18,23.23l48.77,48.78a19.37,19.37,0,0,0,27.39,0L999.38,709.23a19.36,19.36,0,0,0,0-27.39l-48.77-48.78a28.08,28.08,0,0,0-23.24-8.18C906.29,627.57,877.89,615.66,854.51,592.28Z"/><path class="cls-6" d="M853.57,827.64,804.8,778.87a28,28,0,0,1-8.18-23.24c2.68-21.08-9.22-49.48-32.6-72.85s-51.77-35.29-72.86-32.6A28,28,0,0,1,667.93,642l-48.78-48.78a19.37,19.37,0,0,1,0-27.39L581.29,603.7a19.36,19.36,0,0,0,0,27.38l48.78,48.78A28,28,0,0,0,653.3,688c21.08-2.69,49.48,9.22,72.86,32.6s35.28,51.77,32.6,72.86a28,28,0,0,0,8.18,23.23l48.77,48.78a19.37,19.37,0,0,0,27.39,0L881,827.64A19.36,19.36,0,0,1,853.57,827.64Z"/><path class="cls-7" d="M835.52,845.7l-48.78-48.77a28,28,0,0,1-8.17-23.24c2.68-21.08-9.23-49.48-32.6-72.86s-51.78-35.28-72.86-32.6a28,28,0,0,1-23.24-8.18L601.1,611.28a19.36,19.36,0,0,1,0-27.39L581.29,603.7a19.37,19.37,0,0,0,0,27.39l48.78,48.77A28,28,0,0,0,653.3,688c21.09-2.68,49.48,9.22,72.86,32.6s35.28,51.77,32.6,72.86a28,28,0,0,0,8.18,23.23l48.77,48.78a19.37,19.37,0,0,0,27.39,0l19.81-19.81A19.37,19.37,0,0,1,835.52,845.7Z"/><path class="cls-7" d="M726.16,720.64c23.35,23.35,35.26,51.71,32.61,72.79l37.86-37.87c2.65-21.07-9.25-49.43-32.61-72.78s-51.71-35.26-72.78-32.61L653.37,688C674.45,685.38,702.81,697.29,726.16,720.64Z"/><path class="cls-8" d="M673.18,668.22,653.37,688c21.08-2.65,49.44,9.26,72.79,32.61s35.26,51.71,32.61,72.79l19.8-19.81c2.65-21.08-9.25-49.44-32.6-72.79S694.26,665.58,673.18,668.22Z"/><path class="cls-9" d="M900.84,726.68a33.91,33.91,0,0,0,0-47.8L703.47,481.52,632,553l58.14,58.13a36.45,36.45,0,0,0,26.9,10.66l30.09-.93L853,726.68A33.91,33.91,0,0,0,900.84,726.68Z"/><path class="cls-10" d="M868.35,711.37,768.17,611.2a18.62,18.62,0,0,0-13.74-5.45l-22,.68a36.45,36.45,0,0,1-26.9-10.66l-58.14-58.13L632,553l58.14,58.13a36.45,36.45,0,0,0,26.9,10.66l30.09-.93L852.62,726.26C865,738.64,884.88,740,898.4,728.89a33.36,33.36,0,0,0,8.82-11.14A33.92,33.92,0,0,1,868.35,711.37Z"/><path class="cls-11" d="M853,726.68a33.8,33.8,0,1,0,47.8-47.8L703.47,481.52l-47.8,47.8Z"/><path class="cls-12" d="M655.67,529.31,853,726.68a33.91,33.91,0,0,0,47.8,0L679.57,505.42Z"/><circle class="cls-13" cx="835.59" cy="661.43" r="16.7"/><path class="cls-14" d="M834.94,662.08a16.72,16.72,0,0,1-4.19-16.65,16.71,16.71,0,1,0,20.83,20.83A16.72,16.72,0,0,1,834.94,662.08Z"/><path class="cls-15" d="M662.41,461,476.19,374.25a14.64,14.64,0,0,1-4.11-23.71c10.59-10.36,22.52-25.39,23.7-41.28A14.78,14.78,0,0,1,506,296.19c13.49-4.32,35.75-14.8,45.91-38.44a14.63,14.63,0,0,1,14.55-8.89c11.72.9,30.4.94,44.85-5.61a14.68,14.68,0,0,1,20.6,10.57l37.82,201.55A5.18,5.18,0,0,1,662.41,461Z"/><path class="cls-15" d="M712.19,337.85l-17.82-85.27a5.38,5.38,0,0,1,8-5.73c9,5.13,23.53,10,43.78,6.31a5.39,5.39,0,0,1,6,7.19l-29.7,78.3A5.38,5.38,0,0,1,712.19,337.85Z"/><path class="cls-16" d="M669.76,456,558.1,250.75a14.84,14.84,0,0,0-6.23,7c-10.15,23.64-32.42,34.12-45.9,38.44a14.62,14.62,0,0,0-6.42,4.22L668,460.2A5.07,5.07,0,0,0,669.76,456Z"/><path class="cls-2" d="M265.63,217.24a4,4,0,0,1,1.52-4.4l.33,2c-1.11.5.29.93-1.85,2.43Zm-2.78-99.57c-1.16,1.08-.45.86-1.73,1,.2-1.82.05-1.73,1.73-1Zm35.35-8-.91-.57c-1.08-.68-1-.11-2.09-2-1.22-2.19-.88-2.57-1-4.35-.27-6-4.25-7.88-8.79-9.93-5.05-2.26-8.3-8.12-13.81-10.53-4.86-2.17-3.5-1.6-6.91-5.83-1.22-1.52-2.41-1.29-4.12-1.19-1.89.15-2.56.63-4.2-.87-1-.85-.69-1-1.4-1.68-1.33-1.31-1.58-.44-3.05-.07-2.76.65-.76-1.11-6.35-.55-1.91.18-.65.37-2.11-.39l-1.93-1.14c-2.05,1.46-1.06,2.35-2.71,3.34-1.9,1-8.1,1.15-9.34,1.93-2.12,1.14-1.47,2.28-3.25,3.48-1,.67-3.27,1.15-4.74,2A37.25,37.25,0,0,0,214,88.35a26.44,26.44,0,0,1-3.47,3.48c-5.71,4.82-3.15,4.67-5.94,7.64-3.23,3.3-5.8,3.77-8.44,7-2.37,2.82-2.24,4.08-2.47,7.44-.16,1.71-.68.27.3,2.27-2.15,1.53-1.57,3.84-2,6.14-.91,4.25-4.05,4.34-8.46,11-1.41,2-4,4.25-2.54,6.68,1.23,2.16,3.4.68,5.13-.22.84-.46-.18-.06,1-.38.09-.05,1.18-.25,1.46-.29,2.73-.29,2.78.75,4,2.89.84,1.51-2.33,4.25-3.51,5.71-1.57,1.88-2.8,3.83-4.82,5.33-2.57,2.06-2.16,1.05-3.66,3.45,2.32,2.31,6,.31,8.7,1.91,1.89,1.14,1.7,1.59,4.18.92s2.68-.76,4.45,1.43c2.71,3.37,1,5.95-2.29,8.27-4,2.69-3.65,1.32-6.06,6.14.75,1.06.21.6,1.14,1.34,3.62,3.13,5.85-3.64,10.26-5.91,3.47-1.79,6.38,2.48,9,4.12,2.49,1.51,4.73,2.06,4,6.22-.21,1.44-1.32,2.35-2.18,3.49-2.17,3-3.91,3.51-2.73,7.38,1.69.11,2.63.81,4.06,0,1.94-1.11,1.75-1.71,3.22-2.7,3.79-2.46,2.49-7.21,10.21-.63,4.89,4.18,7.47.69,7.36,11.45a16.46,16.46,0,0,1-.3,1.8c-1.6,7.27.64,5,.9,8,1.41-.66.82-.44,2-.55a22.15,22.15,0,0,0,2.06-8.3l1.31-7c3-.23,15.19-.89,16.81,2,2.16,3.69,2.41,5.49,3.69,9.09.79,2.26,1.78,3,1.3,5.13-.81,4,2.11,11.94,5.5,9.94,3-1.71,2.43-4.4,1-7-1.1-2.13-4.37-7.58-3.76-10.71l.91-3.45c1.05-4.73,2.92-6.17,6.88-8.48,2.77-1.62,5.35-2.79,8.12-1.47,3.53,1.69,3.8,5.88,6.75,6.45.14,0,2.23.07,2.57.09,1.92-5.61.23-9-2.08-14.63-1.19-2.9-.38-2.66-1.11-5.05,2.38-1.33,3.53-.89,5.77-.79a5.94,5.94,0,0,0,4.07-1.06c3.36-1.71,5-3.67,2.74-7.7-3.18-5.61-2.33-3.57.69-14.6.71-2.56,3.47-4.13,6.19-5.68l3.73,2.6c4.77,3.61,7.14-.29,7-1.57s-1-1.27-2.33-1.9c-4.55-2.21-10.14-9.75-3.78-13.4,1.93-1.07,3.38-.23,5.56-1.45,1.7-1,1.18-3,.41-4.32-1.07-1.88-3.51-2.56-5.3-3.73-7.14-4.94-4.71-.4-10.37-9.35A13.35,13.35,0,0,0,298.2,109.72Z"/></g></svg>