<svg xmlns="http://www.w3.org/2000/svg" viewBox="0 0 293.5 112.94"><defs><style>.cls-1{fill:#f6a52b;fill-rule:evenodd;}.cls-2{fill:#eb6155;}</style></defs><title>objetivo</title><g id="Capa_3" data-name="Capa 3"><path class="cls-1" d="M50.27,29c.41.09.67.18.94.21A7.29,7.29,0,0,1,54.78,31a11.61,11.61,0,0,1,2.31,2.86c3.28,4.66,3.65,11.32,2.34,16.7A31.34,31.34,0,0,1,55,61.22c-2.85,4.12-8.49,5.37-13.27,5.36a2.3,2.3,0,0,1-2.2-1,1.16,1.16,0,0,1-.18-.53,13.33,13.33,0,0,1,0-3,31.36,31.36,0,0,0-.06-4.33c0-1.68.2-3.35.18-5,0-2.47-.17-4.94-.18-7.42,0-4.8-.43-9.7-.15-14.49a71.46,71.46,0,0,0,.24-10.65,1.59,1.59,0,0,1,1.1-1.66c2.1-.29,4.12.43,6.24.34,2.44-.1,4.19-.34,6.43.72,3.91,1.88.89,6.1-1.17,8.06C51.49,28.07,50.9,28.48,50.27,29Zm-2,34,.18.07a14.35,14.35,0,0,0,2.06-1.54c5.08-5.36,8.11-16.06,5.69-23.14a16,16,0,0,0-4.83-7A2.69,2.69,0,0,0,50,30.81a6.64,6.64,0,0,0-1.72.1.69.69,0,0,0-.65.82C48.56,42.1,47.76,52.54,48.23,62.94Zm0-42.19c-.11,2.08-.23,4.26-.35,6.52a4.78,4.78,0,0,0,.49-.23,11.18,11.18,0,0,0,3.05-3.23,2.15,2.15,0,0,0-.1-2.66,2.35,2.35,0,0,0-1.63-.79A4.62,4.62,0,0,0,48.23,20.75Z"/><path class="cls-1" d="M139.65,27.43c-1.12-.11-1,31.45-.78,34.48.09.94.31,1.87.48,2.81.11.64-.39,1-1.26,1.16s-2,.36-3,.51a5.54,5.54,0,0,1-.91,0,17,17,0,0,1-2.26-.08,1.61,1.61,0,0,1-1.26-1.48,17.32,17.32,0,0,1-.12-2.17c-.31-6.15-.31-12.32-.14-18.48.16-6,.88-12,.62-17.95a1.19,1.19,0,0,1,1.42-1.11l2.45.33c.33,0,.66.1,1,.16a3.09,3.09,0,0,0,.6.08,10.35,10.35,0,0,1,2.65.33.43.43,0,0,1,.39.54c0,.3,0,.59,0,.89Z"/><path class="cls-1" d="M140.39,18.39c.11,1.06.23,2.12.34,3.18v.15c0,.85-.18,1.07-1,1.13-2,.12-4,.2-6.07.19a1,1,0,0,1-1-.51,3.23,3.23,0,0,1-.53-2,27.48,27.48,0,0,0-.13-3c0-.47-.29-1.06.29-1.37,2.16-1.15,5.61.42,7.85.76a.47.47,0,0,1,.3.28c.08.38.1.77.15,1.15Z"/><path class="cls-1" d="M60.22,52.88a2.66,2.66,0,0,1,.45-1.27,1.25,1.25,0,0,1,1.13-.38c.65.07,1.31.17,2,.27s.75.37.48.79c-1.14,1.77-1.14,4.27-.83,6.27a15.8,15.8,0,0,0,1.14,4.34,1.74,1.74,0,0,0,2.8.28c4.06-3.92,2.87-11.48,3.38-16.54.2-2,.15-4.17.2-6.21.1-4.28.14-8.54-.14-12.81-.2-3-.21-5.92-.58-8.88a1.32,1.32,0,0,1,1.43-1.6c.57,0,1.13.15,1.7.2s1.15,0,1.72.07a7.35,7.35,0,0,1,.82.11c.74.15,1.48.3,2.21.48.52.12.67.54.69,1,.22,4.44.35,8.87.34,13.32,0,3.59-.71,7.13-.77,10.73a67.63,67.63,0,0,1-2.63,15.78c-1.35,5.26-6.89,10.8-12.12,6.59a9,9,0,0,1-1.85-2.5,10.62,10.62,0,0,1-1.49-5.58A28.27,28.27,0,0,1,60.22,52.88Z"/><path class="cls-1" d="M119.42,22.28c-.23,0-.06,17.71-.06,19.31a167.3,167.3,0,0,0,.89,19.77c.1.89.18,1.77.29,2.65a7.34,7.34,0,0,0,.24.89.75.75,0,0,1-.57.89c-.71.12-1.43.21-2.14.31a17.72,17.72,0,0,1-2.86.35,5.13,5.13,0,0,1-2.37-.34c-.68-.36-.74-1-.88-1.61-.68-3-.24-6.63-.34-9.74-.12-3.75-.26-7.49-.36-11.24-.19-7.13-.4-14.36-.18-21.5,0-.57,0-.66-.6-.62a50.54,50.54,0,0,0-7.22,1.28,1.29,1.29,0,0,1-1.26-.59,8.49,8.49,0,0,1-.49-1.39c-.26-1,1.07-1.14,1.75-1.19,1.12-.08,2.24.08,3.36,0s2.14-.3,3.22-.46a34.29,34.29,0,0,1,4.3-.49c2.64-.07,5.24.66,7.87.24a9.51,9.51,0,0,1,2.55-.19,5,5,0,0,1,2.32,1.13.73.73,0,0,1-.13,1.1c-.4.27-.79.54-1.2.79a1.58,1.58,0,0,1-1.48.09,11,11,0,0,0-2-.44c-.59-.09-1.18-.06-1.77-.14s-.73-.09-.87.41a6.18,6.18,0,0,0-.13.75Z"/><path class="cls-1" d="M158.94,55.07c.07-.5.18-1,.21-1.5.37-5.47.65-10.93,1.5-16.35s1.93-11,2.46-16.59c0-.34,0-.83.19-1a4.26,4.26,0,0,1,1.39-.49,2,2,0,0,1,.64,0,1.33,1.33,0,0,1,1,1c0,.67-.11,1.33-.2,2-.77,5.38-1.14,10.72-1.48,16.14-.3,4.7-.67,9.39-.81,14.08-.08,2.75-.73,5.6-.31,8.34a3.64,3.64,0,0,1-.48,2.75c-.08.12-.21.2-.3.32s-.31.46-.45.7-.18.45-.34.54a4.63,4.63,0,0,1-2.63,1,1.85,1.85,0,0,0-1.2.28,2.52,2.52,0,0,1-1,.24c-.48.08-1,.1-1.43.18a1.65,1.65,0,0,1-1.79-1c-.24-.52-.42-1.07-.62-1.62a113.3,113.3,0,0,1-4.76-16.73c-1-5.07-2.53-10-3.36-15.09-.58-3.55-.73-7.15-1.22-10.71a1.5,1.5,0,0,1,1.1-1.34c.94-.2,1.91-.29,2.86-.42.32,0,.64-.07,1-.12a13.13,13.13,0,0,1,1.76-.27c.52,0,1.07-.52,1.56,0a1.21,1.21,0,0,1,.36.73,72.94,72.94,0,0,0,2,16.83c1.2,5,2.34,10,3.51,15,.24,1,.45,2,.68,3.06Z"/><path class="cls-1" d="M91.57,32.86c1.06-.1,2.07-.16,3.07-.3a1.84,1.84,0,0,1,1.26.26c.41.23.86.41,1.26.65a.89.89,0,0,1,.39.51,1.62,1.62,0,0,1-.15.66l-.05,0c-1.18,1.65-3.84.5-5.49,1.08a1,1,0,0,0-.69,1.06c0,1.28-.07,2.56-.11,3.85-.06,1.88-.13,3.77-.19,5.65,0,.34,0,.67,0,1,0,1.9-.08,3.79-.1,5.69a36.64,36.64,0,0,0,.08,4.32c.12,1.21.09,2.44.11,3.66,0,.57.16.68.72.55s.89-.14,1.33-.24a6.08,6.08,0,0,0,.72-.24,2.19,2.19,0,0,1,1.45.05c.53.22,1,.47,1.57.72s.78.45.62,1a.65.65,0,0,1-.33.39c-4,1.22-8,2.46-12,3.33a.9.9,0,0,1-.63-.16c-.5-.41-.95-.87-1.44-1.29a1.32,1.32,0,0,1-.55-1.1c.18-2.88.08-5.69,0-8.58A287.6,287.6,0,0,1,84,20.67c.1-1,.43-1.56,1.76-1.18a2.07,2.07,0,0,0,.6,0c1.81,0,3.63,0,5.43,0,1,0,2,0,3,0a7,7,0,0,1,2.65.21,9.32,9.32,0,0,1,1.51.91.44.44,0,0,1,.09.69c-.46.51-.93,1-1.43,1.51a.46.46,0,0,1-.47,0c-1.37-.88-2.86-.58-4.33-.45-.17,0-.39.4-.44.65-.16.85-.25,1.72-.36,2.59-.06.45-.1.9-.14,1.36-.1,1.08-.22,2.16-.28,3.24C91.53,31,91.57,31.89,91.57,32.86Z"/><path class="cls-1" d="M36.33,36.71c.08.64.15,1.29.2,1.93.31,3.67-.18,7.51-.32,11.19-.19,5.19-.9,9.9-3.69,14.35a4.34,4.34,0,0,1-2.4,1.95c-.2.06-.39.27-.59.27a7.52,7.52,0,0,1-1.5-.11q-1.43-.24-2.82-.57a6.63,6.63,0,0,1-1.66-.56,5.35,5.35,0,0,1-1.31-1.07C17.76,59.33,17.41,53,16.59,46.82a51.44,51.44,0,0,1,.14-16.52,43.77,43.77,0,0,1,4-10.78,1.62,1.62,0,0,1,1.7-.92c.24,0,.5-.05.75,0s.59.12.88.17a.57.57,0,0,0,.34,0c.62-.31,1.24,0,1.86,0s1,.05,1.51.12a4.94,4.94,0,0,1,1.34.31c.29.13.67.46.68.71a2.4,2.4,0,0,0,.7,1.45,20.32,20.32,0,0,1,2.27,3.27c.5,1.08,1,2.16,1.39,3.26A38.33,38.33,0,0,1,36.33,36.71Zm-3-.47a36.75,36.75,0,0,0-2.85-10.46,15.09,15.09,0,0,0-1-1.8,7,7,0,0,0-.88-1.07c-.16-.15-.44-.41-.64-.05a23.63,23.63,0,0,0-1.32,2.55c-4,9.67-2.52,20.63.24,30.41.44,1.53,1,3,1.47,4.54.17.51.33,1,.52,1.52a1.4,1.4,0,0,0,.31.39,1.74,1.74,0,0,0,.38-.33,17.06,17.06,0,0,0,2.25-5.48A54.08,54.08,0,0,0,33.34,36.24Z"/><path class="cls-1" d="M188.28,37.17c.08.64.15,1.29.2,1.93.31,3.67-.18,7.52-.32,11.2-.19,5.18-.9,9.89-3.69,14.34a4.33,4.33,0,0,1-2.4,2c-.21.06-.39.27-.59.28a8.36,8.36,0,0,1-1.5-.12q-1.42-.24-2.82-.57a6.84,6.84,0,0,1-1.67-.56,5.3,5.3,0,0,1-1.3-1.07c-4.48-4.76-4.83-11.11-5.65-17.27a51.73,51.73,0,0,1,.13-16.52,43.8,43.8,0,0,1,4-10.78,1.62,1.62,0,0,1,1.7-.92c.24,0,.5,0,.75,0s.59.12.88.17a.57.57,0,0,0,.34,0c.62-.31,1.24,0,1.85,0s1,0,1.52.11a5,5,0,0,1,1.34.31c.29.13.67.46.67.71a2.49,2.49,0,0,0,.7,1.45,20,20,0,0,1,2.28,3.28c.49,1.07,1,2.15,1.39,3.25A38.33,38.33,0,0,1,188.28,37.17Zm-3-.47a37.1,37.1,0,0,0-2.86-10.46,14.5,14.5,0,0,0-1-1.8,6.42,6.42,0,0,0-.88-1.07c-.15-.15-.43-.41-.63-.05a22.8,22.8,0,0,0-1.32,2.55c-4,9.67-2.53,20.63.24,30.41.43,1.53,1,3,1.47,4.54.17.51.33,1,.52,1.52a1.4,1.4,0,0,0,.31.39,1.74,1.74,0,0,0,.38-.33,17.06,17.06,0,0,0,2.25-5.48A54.07,54.07,0,0,0,185.29,36.7Z"/><path class="cls-2" d="M52.3,95.31a.74.74,0,0,1-.43-.14L33.67,81.39,15.48,95.17a.72.72,0,0,1-.91,0,.48.48,0,0,1,0-.77L33.67,79.92,52.73,94.35a.49.49,0,0,1,.05.77A.71.71,0,0,1,52.3,95.31Z"/><path class="cls-2" d="M52.3,96.21a1.89,1.89,0,0,1-1.12-.36L33.67,82.59,16.17,95.85a1.92,1.92,0,0,1-2.38-.12,1.31,1.31,0,0,1-.43-1.06,1.37,1.37,0,0,1,.57-1L33.67,78.72,53.42,93.66a1.4,1.4,0,0,1,.57,1,1.35,1.35,0,0,1-.43,1.06A1.83,1.83,0,0,1,52.3,96.21Z"/><path class="cls-2" d="M89.55,95.31a.74.74,0,0,1-.43-.14L70.92,81.39,52.73,95.17a.72.72,0,0,1-.91,0,.48.48,0,0,1,0-.77L70.92,79.92,90,94.35a.48.48,0,0,1,0,.77A.71.71,0,0,1,89.55,95.31Z"/><path class="cls-2" d="M89.55,96.21a1.84,1.84,0,0,1-1.11-.36L70.92,82.59,53.42,95.85A1.92,1.92,0,0,1,51,95.73a1.33,1.33,0,0,1-.43-1.06,1.37,1.37,0,0,1,.57-1L70.92,78.72,90.67,93.66a1.4,1.4,0,0,1,.57,1,1.31,1.31,0,0,1-.43,1.06A1.81,1.81,0,0,1,89.55,96.21ZM89.29,95Z"/><path class="cls-2" d="M126.8,95.31a.76.76,0,0,1-.43-.14L108.18,81.39,90,95.17a.72.72,0,0,1-.91,0,.48.48,0,0,1,.05-.77l19.06-14.43,19,14.43a.48.48,0,0,1,0,.77A.69.69,0,0,1,126.8,95.31Z"/><path class="cls-2" d="M126.8,96.21a1.86,1.86,0,0,1-1.11-.36L108.18,82.59,90.67,95.85a1.91,1.91,0,0,1-2.38-.12,1.33,1.33,0,0,1-.43-1.06,1.37,1.37,0,0,1,.57-1l19.75-14.94,19.74,14.94a1.37,1.37,0,0,1,.57,1,1.33,1.33,0,0,1-.43,1.06A1.86,1.86,0,0,1,126.8,96.21Z"/><path class="cls-2" d="M164.05,95.31a.76.76,0,0,1-.43-.14L145.43,81.39l-18.2,13.78a.72.72,0,0,1-.91,0,.49.49,0,0,1,.05-.77l19.06-14.43,19,14.43a.48.48,0,0,1,.05.77A.69.69,0,0,1,164.05,95.31Z"/><path class="cls-2" d="M164.05,96.21a1.86,1.86,0,0,1-1.11-.36L145.43,82.59,127.92,95.85a1.91,1.91,0,0,1-2.38-.12,1.33,1.33,0,0,1-.43-1.06,1.4,1.4,0,0,1,.57-1l19.75-14.94,19.74,14.94a1.37,1.37,0,0,1,.57,1,1.33,1.33,0,0,1-.43,1.06A1.86,1.86,0,0,1,164.05,96.21Z"/><path class="cls-2" d="M201.3,95.31a.76.76,0,0,1-.43-.14L182.68,81.39l-18.2,13.78a.72.72,0,0,1-.91,0,.49.49,0,0,1,.05-.77l19.06-14.43,19,14.43a.49.49,0,0,1,.06.77A.73.73,0,0,1,201.3,95.31Z"/><path class="cls-2" d="M201.3,96.21a1.86,1.86,0,0,1-1.11-.36L182.68,82.59,165.17,95.85a1.91,1.91,0,0,1-2.38-.12,1.37,1.37,0,0,1-.43-1.06,1.4,1.4,0,0,1,.57-1l19.75-14.94,19.74,14.94a1.34,1.34,0,0,1,.57,1,1.3,1.3,0,0,1-.43,1.06A1.84,1.84,0,0,1,201.3,96.21Z"/><path class="cls-2" d="M238.55,95.31a.71.71,0,0,1-.42-.14l-18.2-13.78-18.2,13.78a.72.72,0,0,1-.91,0,.49.49,0,0,1,.05-.77l19.06-14.43,19,14.43a.49.49,0,0,1,.06.77A.73.73,0,0,1,238.55,95.31Z"/><path class="cls-2" d="M238.55,96.21a1.86,1.86,0,0,1-1.11-.36L219.93,82.59,202.42,95.85a1.9,1.9,0,0,1-2.37-.12,1.34,1.34,0,0,1-.44-1.06,1.4,1.4,0,0,1,.57-1l19.75-14.94,19.74,14.94a1.34,1.34,0,0,1,.57,1,1.3,1.3,0,0,1-.43,1.06A1.84,1.84,0,0,1,238.55,96.21Z"/><path class="cls-2" d="M275.81,95.31a.71.71,0,0,1-.43-.14l-18.2-13.78L239,95.17a.72.72,0,0,1-.91,0,.49.49,0,0,1,.06-.77l19.05-14.43,19.05,14.43a.49.49,0,0,1,.06.77A.73.73,0,0,1,275.81,95.31Z"/><path class="cls-2" d="M275.8,96.21a1.89,1.89,0,0,1-1.11-.36L257.18,82.59,239.67,95.85a1.9,1.9,0,0,1-2.37-.12,1.3,1.3,0,0,1-.43-1.06,1.36,1.36,0,0,1,.56-1l19.75-14.94,19.74,14.94a1.38,1.38,0,0,1,.58,1,1.34,1.34,0,0,1-.44,1.06A1.82,1.82,0,0,1,275.8,96.21Z"/></g></svg>