<svg xmlns="http://www.w3.org/2000/svg" viewBox="0 0 1150.48 970.3"><defs><style>.cls-1{fill:#144e6f;}.cls-1,.cls-2,.cls-3,.cls-4{fill-rule:evenodd;}.cls-2{fill:#f6a52b;}.cls-3{fill:#34b7bf;}.cls-4{fill:#eb6155;}.cls-5{fill:#ff8828;}.cls-12,.cls-6{opacity:0.1;}.cls-7{fill:#e26403;}.cls-8{fill:#e5e5e5;}.cls-9{fill:#d1d3d4;}.cls-10{fill:#fff;}.cls-11{fill:#8c8c8c;}.cls-12{isolation:isolate;}.cls-13{fill:#211756;}.cls-14{fill:#ffd592;}.cls-15{fill:#1f1a27;}</style></defs><title>participacion-ilustracion copia 2</title><g id="Capa_3" data-name="Capa 3"><path class="cls-1" d="M321,647.67c10.37-39.39,21.22-78.65,30.76-118.26,1.18-4.91-1.39-8.24-6.74-9.06a5.12,5.12,0,0,1-1.93-.47c-12.15-7.17-25.63-11.24-38.84-15.53-11.11-3.6-13.41-3.39-19.57,6.82-4.43,7.35-9.64,14.23-14.14,21.53-3.32,5.41-5.87,11.29-9.11,16.74-6,10.15-12.52,20.06-18.52,30.23-11.69,19.78-20.86,40.89-31.19,61.39-6,11.83-14.24,22.31-20.42,34-4.8,9.08-5.53,21.93-14,28.14-7,5.14-14.18,10.27-21.85,14.33-3,1.61-8.57,1.89-11.2.13-4.72-3.15-9.63-7.72-11.61-12.81-1.72-4.43-.78-11,1.26-15.56,9.78-22,22.89-43.23,35.53-63.73,12-19.36,24.51-38.36,37-57.41q15-23,30.43-45.79c5.82-8.59,12-16.91,18.15-25.31,3.51-4.82,2.71-6.57-3.06-7.72S240.7,486.09,235,485.2c-11.54-1.79-11.58-1.57-15.35-15.95q-1-3.86-1.93-7.72c-.75-3.12,4.9-12.15,8.05-12.75a4,4,0,0,1,2.14.54,178.55,178.55,0,0,0,45.37,14.32c1.76.3,4.65-1.85,5.93-3.64,6.8-9.43,13-19.27,19.9-28.67,17.31-23.71,36.75-45.75,56.21-67.7,17.19-19.37,43.15-41,52.37-65.73,1.8-4.82,11.46-8.85,16.7-6.8,19.75,7.76,39.66,15.41,59.15,23.78,3.21,1.38,6,4,8.57,6.49a6.47,6.47,0,0,1,1.84,4.91c-.8,4.59-2.23,9.07-3.43,13.59-13.37,50.33-30.77,99.64-40.65,150.86-9.52,49.34-21.61,99-35,147.44-9.59,34.76-19.51,69.05-26.57,104.43-1.07,5.35-2.31,10.68-3.19,16.06-.56,3.52-.45,7.14-.93,10.68s-2.75,4.58-6.13,4.32c-6.75-.52-13.5-1.09-20.26-1.17-13.91-.17-27.13-4.17-40.59-6.85a37,37,0,0,0-4.89-.75c-8.72-.55-12.85-3.41-14-12.13a52.25,52.25,0,0,1,1.23-17.54C306,705.85,313.38,676.73,321,647.67Zm68.61-279.48c-1.8,1.44-2.72,1.92-3.3,2.67-8.26,10.64-16.36,21.39-24.72,31.95-9.41,11.87-20,22.79-27.91,35.89-3.11,5.17-7.9,9.3-11.36,14.29-4.15,6-7.69,12.47-11.53,18.7-2.51,4.05-2,5.88,2.62,7.5,6.82,2.39,13.74,4.45,20.57,6.81,4.55,1.58,9,3.47,13.52,5.16,2.87,1.07,5.81,2.89,8.67,2.81,4.93-.13,2.91-5,3.87-7.73a162,162,0,0,0,5.15-17.08c1.81-7.91,2.8-16,4.66-23.9,2.83-12,6.09-24,9.2-36q4.6-17.7,9.24-35.39C388.71,372.39,389,370.86,389.63,368.19Z"/><path class="cls-1" d="M905.3,227.47c1-.28,37,65.2,41.32,72,.65,1,2,1.66,2.53,2.72,4,7.64-21.42,18.31-26.21,19.42a9.7,9.7,0,0,1-10.41-4,33.62,33.62,0,0,1-1.68-3.34c-13.37-25-28-49.39-40.88-74.68-15.07-29.51-25-61.32-39.82-90.95-1.55-3.1-.5-6.58,3-7.78,18.37-6.19,36.24-18.18,55.39-6.06,15.4,9.75,23.22,38.2,12.46,54-1.11,1.62-1.59,3.66-2.39,5.51a2.32,2.32,0,0,1-.69,1c-1.85,1.21-1.32,2.75-.21,3.84,2.72,2.67,5.59,5.21,8.52,7.65,26.9,22.43,52.37,46.82,81.86,65.94,3,2,5.28,4.83,8.78,6.28,8.81,3.66-.7,17.31-8.32,14-6.41-2.8-11.26-9.87-16.69-14.18-7-5.6-14.76-10.29-21.89-15.77-11.53-8.87-23-18-34.32-27.08-1.32-1.06-2.49-2.31-3.77-3.41-2-1.75-4.12-3.45-6.19-5.17Zm-19.45-40.05.68,0a13.74,13.74,0,0,0,1.79-3.11,108.7,108.7,0,0,0,2.89-12.11,32.85,32.85,0,0,0,.23-9.94,29.36,29.36,0,0,0-4.54-12.52c-5-7.36-7.49-8.82-16-7.86-2.06.23-2.74,1.59-1.92,3.61.35.87.84,1.7,1.15,2.59,1.65,4.69,3.18,9.43,4.91,14.09,1.18,3.2,2.59,6.31,3.93,9.43C881.24,176.87,883.55,182.14,885.85,187.42Z"/><path class="cls-1" d="M732.34,812.76a11.35,11.35,0,0,1,4.88-3.22,5.37,5.37,0,0,1,4.9,1.64c2.09,1.94,4.08,4,6.09,6,1.61,1.62,1.65,3.25-.4,4-8.56,3.15-15.07,11.84-19.21,19.6-3,5.59-6.13,11.76-7.39,18-1.07,5.31,4.19,8.85,9,8.26,24.31-3,39.93-32.34,54.88-48.53,6-6.48,11.41-14.06,16.91-21,11.51-14.58,22.75-29.26,32.92-44.8,7.06-10.81,14.73-21.08,21.14-32.31,1.93-3.39,5.74-4.65,9.15-1.82,1.91,1.57,3.53,3.47,5.38,5.11s3.88,3.14,5.78,4.76a25.18,25.18,0,0,1,2.54,2.52c2.18,2.45,4.35,4.9,6.44,7.42,1.48,1.78.91,3.62-.24,5.32-10.82,16-21.93,31.68-33.58,47-9.42,12.42-21.08,22.89-30.64,35.22-14.31,18.44-32.16,33.37-50.3,47.87-18.4,14.72-52.08,19.49-59.24-8.77-1.16-4.58-.29-9,.09-13.48.73-8.64,4.41-16.3,9.42-23.25C723.27,825,727.83,817.23,732.34,812.76Z"/><path class="cls-1" d="M538.72,100.1c-.7.25-.82,7.6-.89,8.41-.17,1.74-.34,3.49-.49,5.23s-.83,4.2-.32,6c.56,1.92,1,3.85,1.67,5.75.52,1.56,3.49,4.63.88,5.68-.62.25-1.16.73-1.79,1-1.82.64-3.65,1.3-5.51,1.77a5.38,5.38,0,0,1-2.76,0,4.41,4.41,0,0,1-1.73-1.48,3.8,3.8,0,0,1-.48-1.35,361.1,361.1,0,0,1-8.6-36.3c-.71-3.59-1.42-7.17-2.19-10.74a119.66,119.66,0,0,1-2.24-14.58,1.51,1.51,0,0,1,1.36-1.75c.89-.17,1.8-.26,2.7-.42.7-.11,1.39-.29,2.09-.39.26,0,.55.13.81.1,1.4-.12,2.8-.23,4.19-.42.68-.09,1.36.76,1.33,1.59-.37,11.53,3.65,22.41,5.86,33.57.24,1.19.45,2.38.7,3.56.17.81.39,1.6.65,2.61.15-1.16.3-2.13.4-3.1.44-4.1,1.32-9.09.67-13.17a1.78,1.78,0,0,1,1.31-2.13,4.17,4.17,0,0,1,2.87.17c1.44.64,1.87,4.15,2.31,5.47q1.66,5,3.59,9.84a2.9,2.9,0,0,0,.73,1.05c0-.35,0-.7,0-1.05-.18-7-.19-13.92-.07-20.88q.09-5.34.28-10.66c.11-3-.35-6.8.55-9.66.12-.39.41-.87,1-.73a.53.53,0,0,0,.28,0c1.33-.6,2.7-.1,4.05-.14a37.67,37.67,0,0,1,4.11.18,1.06,1.06,0,0,1,1.05.88c.9,4.87-.49,9.86.25,14.77a72.77,72.77,0,0,1,.49,9.92c.13,6.92,0,13.81.54,20.72a147.57,147.57,0,0,1,.73,15.12,3.91,3.91,0,0,1-.66,2.7c-.67.75-1.83.88-2.66,1.37a8,8,0,0,1-4.26,1.46c-.37,0-.73.23-1.1.29a2.78,2.78,0,0,1-2.84-1.83,9.25,9.25,0,0,1-.43-4,18.06,18.06,0,0,0-1.11-6.19c-.69-2-1.41-4-2.18-5.89-.57-1.42-1.29-2.78-1.88-4.19-.47-1.14-.83-2.33-1.27-3.48-.32-.84-.71-1.65-1-2.49-.27-.69-.49-1.39-.73-2.08Z"/><path class="cls-2" d="M1042.5,508.16c18.85,55.7-3.49,75.31-57,62.19-17-38.1-27-71.1,26-69.5a55.15,55.15,0,0,1,5.94.32Z"/><path class="cls-2" d="M1004.35,629.14c49.66,45.61-60,114.86-53.57,2.92C962.82,628.9,991.78,617.62,1004.35,629.14Z"/><path class="cls-3" d="M270.11,323c-19.44-16.25-4.68-5-25.13-11-25.09-7.28-41.12,18-40.35,31.6L208.5,360c15.28,28.83,50.53,21.07,56.82,13.6,10.53-12.58,13.23-14.29,13.26-30.93C278.57,335.5,277.14,328.83,270.11,323Z"/><path class="cls-3" d="M340.5,307.54c-7.36,4.59-2,1.44-7.91.37-.53-.1-4.8-1-5.14-1.06l-10.11,12.08c5.51,9.47-.16-.4,2.09,7.24,1.22,4.35-.46,2.2,2,5.11,1.87,2.13,8.62,5,14.36,6.44C342.42,332.72,359.59,324.27,340.5,307.54Z"/><path class="cls-3" d="M369.85,213.86c26.84-40.48,40.82-74.21,10.4-111C363.73,83,359.06,71.23,324.61,72.46c-33.11,1.18-69.11,51.8-78.6,66.16-12.31,18.48-19.63,103.83,62.74,104.11,1.31,0,3,.08,4.28.08,1.71,0,6.61.1,8.31-.09C339.75,241,359.21,229.93,369.85,213.86Z"/><path class="cls-3" d="M143.11,105.12c38.4-.16,49.07-19.87,35.25-53.07-26.7-2.67-49.28-1.81-43.1,33.81a37.52,37.52,0,0,0,.85,3.91Z"/><path class="cls-3" d="M218.57,85.64c34.82,23.1,69.55-67.27-3.3-36.93C214.4,57.61,209.83,79.87,218.57,85.64Z"/><path class="cls-4" d="M234.55,746.82c21.06-25.2,6.45-6.07,14.2-32.59,9.44-32.52-23.28-53.29-40.95-52.29l-21.31,5c-37.36,19.81-27.31,65.5-17.62,73.66,16.3,13.64,18.52,17.14,40.09,17.18C218.29,757.78,226.94,755.92,234.55,746.82Z"/><path class="cls-4" d="M316.91,927.18c-5.94-9.54-1.86-2.53-.47-10.25.12-.68,1.33-6.22,1.37-6.66l-15.66-13.11c-12.28,7.15.53-.2-9.39,2.71-5.63,1.59-2.85-.59-6.61,2.59-2.78,2.41-6.49,11.17-8.35,18.61C284.28,929.67,295.23,951.94,316.91,927.18Z"/><path class="cls-2" d="M376,876.1c52.48,34.78,96.2,52.91,143.91,13.48,25.68-21.42,41-27.47,39.37-72.12-1.52-42.92-67.13-89.59-85.75-101.89-24-16-134.59-25.45-134.95,81.33,0,1.7-.11,3.88-.1,5.55,0,2.21-.14,8.56.11,10.77C340.73,837.09,355.14,862.31,376,876.1Z"/><path class="cls-4" d="M516.92,336.9c.22,49.77,25.76,63.6,68.79,45.69,3.47-34.62,2.36-63.88-43.82-55.87a47.55,47.55,0,0,0-5.07,1.11Z"/><path class="cls-4" d="M646.4,709.05c-29.95,45.13,87.2,90.15,47.86-4.28C682.73,703.65,653.87,697.71,646.4,709.05Z"/><path class="cls-2" d="M912.52,875c-12.23-8.81-3-2.78-15.39-5.43-15.19-3.2-23.59,12.46-22.58,20.51l3,9.56c10.29,16.44,30.92,10.32,34.29,5.61,5.7-7.9,7.24-9,6.53-18.92C918.09,882.05,916.91,878.14,912.52,875Z"/><path class="cls-2" d="M917.37,836.23c-23-16.6-41.68,30.59-9.59,23.35C919,857,928.18,844,917.37,836.23Z"/><path class="cls-2" d="M949.61,875.85c-4.15,3-1.09.95-4.65.54-.34,0-2.91-.4-3.1-.41l-5.48,7.59c3.67,5.38-.13-.23,1.53,4.19.92,2.55-.15,1.35,1.43,3,1.18,1.18,5.32,2.61,8.76,3.23C951.84,890.69,961.67,884.92,949.61,875.85Z"/><path class="cls-3" d="M639.74,175.44l-.62.61c-.75.72-.28.74-1.94,1.27-2,.54-2.19.21-3.61-.06-4.79-.93-7,1.85-9.49,5-2.74,3.54-8,5-10.92,8.86-2.64,3.42-1.93,2.45-5.91,4.33-1.43.67-1.48,1.65-1.72,3s0,2.13-1.48,3.14c-.85.59-.9.36-1.6.78-1.28.79-.64,1.16-.63,2.38,0,2.3-1,.4-1.64,4.9-.22,1.54.16.59-.71,1.59l-1.26,1.3c.75,1.89,1.64,1.28,2.1,2.77.46,1.69-.63,6.6-.26,7.72.5,1.88,1.52,1.59,2.12,3.22.34.9.29,2.79.68,4.11a29.88,29.88,0,0,0,4,7.27,21.43,21.43,0,0,1,2.08,3.39c2.7,5.41,3.08,3.37,4.88,6.13,2,3.18,1.86,5.29,3.86,8,1.77,2.4,2.78,2.53,5.39,3.36,1.31.44.08.58,1.84.19.8,2,2.73,2,4.44,2.78,3.18,1.53,2.65,4,7.06,8.76,1.3,1.48,2.59,3.93,4.77,3.27,1.94-.56,1.19-2.55.81-4.09-.2-.74-.08.14-.12-.82,0-.08,0-1,0-1.21.29-2.2,1.12-2,3.05-2.62,1.34-.38,2.89,2.64,3.82,3.85a23.36,23.36,0,0,1,3.28,4.81c1.13,2.41.42,1.9,2,3.54,2.27-1.39,1.39-4.67,3.17-6.49,1.26-1.27,1.57-1,1.52-3.12s-.09-2.25,2-3.22c3.18-1.5,4.88.32,6.08,3.38,1.35,3.65.34,3.12,3.67,5.93,1-.39.51-.05,1.28-.63,3.15-2.26-1.75-5.3-2.7-9.21-.75-3.07,3.17-4.55,5-6.32s2.53-3.33,5.66-2c1.1.44,1.6,1.49,2.34,2.39,1.92,2.27,2,3.74,5.28,3.55.41-1.31,1.14-1.91.77-3.2-.51-1.74-1-1.7-1.51-3-1.21-3.46-5.2-3.34,1.45-8.17,4.22-3,2-5.74,10.42-3.61a12.63,12.63,0,0,1,1.35.59c5.42,2.64,4,.44,6.43.81-.24-1.25-.19-.74-.05-1.68a18,18,0,0,0-6.14-3.2l-5.28-2.37c.39-2.43,2.19-12.13,4.74-12.87,3.32-1,4.78-.85,7.86-1.16,1.93-.2,2.68-.84,4.29,0,3,1.4,9.8.62,8.87-2.44-.78-2.68-3-2.75-5.3-2.11-1.89.45-6.81,2-9.15.92l-2.54-1.38c-3.53-1.73-4.31-3.47-5.37-7-.75-2.49-1.18-4.74.39-6.67,2-2.46,5.35-1.87,6.37-4.08,0-.11.48-1.75.56-2-4.06-2.58-7.08-1.91-11.92-1.15-2.51.38-2.17-.21-4.18-.09-.6-2.13,0-3,.47-4.69a4.83,4.83,0,0,0-.06-3.41c-.7-3-1.92-4.66-5.54-3.62-5,1.43-3.25,1.15-11.35-3.33-1.88-1.05-2.59-3.52-3.3-6l2.76-2.43c3.75-3.07,1.13-5.68.1-5.79s-1.2.54-1.94,1.48c-2.61,3.16-9.61,6.12-11.28.42-.47-1.72.47-2.7-.07-4.65-.46-1.53-2.13-1.51-3.33-1.15-1.68.49-2.69,2.27-4,3.46-5.24,4.68-1.21,3.64-9.33,6.38A10.77,10.77,0,0,0,639.74,175.44Z"/><path class="cls-5" d="M886.9,511.31a4.22,4.22,0,0,0,2.27-2.68l20.7-73.86a4.24,4.24,0,0,0-2.94-5.22l-196-54.95a4.23,4.23,0,0,0-5.22,2.93L685,451.39a4.26,4.26,0,0,0,.54,3.47,52.51,52.51,0,0,1-21.39,76.31,4.2,4.2,0,0,0-2.26,2.68l-20.71,73.86a4.24,4.24,0,0,0,2.94,5.22l62.53,17.53a4.25,4.25,0,0,0,5-2.31,32.89,32.89,0,0,1,17-16.56l2.84-10.14,70.79,19.85a8.5,8.5,0,0,1,5.88,10.45l-7.06,25.18,39.07,11a4.24,4.24,0,0,0,5.23-2.93l20.7-73.86a4.21,4.21,0,0,0-.54-3.47,52.51,52.51,0,0,1,21.39-76.31Z"/><g class="cls-6"><path d="M659.85,613l20.7-73.86a4.23,4.23,0,0,1,2.26-2.68,52.52,52.52,0,0,0,21.4-76.31,4.18,4.18,0,0,1-.54-3.47l20.7-73.86a4.23,4.23,0,0,1,5.23-2.93l-18.7-5.24a4.23,4.23,0,0,0-5.22,2.93L685,451.39a4.26,4.26,0,0,0,.54,3.47,52.51,52.51,0,0,1-21.39,76.31,4.2,4.2,0,0,0-2.26,2.68l-20.71,73.86a4.24,4.24,0,0,0,2.94,5.22l18.7,5.24A4.23,4.23,0,0,1,659.85,613Z"/></g><path class="cls-7" d="M908.47,439.75l8.72-31.1a4.23,4.23,0,0,0-2.94-5.22l-196-54.95a4.23,4.23,0,0,0-5.22,2.93l-8.72,31.1,204.2,57.24Z"/><path class="cls-5" d="M889.42,396.47,880,430a5.05,5.05,0,0,0-.19,1.67l9.81,2.75a5.4,5.4,0,0,0,.7-1.52l9.41-33.58Z"/><path class="cls-5" d="M857.62,423.77a5.61,5.61,0,0,0-.19,1.67l9.81,2.75a5.36,5.36,0,0,0,.71-1.53l9.41-33.57L867,390.19l-9.41,33.58Z"/><path class="cls-5" d="M835.24,417.49a5.05,5.05,0,0,0-.19,1.67l9.81,2.75a5,5,0,0,0,.7-1.52L855,386.81l-10.33-2.89-9.41,33.57Z"/><path class="cls-5" d="M812.86,411.22a5.34,5.34,0,0,0-.2,1.67l9.82,2.75a5.62,5.62,0,0,0,.7-1.53l9.41-33.57-10.32-2.9-9.42,33.58Z"/><path class="cls-5" d="M790.47,404.94a5.64,5.64,0,0,0-.19,1.67l9.81,2.75a5.3,5.3,0,0,0,.71-1.52l9.41-33.58-10.33-2.89-9.41,33.57Z"/><path class="cls-5" d="M768.09,398.67a5.05,5.05,0,0,0-.19,1.67l9.81,2.75a5.33,5.33,0,0,0,.7-1.53L787.82,368l-10.32-2.9-9.41,33.58Z"/><path class="cls-5" d="M745.71,392.39a5.41,5.41,0,0,0-.2,1.68l9.82,2.75a5.62,5.62,0,0,0,.7-1.53l9.41-33.58-10.32-2.89-9.41,33.57Z"/><path class="cls-5" d="M723.32,386.12a5.33,5.33,0,0,0-.19,1.67l9.81,2.75a5.36,5.36,0,0,0,.71-1.53l9.41-33.57-10.33-2.89-9.41,33.57Z"/><path class="cls-7" d="M847.8,458.75,746.24,430.28a8.51,8.51,0,0,0-10.46,5.87L683.16,623.88l23.46,6.58a4.25,4.25,0,0,0,5-2.31,32.86,32.86,0,0,1,17-16.56l2.85-10.14,70.78,19.84a8.51,8.51,0,0,1,5.88,10.46L853.68,469.2A8.5,8.5,0,0,0,847.8,458.75Z"/><g class="cls-6"><path d="M762.2,434.75l-16-4.47a8.51,8.51,0,0,0-10.46,5.87L683.16,623.88l16,4.48,52.63-187.73A8.51,8.51,0,0,1,762.2,434.75Z"/></g><path class="cls-8" d="M847.8,458.75,777,438.91,728.6,611.59a33.09,33.09,0,0,1,22-1.38c.44.12.86.25,1.29.39l.89-3.18,49.48,13.87a8.5,8.5,0,0,1,5.88,10.45L853.68,469.2A8.5,8.5,0,0,0,847.8,458.75Z"/><path class="cls-9" d="M853.68,469.2a8.5,8.5,0,0,0-5.88-10.45l-49.49-13.87L751.86,610.6a32.86,32.86,0,0,1,22.66,35.18,4.25,4.25,0,0,0,3.08,4.57l23.46,6.58L853.68,469.2Z"/><path class="cls-10" d="M834.12,539l-73.81,41.45-8.45,30.16a33.87,33.87,0,0,1,5.36,2.25l66.69-37.45Z"/><polygon class="cls-10" points="769.32 548.31 843.12 506.85 853.33 470.44 779.52 511.9 769.32 548.31"/><path class="cls-11" d="M809.46,540.22A37.81,37.81,0,1,1,783.16,494,37.63,37.63,0,0,1,809.46,540.22Z"/><path class="cls-12" d="M748.78,523.21a37.55,37.55,0,0,1,40.3-27,38.36,38.36,0,0,0-5.92-2.21A37.45,37.45,0,1,0,763,566.07a38.71,38.71,0,0,0,6.2,1.19A37.55,37.55,0,0,1,748.78,523.21Z"/><path class="cls-13" d="M793.82,530.44l-14.36-4,4-14.18a5.2,5.2,0,0,0-10-2.8l-4,14.17-14.36-4a5.2,5.2,0,0,0-2.81,10l14.36,4-4,14.17a5.2,5.2,0,0,0,10,2.81l4-14.18,14.36,4a5.2,5.2,0,0,0,2.81-10Z"/><path class="cls-14" d="M658.87,504.83a2.28,2.28,0,0,1-.55.95,2.18,2.18,0,0,1-1.6.67A54.27,54.27,0,0,0,610,533.69a2.21,2.21,0,0,1-1.41,1.07,2.19,2.19,0,0,1-1.74-.3c-6.76-4.44-13.81-8.7-20.94-12.66a2.18,2.18,0,0,1-1.1-1.55,287.64,287.64,0,0,1-4-35.31,2.45,2.45,0,0,1,.08-.72,2.26,2.26,0,0,1,.86-1.22,2.2,2.2,0,0,1,2.13-.23c5.92,2.49,11.78,5.19,17.47,8.06-.17-6.39-.12-12.86.14-19.3a2.09,2.09,0,0,1,.08-.51,2.23,2.23,0,0,1,1-1.33,2.18,2.18,0,0,1,2.14,0c6.74,3.62,13.37,7.53,19.75,11.64.53-7.6,1.36-15.27,2.5-22.87l.06-.27a2.22,2.22,0,0,1,3.39-1.24,287.87,287.87,0,0,1,28,21.8,2.21,2.21,0,0,1,.74,1.76c-.33,7.88-.37,15.85-.14,23.69A2.16,2.16,0,0,1,658.87,504.83Z"/><g class="cls-6"><path d="M600.12,513.45A2.23,2.23,0,0,1,599,511.9c-1.38-7.78-2.44-15.73-3.17-23.74-4-1.89-8-3.69-12-5.39a2.21,2.21,0,0,0-2.14.23,2.26,2.26,0,0,0-.86,1.22,2.45,2.45,0,0,0-.08.72,287.64,287.64,0,0,0,4,35.31,2.2,2.2,0,0,0,1.1,1.55c7.13,4,14.18,8.21,20.94,12.66a2.22,2.22,0,0,0,3.15-.77,51.61,51.61,0,0,1,7.34-10C611.7,520.12,605.94,516.68,600.12,513.45Z"/></g><path class="cls-14" d="M599.47,595.53c-1.71,1-3.19.15-3.29-1.81l-1.61-32.51c-.1-2,1.15-2.66,2.78-1.56l26.77,18.27c1.63,1.11,1.56,2.81-.16,3.77Z"/><path class="cls-14" d="M548.6,561.34a3.55,3.55,0,0,1-4.85-1.36l-13.68-24.47a3.61,3.61,0,0,1,1.37-4.88l24.4-13.8a3.58,3.58,0,0,1,4.86,1.37l13.67,24.47a3.59,3.59,0,0,1-1.37,4.87Z"/><path class="cls-12" d="M544.87,539.66a3.61,3.61,0,0,1,1.37-4.88l18-10.19-3.57-6.39a3.58,3.58,0,0,0-4.86-1.37l-24.4,13.8a3.61,3.61,0,0,0-1.37,4.88L543.75,560a3.56,3.56,0,0,0,4.85,1.36l6.37-3.6Z"/><path id="path6364" class="cls-15" d="M500,651c1.12-1.09,2.69-.06,3.94.37.71-.14.26.49.36.67a15.73,15.73,0,0,1-1.88,2.2,27.62,27.62,0,0,0,5.05,2.9c1.91,1.38,4,1.57,5.91,2.7a6.48,6.48,0,0,1,1.73.63,11.12,11.12,0,0,0,3.68,2.6,91.11,91.11,0,0,1,16,9.44l.88.83c-.51.62-.8,1.25-1.3,1.92-.91.31-1.22,1.1-1.56,1.68-.11.43-.49.64-.74,1-3.45-.41-5.92-2.32-8.78-4.39-2.72-.79-5.28-2-7.87-2.89a35.05,35.05,0,0,1-4.3-.7c-1.52-.85-2.09-2.38-3.12-3.57-2-.68-3.7-2.29-5.25-3.74a68.56,68.56,0,0,0-8.24-6c.3-.15.34-.83.39-1a6.49,6.49,0,0,1,2-1.1c.54-.3.48-.85.73-1.3A10.67,10.67,0,0,1,500,651Z"/><path id="path6372" class="cls-15" d="M483.82,615c1.16-.66,2.16-.25,3.32-.2,2.49,3.84,4.06,7.68,6.13,11.49,2.67,3.66,5,7.68,7.81,10.92a4.79,4.79,0,0,0,1.66,1.05c2,1.57,3,3.5,4.29,5.32.43,1.41-.33,2.7-.38,3.94.86,1.94,2.55,3.73,3.35,5.44a13.71,13.71,0,0,0,2,1.55,7.19,7.19,0,0,1-.24,2.75c-.93.07-1.87-1-2.71-1.53-2.27-4.47-6-8.29-8.46-12.52-3.62-9.61-14.86-19.11-16.79-28.21Z"/><path id="path6374" class="cls-15" d="M534.5,642.4c0,3.91,1.46,8.15,1.88,12.33,1.11,4,1.67,7.42,3.29,11,.27.7.92.27,1.3.38a17.69,17.69,0,0,1-.35-4.94,25.12,25.12,0,0,0-2.08-8.39c-1.32-2.35-1.56-4.63-2.47-7.09a25,25,0,0,1-.45-2.89A6.11,6.11,0,0,0,534.5,642.4Z"/><path id="path6376" class="cls-15" d="M529.13,667.28c3.64-1,6.88-.11,10.18.24,1.31.31,2.16,1.36,3.15,2.29a9.9,9.9,0,0,1,.15,4.26,33.76,33.76,0,0,0,3.36,3.3c.63,1.39,1.2,2.7,1.85,4,0,.34-.32.47-.49.7a25.41,25.41,0,0,0-3-2.12,21.37,21.37,0,0,1-8.1-2.11,20.94,20.94,0,0,0-.46-3.23,6.27,6.27,0,0,1,.09-2.56,16.21,16.21,0,0,1-.49-1.78,30.31,30.31,0,0,0-5-2,12.53,12.53,0,0,1-1.23-1Z"/><path id="path6378" class="cls-15" d="M538.73,668.14c1.25-1.37,1.56-2.74,2.85-4.11.74.27,1.45.47,2.24.77a9.15,9.15,0,0,1,.44,2.72,54.86,54.86,0,0,1-5.46,2.67C538,669,538.31,669.06,538.73,668.14Z"/><path id="path6380" class="cls-15" d="M540,670.66a9.58,9.58,0,0,1,3.88-1.5,9.28,9.28,0,0,0,3.31-.71,24.49,24.49,0,0,1,3.93,0c.43.32.43.6.72,1-1.11.68-2.35,0-3.6-.22a11.59,11.59,0,0,0-1.82,1.61,19.26,19.26,0,0,0-6.13.72C540.21,671.28,540.11,671,540,670.66Z"/><path id="path6382" class="cls-15" d="M543.62,666.26a20.93,20.93,0,0,1,8,.67,4.53,4.53,0,0,0-.38,1.29,23.05,23.05,0,0,0-3-.83c-2.18.57-3.66-.3-5.49-.5Z"/><path id="path6384" class="cls-15" d="M539.73,645.3c-.55.5-1,1-1.57,1.5a11,11,0,0,1,2.26,3.6c.18.58.48,1,.65,1.43,1.66,3.16,4.83,5.3,7.11,7.95.56.37.55-.07.93-.12.21-1-.14-1.15-.4-1.86-1.15-2.08-3.27-3.71-5.06-5.38.29-.44.63-.45,1-.72a4.67,4.67,0,0,0,0-1.62,16.06,16.06,0,0,0-2.21-2.23c-.38-.43-.79-.81-1.16-1.24a10.47,10.47,0,0,0-1.58-1.31Z"/><path id="path6386" class="cls-15" d="M547.52,648.1a34.58,34.58,0,0,1,4.65,3.51c.45.56.14.93.21,1.36a31.49,31.49,0,0,0,5.19,4.18,7.33,7.33,0,0,1,.55,1.17c3.65,2.94,7.35,5.7,10.82,8.94a6.66,6.66,0,0,0,.59,2.2c1,1,1.88,2.23,2.68,3.16a7,7,0,0,1-3.15.36c-2-1.83-3.87-3.9-6.17-5.25-.82-2.76-3.63-4.52-5.35-6.48-.35-1.63-1.91-2.88-2.28-4.28L554,655.82a4.53,4.53,0,0,1-2.44-1.28c.08-1.4-.78-2.35-1.65-3.36-1-.86-1.95-1.65-2.91-2.55Z"/><path id="path6388" class="cls-15" d="M555.85,664.13c.63-.86,1.52-.86,2.44-1,.68.33.61,1,.73,1.35a14,14,0,0,0-1.47,1.93c0,1.9-.93,3.31-1.7,5-.28,2-1.64,3.3-2.57,4.88a7.08,7.08,0,0,1-1.62,0,8.71,8.71,0,0,1,2-4.09,15.61,15.61,0,0,0,1.48-4.07c0-.33.33-.46.49-.7.17-1.12-.21-1.32-.33-2.12a10.82,10.82,0,0,1,.56-1.13Z"/><path id="path6390" class="cls-15" d="M525.87,693.8c.5-.93,1-.7,1.77-.66.41.14.44.65.63.91a7.4,7.4,0,0,1-1.23,1.5c-1.55.74-3.06,1.48-4.54,2-.51-.55-.14-.29-.28-.59l1.4-1.5A3,3,0,0,0,525.87,693.8Z"/><path id="path6398" class="cls-15" d="M531.34,684l-1.69.74,0,1,1.15,1.24.85-.2.28-1.72Z"/><path id="path6400" class="cls-15" d="M518.09,683.9l2.56-.09.72,1.17-.08,2.57-.55,1.3-.35-.33-1.12-2.7-1.23-1Z"/><path id="path6408" class="cls-15" d="M530.71,653.9l1.65.71-.23.6-2.85,1.64-1-.13.72-1.31Z"/><path id="path6410" class="cls-15" d="M516.64,674.3l1,0,.48,1.61-.48,1-1.27.13,0-1.28Z"/><path id="path6412" class="cls-15" d="M522.39,660.17l.58,2-.51,0-1.07-1.33.06-.77Z"/><path id="path6414" class="cls-15" d="M532.1,659.32l2.44,1.28.29,1.1-.29,1.38-.6.1-.82-1.59-1.07-1.16Z"/><path id="path6416" class="cls-15" d="M514.58,644.46l-1.51.74.12,1.11,1.14.9.49-.7,0-1.46Z"/><path id="path6418" class="cls-15" d="M563.24,650.71l-.75.63,0,1.45.85-.2.23-.78Z"/><path id="path6422" class="cls-15" d="M564,657.52l1,.31,0,1.11-.83.71-.45-.75Z"/><path id="path6424" class="cls-15" d="M538.61,632.86l1.93,1.47,1.77,1.65-.3,1.2.28.76,1.47.55,2.45,1.45,2.15.53,3.69-2,7.86-2.58,1.14,1.07-2.8,3-1.91,1.35,1.32,1.23.82,1.6,4.18,2.08-.23.94-5.07-.93-8.5-1.16-9.47-2.23L535.14,641l-5.8-2.1-1.94-1.81.81-1.06,3.15-.36,4,.79,2.64-.34-.48-1.61Z"/><path id="path6426" class="cls-15" d="M538.06,619.46l2.24,2.92,3.18,5.44,1.26,4.31-1,.21-2.87-3.83-2.67-5.46-.86-2.62Z"/><path id="path6428" class="cls-15" d="M556.07,628.83l.58,1.86L555.19,633,554,634l-1.17.73-1.15-1.08,1.72-2.19Z"/><path id="path6430" class="cls-15" d="M531.77,630.28l2,1.38-.15.52-1,.72-1.25-1.5Z"/><path id="path6432" class="cls-15" d="M537.71,611.87l1.94-.66.88.65-.31,1-1.37-.13-1.12-.21Z"/><path id="path6434" class="cls-15" d="M566.79,642.13l-.58.45-.3,1.21.21,1.18.79.75.41-.45.11-1.88.23-.78Z"/><path id="path6436" class="cls-15" d="M513,581.89l.59,7.16,1.06,3.46,1.83,8.31,1,1.08.59-.45-.56-8.61-1.17-4.23-.9-3.64-1.31-3.2Z"/><path id="path6438" class="cls-15" d="M507.71,592l2,2.84v2.31l-1.19,0-1.2-2.61c0-.2-.07-.39-.11-.59l-.67-1.94Z"/><path id="path6444" class="cls-15" d="M512.56,603.78l-1.69.57-.89,1.31-1,2,.95.4.89-1.49.31-.86,1-.21,1.08-1Z"/><path id="path6446" class="cls-15" d="M517.92,603l-1.44.48-.13,1.2.72.83,1.16-.9Z"/><path id="path6448" class="cls-15" d="M502.14,606.11l-1.75-1-1.11,0,.22,1.36,1.72.46,1.66,1.05,1.09-.64-.9-1.33Z"/><path id="path6450" class="cls-15" d="M492.6,607l-1.66-.88-1.51.91,0,1.28,1.89.27,1.39.47.9-1Z"/><path id="path6452" class="cls-15" d="M493,610.44l1,.48-.3,1.37.8.92.34,2.29-.83.88-1.13-.55v-2.31l-.71-.66-.31.69-1-.73.37-1.64Z"/><path id="path6454" class="cls-15" d="M547.93,635.44l-1,1.06.55,1,1,0,.48-1,0-.68Z"/><path id="path6468" class="cls-15" d="M560.56,608.09l-1.34.73-1.38,4.66.8.91,1.28-.3.5-2.67Z"/><path id="path6470" class="cls-15" d="M570.44,621.92l3.83-.38,6.35.63,2.16.86,5.58.75,2.3-.17.4,1.53-1.24,1.32-1.47-.55-4.28-.19-3.26-.4-3.38-1.5-4.12-.37-1.23,1.32-1.62.14Z"/><path id="path6472" class="cls-15" d="M574.91,630.06l-1.34.73,0,.85,3.73,1.66,3.38,1.34,3.09.4,2-.32,0-1.19-2.07-.62-1.15-1.07-1.73-.62-1,.55-3.44-.57Z"/><path id="path6474" class="cls-15" d="M601.81,644.24l-1.57-.8-.91.8-1.11,2.61.63.74h2.65l.47-1.05Z"/><path id="path6476" class="cls-15" d="M594.61,648.6l-2.14-.19-1,.89.62.58c.2,1.5.29.16.44.24L594,650Z"/><path id="path6478" class="cls-15" d="M592.56,665.84l-1.42,1,.3,1.1,1.21.47,1.77,1.65,1.27-.3-.4-1.53Z"/><path id="path6480" class="cls-15" d="M582.15,663.73l-1.45.13.58,4.17,2.14,5.14.91,4.15,1,2.44.71,3.31,2.3,2.31,1-.21,1.35-2.86-1.8-2.67-1.2-2.61-1.14-5.86-1.25-1.32-1.22-.81-1-3.13Z"/><path id="path6486" class="cls-15" d="M573.89,681.61l-1.07-1.33-3.32.55-.37,1.46-.93.29-.64,1.22.35.33,1.81.36,1.82.88,6.33.12,1.07-1.15-.47-1.09-1.8-.37.74-.62-.71-1Z"/><path id="path7116" class="cls-15" d="M613.52,631.66c-2.38.79-3.75,2.87-5.44,4.68a20.8,20.8,0,0,1,1.49,2.47c0,1.26,2.36.69,2.54.75,2.59-2.62,1.12-5.22,1.41-7.9Z"/><path id="path7118" class="cls-15" d="M632.66,618.11l-3,2.07c1.22,2.38,1.47,4.66,1.93,7.21l1.89-2c-.3-2.79-.72-4.66-.81-7.26Z"/><path id="path7120" class="cls-15" d="M641.23,647.23c-.78,1.07-1.51,2.45-2.12,3.43,4.68,5.24,7.71,11.47,13.23,17.75.39-1.25.87-2.52,1.27-3.69A66.12,66.12,0,0,0,649,653.4c-2.71-2.81-4.87-4-7.78-6.17Z"/><path id="path7122" class="cls-15" d="M637.22,636.44c2.72,2.2,2.36,5.72,2.82,8.59-1.34,1-2.22-.53-3.11-.74-1.85-1.12-3.48-2.48-5.17-3.74-2.57-2,.32-1.5.48-2.25,1.9,1.24,3.78,2.75,5.46,4-.89-2.39-.59-3.24-.48-5.87Z"/><path id="path7126" class="cls-15" d="M612.12,647.68c1-3.83,2.18-1.19,3.3-1.8,1.9,2,.44,2.5.69,3.9C612.06,650.76,614.05,650.5,612.12,647.68Z"/><path id="path7935" class="cls-15" d="M518.62,611.9c-1.26,1.05-1.42.38-2.73-.4l.31-1.86a11.9,11.9,0,0,1,2.2-.45A7.19,7.19,0,0,1,518.62,611.9Z"/><path id="path8023" class="cls-15" d="M647.6,647.6c1.07.08,1.78.06,2.83.1,0,1.44-.61,1.69-1.53,2.48a5.72,5.72,0,0,1-1.95-1.25c0-.55.42-.85.65-1.33Z"/><path id="path8055" class="cls-15" d="M603.64,664.86a5.4,5.4,0,0,1,1.55.85c.23,1-.28,1.34-.94,2a8.14,8.14,0,0,0-1.66-1.35,3.21,3.21,0,0,1,1-1.55Z"/><path id="path8821" class="cls-15" d="M501.06,610.61c.46-.62,1.22-.12,1.6-.16.81.71.42,1,.38,1.8-.54.7-1.2.41-1.8.38C500.79,611.92,501,611.51,501.06,610.61Z"/><path id="path8831" class="cls-15" d="M520.89,625.18l1.35,2.09c-.34.41-.86.32-1.26.47-.84-.55-.62-1.55-.71-2.11l.62-.44Z"/><path id="path8889" class="cls-15" d="M507,667.94c-1.05,0-.84.89-1.23,1.32a3.86,3.86,0,0,0,1.33,1.66,12,12,0,0,0,3.74,0,5.16,5.16,0,0,0,.76-2.8c-1.84-1-2.83-1.13-4.6-.16Z"/></g></svg>