<svg xmlns="http://www.w3.org/2000/svg" viewBox="0 0 371.26 112.94"><defs><style>.cls-1{fill:#f6a52b;fill-rule:evenodd;}.cls-2{fill:#eb6155;}</style></defs><title>participantes</title><g id="Capa_1" data-name="Capa 1"><path class="cls-1" d="M136.29,28a14,14,0,0,0,.5-2.34c.05-1.06.44-1.37,1.42-1.32,1.77.1,3.54.16,5.31.24.54,0,.71.23.63.77s-.23,1.34-.3,2-.1,1.36-.13,2c-.09,2.82-.18,5.61-.06,8.43a14.25,14.25,0,0,0,.91,3.52c.37,1.31-.65,1.51-1.73,1.65a27.88,27.88,0,0,1-3.73.61,2.45,2.45,0,0,1-1.79-.52,1.22,1.22,0,0,1-.33-.51c-.8-3.31-.81-6.77-1.86-10a19,19,0,0,0-1.81-3.5c-.67-1.18-2.31-.71-3,0-1.2,1.27-1.64,3.65-2,5.28-.94,4-.84,8.1-.84,12.17,0,7.52.43,15.2,4.11,21.92a3,3,0,0,0,.79.76c.06,0,.24,0,.35-.06A2.57,2.57,0,0,0,134,67.61a38.47,38.47,0,0,0,2.34-11.73c0-.46-.1-.91.3-1.24a.8.8,0,0,1,.61-.15,11,11,0,0,1,1.37.57.49.49,0,0,1,.12.37c-.31,4.39.39,11.38-2.51,15.07a6.11,6.11,0,0,1-8,1.36,12,12,0,0,1-2.28-2.17c-4.89-5.83-4.73-14-4.35-21.17a54.19,54.19,0,0,1,4.52-19.47.24.24,0,0,1,.06-.08c.78-1,1.53-2,2.35-2.88a3.62,3.62,0,0,1,1.1-.72,4.45,4.45,0,0,1,4.12.24,4.16,4.16,0,0,1,.93.69C135.18,26.8,135.68,27.33,136.29,28Z"/><path class="cls-1" d="M117.55,34.12c-1.1-.11-1,31.09-.76,34.09.08.93.3,1.85.47,2.77.11.64-.39,1-1.25,1.16s-2,.35-2.93.5a4.54,4.54,0,0,1-.9,0,18.5,18.5,0,0,1-2.24-.07,1.61,1.61,0,0,1-1.24-1.47,17,17,0,0,1-.12-2.14c-.31-6.09-.31-12.19-.14-18.28.16-5.89.87-11.86.62-17.75a1.18,1.18,0,0,1,1.4-1.1l2.42.33c.33,0,.66.1,1,.16a3.09,3.09,0,0,0,.59.08,10.06,10.06,0,0,1,2.62.33.43.43,0,0,1,.39.53c0,.29,0,.58,0,.88Z"/><path class="cls-1" d="M118.29,25.18c.11,1.05.23,2.1.34,3.14v.15c0,.85-.18,1.06-1,1.12-2,.12-4,.2-6,.19a1,1,0,0,1-1-.51,3.14,3.14,0,0,1-.53-1.95,27.22,27.22,0,0,0-.13-3c0-.46-.28-1,.29-1.35,2.13-1.13,5.54.42,7.76.76a.41.41,0,0,1,.3.27c.08.38.1.76.15,1.14Z"/><path class="cls-1" d="M157.68,34.12c-1.11-.11-1,31.09-.77,34.09.09.93.31,1.85.47,2.77.12.64-.38,1-1.24,1.16s-2,.35-2.94.5a4.54,4.54,0,0,1-.9,0,18.4,18.4,0,0,1-2.23-.07,1.62,1.62,0,0,1-1.25-1.47,19.05,19.05,0,0,1-.12-2.14c-.3-6.09-.3-12.19-.13-18.28.16-5.89.87-11.86.61-17.75a1.18,1.18,0,0,1,1.4-1.1l2.42.33c.33,0,.66.1,1,.16a2.89,2.89,0,0,0,.59.08,10,10,0,0,1,2.61.33.43.43,0,0,1,.4.53,8.58,8.58,0,0,0,0,.88Z"/><path class="cls-1" d="M158.42,25.18l.33,3.14v.15c0,.85-.18,1.06-1,1.12-2,.12-4,.2-6,.19a1,1,0,0,1-1-.51,3.14,3.14,0,0,1-.52-1.95c.09-1-.12-2-.13-3,0-.46-.29-1,.29-1.35,2.13-1.13,5.54.42,7.75.76a.41.41,0,0,1,.3.27,11.12,11.12,0,0,1,.15,1.14Z"/><path class="cls-1" d="M284,28.5a19.28,19.28,0,0,0,1.59-2.66,1.64,1.64,0,0,1,2-1,5.34,5.34,0,0,0,1.44,0c.38,0,1.15.21,1.27.52a1.19,1.19,0,0,1-.38,1.22,8.3,8.3,0,0,0-1.78,3.35c-.19.75-.41,1.5-.53,2.27a14.85,14.85,0,0,0,0,1.64,15.32,15.32,0,0,0,.6,3.43c.12.65.23,1.29.34,1.94.08.39.17.78.23,1.18a.71.71,0,0,1-.39.81c-.95.52-1.89,1.06-2.85,1.59-2.52,1.39-3-3.08-3.2-4.55-.09-.82-.16-1.61-.2-2.44s.18-1.79.11-2.66c0-.3-.14-.59-.18-.89s-.14-.8-.24-1.2a5.46,5.46,0,0,0-.84-1.93,2.24,2.24,0,0,0-3-.68c-2.83,1.61-2.59,6-1.81,8.69a19.77,19.77,0,0,0,1,2.55A11.9,11.9,0,0,0,279.13,43c1,1,2.24,1.07,3.55,1.33a6.4,6.4,0,0,1,3.24,2.12,10.31,10.31,0,0,1,2,2.37,22,22,0,0,1,1.27,3.24,12.91,12.91,0,0,1,.69,5,29.67,29.67,0,0,1-2,9.54A11.18,11.18,0,0,1,286,69.44a15,15,0,0,1-2.08,2.21,3.6,3.6,0,0,1-1.26.65,8.17,8.17,0,0,1-1.56,0,8.74,8.74,0,0,0-1.36.2,11.24,11.24,0,0,1-2.48.55,4.11,4.11,0,0,1-3.46-2.4,19.48,19.48,0,0,1-1.26-3.23A24.88,24.88,0,0,1,271.38,57a27.66,27.66,0,0,1,.77-4.72c.06-.26.24-.32.49-.33,1.56,0,3.12-.09,4.67-.15.57,0,.88.29.9,1,.09,4.57-.59,9.4,1.15,13.77.5,1.26,1.51,2.41,2.8,1.28,1.49-1.3,2.18-3.66,2.62-5.5a21.43,21.43,0,0,0,.29-9.29,8.38,8.38,0,0,0-2.2-4.68c-1.43-1.24-3.42-.88-5.09-1.51S274.92,44.55,274,43a15,15,0,0,1-1.88-7.55,15.46,15.46,0,0,1,.86-5.35c1-2.84,3.69-6.14,7.11-5.08a5.16,5.16,0,0,1,2.08,1.3,11.94,11.94,0,0,1,.88,1A4.54,4.54,0,0,0,284,28.5Z"/><path class="cls-1" d="M51.06,60.55c-.42-3.89-.79-7.78-1.29-11.66a.67.67,0,0,0-.91-.58.65.65,0,0,1-.19,0,18,18,0,0,0-4-.06c-1.12.06-1.32.15-1.52,1.28-.15.81-.38,1.61-.53,2.42-.12.59-.14,1.21-.25,1.81-.19,1.12-.43,2.23-.62,3.34-.37,2.18-.47,4.38-.7,6.58-.13,1.26-.51,2.48-.67,3.75-.11,1,.26,2.15-.29,3a17.5,17.5,0,0,1-1.47,2,1.24,1.24,0,0,1-1,.4,2.91,2.91,0,0,1-1.48-.75,2.12,2.12,0,0,1-.42-1.44,50.76,50.76,0,0,1,1-6.93c.4-2.15.88-4.28,1.34-6.42.38-1.72.76-3.43,1.17-5.15.22-1,.5-1.92.76-2.89.15-.55,0-.68-.54-.58s-1.12.09-1.66.2c-1.1.24-1.09.26-1.92-.9l-.44-.63A1.64,1.64,0,0,1,35.71,46a.36.36,0,0,1,.21,0,17.22,17.22,0,0,0,4.56-.27c.16,0,.35-.33.4-.53.29-1.08.51-2.18.81-3.25.74-2.72,1.73-5.36,2.72-8,.88-2.32,2.47-5.15,2.45-7.69A1.49,1.49,0,0,1,48.12,25c2,0,4.09,0,6.12.11a2.69,2.69,0,0,1,1,.29.61.61,0,0,1,.34.38c.08.43.11.89.15,1.33.53,5,.65,10,1.52,14.92.84,4.76,1.45,9.62,1.91,14.42.33,3.45.62,6.87,1.19,10.28.09.52.16,1,.27,1.55.07.33.2.66.28,1s-.09.5-.4.6c-.63.18-1.25.36-1.86.59a21.32,21.32,0,0,1-3.88.77,3.78,3.78,0,0,0-.46.1,1.19,1.19,0,0,1-1.67-.61,5,5,0,0,1-.49-1.61C51.7,66.28,51.37,63.42,51.06,60.55ZM47.65,33.13a2.43,2.43,0,0,0-.21.36c-.38,1.23-.73,2.48-1.12,3.71A34,34,0,0,0,45,41.37c-.1.57-.39,1.11-.53,1.67s-.26,1.38-.39,2.08c-.09.44,0,.59.49.58l2.08-.09c.46,0,.93,0,1.39,0a2.28,2.28,0,0,0,.87,0c.44-.18.09-.55.08-.83a13.74,13.74,0,0,0-.12-1.7c-.11-.77-.29-1.53-.4-2.31-.16-1.17-.27-2.36-.4-3.54l-.39-3.49C47.71,33.54,47.68,33.4,47.65,33.13Z"/><path class="cls-1" d="M190.93,60.55c-.42-3.89-.79-7.78-1.29-11.66-.06-.48-.41-.69-.92-.58a.62.62,0,0,1-.19,0,17.93,17.93,0,0,0-4-.06c-1.12.06-1.32.15-1.52,1.28-.15.81-.38,1.61-.53,2.42-.12.59-.14,1.21-.25,1.81-.19,1.12-.43,2.23-.62,3.34-.38,2.18-.48,4.38-.7,6.58-.13,1.26-.51,2.48-.67,3.75-.12,1,.26,2.15-.29,3a17.5,17.5,0,0,1-1.47,2,1.26,1.26,0,0,1-1,.4,2.91,2.91,0,0,1-1.48-.75,2.12,2.12,0,0,1-.42-1.44,52.35,52.35,0,0,1,1-6.93c.41-2.15.89-4.28,1.35-6.42.38-1.72.76-3.43,1.16-5.15.23-1,.51-1.92.77-2.89.15-.55,0-.68-.54-.58s-1.12.09-1.66.2c-1.1.24-1.09.26-1.92-.9l-.44-.63a1.64,1.64,0,0,1,.28-1.42.37.37,0,0,1,.21,0,17.17,17.17,0,0,0,4.56-.27c.17,0,.36-.33.41-.53.29-1.08.51-2.18.8-3.25.74-2.72,1.73-5.36,2.73-8,.88-2.32,2.46-5.15,2.44-7.69A1.51,1.51,0,0,1,188,25c2,0,4.08,0,6.12.11a2.8,2.8,0,0,1,1,.29.62.62,0,0,1,.33.38c.09.43.11.89.16,1.33.52,5,.65,10,1.52,14.92.83,4.76,1.45,9.62,1.91,14.42.33,3.45.61,6.87,1.19,10.28.09.52.16,1,.26,1.55.07.33.21.66.29,1s-.09.5-.41.6c-.62.18-1.24.36-1.85.59a21.49,21.49,0,0,1-3.88.77,3.78,3.78,0,0,0-.46.1,1.19,1.19,0,0,1-1.67-.61,5,5,0,0,1-.49-1.61C191.57,66.28,191.24,63.42,190.93,60.55Zm-3.42-27.42a2.1,2.1,0,0,0-.2.36c-.38,1.23-.74,2.48-1.13,3.71a35.78,35.78,0,0,0-1.27,4.17c-.1.57-.39,1.11-.53,1.67s-.26,1.38-.39,2.08c-.09.44,0,.59.49.58.69,0,1.38-.07,2.08-.09.46,0,.92,0,1.39,0a2.28,2.28,0,0,0,.87,0c.44-.18.09-.55.08-.83a13.74,13.74,0,0,0-.12-1.7c-.11-.77-.3-1.53-.4-2.31-.16-1.17-.28-2.36-.41-3.54s-.25-2.32-.38-3.49C187.57,33.54,187.55,33.4,187.51,33.13Z"/><path class="cls-1" d="M97.43,29c-.23,0-.06,17.51-.06,19.09a166,166,0,0,0,.88,19.56c.1.87.18,1.74.29,2.62,0,.29.16.58.23.87a.74.74,0,0,1-.56.88c-.7.12-1.41.21-2.12.31a16.08,16.08,0,0,1-2.83.34,5.07,5.07,0,0,1-2.33-.33c-.68-.36-.74-1-.87-1.59-.68-3-.25-6.55-.34-9.63-.12-3.71-.26-7.41-.36-11.11-.19-7.06-.4-14.21-.18-21.26,0-.57,0-.66-.59-.62a49.44,49.44,0,0,0-7.14,1.27,1.27,1.27,0,0,1-1.24-.59,8.61,8.61,0,0,1-.49-1.37c-.26-1,1.06-1.13,1.73-1.18,1.11-.08,2.21.08,3.33,0s2.11-.29,3.17-.46a35.82,35.82,0,0,1,4.26-.48c2.61-.07,5.18.65,7.78.24a9.71,9.71,0,0,1,2.52-.19,4.93,4.93,0,0,1,2.29,1.12.73.73,0,0,1-.12,1.09c-.4.26-.79.53-1.19.78a1.57,1.57,0,0,1-1.46.08,13.05,13.05,0,0,0-2-.43c-.58-.08-1.17-.06-1.75-.13s-.72-.1-.86.4a6.18,6.18,0,0,0-.13.75Z"/><path class="cls-1" d="M241.15,28.58c-.22,0-.06,17.51-.06,19.08A170.29,170.29,0,0,0,242,67.22c.1.87.18,1.75.29,2.62a6.59,6.59,0,0,0,.24.87.76.76,0,0,1-.57.89l-2.12.31a17.09,17.09,0,0,1-2.82.34,5.11,5.11,0,0,1-2.34-.33c-.67-.36-.73-1-.87-1.6-.68-3-.24-6.55-.34-9.63-.12-3.7-.26-7.4-.36-11.11-.19-7.06-.39-14.2-.17-21.26,0-.56,0-.66-.6-.61A49.28,49.28,0,0,0,225.18,29a1.26,1.26,0,0,1-1.25-.58,9.85,9.85,0,0,1-.49-1.38c-.25-1,1.07-1.12,1.73-1.17,1.11-.08,2.21.07,3.33,0s2.12-.3,3.17-.46a34.07,34.07,0,0,1,4.26-.48c2.61-.08,5.18.65,7.78.24a9.29,9.29,0,0,1,2.52-.19,4.8,4.8,0,0,1,2.3,1.11.74.74,0,0,1-.13,1.09c-.39.27-.79.53-1.19.78a1.54,1.54,0,0,1-1.46.09,10.77,10.77,0,0,0-1.95-.43c-.58-.09-1.17-.07-1.75-.14s-.72-.1-.86.4c-.06.24-.09.5-.13.75Z"/><path class="cls-1" d="M217.74,50.24c0-.93,0-1.88,0-2.81s.22-2,.26-3.07c.26-6.13.54-12.11.25-18.24,0-.7.38-1,1.1-1a2.81,2.81,0,0,0,.58,0,.91.91,0,0,1,1.13.79,7.57,7.57,0,0,1,.09,1.51c0,.19,0,.39,0,.58,0,.9.08,1.79.09,2.68.11,13.43.31,26.78.85,40.19a.83.83,0,0,1-.51.82c-.75.35-1.48.74-2.23,1.08a.72.72,0,0,1-1-.38,6.06,6.06,0,0,1-.62-2.49c0-1-.17-2.09-.17-3.14,0-1.29.16-2.58.17-3.87,0-1.56,0-3.13-.11-4.69a3.54,3.54,0,0,0-.52-1.75,34.66,34.66,0,0,1-2.21-4.88c-1.33-2.82-2.61-5.62-3.75-8.52-.09-.23-.14-.48-.25-.83,0,1.29,0,2.46,0,3.63a157.9,157.9,0,0,0,1,22.7c.07.58.19,1.16.23,1.75.1,1.8-4.31,2.38-5.49,2.53-5,.63-3.25-8.27-3.35-10.95q-.34-9-.59-17.93c-.16-5.86-.14-11.76.27-17.61,0-.43-.16-.91.27-1.27,1.95-1.62,5-.48,7.25-.38.53,0,.66.4.66.82,0,2.8-.56,5.55-.35,8.35a8,8,0,0,0,.64,2.14c.31.83.68,1.63,1,2.46.24.61.42,1.25.67,1.86.19.46.46.87.65,1.33.36.83.66,1.68,1,2.52.2.49.49,1,.69,1.44.27.67.47,1.37.76,2,.41.89.87,1.76,1.31,2.64Z"/><path class="cls-1" d="M29.54,42.73q0,7.56-.11,15.11c-.06,4.35.6,9.51-.48,13.75a.83.83,0,0,1-.31.39c-2,1.59-6.4,1.15-6.92-1.74-.65-3.59-.4-7.48-.45-11.11q-.09-6,0-12c.09-3.95.14-7.91.09-11.86q0-3-.16-6c0-1.23-.64-3.7.21-4.77a.61.61,0,0,1,.37-.26c1.82,0,3.64,0,5.45.1a26.56,26.56,0,0,1,2.84.59A8.82,8.82,0,0,1,36.85,32a10.44,10.44,0,0,1-1.64,7.11,7.82,7.82,0,0,1-2.79,2.54C32.16,41.76,29.54,42.67,29.54,42.73Zm0-3.37c0-.09,2.21-1.26,2.45-1.47a6.24,6.24,0,0,0,1.6-2.2c.81-1.78,1-4.38-.21-6.06-.43-.59-4-2.69-3.94-1.34,0,2,.07,4,.09,6,0,1.51,0,3,0,4.52Z"/><path class="cls-1" d="M170.51,42.73c0,5,0,10.07-.12,15.11-.06,4.35.6,9.51-.48,13.75a.78.78,0,0,1-.31.39c-2,1.59-6.4,1.15-6.92-1.74-.65-3.59-.4-7.48-.45-11.11q-.09-6,0-12c.1-3.95.15-7.91.1-11.86,0-2-.08-4-.17-6,0-1.23-.63-3.7.22-4.77.09-.12.24-.26.37-.26,1.81,0,3.63,0,5.44.1a25.58,25.58,0,0,1,2.84.59A8.81,8.81,0,0,1,177.81,32a10.37,10.37,0,0,1-1.63,7.11,7.86,7.86,0,0,1-2.8,2.54C173.12,41.76,170.51,42.67,170.51,42.73Zm0-3.37c0-.09,2.21-1.26,2.46-1.47a6.37,6.37,0,0,0,1.6-2.2c.8-1.78,1-4.38-.22-6.06-.42-.59-4-2.69-3.94-1.34,0,2,.08,4,.1,6,0,1.51,0,3,0,4.52Z"/><path class="cls-1" d="M71.83,52.2c.22,0,1.16,16.65,1.38,18.42,0,.27.24.53.25.79.07,1.92-6.07,1.62-7.14,1.39A2.17,2.17,0,0,1,64.62,71a5.75,5.75,0,0,1,0-.83c-.28-6.32-.87-12.61-1-18.93-.19-7.38.87-14.72.74-22.1a1.19,1.19,0,0,1,1.36-1.27c4.29.52,9-.17,11.71,4.11,2.16,3.43,1,9.9-2.68,12a6.93,6.93,0,0,0-1,.87.57.57,0,0,1-.24.15c-.49.06-.53.42-.41.75.28.8.62,1.58,1,2.35,3.25,7.09,6,14.44,10.11,21.12a11.38,11.38,0,0,0,1.16,2.1c1.41,1.59-1.81,3.41-3,2-1-1.18-1.31-3.06-2-4.45-.87-1.81-2-3.49-2.88-5.28-1.46-2.89-2.88-5.82-4.29-8.74-.16-.33-.28-.7-.43-1-.24-.55-.5-1.09-.75-1.64Zm-.06-9.92.14.06a2.75,2.75,0,0,0,.66-.45,25.54,25.54,0,0,0,1.74-2.15,7.24,7.24,0,0,0,1-2,6.34,6.34,0,0,0,.29-2.95c-.3-2-.65-2.49-2.45-3.12-.44-.15-.71.06-.74.54,0,.21,0,.43,0,.63-.12,1.11-.26,2.2-.37,3.31-.06.75-.08,1.51-.11,2.27C71.86,39.72,71.82,41,71.77,42.28Z"/><path class="cls-1" d="M261.12,38.79c1.06-.1,2.08-.16,3.09-.3a1.91,1.91,0,0,1,1.27.26c.42.24.87.41,1.27.66a.84.84,0,0,1,.39.52,1.65,1.65,0,0,1-.15.66h-.05c-1.19,1.67-3.87.51-5.53,1.1a1,1,0,0,0-.7,1.06c0,1.29-.06,2.59-.11,3.88-.06,1.9-.13,3.8-.19,5.71,0,.33,0,.66,0,1,0,1.91-.08,3.82-.1,5.73a37.32,37.32,0,0,0,.08,4.36c.12,1.22.09,2.45.12,3.68,0,.58.15.69.72.56s.9-.14,1.34-.24c.25,0,.48-.17.73-.24a2.19,2.19,0,0,1,1.45,0c.54.22,1.06.48,1.59.73s.78.45.62,1a.64.64,0,0,1-.33.4c-4,1.22-8.05,2.48-12.13,3.35a.85.85,0,0,1-.63-.16c-.5-.41-1-.88-1.45-1.3a1.3,1.3,0,0,1-.56-1.11c.18-2.9.09-5.74,0-8.64a290.34,290.34,0,0,1,1.56-35c.1-1,.44-1.57,1.78-1.19a2.57,2.57,0,0,0,.61,0c1.82,0,3.65,0,5.47,0,1,0,2,0,3,0a7.25,7.25,0,0,1,2.67.22,8.43,8.43,0,0,1,1.52.92.45.45,0,0,1,.1.69c-.47.52-.94,1-1.44,1.52a.51.51,0,0,1-.48,0c-1.38-.89-2.89-.59-4.36-.46-.17,0-.4.41-.44.65-.17.86-.26,1.74-.37,2.61-.06.46-.1.92-.15,1.37-.09,1.09-.22,2.18-.27,3.27C261.08,37,261.12,37.81,261.12,38.79Z"/><path class="cls-2" d="M55.06,97.71a.61.61,0,0,1-.39-.13L38.26,85.16,21.86,97.58a.66.66,0,0,1-.83,0,.45.45,0,0,1,0-.7l17.18-13,17.18,13a.45.45,0,0,1,.05.7A.61.61,0,0,1,55.06,97.71Z"/><path class="cls-2" d="M55.06,98.52a1.67,1.67,0,0,1-1-.32l-15.79-12-15.78,12a1.73,1.73,0,0,1-2.15-.11,1.2,1.2,0,0,1,.13-1.86l17.8-13.48,17.8,13.48a1.18,1.18,0,0,1,.13,1.86A1.62,1.62,0,0,1,55.06,98.52Z"/><path class="cls-2" d="M88.64,97.71a.58.58,0,0,1-.38-.13L71.85,85.16,55.44,97.58a.65.65,0,0,1-.82,0,.45.45,0,0,1,.05-.7l17.18-13L89,96.84a.45.45,0,0,1,0,.7A.66.66,0,0,1,88.64,97.71Z"/><path class="cls-2" d="M88.64,98.52a1.66,1.66,0,0,1-1-.32l-15.79-12-15.79,12a1.71,1.71,0,0,1-2.14-.11,1.22,1.22,0,0,1-.39-1,1.24,1.24,0,0,1,.51-.91L71.85,82.75l17.8,13.48a1.18,1.18,0,0,1,.13,1.86A1.65,1.65,0,0,1,88.64,98.52Zm-.23-1.06Z"/><path class="cls-2" d="M122.23,97.71a.61.61,0,0,1-.39-.13l-16.4-12.42L89,97.58a.65.65,0,0,1-.82,0,.44.44,0,0,1,.05-.7l17.18-13,17.18,13a.44.44,0,0,1,0,.7A.61.61,0,0,1,122.23,97.71Z"/><path class="cls-2" d="M122.23,98.52a1.69,1.69,0,0,1-1-.32l-15.78-12-15.79,12a1.71,1.71,0,0,1-2.14-.11,1.15,1.15,0,0,1-.39-1,1.2,1.2,0,0,1,.51-.91l17.81-13.48,17.8,13.48a1.23,1.23,0,0,1,.51.9,1.16,1.16,0,0,1-.39,1A1.65,1.65,0,0,1,122.23,98.52Z"/><path class="cls-2" d="M155.82,97.71a.61.61,0,0,1-.39-.13L139,85.16l-16.4,12.42a.66.66,0,0,1-.83,0,.45.45,0,0,1,0-.7l17.18-13,17.18,13a.45.45,0,0,1,.05.7A.61.61,0,0,1,155.82,97.71Z"/><path class="cls-2" d="M155.81,98.52a1.68,1.68,0,0,1-1-.32L139,86.25l-15.78,12a1.73,1.73,0,0,1-2.15-.11,1.18,1.18,0,0,1-.38-1,1.2,1.2,0,0,1,.51-.91L139,82.75l17.8,13.48a1.18,1.18,0,0,1,.13,1.86A1.68,1.68,0,0,1,155.81,98.52Z"/><path class="cls-2" d="M189.4,97.71a.58.58,0,0,1-.38-.13L172.61,85.16,156.2,97.58a.65.65,0,0,1-.82,0,.45.45,0,0,1,.05-.7l17.18-13,17.18,13a.45.45,0,0,1,.05.7A.66.66,0,0,1,189.4,97.71Z"/><path class="cls-2" d="M189.4,98.52a1.66,1.66,0,0,1-1-.32l-15.79-12-15.79,12a1.71,1.71,0,0,1-2.14-.11,1.18,1.18,0,0,1,.13-1.86l17.8-13.48,17.8,13.48a1.2,1.2,0,0,1,.51.91,1.18,1.18,0,0,1-.38,1A1.68,1.68,0,0,1,189.4,98.52Z"/><path class="cls-2" d="M223,97.71a.61.61,0,0,1-.39-.13L206.2,85.16,189.79,97.58a.65.65,0,0,1-.82,0,.44.44,0,0,1,.05-.7l17.18-13,17.18,13a.44.44,0,0,1,0,.7A.61.61,0,0,1,223,97.71Z"/><path class="cls-2" d="M223,98.52a1.69,1.69,0,0,1-1-.32l-15.79-12-15.78,12a1.71,1.71,0,0,1-2.14-.11,1.19,1.19,0,0,1-.39-1,1.2,1.2,0,0,1,.51-.91l17.8-13.48L224,96.23a1.2,1.2,0,0,1,.51.91,1.15,1.15,0,0,1-.39,1A1.65,1.65,0,0,1,223,98.52Z"/><path class="cls-2" d="M256.57,97.71a.6.6,0,0,1-.38-.13L239.78,85.16l-16.4,12.42a.66.66,0,0,1-.83,0,.45.45,0,0,1,0-.7l17.18-13,17.18,13a.45.45,0,0,1,.05.7A.64.64,0,0,1,256.57,97.71Z"/><path class="cls-2" d="M256.57,98.52a1.68,1.68,0,0,1-1-.32l-15.79-12L224,98.2a1.71,1.71,0,0,1-2.14-.11,1.15,1.15,0,0,1-.39-1,1.2,1.2,0,0,1,.51-.91l17.8-13.48,17.8,13.48a1.18,1.18,0,0,1,.13,1.86A1.68,1.68,0,0,1,256.57,98.52Z"/><path class="cls-2" d="M290.16,97.71a.58.58,0,0,1-.38-.13L273.37,85.16,257,97.58a.65.65,0,0,1-.82,0,.45.45,0,0,1,.05-.7l17.18-13,17.18,13a.45.45,0,0,1,.05.7A.66.66,0,0,1,290.16,97.71Z"/><path class="cls-2" d="M290.16,98.52a1.66,1.66,0,0,1-1-.32l-15.79-12-15.79,12a1.72,1.72,0,0,1-2.14-.11,1.18,1.18,0,0,1,.13-1.86l17.8-13.48,17.8,13.48a1.25,1.25,0,0,1,.52.91,1.22,1.22,0,0,1-.39,1A1.68,1.68,0,0,1,290.16,98.52Z"/><path class="cls-2" d="M324.91,97.71a.58.58,0,0,1-.38-.13L308.12,85.16,291.71,97.58a.65.65,0,0,1-.82,0,.45.45,0,0,1,.05-.7l17.18-13,17.18,13a.45.45,0,0,1,.05.7A.66.66,0,0,1,324.91,97.71Z"/><path class="cls-2" d="M324.91,98.52a1.68,1.68,0,0,1-1-.32l-15.79-12-15.79,12a1.71,1.71,0,0,1-2.14-.11,1.22,1.22,0,0,1-.39-1,1.25,1.25,0,0,1,.52-.9l17.8-13.48,17.8,13.48a1.25,1.25,0,0,1,.52.91,1.22,1.22,0,0,1-.39,1A1.65,1.65,0,0,1,324.91,98.52Zm-33.35-1.07h0Z"/><path class="cls-2" d="M358.5,97.71a.61.61,0,0,1-.39-.13l-16.4-12.42L325.3,97.58a.65.65,0,0,1-.82,0,.44.44,0,0,1,0-.7l17.18-13,17.18,13a.44.44,0,0,1,0,.7A.61.61,0,0,1,358.5,97.71Z"/><path class="cls-2" d="M358.5,98.52a1.66,1.66,0,0,1-1-.32l-15.79-12-15.79,12a1.71,1.71,0,0,1-2.14-.11,1.17,1.17,0,0,1-.39-1,1.2,1.2,0,0,1,.51-.9l17.81-13.48,17.8,13.48a1.2,1.2,0,0,1,.13,1.86A1.66,1.66,0,0,1,358.5,98.52Z"/></g></svg>