<svg xmlns="http://www.w3.org/2000/svg" viewBox="0 0 332.55 112.94"><defs><style>.cls-1{fill:#eb6155;}.cls-2{fill:#f6a52b;fill-rule:evenodd;}</style></defs><title>semifinal</title><g id="Capa_3" data-name="Capa 3"><path class="cls-1" d="M52.3,95.31a.74.74,0,0,1-.43-.14L33.67,81.39,15.48,95.17a.72.72,0,0,1-.91,0,.48.48,0,0,1,0-.77L33.67,79.92,52.73,94.35a.49.49,0,0,1,.05.77A.71.71,0,0,1,52.3,95.31Z"/><path class="cls-1" d="M52.3,96.21a1.89,1.89,0,0,1-1.12-.36L33.67,82.59,16.17,95.85a1.92,1.92,0,0,1-2.38-.12,1.31,1.31,0,0,1-.43-1.06,1.37,1.37,0,0,1,.57-1L33.67,78.72,53.42,93.66a1.4,1.4,0,0,1,.57,1,1.35,1.35,0,0,1-.43,1.06A1.83,1.83,0,0,1,52.3,96.21Z"/><path class="cls-1" d="M89.55,95.31a.74.74,0,0,1-.43-.14L70.92,81.39,52.73,95.17a.72.72,0,0,1-.91,0,.48.48,0,0,1,0-.77L70.92,79.92,90,94.35a.48.48,0,0,1,0,.77A.71.71,0,0,1,89.55,95.31Z"/><path class="cls-1" d="M89.55,96.21a1.84,1.84,0,0,1-1.11-.36L70.92,82.59,53.42,95.85A1.92,1.92,0,0,1,51,95.73a1.33,1.33,0,0,1-.43-1.06,1.37,1.37,0,0,1,.57-1L70.92,78.72,90.67,93.66a1.4,1.4,0,0,1,.57,1,1.31,1.31,0,0,1-.43,1.06A1.81,1.81,0,0,1,89.55,96.21ZM89.29,95Z"/><path class="cls-1" d="M126.8,95.31a.76.76,0,0,1-.43-.14L108.18,81.39,90,95.17a.72.72,0,0,1-.91,0,.48.48,0,0,1,.05-.77l19.06-14.43,19,14.43a.48.48,0,0,1,0,.77A.69.69,0,0,1,126.8,95.31Z"/><path class="cls-1" d="M126.8,96.21a1.86,1.86,0,0,1-1.11-.36L108.18,82.59,90.67,95.85a1.91,1.91,0,0,1-2.38-.12,1.33,1.33,0,0,1-.43-1.06,1.37,1.37,0,0,1,.57-1l19.75-14.94,19.74,14.94a1.37,1.37,0,0,1,.57,1,1.33,1.33,0,0,1-.43,1.06A1.86,1.86,0,0,1,126.8,96.21Z"/><path class="cls-1" d="M164.05,95.31a.76.76,0,0,1-.43-.14L145.43,81.39l-18.2,13.78a.72.72,0,0,1-.91,0,.49.49,0,0,1,.05-.77l19.06-14.43,19,14.43a.48.48,0,0,1,.05.77A.69.69,0,0,1,164.05,95.31Z"/><path class="cls-1" d="M164.05,96.21a1.86,1.86,0,0,1-1.11-.36L145.43,82.59,127.92,95.85a1.91,1.91,0,0,1-2.38-.12,1.33,1.33,0,0,1-.43-1.06,1.4,1.4,0,0,1,.57-1l19.75-14.94,19.74,14.94a1.37,1.37,0,0,1,.57,1,1.33,1.33,0,0,1-.43,1.06A1.86,1.86,0,0,1,164.05,96.21Z"/><path class="cls-1" d="M201.3,95.31a.76.76,0,0,1-.43-.14L182.68,81.39l-18.2,13.78a.72.72,0,0,1-.91,0,.49.49,0,0,1,.05-.77l19.06-14.43,19,14.43a.49.49,0,0,1,.06.77A.73.73,0,0,1,201.3,95.31Z"/><path class="cls-1" d="M201.3,96.21a1.86,1.86,0,0,1-1.11-.36L182.68,82.59,165.17,95.85a1.91,1.91,0,0,1-2.38-.12,1.37,1.37,0,0,1-.43-1.06,1.4,1.4,0,0,1,.57-1l19.75-14.94,19.74,14.94a1.34,1.34,0,0,1,.57,1,1.3,1.3,0,0,1-.43,1.06A1.84,1.84,0,0,1,201.3,96.21Z"/><path class="cls-1" d="M238.55,95.31a.71.71,0,0,1-.42-.14l-18.2-13.78-18.2,13.78a.72.72,0,0,1-.91,0,.49.49,0,0,1,.05-.77l19.06-14.43,19,14.43a.49.49,0,0,1,.06.77A.73.73,0,0,1,238.55,95.31Z"/><path class="cls-1" d="M238.55,96.21a1.86,1.86,0,0,1-1.11-.36L219.93,82.59,202.42,95.85a1.9,1.9,0,0,1-2.37-.12,1.34,1.34,0,0,1-.44-1.06,1.4,1.4,0,0,1,.57-1l19.75-14.94,19.74,14.94a1.34,1.34,0,0,1,.57,1,1.3,1.3,0,0,1-.43,1.06A1.84,1.84,0,0,1,238.55,96.21Z"/><path class="cls-1" d="M275.81,95.31a.71.71,0,0,1-.43-.14l-18.2-13.78L239,95.17a.72.72,0,0,1-.91,0,.49.49,0,0,1,.06-.77l19.05-14.43,19.05,14.43a.49.49,0,0,1,.06.77A.73.73,0,0,1,275.81,95.31Z"/><path class="cls-1" d="M275.8,96.21a1.89,1.89,0,0,1-1.11-.36L257.18,82.59,239.67,95.85a1.9,1.9,0,0,1-2.37-.12,1.3,1.3,0,0,1-.43-1.06,1.36,1.36,0,0,1,.56-1l19.75-14.94,19.74,14.94a1.38,1.38,0,0,1,.58,1,1.34,1.34,0,0,1-.44,1.06A1.82,1.82,0,0,1,275.8,96.21Z"/><path class="cls-1" d="M313.06,95.31a.71.71,0,0,1-.43-.14l-18.2-13.78-18.2,13.78a.72.72,0,0,1-.91,0,.49.49,0,0,1,.06-.77l19.05-14.43,19.06,14.43a.49.49,0,0,1,.05.77A.73.73,0,0,1,313.06,95.31Z"/><path class="cls-1" d="M313.06,96.21a1.89,1.89,0,0,1-1.12-.36L294.43,82.59,276.92,95.85a1.91,1.91,0,0,1-2.37-.12,1.3,1.3,0,0,1-.43-1.06,1.34,1.34,0,0,1,.57-1l19.74-14.94,19.75,14.94a1.4,1.4,0,0,1,.57,1,1.34,1.34,0,0,1-.44,1.06A1.82,1.82,0,0,1,313.06,96.21Z"/><path class="cls-2" d="M110.54,36.61c.86-.1,1.64-.22,2.42-.25a2.93,2.93,0,0,1,1.12.24,12.56,12.56,0,0,1,1.31.69.74.74,0,0,1,.38,1.13c-.45,1-1.37,1.17-2.3,1.32-.12,0-.26-.21-.4-.22-.76-.06-1.52-.1-2.28-.14-.36,0-.43.21-.44.52-.13,4.31-.32,8.71-.65,13a115.32,115.32,0,0,0,.08,12.61c0,.6,0,1.2,0,1.8,0,.38.08.75.08,1.13,0,.71-.15.89-.89.94-1,.06-1.9.15-2.85.16a13.7,13.7,0,0,1-3.67-.24,1.6,1.6,0,0,1-1.07-1.16c0-.15.08-.36.07-.55,0-.55-.07-1.1-.08-1.65A210.58,210.58,0,0,1,102,44.35c.27-3.09.3-6.17.54-9.26a108.28,108.28,0,0,0,.49-11,1.37,1.37,0,0,1,1.56-1.27,55,55,0,0,0,6,.52c1.56.06,3.54-.3,5,.21a13.05,13.05,0,0,1,1.66.76c.44.23.48.53.26.95a3.1,3.1,0,0,1-1.83,1.26.69.69,0,0,1-.47,0,7.51,7.51,0,0,0-3.46-.26.57.57,0,0,0-.56.57c-.23,3-.5,5.94-.65,8.92C110.54,36,110.54,36.25,110.54,36.61Z"/><path class="cls-2" d="M150.92,48.33c0-.9,0-1.8,0-2.7s.21-2,.26-2.94c.25-5.88.52-11.63.24-17.51,0-.67.36-1,1-.95a2.63,2.63,0,0,0,.56,0,.87.87,0,0,1,1.08.76,6.94,6.94,0,0,1,.09,1.45c0,.18,0,.37,0,.56,0,.86.08,1.71.09,2.57.1,12.89.3,25.69.81,38.57a.79.79,0,0,1-.49.78c-.72.34-1.42.71-2.14,1a.67.67,0,0,1-1-.37,5.75,5.75,0,0,1-.61-2.39c0-1-.16-2-.15-3,0-1.23.15-2.47.16-3.71,0-1.5,0-3-.11-4.5a3.33,3.33,0,0,0-.5-1.68,33.61,33.61,0,0,1-2.12-4.69c-1.27-2.7-2.5-5.39-3.59-8.18-.09-.22-.14-.45-.25-.79,0,1.24,0,2.36,0,3.48a153.74,153.74,0,0,0,.92,21.78c.08.57.19,1.13.22,1.69.1,1.72-4.13,2.29-5.26,2.43-4.75.6-3.12-7.94-3.22-10.51q-.33-8.61-.56-17.21c-.15-5.62-.14-11.28.25-16.9,0-.41-.15-.87.26-1.22,1.87-1.55,4.81-.46,7-.36.5,0,.63.38.63.79,0,2.68-.54,5.32-.34,8a8,8,0,0,0,.61,2c.3.8.66,1.57,1,2.36.23.59.41,1.2.65,1.79s.44.84.62,1.27c.34.8.64,1.62,1,2.42.2.47.48.91.67,1.39.26.64.45,1.31.73,1.94.39.86.83,1.69,1.25,2.53Z"/><path class="cls-2" d="M198.77,64.08c.41-.08.75-.13,1.08-.23.71-.23,1.42-.48,2.11-.76.36-.14.69-.38,1-.54a.72.72,0,0,1,.46,0c.6.19,1.21.39,1.8.62.44.18,1,.34.93,1s-.3.81-1,1.08-1.4.36-2.08.59-1.6.61-2.41.89-1.51.49-2.28.71q-2.39.72-4.77,1.41c-.21.06-.43.05-.63.11a.77.77,0,0,1-1-.44.81.81,0,0,0-.41-.37c-.61-.14-.74-.59-.81-1.11-1.18-8.84-1-18-.41-26.88.35-5.4.94-10.78,1.2-16.19a6.46,6.46,0,0,1,.07-1.17,1.22,1.22,0,0,1,1.48-.86c1,.17,2.08.3,3.11.48s2,.39,2.93.59a1.54,1.54,0,0,0,.27.07c1-.1,1.17.7.94,1.45a14.15,14.15,0,0,0-.4,1.71,183.1,183.1,0,0,0-1.59,21.35c0,.83,0,1.66-.06,2.49,0,1,0,2.08,0,3.12.07,3.32.16,6.57.48,9.88C198.8,63.36,198.77,63.68,198.77,64.08Z"/><path class="cls-2" d="M174.73,58.19c-.39-3.62-.74-7.25-1.2-10.87-.06-.45-.38-.64-.85-.54a.58.58,0,0,1-.18,0,17.42,17.42,0,0,0-3.75-.06c-1,0-1.23.15-1.41,1.2-.14.75-.36,1.49-.5,2.25-.11.56-.13,1.13-.23,1.69-.18,1-.4,2.08-.58,3.12-.35,2-.44,4.09-.65,6.13-.12,1.18-.48,2.32-.62,3.5-.11.91.23,2-.28,2.8a16.94,16.94,0,0,1-1.37,1.9,1.14,1.14,0,0,1-.93.36,2.64,2.64,0,0,1-1.38-.7,1.94,1.94,0,0,1-.39-1.34,48.56,48.56,0,0,1,.93-6.46c.39-2,.83-4,1.26-6,.35-1.6.71-3.2,1.09-4.8.21-.9.46-1.8.71-2.69.14-.52,0-.64-.51-.55s-1,.08-1.54.19c-1,.22-1,.24-1.8-.84l-.4-.59a1.52,1.52,0,0,1,.26-1.32.33.33,0,0,1,.2,0,16.12,16.12,0,0,0,4.25-.25c.16,0,.33-.31.38-.5.27-1,.48-2,.75-3,.69-2.54,1.61-5,2.54-7.46.82-2.17,2.3-4.81,2.28-7.17a1.41,1.41,0,0,1,1.18-1.1c1.9,0,3.81,0,5.71.1a2.56,2.56,0,0,1,.92.27.56.56,0,0,1,.31.35c.08.41.11.83.15,1.25.49,4.63.61,9.31,1.42,13.91.77,4.44,1.35,9,1.78,13.45.3,3.22.57,6.4,1.11,9.59.08.48.15,1,.24,1.44.07.31.2.61.27.92s-.09.48-.38.56c-.58.17-1.16.34-1.73.55a19.4,19.4,0,0,1-3.61.72,3.13,3.13,0,0,0-.44.1,1.1,1.1,0,0,1-1.55-.57,4.57,4.57,0,0,1-.46-1.51C175.33,63.54,175,60.87,174.73,58.19Zm-3.18-25.56a1.21,1.21,0,0,0-.19.33c-.36,1.15-.69,2.31-1.05,3.46a30.66,30.66,0,0,0-1.19,3.89c-.1.53-.36,1-.49,1.56s-.25,1.29-.37,1.93c-.08.42,0,.56.46.54.64,0,1.29-.06,1.93-.08.44,0,.87,0,1.3,0a2.77,2.77,0,0,0,.82,0c.4-.17.08-.51.07-.77a14.17,14.17,0,0,0-.11-1.6c-.1-.72-.28-1.43-.38-2.15-.14-1.09-.25-2.2-.37-3.3l-.36-3.25C171.6,33,171.58,32.87,171.55,32.63Z"/><path class="cls-2" d="M33.94,28.69a17.69,17.69,0,0,0,1.46-2.44,1.5,1.5,0,0,1,1.8-.89,5.3,5.3,0,0,0,1.32,0c.34,0,1,.19,1.16.47a1.09,1.09,0,0,1-.35,1.12A7.57,7.57,0,0,0,37.7,30c-.18.69-.37,1.37-.48,2.07a12.47,12.47,0,0,0,0,1.5,13.87,13.87,0,0,0,.55,3.14c.1.59.2,1.18.31,1.77.07.36.16.72.21,1.09a.65.65,0,0,1-.35.73c-.87.48-1.74,1-2.61,1.45C33,43,32.51,38.94,32.36,37.6c-.08-.75-.14-1.47-.18-2.23s.17-1.64.1-2.44c0-.27-.12-.54-.17-.81A10,10,0,0,0,31.9,31a5,5,0,0,0-.77-1.77,2,2,0,0,0-2.73-.62c-2.59,1.47-2.37,5.52-1.65,7.94a16.48,16.48,0,0,0,.9,2.33A10.86,10.86,0,0,0,29.54,42c.9.93,2.05,1,3.24,1.22a5.82,5.82,0,0,1,3,1.93,9.81,9.81,0,0,1,1.79,2.17,21.24,21.24,0,0,1,1.16,3,11.73,11.73,0,0,1,.63,4.55,27.38,27.38,0,0,1-1.83,8.72,10.18,10.18,0,0,1-1.71,2.6,13.91,13.91,0,0,1-1.9,2,3.21,3.21,0,0,1-1.16.6,6.75,6.75,0,0,1-1.42,0,7.28,7.28,0,0,0-1.24.19,10.47,10.47,0,0,1-2.27.5,3.78,3.78,0,0,1-3.16-2.19,18.58,18.58,0,0,1-1.15-3,23.56,23.56,0,0,1-.81-3.21,24.15,24.15,0,0,1-.23-6.41,27.27,27.27,0,0,1,.7-4.31c.07-.24.23-.29.46-.3,1.42,0,2.85-.08,4.27-.14.51,0,.8.27.81.93.09,4.19-.54,8.6,1.06,12.59.46,1.16,1.38,2.2,2.56,1.18,1.36-1.19,2-3.35,2.39-5A19.47,19.47,0,0,0,35,51.11a7.7,7.7,0,0,0-2-4.27c-1.31-1.14-3.13-.81-4.65-1.38S25.69,43.35,24.84,42a13.68,13.68,0,0,1-1.72-6.9,14,14,0,0,1,.79-4.88c.94-2.6,3.37-5.61,6.5-4.65a4.86,4.86,0,0,1,1.9,1.19,8.68,8.68,0,0,1,.8.91A4.58,4.58,0,0,0,33.94,28.69Z"/><path class="cls-2" d="M74.7,35.75c.21-.84.36-1.7.62-2.53s.66-1.7,1-2.56a20.37,20.37,0,0,1,.92-2.48,18.4,18.4,0,0,0,1.27-3.25c.08-.28.19-.42.48-.41s.61,0,.91,0l1.92.12c.32,5.76-.07,11.55.41,17.3.43,5.22.79,10.47,1.07,15.7.2,3.79.63,7.54,1.07,11.3,0,.2,0,.41.08.67l-4.23.56c-1.29-9-1.24-18-1.39-27-.06-3.35-.18-6.69-.18-10-.12.39-.26.81-.39,1.24-.23.74-.44,1.48-.67,2.22s-.52,1.62-.77,2.42a5.84,5.84,0,0,0-.2.64,2.38,2.38,0,0,1-1.38,1.81c-.6.28-.78.28-1.09-.3-.44-.82-.9-1.62-1.35-2.43-.58-1-1.16-2.1-1.75-3.15a2.63,2.63,0,0,0-.28-.34c0,.06-.08.1-.08.13-.17,10-.13,20.22,1.34,30.1a16.09,16.09,0,0,0,.47,2.19c.11.4.06.64-.3.79-2.37,1-4.65,1.17-7.07,1.81-.21,0-.59-.24-.77-.47a3.43,3.43,0,0,1-.5-2c-.52-8.11-1.29-16.14-1.35-24.29,0-2.38,0-4.75,0-7.13a72.16,72.16,0,0,1,.76-10.07.66.66,0,0,1,.68-.6c2.25,0,4.5-.13,6.74-.19.23,0,.65,0,.66,0a3.69,3.69,0,0,1,.07,1.05c0,1-.5,2.05-.08,3,.51,1.24,1.15,2.43,1.75,3.63.3.61.62,1.22.95,1.81a8.12,8.12,0,0,0,.48.67Z"/><path class="cls-2" d="M52.94,38.07c1-.09,1.91-.14,2.84-.27a1.68,1.68,0,0,1,1.16.24c.38.21.79.37,1.17.6a.81.81,0,0,1,.35.47,1.42,1.42,0,0,1-.14.61h0c-1.09,1.53-3.55.47-5.07,1a.9.9,0,0,0-.64,1c0,1.18-.06,2.37-.1,3.55,0,1.74-.12,3.49-.18,5.23,0,.3,0,.61,0,.91,0,1.76-.07,3.51-.09,5.26a38,38,0,0,0,.07,4c.12,1.11.09,2.25.11,3.37,0,.53.14.63.67.52s.82-.14,1.23-.22c.22,0,.44-.16.66-.23a2,2,0,0,1,1.33,0c.5.2,1,.43,1.45.66s.72.41.57.91a.57.57,0,0,1-.3.37c-3.64,1.12-7.37,2.27-11.11,3.07a.79.79,0,0,1-.57-.15c-.47-.37-.88-.8-1.33-1.19a1.19,1.19,0,0,1-.52-1c.17-2.66.08-5.26,0-7.92a266.08,266.08,0,0,1,1.43-32.06c.09-.9.4-1.44,1.63-1.09a2.57,2.57,0,0,0,.55,0c1.68,0,3.35,0,5,0,.93,0,1.86,0,2.79,0a6.46,6.46,0,0,1,2.44.2,7.91,7.91,0,0,1,1.39.84.4.4,0,0,1,.09.63c-.42.48-.86.95-1.32,1.4a.46.46,0,0,1-.44,0c-1.26-.81-2.64-.54-4-.42-.16,0-.36.37-.41.6-.14.79-.23,1.59-.34,2.39q-.07.63-.12,1.26c-.09,1-.21,2-.26,3C52.91,36.39,52.94,37.18,52.94,38.07Z"/><path class="cls-2" d="M95.58,34.85c-1-.09-.94,27.86-.7,30.55.07.84.28,1.66.43,2.49.1.56-.36.93-1.15,1s-1.8.31-2.7.45a4.5,4.5,0,0,1-.82,0,17.59,17.59,0,0,1-2.06-.06A1.46,1.46,0,0,1,87.43,68,15.34,15.34,0,0,1,87.32,66C87,60.59,87,55.12,87.19,49.67c.15-5.28.81-10.63.57-15.9a1.08,1.08,0,0,1,1.29-1l2.23.29.91.14a3.35,3.35,0,0,0,.54.08,9.35,9.35,0,0,1,2.41.29.39.39,0,0,1,.36.48c0,.26,0,.52,0,.79Z"/><path class="cls-2" d="M96.26,26.85c.1.94.21,1.88.31,2.82v.13c0,.75-.16.95-.95,1-1.84.11-3.67.18-5.52.17a.9.9,0,0,1-.89-.46,2.72,2.72,0,0,1-.49-1.75,21.7,21.7,0,0,0-.12-2.66c0-.41-.26-.94.27-1.21,2-1,5.1.37,7.14.67a.44.44,0,0,1,.28.25c.07.34.09.68.13,1Z"/><path class="cls-2" d="M129.09,35.29c-1-.1-.94,27.86-.7,30.55.08.83.28,1.65.43,2.48.11.57-.35.94-1.14,1s-1.8.32-2.71.45a4.5,4.5,0,0,1-.82,0,14.1,14.1,0,0,1-2.06-.06,1.45,1.45,0,0,1-1.15-1.31,17.51,17.51,0,0,1-.11-1.92c-.28-5.46-.28-10.92-.12-16.38.15-5.28.8-10.62.56-15.9a1.08,1.08,0,0,1,1.3-1l2.22.29.91.14a2.5,2.5,0,0,0,.54.07,9.36,9.36,0,0,1,2.41.3c.3.06.38.2.36.47s0,.53,0,.79Z"/><path class="cls-2" d="M129.77,27.29c.11.93.21,1.87.31,2.81v.13c0,.76-.16.95-.94,1-1.85.11-3.68.18-5.53.17a.91.91,0,0,1-.89-.45,2.73,2.73,0,0,1-.48-1.75,26.63,26.63,0,0,0-.12-2.67c0-.41-.27-.93.27-1.21,2-1,5.09.37,7.13.68a.4.4,0,0,1,.28.24c.07.34.09.69.14,1Z"/></g></svg>