<?xml version="1.0" encoding="utf-8"?>
<!-- Generator: Adobe Illustrator 23.1.1, SVG Export Plug-In . SVG Version: 6.00 Build 0)  -->
<svg version="1.1" id="Capa_1" xmlns="http://www.w3.org/2000/svg" xmlns:xlink="http://www.w3.org/1999/xlink" x="0px" y="0px"
	 viewBox="0 0 287.9 288" style="enable-background:new 0 0 287.9 288;" xml:space="preserve">
<style type="text/css">
	.st0{fill:#FFA822;}
	.st1{fill-rule:evenodd;clip-rule:evenodd;fill:#FF6450;}
</style>
<path class="st0" d="M261.3,4.8H26.8c-13.5,0-24.5,11-24.5,24.5v141.3c0,13.5,11,24.5,24.5,24.5h234.5c13.5,0,24.5-11,24.5-24.5
	V29.3C285.8,15.8,274.8,4.8,261.3,4.8z M277.3,170.6c0,8.9-7.2,16.1-16.1,16.1H26.8c-8.9,0-16.1-7.2-16.1-16.1V29.3
	c0-8.9,7.2-16.1,16.1-16.1h234.5c8.9,0,16.1,7.2,16.1,16.1V170.6z"/>
<path class="st0" d="M128.3,38.5H30.6c-2.3,0-4.2,1.9-4.2,4.2v10.1c0,2.3,1.9,4.2,4.2,4.2s4.2-1.9,4.2-4.2v-5.9h89.2v102.7H34.9v-80
	c0-2.3-1.9-4.2-4.2-4.2s-4.2,1.9-4.2,4.2v84.2c0,2.3,1.9,4.2,4.2,4.2h97.7c2.3,0,4.2-1.9,4.2-4.2V42.7
	C132.5,40.4,130.6,38.5,128.3,38.5z"/>
<path class="st0" d="M258.5,48.2H153c-2.3,0-4.2,1.9-4.2,4.2c0,2.3,1.9,4.2,4.2,4.2h105.5c2.3,0,4.2-1.9,4.2-4.2
	C262.7,50.1,260.9,48.2,258.5,48.2z"/>
<path class="st0" d="M258.5,78.8H235c-2.3,0-4.2,1.9-4.2,4.2s1.9,4.2,4.2,4.2h23.6c2.3,0,4.2-1.9,4.2-4.2S260.9,78.8,258.5,78.8z"/>
<path class="st0" d="M153,87.2h65.1c2.3,0,4.2-1.9,4.2-4.2s-1.9-4.2-4.2-4.2H153c-2.3,0-4.2,1.9-4.2,4.2S150.7,87.2,153,87.2z"/>
<path class="st0" d="M258.5,109.3H153c-2.3,0-4.2,1.9-4.2,4.2c0,2.3,1.9,4.2,4.2,4.2h105.5c2.3,0,4.2-1.9,4.2-4.2
	C262.7,111.2,260.9,109.3,258.5,109.3z"/>
<path class="st0" d="M210.3,139.9H153c-2.3,0-4.2,1.9-4.2,4.2c0,2.3,1.9,4.2,4.2,4.2h57.3c2.3,0,4.2-1.9,4.2-4.2
	C214.5,141.7,212.6,139.9,210.3,139.9z"/>
<path class="st0" d="M50,140.4c0,2.3,1.9,4.2,4.2,4.2s4.2-1.9,4.2-4.2c0-11.6,9.4-21,21-21s21,9.4,21,21c0,2.3,1.9,4.2,4.2,4.2
	c2.3,0,4.2-1.9,4.2-4.2c0-10.7-5.7-20.1-14.3-25.3c8.6-5.2,14.3-14.6,14.3-25.3c0-16.2-13.2-29.5-29.5-29.5
	C63.2,60.4,50,73.6,50,89.8c0,10.7,5.7,20.1,14.3,25.3C55.7,120.3,50,129.6,50,140.4z M58.4,89.8c0-11.6,9.4-21,21-21s21,9.4,21,21
	s-9.4,21-21,21S58.4,101.4,58.4,89.8z"/>
<path class="st1" d="M245.6,269.3c6.3-9.5,14.5-17.5,16.2-26c1.9-9.3-0.3-21.2-8.1-30.7c-8.1-9.7-13.2-13.7-30.1-13.1
	c-16.2,0.6-31.2,27.7-35.9,34.8c-3.6,5.4-7.5,19.7-0.8,32.5c4.6,8.9,12.4,16.9,29,16.9c1.1,0,1.1-1.6,2.1-1.6c0.8,0,2.6-4.6,3.4-4.6
	C231,276.5,240.1,277.3,245.6,269.3z"/>
<path class="st1" d="M148.5,221.2c0,6.1,1.7,7.7,5.6,11.7s5.6,4.6,11.7,4.6s6.7-1.6,10.7-5.6c4-4,9.9-4.6,9.9-10.7S188,207,184,203
	c-4-4-12.1-2.5-18.2-2.5s-10.1,2.7-14.1,6.6C147.7,211.1,148.5,215.2,148.5,221.2z"/>
</svg>
